<?xml version="1.0" encoding="UTF-8" standalone="no"?>
<!-- Created with Inkscape (http://www.inkscape.org/) -->

<svg
   xmlns:dc="http://purl.org/dc/elements/1.1/"
   xmlns:cc="http://creativecommons.org/ns#"
   xmlns:rdf="http://www.w3.org/1999/02/22-rdf-syntax-ns#"
   xmlns:svg="http://www.w3.org/2000/svg"
   xmlns="http://www.w3.org/2000/svg"
   xmlns:sodipodi="http://sodipodi.sourceforge.net/DTD/sodipodi-0.dtd"
   xmlns:inkscape="http://www.inkscape.org/namespaces/inkscape"
   version="1.1"
   id="svg2"
   xml:space="preserve"
   width="673.09332"
   height="255.61333"
   viewBox="0 0 673.09332 255.61333"
   sodipodi:docname="csi_black.svg"
   inkscape:version="0.92.3 (2405546, 2018-03-11)"><metadata
     id="metadata8"><rdf:RDF><cc:Work
         rdf:about=""><dc:format>image/svg+xml</dc:format><dc:type
           rdf:resource="http://purl.org/dc/dcmitype/StillImage" /><dc:title></dc:title></cc:Work></rdf:RDF></metadata><defs
     id="defs6" /><sodipodi:namedview
     pagecolor="#ffffff"
     bordercolor="#666666"
     borderopacity="1"
     objecttolerance="10"
     gridtolerance="10"
     guidetolerance="10"
     inkscape:pageopacity="0"
     inkscape:pageshadow="2"
     inkscape:window-width="1806"
     inkscape:window-height="1578"
     id="namedview4"
     showgrid="false"
     inkscape:zoom="0.9151777"
     inkscape:cx="336.54666"
     inkscape:cy="127.80666"
     inkscape:window-x="0"
     inkscape:window-y="0"
     inkscape:window-maximized="0"
     inkscape:current-layer="g10" /><g
     id="g10"
     inkscape:groupmode="layer"
     inkscape:label="ink_ext_XXXXXX"
     transform="matrix(1.3333333,0,0,-1.3333333,0,255.61333)"><g
       id="g12"
       transform="scale(0.1)"><path
         d="m 2201.86,1766.69 h -24.97 l -4.57,59.35 c -10.38,12.35 -23.9,22.33 -40.54,29.94 -16.66,7.61 -35.9,11.41 -57.75,11.41 -43.68,0 -78.42,-15.89 -104.2,-47.66 -25.78,-31.78 -38.67,-72.83 -38.67,-123.14 v -5.63 c 0,-50.32 12.75,-91.45 38.27,-123.4 25.51,-31.97 59.04,-47.94 100.57,-47.94 22.03,0 42.03,3.84 60.03,11.54 17.99,7.71 32.09,17.64 42.29,29.82 l 4.57,59.34 h 24.97 v -68.75 c -12.17,-16.82 -29.94,-30.88 -53.31,-42.16 -23.36,-11.28 -49.55,-16.92 -78.55,-16.92 -50.13,0 -91.12,18.57 -122.99,55.73 -31.87,37.15 -47.81,84.73 -47.81,142.74 v 5.1 c 0,58.19 15.89,105.85 47.67,143 31.78,37.15 73.36,55.73 124.75,55.73 29,0 54.91,-5.69 77.74,-17.06 22.83,-11.36 40.33,-25.46 52.5,-42.29 v -68.75"
         style="fill:#231f20;fill-opacity:1;fill-rule:nonzero;stroke:none"
         id="path14"
         inkscape:connector-curvature="0" /><path
         d="m 2366.07,1766.69 c -23.63,0 -43.55,-9.09 -59.75,-27.26 -16.2,-18.17 -25.65,-40.95 -28.33,-68.35 l 0.53,-1.35 h 170.27 v 8.07 c 0,25.24 -7.43,46.37 -22.3,63.38 -14.85,17 -35,25.51 -60.42,25.51 z m 4.3,-274.2 c -36.52,0 -66.78,13.39 -90.77,40.15 -24,26.76 -35.99,60.82 -35.99,102.19 v 14.77 c 0,41.53 11.96,75.99 35.85,103.4 23.91,27.38 52.77,41.08 86.61,41.08 35.63,0 63.65,-11.28 84.06,-33.84 20.41,-22.56 30.62,-52.63 30.62,-90.23 v -27.39 h -205.18 v -7.79 c 0,-32.58 8.73,-59.94 26.19,-82.05 17.45,-22.11 40.32,-33.16 68.61,-33.16 19.87,0 36.88,2.77 51.03,8.32 14.14,5.56 26.23,13.52 36.25,23.9 l 13.7,-22.02 c -10.92,-11.45 -24.71,-20.54 -41.36,-27.25 -16.65,-6.72 -36.52,-10.08 -59.62,-10.08"
         style="fill:#231f20;fill-opacity:1;fill-rule:nonzero;stroke:none"
         id="path16"
         inkscape:connector-curvature="0" /><path
         d="m 2514.71,1521.77 43.78,3.49 v 236.06 l -43.78,3.49 v 23.9 h 72.25 l 2.95,-50.75 c 9.31,17.9 21.89,31.73 37.73,41.48 15.85,9.76 34.6,14.64 56.27,14.64 31.5,0 55.5,-9.63 71.97,-28.87 16.47,-19.25 24.71,-49.28 24.71,-90.1 v -149.85 l 43.77,-3.49 v -23.64 h -119.78 v 23.64 l 43.78,3.49 v 149.58 c 0,33.3 -6.23,56.85 -18.67,70.64 -12.44,13.78 -30.12,20.67 -53.04,20.67 -22.55,0 -40.95,-5.95 -55.18,-17.86 -14.24,-11.9 -24.48,-27.7 -30.75,-47.4 v -175.63 l 43.78,-3.49 v -23.64 h -119.79 v 23.64"
         style="fill:#231f20;fill-opacity:1;fill-rule:nonzero;stroke:none"
         id="path18"
         inkscape:connector-curvature="0" /><path
         d="m 2931.1,1863.09 v -74.38 h 63.91 v -26.32 h -63.91 v -189.34 c 0,-18.97 3.44,-32.44 10.34,-40.41 6.88,-7.96 16.06,-11.95 27.53,-11.95 5.18,0 10.24,0.23 15.16,0.68 4.93,0.43 10.62,1.2 17.06,2.27 l 4.83,-23.89 c -5.37,-2.33 -11.91,-4.12 -19.6,-5.37 -7.7,-1.25 -15.4,-1.89 -23.1,-1.89 -20.41,0 -36.3,6.44 -47.66,19.33 -11.38,12.89 -17.06,33.31 -17.06,61.23 v 189.34 h -49.94 v 26.32 h 49.94 v 74.38 h 32.5"
         style="fill:#231f20;fill-opacity:1;fill-rule:nonzero;stroke:none"
         id="path20"
         inkscape:connector-curvature="0" /><path
         d="m 3106.06,1788.71 4.02,-48.34 v -3.49 c 8.24,17.91 19.47,31.91 33.71,42.03 14.23,10.11 31.11,15.17 50.63,15.17 4.11,0 8.09,-0.31 11.94,-0.94 3.85,-0.63 7.03,-1.3 9.54,-2.02 l -4.3,-30.08 -23.9,1.62 c -20.24,0 -36.84,-5.69 -49.82,-17.05 -12.98,-11.37 -22.24,-26.99 -27.8,-46.87 v -173.48 l 43.78,-3.49 v -23.64 h -119.5 v 23.64 l 43.77,3.49 v 236.06 l -43.77,3.49 v 23.9 h 43.77 27.93"
         style="fill:#231f20;fill-opacity:1;fill-rule:nonzero;stroke:none"
         id="path22"
         inkscape:connector-curvature="0" /><path
         d="m 3358.63,1766.69 c -23.64,0 -43.56,-9.09 -59.76,-27.26 -16.2,-18.17 -25.64,-40.95 -28.33,-68.35 l 0.54,-1.35 h 170.26 v 8.07 c 0,25.24 -7.43,46.37 -22.29,63.38 -14.86,17 -35,25.51 -60.42,25.51 z m 4.29,-274.2 c -36.52,0 -66.77,13.39 -90.77,40.15 -23.99,26.76 -35.98,60.82 -35.98,102.19 v 14.77 c 0,41.53 11.95,75.99 35.85,103.4 23.9,27.38 52.77,41.08 86.61,41.08 35.62,0 63.64,-11.28 84.05,-33.84 20.41,-22.56 30.62,-52.63 30.62,-90.23 v -27.39 h -205.17 v -7.79 c 0,-32.58 8.72,-59.94 26.18,-82.05 17.45,-22.11 40.32,-33.16 68.61,-33.16 19.88,0 36.89,2.77 51.03,8.32 14.14,5.56 26.23,13.52 36.25,23.9 l 13.7,-22.02 c -10.92,-11.45 -24.71,-20.54 -41.36,-27.25 -16.65,-6.72 -36.52,-10.08 -59.62,-10.08"
         style="fill:#231f20;fill-opacity:1;fill-rule:nonzero;stroke:none"
         id="path24"
         inkscape:connector-curvature="0" /><path
         d="m 1893.03,1242.39 v 26.32 h 48.06 v 42.43 c 0,29.18 7.35,51.74 22.03,67.68 14.68,15.93 35.18,23.9 61.5,23.9 5.73,0 11.64,-0.45 17.72,-1.34 6.09,-0.9 12.27,-2.15 18.54,-3.76 l -4.04,-26.6 c -4.29,1.08 -8.68,1.93 -13.15,2.56 -4.48,0.63 -9.77,0.94 -15.85,0.94 -17.55,0 -31.02,-5.55 -40.42,-16.65 -9.39,-11.1 -14.1,-26.68 -14.1,-46.73 v -42.43 h 69.3 v -26.32 h -69.3 v -237.13 l 43.78,-3.49 v -23.637 h -119.78 v 23.637 l 43.77,3.49 v 237.13 h -48.06"
         style="fill:#231f20;fill-opacity:1;fill-rule:nonzero;stroke:none"
         id="path26"
         inkscape:connector-curvature="0" /><path
         d="m 2106.92,1118.86 c 0,-33.66 8.5,-61.95 25.51,-84.87 17.01,-22.92 40.73,-34.373 71.17,-34.373 29.89,0 53.35,11.453 70.35,34.373 17.02,22.92 25.52,51.21 25.52,84.87 v 8.86 c 0,33.12 -8.55,61.23 -25.64,84.32 -17.1,23.1 -40.7,34.65 -70.77,34.65 -30.08,0 -53.62,-11.55 -70.63,-34.65 -17.01,-23.09 -25.51,-51.2 -25.51,-84.32 z m -32.22,8.86 c 0,42.79 11.71,77.87 35.17,105.28 23.46,27.38 54.51,41.08 93.19,41.08 38.85,0 70.01,-13.7 93.45,-41.08 23.46,-27.41 35.19,-62.49 35.19,-105.28 v -8.86 c 0,-42.97 -11.68,-78.11 -35.05,-105.41 -23.36,-27.309 -54.38,-40.962 -93.05,-40.962 -39.03,0 -70.27,13.653 -93.73,40.962 -23.46,27.3 -35.17,62.44 -35.17,105.41 v 8.86"
         style="fill:#231f20;fill-opacity:1;fill-rule:nonzero;stroke:none"
         id="path28"
         inkscape:connector-curvature="0" /><path
         d="m 2436.02,1268.71 4.03,-48.34 v -3.49 c 8.24,17.91 19.47,31.91 33.71,42.03 14.23,10.11 31.1,15.17 50.62,15.17 4.11,0 8.1,-0.31 11.95,-0.94 3.85,-0.63 7.03,-1.3 9.54,-2.02 l -4.29,-30.08 -23.92,1.62 c -20.23,0 -36.83,-5.69 -49.81,-17.05 -12.99,-11.37 -22.25,-26.99 -27.8,-46.87 v -173.48 l 43.78,-3.49 v -23.637 h -119.51 v 23.637 l 43.77,3.49 v 236.06 l -43.77,3.49 v 23.9 h 43.77 27.93"
         style="fill:#231f20;fill-opacity:1;fill-rule:nonzero;stroke:none"
         id="path30"
         inkscape:connector-curvature="0" /><path
         d="m 2955.11,1253.13 h -26.31 l -4.57,55.33 c -9.67,12.17 -22.83,21.7 -39.47,28.6 -16.66,6.89 -36.17,10.33 -58.56,10.33 -32.22,0 -57.33,-6.97 -75.32,-20.94 -18,-13.96 -26.99,-31.33 -26.99,-52.11 0,-19.68 8.1,-36.11 24.31,-49.27 16.2,-13.16 44.26,-24.75 84.19,-34.78 42.07,-10.74 74.07,-25.24 96,-43.5 21.94,-18.27 32.9,-42.35 32.9,-72.25 0,-31.15 -12.71,-55.95 -38.13,-74.38 -25.42,-18.441 -57.92,-27.672 -97.48,-27.672 -27.93,0 -53.85,4.934 -77.76,14.778 -23.89,9.843 -43.45,23.894 -58.67,42.154 v 68.49 h 26.31 l 4.57,-57.2 c 11.82,-13.44 26.94,-23.63 45.39,-30.62 18.44,-6.98 38.49,-10.473 60.16,-10.473 30.79,0 55.72,6.813 74.78,20.413 19.07,13.6 28.61,31.6 28.61,53.98 0,21.3 -7.97,38.71 -23.9,52.23 -15.94,13.51 -43.69,25.47 -83.26,35.86 -42.79,10.74 -75.2,24.7 -97.21,41.89 -22.03,17.19 -33.04,40.37 -33.04,69.55 0,29.91 12.53,54.25 37.6,73.05 25.07,18.8 57.38,28.2 96.94,28.2 28.48,0 53.85,-4.93 76.15,-14.77 22.28,-9.84 39.87,-23.18 52.76,-40.01 v -66.88"
         style="fill:#231f20;fill-opacity:1;fill-rule:nonzero;stroke:none"
         id="path32"
         inkscape:connector-curvature="0" /><path
         d="m 3028.29,1118.86 c 0,-33.66 8.5,-61.95 25.51,-84.87 17.01,-22.92 40.73,-34.373 71.17,-34.373 29.9,0 53.35,11.453 70.36,34.373 17.01,22.92 25.51,51.21 25.51,84.87 v 8.86 c 0,33.12 -8.55,61.23 -25.64,84.32 -17.1,23.1 -40.69,34.65 -70.77,34.65 -30.08,0 -53.62,-11.55 -70.63,-34.65 -17.01,-23.09 -25.51,-51.2 -25.51,-84.32 z m -32.22,8.86 c 0,42.79 11.72,77.87 35.17,105.28 23.46,27.38 54.52,41.08 93.19,41.08 38.85,0 70.01,-13.7 93.45,-41.08 23.46,-27.41 35.19,-62.49 35.19,-105.28 v -8.86 c 0,-42.97 -11.68,-78.11 -35.05,-105.41 -23.36,-27.309 -54.37,-40.962 -93.05,-40.962 -39.03,0 -70.27,13.653 -93.73,40.962 -23.45,27.3 -35.17,62.44 -35.17,105.41 v 8.86"
         style="fill:#231f20;fill-opacity:1;fill-rule:nonzero;stroke:none"
         id="path34"
         inkscape:connector-curvature="0" /><path
         d="m 3411.91,999.617 c 21.31,0 40.11,6.083 56.4,18.263 16.29,12.18 24.44,29.09 24.44,50.76 h 28.46 l 0.54,-1.62 c 0.9,-26.86 -9.8,-49.32 -32.09,-67.403 -22.29,-18.086 -48.2,-27.129 -77.75,-27.129 -39.39,0 -69.91,13.567 -91.57,40.692 -21.66,27.12 -32.49,62 -32.49,104.6 v 11.28 c 0,42.26 10.83,76.98 32.49,104.2 21.66,27.22 52.09,40.82 91.3,40.82 22.39,0 42.88,-4.21 61.5,-12.63 18.62,-8.4 33.75,-19.86 45.39,-34.37 l 1.35,-63.38 h -27.41 l -5.09,51.56 c -8.6,9.67 -19.3,17.33 -32.09,22.97 -12.81,5.64 -27.36,8.46 -43.65,8.46 -31.15,0 -54.21,-11.14 -69.15,-33.44 -14.95,-22.29 -22.42,-50.35 -22.42,-84.19 v -11.28 c 0,-34.37 7.42,-62.66 22.29,-84.86 14.86,-22.2 38.04,-33.303 69.55,-33.303"
         style="fill:#231f20;fill-opacity:1;fill-rule:nonzero;stroke:none"
         id="path36"
         inkscape:connector-curvature="0" /><path
         d="m 3637.61,1351.96 h -31.95 v 45.12 h 31.95 z m -75.72,-350.19 43.77,3.49 v 236.06 l -43.77,3.49 v 23.9 h 75.72 v -263.45 l 43.78,-3.49 v -23.637 h -119.5 v 23.637"
         style="fill:#231f20;fill-opacity:1;fill-rule:nonzero;stroke:none"
         id="path38"
         inkscape:connector-curvature="0" /><path
         d="m 3812.57,1000.96 c 23.27,0 43.78,5.38 61.5,16.12 17.73,10.74 30.52,24.61 38.4,41.62 v 58.28 h -64.71 c -29.19,0 -52.51,-6.04 -69.96,-18.13 -17.46,-12.08 -26.2,-27.35 -26.2,-45.8 0,-15.56 5.42,-28.15 16.25,-37.72 10.83,-9.58 25.75,-14.37 44.72,-14.37 z m 105.81,-22.827 c -2.15,9.844 -3.67,18.351 -4.57,25.507 -0.89,7.17 -1.34,14.41 -1.34,21.76 -10.74,-15.22 -25.06,-27.841 -42.96,-37.873 -17.91,-10.019 -38.05,-15.039 -60.42,-15.039 -28.48,0 -50.49,7.344 -66.08,22.032 -15.57,14.68 -23.36,34.55 -23.36,59.61 0,26.85 11.54,48.16 34.65,63.92 23.09,15.76 54.42,23.64 93.98,23.64 h 64.19 v 38.4 c 0,20.77 -6.67,37.06 -20.01,48.87 -13.34,11.82 -32,17.73 -55.99,17.73 -16.12,0 -30.84,-2.2 -44.17,-6.58 -13.34,-4.39 -24.48,-10.34 -33.44,-17.86 l -2.68,-38.94 h -26.59 l 0.27,55.86 c 13.42,10.38 29.49,18.8 48.2,25.24 18.71,6.45 38.63,9.67 59.76,9.67 32.05,0 57.83,-8.14 77.34,-24.44 19.51,-16.29 29.28,-39.65 29.28,-70.09 v -142.87 c 0,-5.91 0.12,-11.59 0.4,-17.05 0.26,-5.47 0.85,-10.79 1.75,-15.99 l 29,-1.87 v -23.637 h -57.21"
         style="fill:#231f20;fill-opacity:1;fill-rule:nonzero;stroke:none"
         id="path40"
         inkscape:connector-curvature="0" /><path
         d="m 3997.2,1373.17 v 23.91 h 75.72 v -391.82 l 43.78,-3.49 v -23.637 h -119.5 v 23.637 l 43.77,3.49 v 364.43 l -43.77,3.48"
         style="fill:#231f20;fill-opacity:1;fill-rule:nonzero;stroke:none"
         id="path42"
         inkscape:connector-curvature="0" /><path
         d="m 1895.98,825.238 v 23.91 h 119.78 v -23.91 l -43.78,-3.476 v -336.5 l 43.78,-3.492 v -23.641 h -119.78 v 23.641 l 43.77,3.492 v 336.5 l -43.77,3.476"
         style="fill:#231f20;fill-opacity:1;fill-rule:nonzero;stroke:none"
         id="path44"
         inkscape:connector-curvature="0" /><path
         d="m 2042.47,481.77 43.78,3.492 V 721.32 l -43.78,3.489 v 23.902 h 72.25 l 2.94,-50.75 c 9.32,17.898 21.9,31.73 37.74,41.48 15.85,9.758 34.6,14.637 56.27,14.637 31.5,0 55.5,-9.629 71.97,-28.867 16.47,-19.242 24.71,-49.281 24.71,-90.102 V 485.262 l 43.77,-3.492 v -23.641 h -119.78 v 23.641 l 43.78,3.492 V 634.84 c 0,33.301 -6.23,56.851 -18.67,70.64 -12.44,13.782 -30.12,20.668 -53.04,20.668 -22.56,0 -40.95,-5.957 -55.18,-17.859 -14.24,-11.898 -24.49,-27.699 -30.75,-47.398 V 485.262 l 43.77,-3.492 v -23.641 h -119.78 v 23.641"
         style="fill:#231f20;fill-opacity:1;fill-rule:nonzero;stroke:none"
         id="path46"
         inkscape:connector-curvature="0" /><path
         d="m 2469.32,724.809 -36.25,-2.688 72.51,-191.211 9.41,-34.101 h 1.6 l 10.22,34.101 71.43,191.211 -36.25,2.688 v 23.902 h 97.75 v -23.902 l -28.47,-2.418 -102.59,-264.262 h -25.78 l -102.85,264.262 -28.48,2.418 v 23.902 h 97.75 v -23.902"
         style="fill:#231f20;fill-opacity:1;fill-rule:nonzero;stroke:none"
         id="path48"
         inkscape:connector-curvature="0" /><path
         d="m 2797.88,726.691 c -23.63,0 -43.55,-9.089 -59.75,-27.261 -16.2,-18.168 -25.65,-40.95 -28.33,-68.352 l 0.54,-1.34 h 170.26 v 8.063 c 0,25.238 -7.43,46.371 -22.3,63.379 -14.85,17 -35,25.511 -60.42,25.511 z m 4.3,-274.203 c -36.52,0 -66.78,13.391 -90.77,40.16 -23.99,26.75 -35.99,60.821 -35.99,102.18 v 14.774 c 0,41.527 11.96,76 35.85,103.398 23.91,27.379 52.78,41.078 86.61,41.078 35.63,0 63.65,-11.277 84.06,-33.84 20.41,-22.547 30.62,-52.629 30.62,-90.226 v -27.391 h -205.17 v -7.793 c 0,-32.578 8.72,-59.937 26.18,-82.047 17.45,-22.109 40.32,-33.16 68.61,-33.16 19.87,0 36.89,2.77 51.03,8.32 14.14,5.559 26.23,13.52 36.25,23.911 l 13.7,-22.032 c -10.92,-11.449 -24.71,-20.539 -41.36,-27.25 -16.65,-6.718 -36.52,-10.082 -59.62,-10.082"
         style="fill:#231f20;fill-opacity:1;fill-rule:nonzero;stroke:none"
         id="path50"
         inkscape:connector-curvature="0" /><path
         d="m 3163.26,659.012 h -26.32 l -3.76,41.097 c -8.06,8.411 -18.23,14.942 -30.48,19.602 -12.27,4.648 -26.37,6.98 -42.31,6.98 -23.44,0 -41.04,-5.062 -52.76,-15.179 -11.73,-10.114 -17.59,-21.973 -17.59,-35.582 0,-13.418 5.05,-24.52 15.17,-33.301 10.12,-8.77 30.3,-16.469 60.56,-23.09 34.56,-7.699 60.42,-18.219 77.61,-31.559 17.19,-13.339 25.78,-31.468 25.78,-54.378 0,-24.18 -9.8,-43.743 -29.4,-58.68 -19.61,-14.953 -45.52,-22.434 -77.74,-22.434 -21.49,0 -41.06,3.012 -58.69,9 -17.63,6 -32.9,14.461 -45.79,25.371 v 58.563 h 26.06 l 4.56,-41.371 c 8.59,-8.59 19.47,-14.813 32.62,-18.66 13.17,-3.852 26.91,-5.77 41.24,-5.77 23.27,0 41.62,5.098 55.04,15.309 13.43,10.199 20.15,22.558 20.15,37.05 0,13.622 -5.61,25.52 -16.79,35.719 -11.19,10.211 -31.37,18.539 -60.55,24.992 -34.56,7.508 -60.21,17.489 -76.95,29.938 -16.74,12.441 -25.1,29.851 -25.1,52.223 0,22.207 9.39,40.957 28.19,56.269 18.8,15.309 43.59,22.957 74.38,22.957 21.31,0 40.79,-3.269 58.42,-9.797 17.63,-6.543 32,-15.351 43.11,-26.461 l 1.34,-58.808"
         style="fill:#231f20;fill-opacity:1;fill-rule:nonzero;stroke:none"
         id="path52"
         inkscape:connector-curvature="0" /><path
         d="m 3283.95,823.102 v -74.391 h 63.91 v -26.32 h -63.91 V 533.059 c 0,-18.981 3.45,-32.457 10.34,-40.411 6.89,-7.968 16.06,-11.957 27.53,-11.957 5.19,0 10.24,0.231 15.17,0.68 4.92,0.438 10.61,1.199 17.06,2.27 l 4.82,-23.891 c -5.37,-2.328 -11.9,-4.129 -19.6,-5.379 -7.69,-1.25 -15.4,-1.883 -23.09,-1.883 -20.41,0 -36.3,6.453 -47.67,19.34 -11.38,12.891 -17.06,33.301 -17.06,61.231 v 189.332 h -49.94 v 26.32 h 49.94 v 74.391 h 32.5"
         style="fill:#231f20;fill-opacity:1;fill-rule:nonzero;stroke:none"
         id="path54"
         inkscape:connector-curvature="0" /><path
         d="m 3462.93,831.961 h -31.95 v 45.117 h 31.95 z m -75.72,-350.191 43.77,3.492 V 721.32 l -43.77,3.489 v 23.902 h 75.72 V 485.262 l 43.78,-3.492 v -23.641 h -119.5 v 23.641"
         style="fill:#231f20;fill-opacity:1;fill-rule:nonzero;stroke:none"
         id="path56"
         inkscape:connector-curvature="0" /><path
         d="m 3576.66,595.359 c 0,-34.898 7.12,-62.789 21.35,-83.648 14.24,-20.859 35.5,-31.289 63.78,-31.289 20.96,0 38.36,4.75 52.24,14.238 13.87,9.488 24.58,22.559 32.1,39.211 V 668.68 c -7.17,17.011 -17.46,30.84 -30.89,41.5 -13.43,10.64 -31.07,15.968 -52.9,15.968 -28.29,0 -49.65,-11.636 -64.06,-34.91 -14.41,-23.269 -21.62,-53.347 -21.62,-90.226 z m -32.22,5.653 c 0,46.359 9.89,83.468 29.67,111.308 19.78,27.84 47.22,41.758 82.31,41.758 20.6,0 38.45,-4.519 53.58,-13.558 15.13,-9.051 27.62,-21.801 37.46,-38.258 l 3.76,46.449 h 27.13 v -286.82 c 0,-37.422 -10.11,-66.961 -30.35,-88.621 -20.23,-21.661 -48.43,-32.5 -84.59,-32.5 -13.96,0 -28.88,1.71 -44.72,5.109 -15.84,3.402 -29.67,8.062 -41.49,13.961 l 8.59,27.121 c 11.64,-5.539 23.86,-9.84 36.66,-12.891 12.8,-3.039 26.27,-4.558 40.41,-4.558 27.58,0 48.34,8.148 62.31,24.437 13.96,16.289 20.96,38.942 20.96,67.942 v 36.789 c -9.86,-14.852 -22.3,-26.27 -37.34,-34.239 -15.04,-7.961 -32.67,-11.953 -52.9,-11.953 -34.92,0 -62.21,12.992 -81.91,38.953 -19.7,25.95 -29.54,60.598 -29.54,103.918 v 5.653"
         style="fill:#231f20;fill-opacity:1;fill-rule:nonzero;stroke:none"
         id="path58"
         inkscape:connector-curvature="0" /><path
         d="m 3928.6,480.969 c 23.27,0 43.78,5.371 61.49,16.109 17.74,10.742 30.53,24.613 38.41,41.621 v 58.281 h -64.72 c -29.19,0 -52.51,-6.039 -69.96,-18.128 -17.46,-12.082 -26.19,-27.352 -26.19,-45.793 0,-15.571 5.42,-28.161 16.25,-37.731 10.83,-9.578 25.74,-14.359 44.72,-14.359 z m 105.81,-22.84 c -2.15,9.851 -3.67,18.351 -4.57,25.512 -0.89,7.168 -1.34,14.418 -1.34,21.757 -10.74,-15.207 -25.07,-27.839 -42.97,-37.867 -17.9,-10.019 -38.05,-15.043 -60.42,-15.043 -28.48,0 -50.49,7.34 -66.07,22.032 -15.57,14.679 -23.36,34.55 -23.36,59.609 0,26.859 11.54,48.16 34.65,63.93 23.08,15.75 54.42,23.632 93.98,23.632 h 64.19 v 38.399 c 0,20.769 -6.67,37.058 -20.01,48.871 -13.34,11.82 -32,17.73 -56,17.73 -16.11,0 -30.84,-2.203 -44.17,-6.582 -13.34,-4.39 -24.48,-10.339 -33.43,-17.847 l -2.69,-38.953 h -26.58 l 0.26,55.863 c 13.43,10.379 29.49,18.797 48.21,25.238 18.71,6.449 38.63,9.668 59.75,9.668 32.05,0 57.83,-8.137 77.34,-24.437 19.52,-16.289 29.28,-39.653 29.28,-70.09 V 516.68 c 0,-5.91 0.13,-11.59 0.4,-17.051 0.27,-5.469 0.85,-10.789 1.75,-15.988 l 29,-1.871 v -23.641 h -57.2"
         style="fill:#231f20;fill-opacity:1;fill-rule:nonzero;stroke:none"
         id="path60"
         inkscape:connector-curvature="0" /><path
         d="m 4193.51,823.102 v -74.391 h 63.92 v -26.32 h -63.92 V 533.059 c 0,-18.981 3.45,-32.457 10.34,-40.411 6.89,-7.968 16.07,-11.957 27.53,-11.957 5.19,0 10.24,0.231 15.17,0.68 4.92,0.438 10.61,1.199 17.06,2.27 l 4.82,-23.891 c -5.37,-2.328 -11.9,-4.129 -19.6,-5.379 -7.69,-1.25 -15.4,-1.883 -23.09,-1.883 -20.41,0 -36.3,6.453 -47.67,19.34 -11.38,12.891 -17.06,33.301 -17.06,61.231 v 189.332 h -49.94 v 26.32 h 49.94 v 74.391 h 32.5"
         style="fill:#231f20;fill-opacity:1;fill-rule:nonzero;stroke:none"
         id="path62"
         inkscape:connector-curvature="0" /><path
         d="m 4372.49,831.961 h -31.95 v 45.117 h 31.95 z m -75.72,-350.191 43.77,3.492 V 721.32 l -43.77,3.489 v 23.902 h 75.72 V 485.262 l 43.78,-3.492 v -23.641 h -119.5 v 23.641"
         style="fill:#231f20;fill-opacity:1;fill-rule:nonzero;stroke:none"
         id="path64"
         inkscape:connector-curvature="0" /><path
         d="m 4484.89,598.859 c 0,-33.668 8.49,-61.949 25.5,-84.871 17.02,-22.918 40.74,-34.367 71.18,-34.367 29.89,0 53.35,11.449 70.35,34.367 17.01,22.922 25.51,51.203 25.51,84.871 v 8.86 c 0,33.121 -8.55,61.23 -25.64,84.32 -17.1,23.109 -40.69,34.652 -70.77,34.652 -30.08,0 -53.61,-11.543 -70.63,-34.652 -17.01,-23.09 -25.5,-51.199 -25.5,-84.32 z m -32.23,8.86 c 0,42.793 11.72,77.883 35.18,105.281 23.45,27.379 54.51,41.078 93.18,41.078 38.86,0 70.01,-13.699 93.46,-41.078 23.45,-27.398 35.18,-62.488 35.18,-105.281 v -8.86 c 0,-42.968 -11.68,-78.109 -35.05,-105.41 -23.36,-27.308 -54.37,-40.961 -93.04,-40.961 -39.04,0 -70.28,13.653 -93.73,40.961 -23.46,27.301 -35.18,62.442 -35.18,105.41 v 8.86"
         style="fill:#231f20;fill-opacity:1;fill-rule:nonzero;stroke:none"
         id="path66"
         inkscape:connector-curvature="0" /><path
         d="m 4738.52,481.77 43.78,3.492 V 721.32 l -43.78,3.489 v 23.902 h 72.25 l 2.94,-50.75 c 9.32,17.898 21.9,31.73 37.74,41.48 15.85,9.758 34.6,14.637 56.27,14.637 31.5,0 55.5,-9.629 71.97,-28.867 16.47,-19.242 24.71,-49.281 24.71,-90.102 V 485.262 l 43.77,-3.492 v -23.641 h -119.78 v 23.641 l 43.78,3.492 V 634.84 c 0,33.301 -6.23,56.851 -18.67,70.64 -12.44,13.782 -30.12,20.668 -53.04,20.668 -22.56,0 -40.95,-5.957 -55.18,-17.859 -14.24,-11.898 -24.49,-27.699 -30.76,-47.398 V 485.262 l 43.78,-3.492 v -23.641 h -119.78 v 23.641"
         style="fill:#231f20;fill-opacity:1;fill-rule:nonzero;stroke:none"
         id="path68"
         inkscape:connector-curvature="0" /><path
         d="m 2021.99,24.3984 h -12.78 l -88.84,134.4996 -0.64,-0.109 V 24.3984 h -12.9 V 180.809 h 12.9 l 88.83,-134.2777 0.65,0.1093 V 180.809 h 12.78 V 24.3984"
         style="fill:#231f20;fill-opacity:1;fill-rule:nonzero;stroke:none"
         id="path70"
         inkscape:connector-curvature="0" /><path
         d="M 2194.38,180.809 V 74.7813 c 0,-17.043 -5.2,-30.0704 -15.63,-39.1016 -10.41,-9.0195 -24.01,-13.5313 -40.76,-13.5313 -16.55,0 -29.93,4.5313 -40.18,13.5821 -10.24,9.0586 -15.36,22.0781 -15.36,39.0508 V 180.809 h 12.89 V 74.8594 c 0,-13.3086 3.94,-23.5899 11.82,-30.8594 7.88,-7.2617 18.15,-10.8984 30.83,-10.8984 12.89,0 23.38,3.6172 31.47,10.8398 8.1,7.2305 12.14,17.5391 12.14,30.918 V 180.809 h 12.78"
         style="fill:#231f20;fill-opacity:1;fill-rule:nonzero;stroke:none"
         id="path72"
         inkscape:connector-curvature="0" /><path
         d="m 2343.47,97.7695 h -76.06 V 24.3984 h -12.78 V 180.809 h 99.79 v -10.957 h -87.01 V 108.73 h 76.06 V 97.7695"
         style="fill:#231f20;fill-opacity:1;fill-rule:nonzero;stroke:none"
         id="path74"
         inkscape:connector-curvature="0" /><path
         d="m 2492.32,97.7695 h -76.05 V 24.3984 h -12.79 V 180.809 h 99.8 v -10.957 h -87.01 V 108.73 h 76.05 V 97.7695"
         style="fill:#231f20;fill-opacity:1;fill-rule:nonzero;stroke:none"
         id="path76"
         inkscape:connector-curvature="0" /><path
         d="m 2568.04,24.3984 h -12.89 V 180.809 h 12.89 V 24.3984"
         style="fill:#231f20;fill-opacity:1;fill-rule:nonzero;stroke:none"
         id="path78"
         inkscape:connector-curvature="0" /><path
         d="m 2721.96,100.141 h -75.31 V 35.3594 h 86.26 v -10.961 h -99.04 V 180.809 h 98.51 v -10.957 h -85.73 V 111.09 h 75.31 v -10.949"
         style="fill:#231f20;fill-opacity:1;fill-rule:nonzero;stroke:none"
         id="path80"
         inkscape:connector-curvature="0" /><path
         d="m 2795.52,35.3594 h 77.34 v -10.961 h -90.23 V 180.809 h 12.89 V 35.3594"
         style="fill:#231f20;fill-opacity:1;fill-rule:nonzero;stroke:none"
         id="path82"
         inkscape:connector-curvature="0" /><path
         d="M 2933.32,169.852 V 35.3594 h 32.66 c 15.47,0 28.2,5.4023 38.18,16.2109 10,10.8008 14.99,24.4688 14.99,41 v 20.3987 c 0,16.312 -5.01,29.871 -15.04,40.672 -10.02,10.808 -22.73,16.211 -38.13,16.211 z M 2920.54,24.3984 V 180.809 h 45.44 c 19.12,0 34.91,-6.379 47.37,-19.118 12.46,-12.75 18.69,-29.113 18.69,-49.089 V 92.5117 c 0,-20.0508 -6.23,-36.4219 -18.69,-49.0898 -12.46,-12.6836 -28.25,-19.0235 -47.37,-19.0235 h -45.44"
         style="fill:#231f20;fill-opacity:1;fill-rule:nonzero;stroke:none"
         id="path84"
         inkscape:connector-curvature="0" /><path
         d="m 3270.15,73.2813 0.21,-0.6407 c -1.35,-15.6914 -6.94,-28.0195 -16.75,-37.0117 -9.82,-8.9883 -22.95,-13.4805 -39.43,-13.4805 -17.4,0 -31.43,6.2813 -42.11,18.8633 -10.67,12.5469 -16,28.8281 -16,48.8086 v 25.4607 c 0,19.91 5.33,36.18 16,48.828 10.68,12.641 24.71,18.961 42.11,18.961 16.61,0 29.8,-4.41 39.53,-13.218 9.74,-8.813 15.3,-21.204 16.65,-37.161 l -0.21,-0.652 h -12.03 c -1.72,12.961 -6.17,22.883 -13.38,29.762 -7.19,6.871 -17.38,10.308 -30.56,10.308 -13.68,0 -24.66,-5.289 -32.92,-15.89 -8.28,-10.59 -12.41,-24.149 -12.41,-40.68 V 89.8906 c 0,-16.75 4.13,-30.4023 12.41,-40.9492 8.26,-10.5625 19.24,-15.8398 32.92,-15.8398 13.18,0 23.38,3.3593 30.62,10.0703 7.23,6.7187 11.67,16.75 13.32,30.1094 h 12.03"
         style="fill:#231f20;fill-opacity:1;fill-rule:nonzero;stroke:none"
         id="path86"
         inkscape:connector-curvature="0" /><path
         d="m 3426.86,115.41 c 0,16.918 -4.28,30.559 -12.84,40.879 -8.56,10.332 -20.42,15.5 -35.61,15.5 -14.89,0 -26.49,-5.168 -34.8,-15.5 -8.31,-10.32 -12.46,-23.961 -12.46,-40.879 V 89.6992 c 0,-17.0703 4.17,-30.7695 12.52,-41.1094 8.34,-10.3203 19.96,-15.4882 34.85,-15.4882 15.25,0 27.12,5.1484 35.61,15.4375 8.48,10.3007 12.73,24.0195 12.73,41.1601 z m 12.78,-25.5897 c 0,-20.1914 -5.53,-36.5195 -16.6,-48.9805 -11.05,-12.4609 -25.9,-18.6914 -44.52,-18.6914 -18.33,0 -32.96,6.2305 -43.88,18.6914 -10.93,12.461 -16.38,28.7891 -16.38,48.9805 v 25.4607 c 0,20.129 5.43,36.457 16.32,48.989 10.89,12.531 25.5,18.8 43.83,18.8 18.62,0 33.48,-6.269 44.58,-18.8 11.11,-12.532 16.65,-28.86 16.65,-48.989 V 89.8203"
         style="fill:#231f20;fill-opacity:1;fill-rule:nonzero;stroke:none"
         id="path88"
         inkscape:connector-curvature="0" /><path
         d="m 3508.37,35.3594 h 77.35 v -10.961 h -90.24 V 180.809 h 12.89 V 35.3594"
         style="fill:#231f20;fill-opacity:1;fill-rule:nonzero;stroke:none"
         id="path90"
         inkscape:connector-curvature="0" /><path
         d="m 3646.28,35.3594 h 77.35 v -10.961 h -90.24 V 180.809 h 12.89 V 35.3594"
         style="fill:#231f20;fill-opacity:1;fill-rule:nonzero;stroke:none"
         id="path92"
         inkscape:connector-curvature="0" /><path
         d="m 3859.38,100.141 h -75.3 V 35.3594 h 86.26 v -10.961 h -99.05 V 180.809 h 98.51 v -10.957 h -85.72 V 111.09 h 75.3 v -10.949"
         style="fill:#231f20;fill-opacity:1;fill-rule:nonzero;stroke:none"
         id="path94"
         inkscape:connector-curvature="0" /><path
         d="m 4031.66,42.9883 c -3.5,-5.0899 -9.9,-9.8399 -19.18,-14.2266 -9.26,-4.4101 -20.95,-6.6133 -35.06,-6.6133 -18.2,0 -33.11,6.1914 -44.74,18.5821 -11.64,12.3906 -17.46,28.4297 -17.46,48.1289 v 28.6796 c 0,19.332 5.53,35.09 16.6,47.262 11.05,12.179 25.4,18.269 43.02,18.269 16.82,0 29.99,-4.211 39.48,-12.629 9.48,-8.41 14.98,-19.351 16.48,-32.812 l -0.21,-0.649 h -11.92 c -1.87,10.461 -6.27,18.93 -13.22,25.411 -6.94,6.48 -17.15,9.718 -30.61,9.718 -14.04,0 -25.33,-5.078 -33.9,-15.25 -8.55,-10.148 -12.83,-23.179 -12.83,-39.07 V 88.9297 c 0,-16.3203 4.55,-29.6992 13.64,-40.1484 9.09,-10.4532 20.99,-15.6797 35.67,-15.6797 10.38,0 19.2,1.4492 26.47,4.3476 7.28,2.8906 12.24,6.0625 14.88,9.4805 v 40.75 h -41.57 v 10.9492 h 54.46 V 42.9883"
         style="fill:#231f20;fill-opacity:1;fill-rule:nonzero;stroke:none"
         id="path96"
         inkscape:connector-curvature="0" /><path
         d="m 4180.64,100.141 h -75.3 V 35.3594 h 86.26 v -10.961 h -99.05 V 180.809 h 98.51 v -10.957 h -85.72 V 111.09 h 75.3 v -10.949"
         style="fill:#231f20;fill-opacity:1;fill-rule:nonzero;stroke:none"
         id="path98"
         inkscape:connector-curvature="0" /><path
         d="m 720.301,1069.9 c 3.976,10.21 9.453,20.04 15.254,29.91 2.902,5.01 5.949,9.83 8.847,15.12 2.95,5.38 5.524,11.18 7.536,16.8 4.023,11.51 6.316,23.17 8.566,34.31 l 1.59,8.37 0.418,2.06 c 0,0.14 0.093,0.8 0.144,0.8 l 0.235,0.93 c 0.418,1.36 0.703,2.9 1.121,3.98 1.308,4.12 3.883,8.75 6.926,12.4 6.132,7.63 14.929,12.97 24.339,15.63 18.813,5.72 39.688,-1.3 50.731,-14.92 5.711,-6.56 8.191,-14.84 9.64,-23.78 1.45,-9.03 2.856,-18.25 5.008,-27 2.106,-8.85 5.383,-17.37 9.129,-24.67 3.653,-7.39 7.442,-13.95 10.809,-20.03 7.023,-12.54 13.011,-22.84 16.566,-31.64 3.653,-8.79 5.106,-15.82 5.617,-20.63 0.192,-2.34 0.332,-4.26 0.332,-5.49 v -1.63 c -0.097,-0.89 -0.285,-3.56 -0.703,-7.86 -0.281,-2.67 -1.031,-5.25 -1.683,-8.71 -1.082,-3.37 -1.922,-7.44 -3.981,-11.56 -3.512,-8.52 -9.547,-18.204 -18.812,-27.188 -9.176,-9.082 -21.953,-16.942 -37.258,-21.903 -7.676,-2.297 -15.82,-4.168 -24.477,-4.59 l -1.593,-0.136 c 0,0 -0.981,0 -1.399,0 h -3.562 c -2.387,0 -4.868,-0.051 -6.828,0.136 -2.157,0.188 -4.258,0.282 -6.461,0.469 -2.247,0.375 -4.543,0.703 -6.789,1.078 -18.063,3.321 -36.739,11.422 -51.243,25.133 -14.605,13.524 -24.293,32.711 -24.527,54.051 0,9.74 2.387,20.55 6.508,30.56 z m 7.015,-96.076 c 16.895,-16.617 38.145,-26.164 58.973,-30.476 2.672,-0.508 5.285,-0.926 7.863,-1.395 2.668,-0.332 5.477,-0.469 8.098,-0.703 2.855,-0.285 5.145,-0.285 7.535,-0.187 l 3.555,0.039 c 0.75,0 0.75,0 2.152,0.097 l 1.875,0.137 c 10.106,0.617 19.656,3 28.594,5.762 17.691,5.988 32.527,15.488 43.34,26.347 10.953,10.762 17.926,22.512 22.039,32.765 2.344,5 3.328,9.92 4.59,13.99 0.75,4.35 1.687,8.24 1.871,11.05 0.422,5.33 0.703,8.28 0.703,8.28 v 0.61 c 0,0 0,0.84 -0.047,2.38 -0.094,1.6 -0.234,3.89 -0.656,6.88 -0.746,5.95 -2.758,14.65 -7.156,24.48 -4.356,9.92 -11.004,20.69 -18.067,32.72 -7.164,12.45 -15.73,25.08 -19.66,41.04 -2.246,8 -3.695,16.71 -5.43,26.07 -1.726,9.4 -4.961,20.45 -12.402,29.11 -9.688,11.65 -24.477,19.05 -40.156,20.64 0.097,0.04 0.097,0.14 0.097,0.19 l 0.043,0.37 c 0,0 0.285,2.76 0.235,6.41 0,3.75 -0.278,8.8 -1.215,13.71 -0.981,4.97 -2.574,9.83 -4.258,13.25 -0.887,1.73 -1.641,3.14 -2.344,4.12 -0.562,0.89 -0.98,1.45 -0.98,1.45 -0.891,1.4 -2.668,1.97 -4.258,1.26 -1.734,-0.74 -2.574,-2.76 -1.828,-4.54 l 0.144,-0.42 c 0,0 0.235,-0.47 0.563,-1.31 0.418,-0.75 0.836,-2.01 1.355,-3.46 0.891,-3 1.493,-7.21 1.59,-11.47 0.047,-4.21 -0.375,-8.47 -0.937,-11.7 -0.465,-3.18 -1.028,-5.01 -1.028,-5.01 -0.144,-0.33 -0.187,-0.74 -0.187,-1.17 -0.098,-0.65 -0.098,-1.21 0.043,-1.78 -3.274,-0.23 -6.551,-0.88 -9.828,-1.77 -11.512,-3.09 -22.508,-9.5 -30.606,-19.19 -4.07,-4.92 -7.301,-10.15 -9.453,-16.85 -0.562,-1.45 -0.844,-2.71 -1.265,-4.12 l -0.282,-1.02 -0.277,-1.41 -0.422,-2.11 -1.734,-8.37 c -2.293,-11.14 -4.68,-22.09 -8.422,-32.34 -1.965,-5.16 -4.121,-9.93 -6.836,-14.7 -2.715,-4.78 -5.848,-9.83 -8.84,-14.74 -11.801,-19.94 -24.437,-41.7 -24.762,-67.91 0.098,-11.99 2.387,-24.67 7.442,-35.76 5.05,-11.136 12.215,-21.058 20.636,-29.246"
         style="fill:#231f20;fill-opacity:1;fill-rule:nonzero;stroke:none"
         id="path100"
         inkscape:connector-curvature="0" /><path
         d="m 796.047,329.859 v -0.109 c -0.039,-0.27 -0.059,-0.52 -0.039,-0.789 -0.02,-0.09 -0.02,-0.191 -0.02,-0.313 0,-0.277 0.02,-0.57 0.039,-0.859 0.039,-0.289 0.075,-0.559 0.114,-0.828 0.019,-0.063 0.019,-0.109 0.039,-0.152 0.906,-4.887 5.195,-8.579 10.328,-8.579 5.808,0 10.515,4.711 10.515,10.52 0,2.23 -0.687,4.309 -1.882,6 -1.036,1.5 -2.551,2.629 -4.133,3.5 -0.664,0.359 0.078,1.371 0.828,3.301 0.957,2.5 1.902,7.808 -5.848,13.347 0,0 3.961,-5.058 1.711,-9.046 -2.285,-4.082 -10.804,-6.743 -11.652,-15.993"
         style="fill:#231f20;fill-opacity:1;fill-rule:nonzero;stroke:none"
         id="path102"
         inkscape:connector-curvature="0" /><path
         d="m 1190.23,1069.9 c 3.98,10.21 9.5,20.04 15.31,29.91 2.9,5.01 5.89,9.83 8.84,15.12 2.9,5.38 5.48,11.18 7.54,16.8 4.02,11.51 6.32,23.17 8.47,34.31 l 1.68,8.37 0.33,2.06 c 0.09,0.14 0.14,0.8 0.14,0.8 l 0.28,0.93 c 0.43,1.36 0.7,2.9 1.12,3.98 1.36,4.12 3.94,8.75 6.98,12.4 6.13,7.63 14.93,12.97 24.34,15.63 18.81,5.72 39.64,-1.3 50.73,-14.92 5.71,-6.56 8.14,-14.84 9.64,-23.78 1.45,-9.03 2.85,-18.25 5.01,-27 2.06,-8.85 5.34,-17.37 9.12,-24.67 3.61,-7.39 7.45,-13.95 10.81,-20.03 6.98,-12.54 13.02,-22.84 16.57,-31.64 3.65,-8.79 5.1,-15.82 5.57,-20.63 0.24,-2.34 0.37,-4.26 0.37,-5.49 v -1.63 c -0.09,-0.89 -0.37,-3.56 -0.69,-7.86 -0.29,-2.67 -1.08,-5.25 -1.69,-8.71 -1.12,-3.37 -1.97,-7.44 -3.98,-11.56 -3.56,-8.52 -9.54,-18.204 -18.81,-27.188 -9.22,-9.082 -22.05,-16.942 -37.31,-21.903 -7.62,-2.297 -15.81,-4.168 -24.42,-4.59 l -1.64,-0.136 c 0,0 -0.94,0 -1.36,0 h -3.56 c -2.38,0 -4.91,-0.051 -6.83,0.136 -2.15,0.188 -4.26,0.282 -6.5,0.469 -2.2,0.375 -4.54,0.703 -6.75,1.078 -18.06,3.321 -36.73,11.422 -51.24,25.133 -14.65,13.524 -24.34,32.711 -24.53,54.051 0,9.74 2.39,20.55 6.46,30.56 z m 7.07,-96.076 c 16.85,-16.617 38.1,-26.164 58.97,-30.476 2.62,-0.508 5.29,-0.926 7.86,-1.395 2.67,-0.332 5.43,-0.469 8.1,-0.703 2.86,-0.285 5.15,-0.285 7.53,-0.187 l 3.56,0.039 c 0.75,0 0.75,0 2.15,0.097 l 1.88,0.137 c 10.1,0.617 19.66,3 28.59,5.762 17.69,5.988 32.53,15.488 43.34,26.347 10.95,10.762 17.93,22.512 22,32.765 2.39,5 3.37,9.92 4.63,13.99 0.75,4.35 1.64,8.24 1.87,11.05 0.42,5.33 0.7,8.28 0.7,8.28 v 0.61 c 0,0 0,0.84 -0.09,2.38 -0.05,1.6 -0.28,3.89 -0.61,6.88 -0.75,5.95 -2.81,14.65 -7.16,24.48 -4.35,9.92 -11.04,20.69 -18.06,32.72 -7.21,12.45 -15.77,25.08 -19.66,41.04 -2.25,8 -3.7,16.71 -5.43,26.07 -1.78,9.4 -4.96,20.45 -12.4,29.11 -9.69,11.65 -24.48,19.05 -40.16,20.64 0.05,0.04 0.05,0.14 0.05,0.19 v 0.37 c 0,0 0.38,2.76 0.28,6.41 0,3.75 -0.28,8.8 -1.17,13.71 -0.98,4.97 -2.57,9.83 -4.26,13.25 -0.89,1.73 -1.68,3.14 -2.38,4.12 -0.61,0.89 -0.94,1.45 -0.94,1.45 -0.94,1.4 -2.67,1.97 -4.26,1.26 -1.73,-0.74 -2.57,-2.76 -1.83,-4.54 l 0.15,-0.42 c 0,0 0.23,-0.47 0.56,-1.31 0.42,-0.75 0.84,-2.01 1.31,-3.46 0.93,-3 1.54,-7.21 1.64,-11.47 0.04,-4.21 -0.38,-8.47 -0.94,-11.7 -0.47,-3.18 -1.03,-5.01 -1.03,-5.01 -0.14,-0.33 -0.24,-0.74 -0.24,-1.17 -0.04,-0.65 -0.04,-1.21 0.1,-1.78 -3.28,-0.23 -6.55,-0.88 -9.83,-1.77 -11.51,-3.09 -22.51,-9.5 -30.61,-19.19 -4.11,-4.92 -7.3,-10.15 -9.54,-16.85 -0.47,-1.45 -0.76,-2.71 -1.18,-4.12 l -0.28,-1.02 -0.28,-1.41 -0.42,-2.11 -1.73,-8.37 c -2.3,-11.14 -4.68,-22.09 -8.47,-32.34 -1.92,-5.16 -4.07,-9.93 -6.79,-14.7 -2.76,-4.78 -5.89,-9.83 -8.89,-14.74 -11.75,-19.94 -24.38,-41.7 -24.71,-67.91 0.05,-11.99 2.34,-24.67 7.44,-35.76 5.01,-11.136 12.22,-21.058 20.64,-29.246"
         style="fill:#231f20;fill-opacity:1;fill-rule:nonzero;stroke:none"
         id="path104"
         inkscape:connector-curvature="0" /><path
         d="m 790.746,316.031 c -0.031,0.028 -0.09,0.039 -0.137,0.078 -0.25,0.102 -0.504,0.211 -0.773,0.332 -0.273,0.079 -0.543,0.168 -0.824,0.25 -0.114,0.028 -0.203,0.059 -0.301,0.059 -0.254,0.09 -0.504,0.129 -0.773,0.16 l -0.114,0.031 c -9.156,1.547 -13.898,-6.011 -18.426,-7.179 -4.437,-1.16 -8.32,3.957 -8.32,3.957 3.379,-8.91 8.754,-9.348 11.414,-9.047 2.067,0.219 3.223,0.68 3.41,-0.051 0.43,-1.75 1.145,-3.512 2.325,-4.891 1.332,-1.589 3.164,-2.789 5.32,-3.351 5.617,-1.488 11.375,1.859 12.859,7.48 1.309,4.961 -1.168,10.063 -5.66,12.172"
         style="fill:#231f20;fill-opacity:1;fill-rule:nonzero;stroke:none"
         id="path106"
         inkscape:connector-curvature="0" /><path
         d="m 1288.33,731.371 c 2.07,0.219 3.23,0.68 3.41,-0.051 0.43,-1.75 1.14,-3.511 2.33,-4.89 1.33,-1.59 3.16,-2.789 5.32,-3.352 5.61,-1.488 11.37,1.863 12.85,7.481 1.31,4.972 -1.16,10.05 -5.65,12.171 -0.04,0.032 -0.09,0.04 -0.14,0.079 -0.26,0.113 -0.5,0.211 -0.77,0.32 -0.28,0.09 -0.55,0.191 -0.83,0.262 -0.11,0.031 -0.2,0.058 -0.3,0.058 -0.26,0.082 -0.5,0.129 -0.78,0.16 l -0.1,0.032 c -9.16,1.55 -13.91,-6.012 -18.43,-7.192 -4.45,-1.148 -8.32,3.973 -8.32,3.973 3.38,-8.91 8.75,-9.352 11.41,-9.051"
         style="fill:#231f20;fill-opacity:1;fill-rule:nonzero;stroke:none"
         id="path108"
         inkscape:connector-curvature="0" /><path
         d="m 163.539,1649.57 c -6.555,-42.77 -38.254,-94.95 -44.309,-104.61 -0.203,-0.34 0.133,-0.76 0.43,-0.54 l 21.102,15.49 c 0.398,0.3 0.898,-0.16 0.75,-0.68 l -10.383,-37.74 c -0.109,-0.38 0.305,-0.67 0.535,-0.36 l 23.047,29.87 c 0.281,0.37 0.801,0.2 0.879,-0.28 l 8.687,-51.98 c 0.067,-0.4 0.555,-0.4 0.625,0 l 8.703,51.98 c 0.086,0.48 0.598,0.65 0.879,0.28 l 23.047,-29.87 c 0.235,-0.31 0.653,-0.02 0.539,0.36 l -10.386,37.74 c -0.141,0.52 0.355,0.98 0.757,0.68 l 21.094,-15.49 c 0.297,-0.22 0.637,0.2 0.43,0.54 -6.055,9.66 -37.77,61.84 -44.328,104.61 -0.215,1.39 -1.883,1.39 -2.098,0"
         style="fill:#231f20;fill-opacity:1;fill-rule:nonzero;stroke:none"
         id="path110"
         inkscape:connector-curvature="0" /><path
         d="m 805.449,1649.57 c -6.558,-42.77 -38.254,-94.95 -44.308,-104.61 -0.203,-0.34 0.132,-0.76 0.429,-0.54 l 21.094,15.49 c 0.406,0.3 0.902,-0.16 0.758,-0.68 l -10.387,-37.74 c -0.113,-0.38 0.309,-0.67 0.539,-0.36 l 23.047,29.87 c 0.281,0.37 0.797,0.2 0.879,-0.28 l 8.684,-51.98 c 0.07,-0.4 0.558,-0.4 0.625,0 l 8.707,51.98 c 0.082,0.48 0.597,0.65 0.879,0.28 l 23.046,-29.87 c 0.235,-0.31 0.649,-0.02 0.539,0.36 l -10.386,37.74 c -0.141,0.52 0.355,0.98 0.758,0.68 l 21.093,-15.49 c 0.297,-0.22 0.633,0.2 0.43,0.54 -6.055,9.66 -37.77,61.84 -44.332,104.61 -0.211,1.39 -1.879,1.39 -2.094,0"
         style="fill:#231f20;fill-opacity:1;fill-rule:nonzero;stroke:none"
         id="path112"
         inkscape:connector-curvature="0" /><path
         d="m 843.617,309.762 c -4.527,1.168 -9.269,8.726 -18.429,7.179 l -0.106,-0.031 c -0.273,-0.031 -0.519,-0.07 -0.777,-0.16 -0.098,0 -0.192,-0.031 -0.301,-0.059 -0.281,-0.082 -0.555,-0.171 -0.828,-0.25 -0.266,-0.121 -0.516,-0.23 -0.77,-0.332 -0.051,-0.039 -0.101,-0.05 -0.136,-0.078 -4.493,-2.109 -6.969,-7.211 -5.661,-12.172 1.485,-5.621 7.243,-8.968 12.856,-7.48 2.16,0.562 3.992,1.762 5.324,3.351 1.18,1.379 1.895,3.141 2.328,4.891 0.18,0.731 1.34,0.27 3.403,0.051 2.664,-0.301 8.039,0.137 11.418,9.047 0,0 -3.879,-5.117 -8.321,-3.957"
         style="fill:#231f20;fill-opacity:1;fill-rule:nonzero;stroke:none"
         id="path114"
         inkscape:connector-curvature="0" /><path
         d="m 1321.29,730.5 c -6.56,-42.781 -38.26,-94.949 -44.31,-104.609 -0.2,-0.332 0.13,-0.75 0.43,-0.539 l 21.09,15.5 c 0.41,0.289 0.91,-0.172 0.76,-0.692 l -10.38,-37.738 c -0.12,-0.383 0.3,-0.66 0.53,-0.363 l 23.05,29.871 c 0.28,0.359 0.8,0.199 0.88,-0.282 l 8.68,-51.968 c 0.07,-0.399 0.56,-0.399 0.63,0 l 8.71,51.968 c 0.08,0.481 0.59,0.641 0.87,0.282 l 23.05,-29.871 c 0.23,-0.297 0.65,-0.02 0.54,0.363 l -10.39,37.738 c -0.14,0.52 0.35,0.981 0.76,0.692 l 21.09,-15.5 c 0.3,-0.211 0.64,0.207 0.43,0.539 -6.06,9.66 -37.77,61.828 -44.33,104.609 -0.21,1.379 -1.88,1.379 -2.09,0"
         style="fill:#231f20;fill-opacity:1;fill-rule:nonzero;stroke:none"
         id="path116"
         inkscape:connector-curvature="0" /><path
         d="m 245.59,1069.9 c 3.98,10.21 9.551,20.04 15.308,29.91 2.899,5.01 5.895,9.83 8.797,15.12 2.993,5.38 5.524,11.18 7.535,16.8 4.118,11.51 6.411,23.17 8.567,34.31 l 1.59,8.37 0.418,2.06 c 0,0.14 0.144,0.8 0.144,0.8 l 0.278,0.93 c 0.375,1.36 0.66,2.9 1.078,3.98 1.308,4.12 3.883,8.75 6.925,12.4 6.18,7.63 15.024,12.97 24.34,15.63 18.813,5.72 39.731,-1.3 50.825,-14.92 5.617,-6.56 8.097,-14.84 9.546,-23.78 1.45,-9.03 2.856,-18.25 5.102,-27 2.012,-8.85 5.289,-17.37 9.035,-24.67 3.695,-7.39 7.485,-13.95 10.852,-20.03 6.98,-12.54 12.968,-22.84 16.523,-31.64 3.699,-8.79 5.106,-15.82 5.617,-20.63 0.282,-2.34 0.328,-4.26 0.328,-5.49 0,-0.79 0.047,-1.25 0.047,-1.63 -0.093,-0.89 -0.328,-3.56 -0.746,-7.86 -0.281,-2.67 -1.031,-5.25 -1.691,-8.71 -1.074,-3.37 -1.918,-7.44 -3.973,-11.56 -3.512,-8.52 -9.453,-18.204 -18.812,-27.188 -9.176,-9.082 -21.953,-16.942 -37.207,-21.903 -7.676,-2.297 -15.871,-4.168 -24.528,-4.59 l -1.593,-0.136 c 0,0 -0.981,0 -1.399,0 h -3.562 c -2.387,0 -4.817,-0.051 -6.829,0.136 -2.156,0.188 -4.257,0.282 -6.46,0.469 -2.247,0.375 -4.493,0.703 -6.79,1.078 -18.062,3.321 -36.738,11.422 -51.199,25.133 -14.601,13.524 -24.336,32.711 -24.57,54.051 0,9.74 2.437,20.55 6.504,30.56 z m 7.019,-96.076 c 16.895,-16.617 38.196,-26.164 59.063,-30.476 2.625,-0.508 5.195,-0.926 7.773,-1.395 2.711,-0.332 5.477,-0.469 8.192,-0.703 2.758,-0.285 5.144,-0.285 7.484,-0.187 l 3.559,0.039 c 0.797,0 0.797,0 2.199,0.097 l 1.875,0.137 c 10.012,0.617 19.559,3 28.5,5.762 17.781,5.988 32.621,15.488 43.34,26.347 10.953,10.762 17.969,22.512 22.09,32.765 2.289,5 3.277,9.92 4.539,13.99 0.84,4.35 1.687,8.24 1.871,11.05 0.511,5.33 0.703,8.28 0.703,8.28 v 0.61 c 0,0 0,0.84 -0.047,2.38 0,1.6 -0.234,3.89 -0.562,6.88 -0.797,5.95 -2.856,14.65 -7.258,24.48 -4.301,9.92 -10.996,20.69 -18.059,32.72 -7.164,12.45 -15.68,25.08 -19.66,41.04 -2.152,8 -3.695,16.71 -5.336,26.07 -1.828,9.4 -4.961,20.45 -12.496,29.11 -9.688,11.56 -24.383,19.05 -40.059,20.64 v 0.19 l 0.043,0.37 c 0,0 0.282,2.76 0.282,6.41 -0.047,3.75 -0.325,8.8 -1.262,13.71 -0.887,4.97 -2.574,9.83 -4.262,13.25 -0.891,1.73 -1.637,3.14 -2.289,4.12 -0.613,0.89 -0.984,1.45 -0.984,1.45 -0.887,1.4 -2.715,1.97 -4.305,1.26 -1.734,-0.74 -2.574,-2.76 -1.828,-4.54 l 0.234,-0.42 c 0,0 0.188,-0.47 0.563,-1.31 0.328,-0.75 0.84,-2.01 1.265,-3.46 0.891,-3 1.59,-7.21 1.637,-11.47 0.09,-4.21 -0.422,-8.47 -0.891,-11.7 -0.562,-3.18 -1.121,-5.01 -1.121,-5.01 -0.05,-0.33 -0.144,-0.74 -0.187,-1.17 -0.098,-0.65 -0.098,-1.21 0.043,-1.78 -3.274,-0.23 -6.551,-0.88 -9.828,-1.77 -11.512,-3.09 -22.508,-9.5 -30.606,-19.19 -4.023,-4.92 -7.207,-10.15 -9.453,-16.85 -0.562,-1.45 -0.75,-2.71 -1.172,-4.12 l -0.277,-1.02 -0.375,-1.41 -0.422,-2.11 -1.734,-8.37 c -2.293,-11.14 -4.582,-22.09 -8.422,-32.34 -1.875,-5.16 -4.121,-9.93 -6.785,-14.7 -2.715,-4.78 -5.899,-9.83 -8.848,-14.74 -11.844,-19.94 -24.43,-41.7 -24.805,-67.91 0.141,-11.99 2.387,-24.67 7.532,-35.76 4.96,-11.136 12.218,-21.058 20.546,-29.246"
         style="fill:#231f20;fill-opacity:1;fill-rule:nonzero;stroke:none"
         id="path118"
         inkscape:connector-curvature="0" /><path
         d="m 300.773,730.559 c 1.481,-5.618 7.239,-8.969 12.856,-7.481 2.156,0.563 3.988,1.762 5.32,3.352 1.188,1.379 1.895,3.14 2.328,4.89 0.184,0.731 1.344,0.27 3.411,0.051 2.656,-0.301 8.035,0.141 11.41,9.051 0,0 -3.879,-5.121 -8.321,-3.973 -4.527,1.18 -9.269,8.742 -18.422,7.192 l -0.113,-0.032 c -0.273,-0.031 -0.519,-0.078 -0.773,-0.16 -0.098,0 -0.196,-0.027 -0.301,-0.058 -0.277,-0.071 -0.559,-0.172 -0.832,-0.262 -0.266,-0.109 -0.516,-0.207 -0.766,-0.32 -0.054,-0.039 -0.105,-0.047 -0.14,-0.079 -4.492,-2.121 -6.969,-7.199 -5.657,-12.171"
         style="fill:#231f20;fill-opacity:1;fill-rule:nonzero;stroke:none"
         id="path120"
         inkscape:connector-curvature="0" /><path
         d="m 289.613,730.5 c -6.558,-42.781 -38.258,-94.949 -44.308,-104.609 -0.207,-0.332 0.129,-0.75 0.425,-0.539 l 21.098,15.5 c 0.402,0.289 0.899,-0.172 0.754,-0.692 l -10.387,-37.738 c -0.105,-0.383 0.309,-0.66 0.539,-0.363 l 23.051,29.871 c 0.278,0.359 0.797,0.199 0.875,-0.282 l 8.684,-51.968 c 0.07,-0.399 0.558,-0.399 0.625,0 l 8.711,51.968 c 0.078,0.481 0.597,0.641 0.875,0.282 l 23.05,-29.871 c 0.231,-0.297 0.649,-0.02 0.54,0.363 l -10.387,37.738 c -0.145,0.52 0.351,0.981 0.754,0.692 l 21.097,-15.5 c 0.293,-0.211 0.629,0.207 0.426,0.539 -6.055,9.66 -37.769,61.828 -44.328,104.609 -0.215,1.379 -1.883,1.379 -2.094,0"
         style="fill:#231f20;fill-opacity:1;fill-rule:nonzero;stroke:none"
         id="path122"
         inkscape:connector-curvature="0" /><path
         d="m 805.449,303.801 c -6.558,-42.781 -38.254,-94.949 -44.308,-104.621 -0.203,-0.321 0.132,-0.739 0.429,-0.532 l 21.094,15.493 c 0.406,0.3 0.902,-0.161 0.758,-0.68 l -10.387,-37.742 c -0.113,-0.379 0.309,-0.66 0.539,-0.36 l 23.047,29.871 c 0.281,0.372 0.797,0.2 0.879,-0.281 l 8.684,-51.98 c 0.07,-0.399 0.558,-0.399 0.625,0 l 8.707,51.98 c 0.082,0.481 0.597,0.653 0.879,0.281 l 23.046,-29.871 c 0.235,-0.3 0.649,-0.019 0.539,0.36 l -10.386,37.742 c -0.141,0.519 0.355,0.98 0.758,0.68 l 21.093,-15.493 c 0.297,-0.207 0.633,0.211 0.43,0.543 -6.055,9.661 -37.77,61.829 -44.332,104.61 -0.211,1.39 -1.879,1.39 -2.094,0"
         style="fill:#231f20;fill-opacity:1;fill-rule:nonzero;stroke:none"
         id="path124"
         inkscape:connector-curvature="0" /><path
         d="m 1447.36,1649.57 c -6.56,-42.77 -38.25,-94.95 -44.31,-104.61 -0.2,-0.34 0.13,-0.76 0.43,-0.54 l 21.1,15.49 c 0.4,0.3 0.9,-0.16 0.75,-0.68 l -10.39,-37.74 c -0.11,-0.38 0.31,-0.67 0.54,-0.36 l 23.05,29.87 c 0.28,0.37 0.8,0.2 0.88,-0.28 l 8.68,-51.98 c 0.07,-0.4 0.56,-0.4 0.63,0 l 8.71,51.98 c 0.08,0.48 0.59,0.65 0.87,0.28 l 23.05,-29.87 c 0.24,-0.31 0.65,-0.02 0.54,0.36 l -10.39,37.74 c -0.14,0.52 0.35,0.98 0.76,0.68 l 21.09,-15.49 c 0.3,-0.22 0.64,0.2 0.43,0.54 -6.05,9.66 -37.77,61.84 -44.33,104.61 -0.21,1.39 -1.88,1.39 -2.09,0"
         style="fill:#231f20;fill-opacity:1;fill-rule:nonzero;stroke:none"
         id="path126"
         inkscape:connector-curvature="0" /><path
         d="m 280.305,753.66 c 0.019,-0.058 0.019,-0.121 0.035,-0.148 0.91,-4.891 5.195,-8.582 10.328,-8.582 5.809,0 10.523,4.711 10.523,10.519 0,2.242 -0.695,4.313 -1.886,6 -1.039,1.5 -2.551,2.629 -4.133,3.5 -0.668,0.36 0.074,1.371 0.824,3.313 0.957,2.488 1.902,7.797 -5.848,13.34 0,0 3.961,-5.063 1.715,-9.051 -2.289,-4.082 -10.808,-6.731 -11.652,-15.992 v -0.11 c -0.039,-0.269 -0.063,-0.519 -0.039,-0.789 -0.024,-0.09 -0.024,-0.191 -0.024,-0.308 0,-0.282 0.024,-0.582 0.04,-0.864 0.039,-0.289 0.078,-0.547 0.117,-0.828"
         style="fill:#231f20;fill-opacity:1;fill-rule:nonzero;stroke:none"
         id="path128"
         inkscape:connector-curvature="0" /><path
         d="m 1311.98,753.66 c 0.02,-0.058 0.02,-0.121 0.04,-0.148 0.9,-4.891 5.19,-8.582 10.33,-8.582 5.8,0 10.51,4.711 10.51,10.519 0,2.242 -0.69,4.313 -1.88,6 -1.04,1.5 -2.55,2.629 -4.14,3.5 -0.65,0.36 0.08,1.371 0.83,3.313 0.96,2.488 1.91,7.797 -5.85,13.34 0,0 3.97,-5.063 1.72,-9.051 -2.29,-4.082 -10.81,-6.731 -11.66,-15.992 v -0.11 c -0.03,-0.269 -0.05,-0.519 -0.03,-0.789 -0.02,-0.09 -0.02,-0.191 -0.02,-0.308 0,-0.282 0.02,-0.582 0.03,-0.864 0.04,-0.289 0.08,-0.547 0.12,-0.828"
         style="fill:#231f20;fill-opacity:1;fill-rule:nonzero;stroke:none"
         id="path130"
         inkscape:connector-curvature="0" /><path
         d="m 1332.45,730.559 c 1.48,-5.618 7.24,-8.969 12.86,-7.481 2.15,0.563 3.99,1.762 5.31,3.352 1.19,1.379 1.9,3.14 2.33,4.89 0.18,0.731 1.35,0.27 3.41,0.051 2.66,-0.301 8.04,0.141 11.42,9.051 0,0 -3.88,-5.121 -8.32,-3.973 -4.53,1.18 -9.27,8.742 -18.43,7.192 l -0.11,-0.032 c -0.27,-0.031 -0.52,-0.078 -0.77,-0.16 -0.1,0 -0.2,-0.027 -0.31,-0.058 -0.28,-0.071 -0.55,-0.172 -0.82,-0.262 -0.27,-0.109 -0.53,-0.207 -0.77,-0.32 -0.05,-0.039 -0.11,-0.047 -0.14,-0.079 -4.49,-2.121 -6.97,-7.199 -5.66,-12.171"
         style="fill:#231f20;fill-opacity:1;fill-rule:nonzero;stroke:none"
         id="path132"
         inkscape:connector-curvature="0" /><path
         d="m 256.652,731.371 c 2.067,0.219 3.231,0.68 3.411,-0.051 0.429,-1.75 1.14,-3.511 2.328,-4.89 1.332,-1.59 3.164,-2.789 5.32,-3.352 5.613,-1.488 11.375,1.863 12.855,7.481 1.309,4.972 -1.164,10.05 -5.656,12.171 -0.031,0.032 -0.086,0.04 -0.14,0.079 -0.25,0.113 -0.504,0.211 -0.774,0.32 -0.273,0.09 -0.547,0.191 -0.824,0.262 -0.113,0.031 -0.203,0.058 -0.301,0.058 -0.254,0.082 -0.504,0.129 -0.773,0.16 l -0.114,0.032 c -9.16,1.55 -13.894,-6.012 -18.421,-7.192 -4.442,-1.148 -8.321,3.973 -8.321,3.973 3.375,-8.91 8.754,-9.352 11.41,-9.051"
         style="fill:#231f20;fill-opacity:1;fill-rule:nonzero;stroke:none"
         id="path134"
         inkscape:connector-curvature="0" /><path
         d="m 154.23,1672.73 c 0.024,-0.06 0.024,-0.11 0.04,-0.15 0.906,-4.89 5.195,-8.58 10.328,-8.58 5.812,0 10.519,4.71 10.519,10.52 0,2.23 -0.691,4.31 -1.887,6 -1.035,1.5 -2.546,2.63 -4.128,3.5 -0.664,0.36 0.078,1.37 0.824,3.3 0.957,2.5 1.902,7.81 -5.844,13.35 0,0 3.957,-5.06 1.707,-9.05 -2.285,-4.08 -10.805,-6.74 -11.648,-15.99 v -0.11 c -0.039,-0.27 -0.059,-0.52 -0.039,-0.79 -0.02,-0.1 -0.02,-0.19 -0.02,-0.31 0,-0.28 0.02,-0.57 0.039,-0.86 0.039,-0.29 0.078,-0.56 0.109,-0.83"
         style="fill:#231f20;fill-opacity:1;fill-rule:nonzero;stroke:none"
         id="path136"
         inkscape:connector-curvature="0" /><path
         d="m 772.492,1650.43 c 2.067,0.23 3.223,0.69 3.41,-0.04 0.43,-1.75 1.145,-3.51 2.325,-4.89 1.332,-1.59 3.164,-2.79 5.32,-3.36 5.617,-1.48 11.375,1.87 12.859,7.49 1.309,4.96 -1.168,10.05 -5.66,12.17 -0.031,0.03 -0.09,0.04 -0.137,0.08 -0.25,0.1 -0.504,0.21 -0.773,0.32 -0.273,0.09 -0.543,0.18 -0.824,0.26 -0.114,0.03 -0.203,0.06 -0.301,0.06 -0.254,0.09 -0.504,0.13 -0.773,0.16 l -0.114,0.03 c -9.156,1.54 -13.898,-6.01 -18.426,-7.19 -4.437,-1.15 -8.32,3.97 -8.32,3.97 3.379,-8.91 8.754,-9.35 11.414,-9.06"
         style="fill:#231f20;fill-opacity:1;fill-rule:nonzero;stroke:none"
         id="path138"
         inkscape:connector-curvature="0" /><path
         d="m 796.141,1672.73 c 0.019,-0.06 0.019,-0.11 0.039,-0.15 0.906,-4.89 5.195,-8.58 10.328,-8.58 5.808,0 10.515,4.71 10.515,10.52 0,2.23 -0.687,4.31 -1.882,6 -1.036,1.5 -2.551,2.63 -4.133,3.5 -0.664,0.36 0.078,1.37 0.828,3.3 0.957,2.5 1.902,7.81 -5.848,13.35 0,0 3.961,-5.06 1.711,-9.05 -2.285,-4.08 -10.804,-6.74 -11.652,-15.99 v -0.11 c -0.039,-0.27 -0.059,-0.52 -0.039,-0.79 -0.02,-0.1 -0.02,-0.19 -0.02,-0.31 0,-0.28 0.02,-0.57 0.039,-0.86 0.039,-0.29 0.075,-0.56 0.114,-0.83"
         style="fill:#231f20;fill-opacity:1;fill-rule:nonzero;stroke:none"
         id="path140"
         inkscape:connector-curvature="0" /><path
         d="m 130.586,1650.43 c 2.062,0.23 3.227,0.69 3.406,-0.04 0.43,-1.75 1.145,-3.51 2.328,-4.89 1.328,-1.59 3.16,-2.79 5.321,-3.36 5.613,-1.48 11.371,1.87 12.855,7.49 1.309,4.96 -1.168,10.05 -5.66,12.17 -0.027,0.03 -0.086,0.04 -0.137,0.08 -0.25,0.1 -0.504,0.21 -0.769,0.32 -0.274,0.09 -0.547,0.18 -0.828,0.26 -0.11,0.03 -0.204,0.06 -0.301,0.06 -0.254,0.09 -0.504,0.13 -0.774,0.16 l -0.109,0.03 c -9.16,1.54 -13.902,-6.01 -18.43,-7.19 -4.437,-1.15 -8.32,3.97 -8.32,3.97 3.379,-8.91 8.754,-9.35 11.418,-9.06"
         style="fill:#231f20;fill-opacity:1;fill-rule:nonzero;stroke:none"
         id="path142"
         inkscape:connector-curvature="0" /><path
         d="m 1458.52,1649.63 c 1.48,-5.62 7.24,-8.97 12.86,-7.49 2.15,0.57 3.98,1.77 5.32,3.36 1.18,1.38 1.89,3.14 2.33,4.89 0.18,0.73 1.33,0.27 3.4,0.04 2.66,-0.29 8.04,0.15 11.42,9.06 0,0 -3.89,-5.12 -8.32,-3.97 -4.53,1.18 -9.27,8.73 -18.43,7.19 l -0.11,-0.03 c -0.27,-0.03 -0.52,-0.07 -0.78,-0.16 -0.09,0 -0.19,-0.03 -0.3,-0.06 -0.28,-0.08 -0.55,-0.17 -0.82,-0.26 -0.27,-0.11 -0.52,-0.22 -0.77,-0.32 -0.05,-0.04 -0.11,-0.05 -0.14,-0.08 -4.49,-2.12 -6.97,-7.21 -5.66,-12.17"
         style="fill:#231f20;fill-opacity:1;fill-rule:nonzero;stroke:none"
         id="path144"
         inkscape:connector-curvature="0" /><path
         d="m 174.699,1649.63 c 1.485,-5.62 7.242,-8.97 12.86,-7.49 2.156,0.57 3.988,1.77 5.32,3.36 1.184,1.38 1.894,3.14 2.332,4.89 0.18,0.73 1.336,0.27 3.402,0.04 2.66,-0.29 8.035,0.15 11.414,9.06 0,0 -3.882,-5.12 -8.32,-3.97 -4.527,1.18 -9.266,8.73 -18.426,7.19 l -0.113,-0.03 c -0.27,-0.03 -0.512,-0.07 -0.773,-0.16 -0.098,0 -0.188,-0.03 -0.301,-0.06 -0.278,-0.08 -0.551,-0.17 -0.824,-0.26 -0.27,-0.11 -0.52,-0.22 -0.774,-0.32 -0.047,-0.04 -0.101,-0.05 -0.137,-0.08 -4.492,-2.12 -6.968,-7.21 -5.66,-12.17"
         style="fill:#231f20;fill-opacity:1;fill-rule:nonzero;stroke:none"
         id="path146"
         inkscape:connector-curvature="0" /><path
         d="m 975.664,1639.01 c 1.918,7.26 4.445,15.03 7.16,22 2.86,7.06 6.137,13.99 10.11,20.31 3.886,6.41 8.426,12.36 13.856,17.08 5.29,4.69 11.79,8.57 18.25,9.97 1.26,0.38 2.62,0.56 3.93,0.71 h 0.05 c 3.56,0.42 7.25,0.13 10.81,-0.76 1.87,-0.37 3.7,-0.98 5.43,-1.68 5.33,-2.1 9.97,-5.57 13.9,-9.87 0.56,-0.99 1.21,-2.06 1.92,-2.95 0.28,-0.47 0.56,-0.89 0.94,-1.31 l 2.15,-2.86 c -0.85,-0.65 -1.59,-1.35 -2.44,-2.06 -1.59,-1.3 -3.23,-2.76 -4.72,-4.21 -6.42,-6.09 -12.22,-13.24 -15.73,-22.04 -1.87,-4.82 -2.9,-10.16 -2.34,-15.54 -10.62,-1.31 -22.65,-4.59 -24.66,-5.15 -1.13,-0.28 -2.06,-1.12 -2.39,-2.25 -0.33,-1.12 -0.14,-2.29 0.56,-3.18 1.26,-1.64 8.94,-11.33 16.66,-18.62 -7.25,-8.8 -8.94,-20.22 -8.42,-30.47 0.14,-3.42 0.61,-6.83 1.21,-10.16 0.38,-2.01 0.8,-4.07 1.27,-5.99 0.23,-0.84 0.42,-1.68 0.65,-2.52 l -2.99,-0.85 c -0.94,-0.28 -1.83,-0.47 -2.67,-0.7 -2.71,-0.56 -5.15,-0.84 -7.86,-0.98 -3.56,-0.14 -7.07,0.37 -10.487,1.21 -1.356,0.33 -2.758,0.85 -4.165,1.41 -3.554,1.31 -6.832,3.27 -9.73,5.61 -1.266,1.08 -2.48,2.16 -3.563,3.37 -2.386,2.48 -4.21,5.34 -5.664,8.43 -0.98,1.87 -1.449,3.41 -2.011,4.86 -0.512,1.69 -1.121,3.37 -1.492,5.11 -3.325,13.94 -1.313,29.34 2.476,44.08 z m 76.796,90.61 c -0.65,-4.07 -0.69,-8.28 -0.27,-12.41 0.04,-0.92 0.18,-1.86 0.32,-2.85 -0.98,0.66 -2.01,1.13 -3.04,1.64 -3.7,1.73 -7.67,3 -11.79,3.7 -0.89,5.62 -1.55,11.84 -1.97,17.59 5.57,-2.29 11.61,-4.91 16.75,-7.67 z m 10.86,-6.27 c 0.29,3.79 1.13,7.49 2.58,10.81 0.51,1.36 1.17,2.67 1.87,3.93 3.37,5.9 8.7,10.68 14.79,14.41 6.09,3.75 13.1,6.28 20.36,8.11 7.3,1.77 14.93,2.75 22.56,3.32 7.53,0.41 15.68,0.41 23.16,0 7.73,-0.47 15.31,-1.45 22.56,-3.28 7.35,-1.73 14.37,-4.26 20.5,-8.01 3.14,-1.82 5.95,-3.98 8.52,-6.41 l 1.73,-1.73 1.96,-2.25 c 0.99,-1.39 1.88,-2.52 2.72,-4.11 0.75,-1.17 1.41,-2.48 1.97,-3.75 1.45,-3.37 2.34,-6.92 2.71,-10.62 0.14,-1.92 0.19,-3.84 0.05,-5.76 -0.28,-5.56 -1.87,-11.04 -4.45,-15.96 -0.79,-0.84 -1.45,-1.73 -2.15,-2.66 -0.28,-0.43 -0.56,-0.75 -0.85,-1.17 l -2.01,-3 c -0.84,0.61 -1.77,1.17 -2.66,1.73 -1.83,1.12 -3.7,2.25 -5.67,3.28 -7.72,4.16 -16.24,7.44 -25.65,8.09 -5.28,0.33 -10.9,-0.41 -16,-2.8 -4.54,9.83 -11.56,20.5 -12.78,22.18 -0.61,0.99 -1.64,1.59 -2.85,1.59 -1.17,0 -2.2,-0.6 -2.9,-1.59 -1.13,-1.68 -7.96,-11.98 -12.5,-21.66 -0.56,0.18 -1.17,0.41 -1.73,0.6 l -1.88,0.56 c -1.07,0.28 -1.54,0.28 -2.38,0.47 -2.86,0.56 -5.85,0.7 -8.71,0.56 -5.84,-0.18 -11.42,-1.73 -16.66,-3.6 -3.23,-1.27 -6.22,-2.67 -9.12,-4.26 v -0.05 c -1.88,-0.93 -3.8,-2.05 -5.57,-3.13 -0.94,-0.56 -1.83,-1.13 -2.72,-1.78 l -1.96,2.95 c -0.33,0.47 -0.61,0.98 -0.89,1.45 -3.65,5.71 -5.62,11.79 -5.99,18.39 -0.14,1.73 -0.14,3.51 0.04,5.15 z m 149.77,-29.67 c 4.35,5.1 9.55,8.84 15.63,11.23 1.55,0.61 3.13,1.13 4.73,1.45 3.7,0.89 7.39,1.27 11.09,0.89 1.54,-0.05 2.99,-0.33 4.54,-0.61 6.69,-1.31 12.82,-5 18.25,-9.59 5.43,-4.64 10.02,-10.53 13.95,-16.9 3.98,-6.41 7.25,-13.29 10.11,-20.5 2.71,-7.02 5.19,-14.74 7.11,-21.99 1.92,-7.5 3.32,-14.98 3.84,-22.52 0.52,-7.48 0.32,-14.93 -1.36,-21.95 -0.84,-3.51 -2.01,-6.83 -3.55,-10.06 l -1.03,-2.15 -1.6,-2.58 c -0.98,-1.31 -1.77,-2.57 -2.99,-3.93 -0.94,-0.93 -1.83,-1.87 -2.86,-2.71 -2.71,-2.44 -5.85,-4.45 -9.26,-5.9 -1.83,-0.84 -3.7,-1.45 -5.67,-1.97 -5.42,-1.54 -11.28,-1.59 -16.94,-0.56 -0.98,0.42 -1.96,0.8 -2.95,1.13 -0.37,0.14 -0.88,0.28 -1.3,0.42 l -3.33,0.98 c 0.33,1.03 0.56,2.02 0.85,3.05 0.51,2.24 1.02,4.49 1.45,6.78 v 0.05 c 1.54,8.52 2.01,17.45 -0.24,26.44 -1.21,5.2 -3.84,10.39 -7.63,14.56 7.87,7.3 15.87,17.36 17.13,18.95 0.75,0.89 0.98,2.15 0.61,3.23 -0.42,1.08 -1.22,2.01 -2.34,2.29 -1.97,0.56 -13.9,3.84 -24.43,5.2 0,0.56 0.09,1.22 0.09,1.78 l -0.09,1.92 c -0.05,1.07 -0.19,1.54 -0.24,2.38 -0.37,2.9 -1.07,5.81 -2.2,8.52 -1.91,5.43 -5.05,10.3 -8.47,14.7 -2.24,2.71 -4.67,5.29 -7.2,7.67 -1.45,1.35 -2.9,2.71 -4.45,4.03 -0.84,0.7 -1.68,1.4 -2.53,2.01 l 2.2,2.85 c 0.33,0.52 0.75,0.99 1.08,1.41 z m 8.19,35.8 c 5.29,2.76 11.33,5.38 16.99,7.68 -0.47,-6.04 -1.17,-12.74 -2.15,-18.59 -4.08,-0.65 -7.96,-1.82 -11.66,-3.41 -1.17,-0.52 -2.39,-1.08 -3.46,-1.78 0.28,1.26 0.42,2.53 0.56,3.79 0.37,4.03 0.33,8.24 -0.28,12.31 z m 79.37,-185.01 c -5.99,-1.49 -12.63,-2.85 -18.53,-3.79 -1.82,3.56 -4.12,6.93 -6.78,9.83 -0.85,0.98 -1.74,1.97 -2.72,2.85 1.27,0.1 2.53,0.29 3.79,0.57 4.07,0.84 8.05,2.25 11.84,4.12 4.17,-4.17 8.47,-8.99 12.4,-13.58 z m -29.44,-40.29 c -2.71,-6.64 -6.97,-12.78 -11.74,-18.49 -4.92,-5.71 -10.48,-11 -16.38,-15.87 -5.85,-4.82 -12.5,-9.54 -18.77,-13.52 -6.55,-4.12 -13.29,-7.82 -20.26,-10.62 -6.93,-2.77 -14.09,-4.92 -21.25,-5.43 -3.65,-0.29 -7.21,-0.19 -10.67,0.28 l -2.43,0.37 -2.95,0.71 c -1.55,0.51 -2.95,0.89 -4.59,1.72 -1.22,0.47 -2.29,1.03 -3.37,1.74 -3.14,1.73 -5.9,4.11 -8.33,6.83 v 0.05 c -1.5,1.54 -2.76,3.23 -3.84,4.96 -3.14,4.73 -5.05,10.25 -5.8,15.96 0.14,1.12 0.23,2.11 0.23,3.23 v 1.26 l -0.09,3.42 c 1.03,0.04 2.1,0.14 3.23,0.18 2.34,0.14 4.77,0.43 7.16,0.7 8.52,1.18 17.08,3.56 24.9,8.38 4.58,2.86 8.7,6.79 11.56,11.84 9.41,-5.24 21.38,-9.77 23.26,-10.53 0.42,-0.14 0.84,-0.23 1.26,-0.23 0.7,0 1.4,0.23 2.01,0.7 0.89,0.66 1.45,1.78 1.41,2.95 -0.1,2.01 -0.57,14.28 -2.53,24.71 0.56,0.14 1.12,0.29 1.64,0.42 l 1.77,0.71 c 1.08,0.37 1.5,0.65 2.25,0.93 2.67,1.27 5.15,2.85 7.4,4.64 4.58,3.64 8.28,8.09 11.42,12.73 1.87,2.89 3.55,5.99 5.1,9.12 0.84,1.78 1.64,3.7 2.43,5.47 0.42,0.99 0.84,2.02 1.17,3 l 3.28,-1.17 c 0.7,-0.28 1.31,-0.47 1.87,-0.75 2.85,-1.22 5.2,-2.47 7.63,-4.12 2.9,-2.01 5.47,-4.49 7.72,-7.2 0.98,-1.17 1.87,-2.44 2.67,-3.75 2.01,-3.22 3.46,-6.69 4.35,-10.25 0.42,-1.59 0.7,-3.18 0.84,-4.82 0.84,-6.74 -0.84,-13.71 -3.56,-20.26 z m -134.64,-78.54 c -3.28,5.34 -6.69,11.28 -9.32,16.71 2.77,2.81 5.06,5.95 7.03,9.27 0.6,1.03 1.26,2.15 1.82,3.37 0.56,-1.12 1.13,-2.25 1.73,-3.37 2.11,-3.69 4.73,-7.16 7.73,-10.16 -2.58,-5.19 -5.85,-10.81 -8.99,-15.82 z m -53.78,81.58 c -5.19,-2.62 -11.6,-5.48 -17.08,-7.72 0.42,6.36 1.22,13.85 2.43,19.8 4.27,0 8.47,0.98 12.31,2.81 0.38,0.14 0.66,0.27 0.98,0.46 -0.84,-5.1 -0.46,-10.39 1.36,-15.35 z m 50.6,171.48 c 0,-0.09 0,-0.09 0,-0.09 -0.1,-0.42 -0.1,-0.89 -0.1,-1.22 -0.04,-0.56 -0.04,-1.12 -0.04,-1.68 l 0.18,-5.67 0.38,-9.88 c 0.28,-7.11 0.47,-14.18 0.74,-21.24 h -0.18 c -7.07,-0.52 -13.53,-2.53 -18.86,-5.9 -0.61,-0.32 -1.08,-0.65 -1.45,-0.94 -0.33,-0.23 -0.71,-0.51 -1.13,-0.79 -0.14,-0.04 -0.56,-0.33 -0.6,-0.42 -0.29,-0.19 -0.57,-0.42 -0.75,-0.61 -0.71,-0.42 -1.08,-0.84 -1.08,-0.84 -5.29,-4.45 -9.27,-9.87 -11.84,-16.38 l -0.05,-0.14 c -6.64,2.38 -13.24,4.82 -19.93,7.25 l -9.55,3.47 -5.1,1.82 c -0.71,0.28 -1.41,0.56 -2.01,0.89 -3.52,1.55 -6.42,3.79 -8.85,6.69 -1.55,1.83 -2.72,3.93 -3.51,6.09 -0.75,1.87 -1.27,3.84 -1.45,5.8 -0.1,0.42 -0.1,0.89 -0.1,1.36 -0.18,3.84 0.85,7.68 2.34,11.46 3.42,8.43 10.3,15.73 17.83,21.95 0.71,0.56 1.45,1.18 2.21,1.73 0.13,0.15 0.28,0.29 0.51,0.43 2.1,1.59 4.31,3.18 6.55,4.68 0.14,0.14 0.28,0.28 0.47,0.32 0.8,0.57 1.54,1.13 2.29,1.6 4.21,2.66 8.52,5.05 12.92,6.83 4.44,1.82 8.99,3.23 13.53,3.56 2.29,0.23 4.54,0.23 6.73,-0.05 l 1.55,-0.24 1.87,-0.41 c 0.24,-0.06 0.52,-0.15 0.71,-0.29 0.69,-0.18 1.4,-0.42 2.15,-0.75 1.49,-0.61 2.85,-1.4 4.12,-2.43 5.1,-3.65 8.56,-9.55 9.5,-15.96 z m 4.16,13.94 c -0.28,-0.41 -0.47,-0.84 -0.75,-1.35 -2.25,4.49 -5.57,8.52 -9.82,11.47 2.48,5.29 6.12,11.46 9.31,16.56 3.37,-5.28 7.06,-11.84 9.54,-17.27 -3.41,-2.52 -6.17,-5.8 -8.28,-9.41 z m 88.64,-45.57 c -0.04,-0.8 0,-1.55 -0.14,-2.44 -0.14,-1.64 -0.47,-3.14 -1.03,-4.63 -1.82,-5.86 -6.22,-10.91 -11.79,-13.86 -0.05,0 -0.05,0 -0.14,-0.09 -0.56,-0.05 -1.17,-0.23 -1.73,-0.38 -0.57,-0.14 -1.03,-0.28 -1.55,-0.51 l -5.29,-1.97 -9.31,-3.32 c -6.69,-2.43 -13.34,-4.82 -20.03,-7.16 v 0.05 c -1.27,3.28 -2.9,6.41 -5.01,9.27 -2.01,2.8 -4.3,5.24 -6.88,7.39 -0.14,0.14 -0.28,0.19 -0.42,0.33 -1.26,1.07 -2.52,1.91 -3.84,2.76 0,0 -0.09,0.04 -0.13,0.04 0,0 -0.1,0.05 -0.15,0.15 -5.52,3.41 -11.84,5.52 -18.34,6.08 -0.28,0.05 -0.61,0.05 -0.99,0.05 0.24,7.11 0.52,14.13 0.8,21.24 l 0.42,10.39 0.19,5.25 c 0,0.89 0.09,1.82 0.28,2.61 0.42,3.66 1.59,6.93 3.6,9.98 1.22,1.91 2.62,3.5 4.21,4.91 1.69,1.45 3.56,2.62 5.48,3.56 0.28,0.14 0.56,0.18 0.84,0.28 3.7,1.49 7.96,1.78 12.08,1.45 9.08,-0.7 18.11,-4.96 26.39,-10.25 0.8,-0.52 1.5,-0.98 2.25,-1.55 0.14,-0.04 0.33,-0.14 0.47,-0.32 2.25,-1.5 4.54,-3.14 6.69,-4.82 0.14,-0.15 0.23,-0.24 0.37,-0.29 0.75,-0.6 1.55,-1.16 2.2,-1.82 3.84,-3.14 7.4,-6.46 10.49,-10.16 3.14,-3.65 5.85,-7.53 7.58,-11.79 0.94,-2.11 1.55,-4.26 1.97,-6.41 l 0.27,-1.54 0.19,-1.92 z m 12.5,-25.66 c -3.42,2.44 -7.3,4.03 -11.37,4.88 -0.47,0.14 -0.99,0.18 -1.45,0.27 3.6,3.6 6.31,8.01 7.81,13.01 5.76,-0.74 12.73,-2.19 18.54,-3.69 -4.08,-4.87 -9.13,-10.35 -13.53,-14.47 z m -129.59,-34.49 c -0.1,0.38 -0.24,0.66 -0.38,1.08 -0.23,0.61 -0.46,1.22 -0.61,1.87 0,0.33 -0.09,0.66 -0.18,1.03 -1.27,4.64 -1.22,9.41 0.09,14.23 0,0.05 0,0.05 0,0.14 0.14,0.28 0.24,0.61 0.33,0.98 0.04,0.57 0.23,1.17 0.51,1.92 0.14,0.23 0.24,0.47 0.33,0.7 1.82,4.63 4.72,8.61 8.56,11.84 l 0.24,0.24 c 0.37,0.23 0.65,0.46 0.98,0.84 l 0.61,0.47 c 0.37,0.14 1.08,0.65 1.45,0.89 4.21,2.62 8.85,4.16 13.76,4.44 0.33,0 0.52,0 0.84,0.09 0.84,0.05 1.6,0.05 2.29,-0.09 0.38,-0.09 0.76,-0.09 1.18,-0.09 4.77,-0.28 9.54,-1.83 13.66,-4.4 0,0 0,0 0.1,0 0,-0.09 0.04,-0.09 0.04,-0.09 1.03,-0.61 1.92,-1.31 2.86,-2.06 0.23,-0.24 0.46,-0.38 0.65,-0.56 1.69,-1.46 3.32,-3.19 4.63,-5.01 1.5,-2.02 2.67,-4.17 3.51,-6.46 0,-0.14 0.05,-0.23 0.15,-0.38 0.37,-0.98 0.7,-2.06 0.93,-3.04 0.05,-0.23 0.14,-0.46 0.19,-0.7 1.17,-4.49 1.17,-9.41 0,-14.09 -0.05,-0.14 -0.05,-0.28 -0.14,-0.42 -0.24,-1.03 -0.61,-2.15 -0.98,-3.13 -0.15,-0.24 -0.24,-0.47 -0.33,-0.8 -1.87,-4.49 -4.82,-8.47 -8.47,-11.46 -0.24,-0.15 -0.47,-0.38 -0.71,-0.52 -0.23,-0.24 -0.51,-0.56 -1.21,-0.94 -0.24,-0.23 -0.51,-0.37 -0.75,-0.51 -0.33,-0.19 -0.56,-0.33 -0.7,-0.47 -4.12,-2.62 -8.94,-4.12 -14,-4.44 -1.12,-0.1 -2.29,-0.1 -3.41,0.09 h -0.8 c -4.82,0.37 -9.4,1.92 -13.38,4.35 -0.24,0.24 -0.47,0.38 -0.66,0.52 -0.79,0.56 -1.54,1.07 -2.24,1.68 -0.24,0.24 -0.47,0.38 -0.71,0.56 -1.59,1.26 -3.13,2.95 -4.63,5.1 -1.4,1.83 -2.53,3.94 -3.6,6.6 z m 2.2,-27.7 c 0.93,1.4 1.92,2.81 2.85,4.21 0,0 0.05,0 0.14,-0.1 5.57,-3.6 12.03,-5.85 18.81,-6.45 0.47,-0.1 0.89,-0.14 1.32,-0.14 h 0.42 c 0.7,0 1.4,-0.1 2.15,-0.1 0.8,0 1.54,0.1 2.39,0.1 6.88,0.42 13.52,2.57 19.28,6.27 0,0 0,0.04 0.09,0.04 3.98,-5.85 7.86,-11.74 11.75,-17.69 l 5.76,-8.56 2.9,-4.4 c 0.51,-0.75 0.98,-1.54 1.31,-2.29 1.77,-3.23 2.71,-6.56 2.95,-10.25 0.05,-2.01 -0.1,-4.03 -0.56,-5.99 -0.47,-2.3 -1.31,-4.55 -2.44,-6.51 -0.09,-0.14 -0.23,-0.33 -0.37,-0.47 -2.06,-3.46 -5.43,-6.27 -9.04,-8.52 -7.81,-4.72 -17.64,-6.55 -27.47,-7.11 -0.89,0 -1.82,-0.05 -2.76,-0.05 h -0.56 c -2.72,-0.09 -5.52,-0.09 -8.24,0.05 h -0.51 c -0.94,0.09 -1.88,0.09 -2.77,0.14 -4.96,0.28 -9.78,0.98 -14.41,2.1 -4.68,1.18 -9.13,2.81 -13.06,5.16 -1.96,1.21 -3.74,2.57 -5.38,4.11 l -1.08,1.03 -1.26,1.5 c -0.09,0.14 -0.14,0.19 -0.28,0.33 -0.42,0.7 -0.89,1.31 -1.41,2.15 -0.74,1.36 -1.4,2.72 -1.82,4.21 -1.92,5.9 -1.35,12.83 1.69,18.54 0.37,0.42 0.7,0.84 1.02,1.31 0.38,0.42 0.71,0.89 1.08,1.4 l 3.04,4.54 5.71,8.28 c 2.91,4.31 5.81,8.66 8.62,12.97 0.04,0.05 0.14,0.14 0.14,0.19 z m 92.9,-32.39 c -6.23,0 -12.5,2.62 -17.04,7.16 l -0.05,0.1 c -0.28,0.46 -0.65,1.02 -0.98,1.54 -0.28,0.37 -0.56,0.75 -0.84,1.17 l -3.47,4.54 h -0.09 l -5.99,7.77 c -4.31,5.61 -8.66,11.23 -12.96,16.8 l 0.09,0.09 c 0.05,0.05 0.14,0.14 0.28,0.19 5.15,4.26 9.27,9.83 11.84,16.24 0,0.09 0.05,0.14 0.05,0.28 0.65,1.41 1.12,3 1.55,4.54 0.04,0.14 0.04,0.29 0.13,0.42 0.9,3.42 1.32,6.84 1.32,10.25 0,3.33 -0.42,6.74 -1.32,10.02 0,0 0,0 0,0.09 6.84,1.92 13.58,3.88 20.41,5.76 l 9.97,2.81 5.01,1.4 c 0.84,0.28 1.78,0.46 2.62,0.56 3.6,0.7 7.16,0.56 10.62,-0.37 2.06,-0.56 3.98,-1.41 5.76,-2.35 2.01,-1.21 3.74,-2.66 5.29,-4.35 0.14,-0.14 0.28,-0.28 0.32,-0.47 2.67,-3.08 4.36,-7.06 5.29,-11.23 2.2,-8.84 0.85,-18.81 -1.64,-28.31 -0.23,-0.8 -0.51,-1.73 -0.79,-2.62 0,-0.24 -0.05,-0.38 -0.14,-0.56 -0.75,-2.58 -1.64,-5.25 -2.58,-7.73 -0.04,-0.23 -0.14,-0.37 -0.18,-0.55 -0.28,-0.94 -0.66,-1.83 -0.99,-2.68 -1.82,-4.53 -3.93,-8.98 -6.5,-13 -2.48,-4.13 -5.34,-7.91 -8.84,-10.82 -1.74,-1.54 -3.61,-2.81 -5.58,-3.93 l -1.31,-0.66 -1.82,-0.79 c -0.14,-0.05 -0.33,-0.05 -0.47,-0.14 -0.8,-0.28 -1.5,-0.56 -2.44,-0.7 -1.49,-0.33 -3.04,-0.47 -4.53,-0.47 z m -12.5,-6.37 c -0.05,0.52 -0.05,0.99 -0.19,1.55 4.49,-2.39 9.6,-3.6 14.84,-3.47 1.03,-5.7 1.82,-12.77 2.25,-18.67 -5.06,2.01 -10.77,4.59 -15.64,7.07 -0.84,0.42 -1.68,0.94 -2.43,1.36 1.27,3.97 1.59,8.14 1.17,12.16 z m -170.4,114.81 c 5.99,1.54 13.1,3 18.95,3.69 1.4,-4.25 3.65,-8.14 6.65,-11.37 0.18,-0.18 0.42,-0.42 0.56,-0.6 -0.43,0 -0.8,-0.1 -1.22,-0.15 -4.3,-0.84 -8.56,-2.66 -12.16,-5.38 -0.1,0 -0.1,0 -0.1,0 -4.17,4.07 -8.84,9.27 -12.68,13.81 z m 10.1,-34.49 c 0.85,3.6 2.25,7.29 4.31,10.24 0.28,0.57 0.7,1.13 1.22,1.69 1.03,1.22 2.2,2.34 3.6,3.33 4.82,3.41 11.28,4.67 17.55,3.6 0,0 0.1,0 0.14,-0.05 0.52,-0.28 1.12,-0.47 1.69,-0.7 0.61,-0.19 1.17,-0.43 1.82,-0.61 l 5.2,-1.5 9.68,-2.76 20.5,-5.85 c -0.13,-0.14 -0.13,-0.37 -0.18,-0.56 -1.59,-6.41 -1.59,-12.92 0,-19.24 0,-0.37 0.05,-0.7 0.18,-0.98 0.29,-1.17 0.66,-2.43 1.08,-3.56 0.05,-0.28 0.19,-0.47 0.28,-0.7 1.31,-3.42 3,-6.55 5.05,-9.45 2.3,-3.09 4.64,-5.53 6.65,-7.12 0.14,-0.13 0.33,-0.27 0.47,-0.42 -1.03,-1.35 -2.06,-2.66 -3.14,-3.98 -0.04,-0.13 -0.14,-0.23 -0.18,-0.28 -3.28,-4.02 -6.55,-8 -9.83,-12.07 l -6.65,-8.19 -3.13,-3.84 c -0.61,-0.84 -1.27,-1.55 -1.92,-2.24 -2.48,-2.67 -5.34,-4.45 -8.61,-5.81 -1.92,-0.75 -3.93,-1.21 -6.04,-1.45 -2.29,-0.19 -4.54,-0.05 -6.69,0.38 -0.28,0.04 -0.56,0.13 -0.84,0.18 -3.84,0.89 -7.4,3.14 -10.68,5.8 -6.88,5.86 -11.7,14.56 -15.25,23.69 -0.43,1.03 -0.75,2.1 -1.13,3.23 -0.04,0.09 -0.14,0.23 -0.18,0.37 -0.84,2.62 -1.69,5.24 -2.44,7.82 -0.09,0.14 -0.09,0.28 -0.14,0.42 -0.23,0.79 -0.42,1.45 -0.65,2.24 -1.17,4.82 -2.06,9.6 -2.44,14.37 -0.42,4.78 -0.28,9.55 0.7,14 z m 90.8,-146.87 c -2.34,-2.99 -5.29,-5.47 -8.42,-7.44 -1.45,-0.93 -2.91,-1.68 -4.45,-2.38 -6.23,-2.86 -13.38,-3.42 -20.41,-2.86 -7.2,0.56 -14.32,2.72 -21.2,5.57 -6.97,2.81 -13.66,6.56 -20.17,10.67 -6.32,4.12 -12.87,8.94 -18.67,13.71 -5.85,4.96 -11.42,10.25 -16.24,16.05 -4.78,5.72 -8.99,11.94 -11.7,18.63 -1.405,3.28 -2.436,6.69 -3.045,10.16 l -0.372,2.43 -0.285,3 c 0.094,1.68 0,3.09 0.235,4.86 0.144,1.23 0.328,2.35 0.613,3.51 0.695,3.56 2.014,6.98 3.934,10.16 1.03,1.92 2.29,3.65 3.64,5.34 3.56,4.35 8.2,7.86 13.25,10.29 1.22,0.28 2.34,0.57 3.37,0.89 0.56,0.14 1.03,0.38 1.54,0.52 l 3,1.03 c 0.33,-1.17 0.84,-2.39 1.31,-3.56 0.84,-2.01 1.73,-4.12 2.71,-6.13 3.7,-7.86 8.66,-15.4 15.92,-21.34 1.07,-0.94 2.29,-1.74 3.56,-2.63 1.3,-0.79 2.75,-1.58 3.79,-2.1 2.24,-1.03 4.63,-1.96 7.06,-2.43 -2.1,-10.58 -2.71,-23.36 -2.81,-25.37 0,-1.17 0.52,-2.29 1.5,-3 0.51,-0.42 1.31,-0.65 2.01,-0.65 0.42,0 0.84,0.09 1.18,0.23 1.87,0.71 13.38,4.97 22.74,9.97 0.33,-0.42 0.61,-0.88 0.89,-1.31 l 1.17,-1.54 c 0.7,-0.85 1.07,-1.22 1.59,-1.74 2.06,-2.19 4.26,-4.11 6.69,-5.75 4.92,-3.18 10.21,-5.33 15.59,-6.88 3.42,-0.89 6.88,-1.59 10.34,-2.11 1.97,-0.28 3.93,-0.46 5.9,-0.61 1.03,-0.09 2.15,-0.18 3.18,-0.18 l -0.14,-3.51 c -0.05,-0.75 -0.05,-1.41 -0.14,-2.11 v -0.05 c -0.28,-2.95 -0.84,-5.52 -1.59,-8.28 -1.08,-3.42 -2.58,-6.64 -4.45,-9.55 -0.79,-1.26 -1.64,-2.38 -2.62,-3.51 z m -149.247,91.13 c 4.067,4.72 8.75,9.87 13.102,14.13 3.601,-1.73 7.347,-3.09 11.277,-3.84 1.125,-0.23 2.152,-0.42 3.278,-0.56 -0.934,-0.89 -1.829,-1.82 -2.669,-2.72 -2.898,-3.22 -5.429,-6.83 -7.39,-10.71 -5.715,0.93 -11.891,2.29 -17.598,3.7 z m -10.484,40.2 c 0.933,-2.25 1.965,-4.45 2.851,-6.08 2.153,-4.03 4.868,-7.87 8.239,-11.1 1.121,-1.07 2.246,-2.06 3.418,-3.04 -7.961,-8.1 -15.118,-16.99 -17.364,-19.7 -1.031,-1.41 -1.406,-3.23 -0.89,-4.92 0.562,-1.63 1.871,-2.9 3.554,-3.41 3.278,-0.99 13.809,-3.84 24.571,-5.72 -0.278,-1.12 -0.469,-2.19 -0.703,-3.32 -0.372,-2.15 -0.512,-4.77 -0.602,-7.11 l 0.09,-2.99 c 0.051,-1.6 0.285,-2.39 0.422,-3.56 0.468,-4.54 1.59,-8.94 3.183,-13.06 3.09,-8.33 7.817,-15.73 13.012,-22.51 5.38,-6.69 11.46,-12.59 17.78,-18.02 6.51,-5.57 12.92,-10.34 20.08,-14.93 14,-8.94 29.91,-16.52 47.83,-17.64 8.85,-0.61 18.25,0.7 26.63,4.86 1.45,0.8 2.9,1.55 4.31,2.53 5.15,-10.02 11.37,-19.52 13.29,-22.47 0.98,-1.44 2.67,-2.33 4.4,-2.33 1.73,0 3.37,0.89 4.35,2.33 1.87,2.91 7.91,12.03 13.06,21.77 1.07,-0.61 2.1,-1.27 3.23,-1.83 1.87,-1.03 4.3,-1.92 6.55,-2.76 l 2.85,-0.84 c 1.55,-0.42 2.39,-0.47 3.56,-0.75 4.4,-0.84 8.94,-1.12 13.3,-0.94 8.93,0.38 17.45,2.58 25.45,5.53 8.01,3.04 15.54,6.97 22.66,11.37 7.3,4.45 13.8,9.13 20.35,14.46 12.73,10.67 24.86,23.45 31.5,40.16 3.28,8.24 4.96,17.55 3.46,26.86 -0.18,1.59 -0.56,3.14 -0.93,4.63 11.05,1.83 21.95,4.78 25.27,5.72 1.68,0.41 3,1.77 3.56,3.41 0.56,1.64 0.23,3.51 -0.85,4.82 -2.15,2.72 -9.02,11.38 -16.8,19.33 0.99,0.8 1.97,1.73 2.86,2.62 1.64,1.54 3.23,3.56 4.68,5.43 l 1.69,2.43 c 0.84,1.36 1.16,2.11 1.82,3.14 2.15,3.98 3.83,8.19 4.91,12.45 2.44,8.56 2.95,17.32 2.58,25.92 -0.38,8.57 -1.87,16.86 -3.79,25 -2.06,8.28 -4.49,15.91 -7.63,23.82 -6.18,15.44 -14.65,30.89 -28.5,42.31 -6.84,5.66 -15.26,10.06 -24.48,11.51 -1.45,0.28 -3,0.42 -4.45,0.52 1.69,11.04 2.16,22.23 2.29,25.65 0.1,1.73 -0.69,3.41 -2.05,4.44 -1.5,1.03 -3.28,1.26 -4.92,0.7 -3.27,-1.16 -13.71,-5.14 -23.72,-10.11 -0.52,1.31 -1.08,2.58 -1.69,3.75 -0.98,2.01 -2.39,4.21 -3.7,6.08 l -1.87,2.43 c -0.98,1.18 -1.64,1.74 -2.44,2.67 -3.08,3.28 -6.54,6.13 -10.34,8.47 -7.39,4.96 -15.58,8.1 -23.82,10.49 -8.28,2.15 -16.66,3.32 -24.94,3.97 -8.57,0.62 -16.53,0.66 -25.04,0.05 -16.57,-1.12 -33.93,-4.4 -49.05,-14.08 -7.49,-4.83 -14.23,-11.42 -18.49,-19.8 -0.61,-1.27 -1.26,-2.58 -1.73,-3.89 -9.92,4.97 -20.22,8.9 -23.5,10.11 -1.58,0.61 -3.5,0.33 -4.86,-0.7 -1.4,-0.98 -2.24,-2.67 -2.15,-4.4 0.09,-3.41 0.65,-14.09 2.2,-24.81 -1.41,-0.09 -2.86,-0.27 -4.26,-0.55 -9.27,-1.73 -17.13,-6 -24.012,-11.56 -6.929,-5.67 -12.449,-12.41 -17.175,-19.48 -4.586,-7.16 -8.282,-14.74 -11.516,-22.41 -3.277,-7.86 -5.754,-15.49 -7.859,-23.64 -4.118,-16.09 -6.321,-33.51 -1.829,-50.87 0.563,-2.15 1.36,-4.26 2.11,-6.41"
         style="fill:#231f20;fill-opacity:1;fill-rule:nonzero;stroke:none"
         id="path148"
         inkscape:connector-curvature="0" /><path
         d="m 816.609,1649.63 c 1.485,-5.62 7.243,-8.97 12.856,-7.49 2.16,0.57 3.992,1.77 5.324,3.36 1.18,1.38 1.895,3.14 2.328,4.89 0.18,0.73 1.34,0.27 3.403,0.04 2.664,-0.29 8.039,0.15 11.418,9.06 0,0 -3.879,-5.12 -8.321,-3.97 -4.527,1.18 -9.269,8.73 -18.429,7.19 l -0.106,-0.03 c -0.273,-0.03 -0.519,-0.07 -0.777,-0.16 -0.098,0 -0.192,-0.03 -0.301,-0.06 -0.281,-0.08 -0.555,-0.17 -0.828,-0.26 -0.266,-0.11 -0.516,-0.22 -0.77,-0.32 -0.051,-0.04 -0.101,-0.05 -0.136,-0.08 -4.493,-2.12 -6.969,-7.21 -5.661,-12.17"
         style="fill:#231f20;fill-opacity:1;fill-rule:nonzero;stroke:none"
         id="path150"
         inkscape:connector-curvature="0" /><path
         d="M 1585.08,1328.71 H 27.9336 v 560.43 H 1585.08 Z m 0,-283.77 c 0,-23.73 -2.21,-74.057 -16.71,-142.901 H 43.9727 c -9.9219,46.453 -16.0391,94.629 -16.0391,142.901 v 255.83 H 1585.08 Z M 1421.82,548.578 C 1283.1,326.828 1071.59,147.82 810.172,30.9102 l -3.664,-1.6407 -3.664,1.6407 C 541.426,147.809 329.922,326.828 191.191,548.578 163.066,593.531 88.2695,722.352 50.4766,874.109 H 1562.02 c -21.41,-88.007 -62.31,-201.031 -140.2,-325.531 z M 1599.05,1917.08 H 13.9688 C 6.25391,1917.08 0,1910.83 0,1903.11 V 1044.94 C 0,990.938 7.38281,937.148 19.0703,885.672 19.1289,885.34 19.207,885.02 19.2891,884.691 56.5938,721.27 137.664,581.461 167.504,533.77 309.188,307.289 524.941,124.59 791.438,5.39844 l 9.367,-4.17969 C 802.621,0.410156 804.563,0 806.508,0 c 1.941,0 3.887,0.410156 5.703,1.21875 l 9.363,4.17969 C 1088.08,124.59 1303.83,307.289 1445.51,533.77 c 84.74,135.46 126.82,258.121 147.61,351 0.08,0.281 0.15,0.558 0.19,0.851 17.17,77.016 19.71,133.449 19.71,159.319 v 858.17 c 0,7.72 -6.26,13.97 -13.97,13.97"
         style="fill:#231f20;fill-opacity:1;fill-rule:nonzero;stroke:none"
         id="path152"
         inkscape:connector-curvature="0" /><path
         d="m 1414.4,1650.43 c 2.07,0.23 3.23,0.69 3.41,-0.04 0.43,-1.75 1.14,-3.51 2.33,-4.89 1.33,-1.59 3.16,-2.79 5.32,-3.36 5.61,-1.48 11.37,1.87 12.85,7.49 1.31,4.96 -1.16,10.05 -5.66,12.17 -0.02,0.03 -0.08,0.04 -0.13,0.08 -0.25,0.1 -0.5,0.21 -0.77,0.32 -0.28,0.09 -0.55,0.18 -0.83,0.26 -0.11,0.03 -0.2,0.06 -0.3,0.06 -0.26,0.09 -0.5,0.13 -0.77,0.16 l -0.12,0.03 c -9.16,1.54 -13.9,-6.01 -18.42,-7.19 -4.44,-1.15 -8.32,3.97 -8.32,3.97 3.38,-8.91 8.75,-9.35 11.41,-9.06"
         style="fill:#231f20;fill-opacity:1;fill-rule:nonzero;stroke:none"
         id="path154"
         inkscape:connector-curvature="0" /><path
         d="m 319.699,1639.01 c 1.922,7.26 4.449,15.03 7.164,22 2.856,7.06 6.129,13.99 10.11,20.31 3.886,6.41 8.422,12.36 13.851,17.08 5.289,4.69 11.797,8.57 18.25,9.97 1.266,0.38 2.625,0.56 3.938,0.71 h 0.043 c 3.558,0.42 7.258,0.13 10.812,-0.76 1.875,-0.37 3.696,-0.98 5.43,-1.68 5.336,-2.1 9.969,-5.57 13.898,-9.87 0.563,-0.99 1.219,-2.06 1.922,-2.95 0.278,-0.47 0.559,-0.89 0.938,-1.31 l 2.148,-2.86 c -0.84,-0.65 -1.59,-1.35 -2.433,-2.06 -1.59,-1.3 -3.227,-2.76 -4.727,-4.21 -6.41,-6.09 -12.215,-13.24 -15.727,-22.04 -1.871,-4.82 -2.898,-10.16 -2.339,-15.54 -10.625,-1.31 -22.653,-4.59 -24.664,-5.15 -1.122,-0.28 -2.059,-1.12 -2.387,-2.25 -0.328,-1.12 -0.141,-2.29 0.562,-3.18 1.266,-1.64 8.942,-11.33 16.66,-18.62 -7.25,-8.8 -8.937,-20.22 -8.421,-30.47 0.14,-3.42 0.609,-6.83 1.214,-10.16 0.375,-2.01 0.797,-4.07 1.266,-5.99 0.234,-0.84 0.418,-1.68 0.652,-2.52 l -2.992,-0.85 c -0.937,-0.28 -1.824,-0.47 -2.672,-0.7 -2.711,-0.56 -5.144,-0.84 -7.859,-0.98 -3.555,-0.14 -7.066,0.37 -10.484,1.21 -1.36,0.33 -2.758,0.85 -4.164,1.41 -3.555,1.31 -6.833,3.27 -9.739,5.61 -1.258,1.08 -2.48,2.16 -3.554,3.37 -2.387,2.48 -4.215,5.34 -5.665,8.43 -0.98,1.87 -1.449,3.41 -2.011,4.86 -0.512,1.69 -1.121,3.37 -1.5,5.11 -3.321,13.94 -1.309,29.34 2.48,44.08 z m 76.805,90.61 c -0.656,-4.07 -0.703,-8.28 -0.281,-12.41 0.047,-0.92 0.187,-1.86 0.328,-2.85 -0.981,0.66 -2.012,1.13 -3.043,1.64 -3.695,1.73 -7.672,3 -11.797,3.7 -0.887,5.62 -1.539,11.84 -1.961,17.59 5.566,-2.29 11.605,-4.91 16.754,-7.67 z m 10.859,-6.27 c 0.278,3.79 1.121,7.49 2.571,10.81 0.519,1.36 1.171,2.67 1.875,3.93 3.371,5.9 8.703,10.68 14.785,14.41 6.086,3.75 13.105,6.28 20.363,8.11 7.301,1.77 14.926,2.75 22.559,3.32 7.535,0.41 15.679,0.41 23.164,0 7.722,-0.47 15.308,-1.45 22.558,-3.28 7.348,-1.73 14.371,-4.26 20.496,-8.01 3.141,-1.82 5.95,-3.98 8.524,-6.41 l 1.726,-1.73 1.969,-2.25 c 0.981,-1.39 1.875,-2.52 2.715,-4.11 0.746,-1.17 1.406,-2.48 1.969,-3.75 1.449,-3.37 2.336,-6.92 2.707,-10.62 0.144,-1.92 0.191,-3.84 0.051,-5.76 -0.278,-5.56 -1.872,-11.04 -4.446,-15.96 -0.793,-0.84 -1.453,-1.73 -2.152,-2.66 -0.281,-0.43 -0.563,-0.75 -0.844,-1.17 l -2.012,-3 c -0.843,0.61 -1.777,1.17 -2.668,1.73 -1.824,1.12 -3.699,2.25 -5.664,3.28 -7.722,4.16 -16.238,7.44 -25.648,8.09 -5.289,0.33 -10.902,-0.41 -16.004,-2.8 -4.535,9.83 -11.559,20.5 -12.773,22.18 -0.614,0.99 -1.641,1.59 -2.86,1.59 -1.172,0 -2.199,-0.6 -2.898,-1.59 -1.125,-1.68 -7.961,-11.98 -12.5,-21.66 -0.563,0.18 -1.168,0.41 -1.731,0.6 l -1.875,0.56 c -1.074,0.28 -1.543,0.28 -2.382,0.47 -2.856,0.56 -5.852,0.7 -8.704,0.56 -5.851,-0.18 -11.421,-1.73 -16.668,-3.6 -3.226,-1.27 -6.218,-2.67 -9.125,-4.26 v -0.05 c -1.871,-0.93 -3.789,-2.05 -5.566,-3.13 -0.937,-0.56 -1.824,-1.13 -2.715,-1.78 l -1.969,2.95 c -0.324,0.47 -0.605,0.98 -0.886,1.45 -3.649,5.71 -5.617,11.79 -5.992,18.39 -0.137,1.73 -0.137,3.51 0.05,5.15 z m 149.766,-29.67 c 4.348,5.1 9.543,8.84 15.629,11.23 1.543,0.61 3.133,1.13 4.726,1.45 3.696,0.89 7.399,1.27 11.094,0.89 1.543,-0.05 2.992,-0.33 4.539,-0.61 6.692,-1.31 12.824,-5 18.254,-9.59 5.43,-4.64 10.016,-10.53 13.945,-16.9 3.981,-6.41 7.254,-13.29 10.106,-20.5 2.715,-7.02 5.195,-14.74 7.117,-21.99 1.918,-7.5 3.324,-14.98 3.836,-22.52 0.52,-7.48 0.328,-14.93 -1.355,-21.95 -0.84,-3.51 -2.012,-6.83 -3.555,-10.06 l -1.031,-2.15 -1.594,-2.58 c -0.981,-1.31 -1.777,-2.57 -2.992,-3.93 -0.938,-0.93 -1.825,-1.87 -2.856,-2.71 -2.715,-2.44 -5.851,-4.45 -9.269,-5.9 -1.825,-0.84 -3.696,-1.45 -5.664,-1.97 -5.43,-1.54 -11.278,-1.59 -16.938,-0.56 -0.984,0.42 -1.969,0.8 -2.949,1.13 -0.375,0.14 -0.887,0.28 -1.313,0.42 l -3.32,0.98 c 0.328,1.03 0.563,2.02 0.84,3.05 0.516,2.24 1.031,4.49 1.449,6.78 v 0.05 c 1.551,8.52 2.016,17.45 -0.23,26.44 -1.219,5.2 -3.836,10.39 -7.629,14.56 7.859,7.3 15.867,17.36 17.129,18.95 0.75,0.89 0.984,2.15 0.609,3.23 -0.422,1.08 -1.215,2.01 -2.34,2.29 -1.969,0.56 -13.902,3.84 -24.433,5.2 0,0.56 0.097,1.22 0.097,1.78 l -0.097,1.92 c -0.043,1.07 -0.184,1.54 -0.235,2.38 -0.371,2.9 -1.074,5.81 -2.195,8.52 -1.918,5.43 -5.055,10.3 -8.473,14.7 -2.246,2.71 -4.683,5.29 -7.207,7.67 -1.449,1.35 -2.902,2.71 -4.449,4.03 -0.84,0.7 -1.684,1.4 -2.523,2.01 l 2.195,2.85 c 0.328,0.52 0.754,0.99 1.082,1.41 z m 8.187,35.8 c 5.289,2.76 11.329,5.38 16.989,7.68 -0.465,-6.04 -1.168,-12.74 -2.149,-18.59 -4.074,-0.65 -7.961,-1.82 -11.656,-3.41 -1.172,-0.52 -2.387,-1.08 -3.461,-1.78 0.277,1.26 0.418,2.53 0.559,3.79 0.371,4.03 0.328,8.24 -0.282,12.31 z m 79.375,-185.01 c -5.992,-1.49 -12.636,-2.85 -18.531,-3.79 -1.824,3.56 -4.121,6.93 -6.785,9.83 -0.848,0.98 -1.734,1.97 -2.715,2.85 1.262,0.1 2.524,0.29 3.789,0.57 4.071,0.84 8.051,2.25 11.84,4.12 4.164,-4.17 8.473,-8.99 12.402,-13.58 z m -29.437,-40.29 c -2.715,-6.64 -6.973,-12.78 -11.75,-18.49 -4.91,-5.71 -10.484,-11 -16.375,-15.87 -5.852,-4.82 -12.496,-9.54 -18.77,-13.52 -6.554,-4.12 -13.293,-7.82 -20.265,-10.62 -6.926,-2.77 -14.086,-4.92 -21.25,-5.43 -3.649,-0.29 -7.207,-0.19 -10.668,0.28 l -2.434,0.37 -2.945,0.71 c -1.551,0.51 -2.953,0.89 -4.594,1.72 -1.215,0.47 -2.289,1.03 -3.367,1.74 -3.137,1.73 -5.898,4.11 -8.332,6.83 v 0.05 c -1.496,1.54 -2.758,3.23 -3.836,4.96 -3.137,4.73 -5.055,10.25 -5.801,15.96 0.137,1.12 0.231,2.11 0.231,3.23 v 1.26 l -0.094,3.42 c 1.031,0.04 2.109,0.14 3.23,0.18 2.34,0.14 4.774,0.43 7.161,0.7 8.519,1.18 17.085,3.56 24.898,8.38 4.59,2.86 8.703,6.79 11.562,11.84 9.403,-5.24 21.387,-9.77 23.262,-10.53 0.418,-0.14 0.84,-0.23 1.258,-0.23 0.703,0 1.406,0.23 2.016,0.7 0.89,0.66 1.453,1.78 1.402,2.95 -0.094,2.01 -0.563,14.28 -2.523,24.71 0.562,0.14 1.121,0.29 1.636,0.42 l 1.778,0.71 c 1.078,0.37 1.496,0.65 2.246,0.93 2.668,1.27 5.148,2.85 7.394,4.64 4.586,3.64 8.281,8.09 11.418,12.73 1.875,2.89 3.559,5.99 5.102,9.12 0.844,1.78 1.64,3.7 2.437,5.47 0.418,0.99 0.84,2.02 1.168,3 l 3.274,-1.17 c 0.703,-0.28 1.308,-0.47 1.875,-0.75 2.851,-1.22 5.191,-2.47 7.629,-4.12 2.902,-2.01 5.472,-4.49 7.722,-7.2 0.985,-1.17 1.871,-2.44 2.668,-3.75 2.012,-3.22 3.461,-6.69 4.352,-10.25 0.418,-1.59 0.703,-3.18 0.844,-4.82 0.839,-6.74 -0.844,-13.71 -3.559,-20.26 z m -134.649,-78.54 c -3.277,5.34 -6.691,11.28 -9.312,16.71 2.762,2.81 5.055,5.95 7.02,9.27 0.609,1.03 1.265,2.15 1.828,3.37 0.562,-1.12 1.121,-2.25 1.726,-3.37 2.106,-3.69 4.727,-7.16 7.727,-10.16 -2.578,-5.19 -5.856,-10.81 -8.989,-15.82 z m -53.777,81.58 c -5.195,-2.62 -11.605,-5.48 -17.078,-7.72 0.422,6.36 1.215,13.85 2.43,19.8 4.258,0 8.472,0.98 12.312,2.81 0.375,0.14 0.653,0.27 0.981,0.46 -0.84,-5.1 -0.469,-10.39 1.355,-15.35 z m 50.598,171.48 c 0,-0.09 0,-0.09 0,-0.09 -0.098,-0.42 -0.098,-0.89 -0.098,-1.22 -0.043,-0.56 -0.043,-1.12 -0.043,-1.68 l 0.184,-5.67 0.375,-9.88 c 0.281,-7.11 0.469,-14.18 0.75,-21.24 h -0.188 c -7.066,-0.52 -13.523,-2.53 -18.859,-5.9 -0.609,-0.32 -1.078,-0.65 -1.453,-0.94 -0.328,-0.23 -0.703,-0.51 -1.121,-0.79 -0.145,-0.04 -0.563,-0.33 -0.614,-0.42 -0.277,-0.19 -0.558,-0.42 -0.746,-0.61 -0.703,-0.42 -1.078,-0.84 -1.078,-0.84 -5.289,-4.45 -9.262,-9.87 -11.836,-16.38 l -0.051,-0.14 c -6.644,2.38 -13.246,4.82 -19.933,7.25 l -9.547,3.47 -5.102,1.82 c -0.703,0.28 -1.406,0.56 -2.011,0.89 -3.512,1.55 -6.418,3.79 -8.848,6.69 -1.543,1.83 -2.715,3.93 -3.512,6.09 -0.746,1.87 -1.265,3.84 -1.449,5.8 -0.094,0.42 -0.094,0.89 -0.094,1.36 -0.187,3.84 0.84,7.68 2.34,11.46 3.418,8.43 10.297,15.73 17.832,21.95 0.703,0.56 1.449,1.18 2.196,1.73 0.14,0.15 0.285,0.29 0.519,0.43 2.102,1.59 4.305,3.18 6.551,4.68 0.137,0.14 0.277,0.28 0.469,0.32 0.796,0.57 1.543,1.13 2.289,1.6 4.215,2.66 8.523,5.05 12.922,6.83 4.441,1.82 8.984,3.23 13.527,3.56 2.289,0.23 4.539,0.23 6.734,-0.05 l 1.543,-0.24 1.875,-0.41 c 0.235,-0.06 0.516,-0.15 0.699,-0.29 0.704,-0.18 1.407,-0.42 2.153,-0.75 1.5,-0.61 2.859,-1.4 4.121,-2.43 5.105,-3.65 8.566,-9.55 9.504,-15.96 z m 4.164,13.94 c -0.281,-0.41 -0.469,-0.84 -0.75,-1.35 -2.246,4.49 -5.567,8.52 -9.832,11.47 2.48,5.29 6.133,11.46 9.316,16.56 3.371,-5.28 7.067,-11.84 9.547,-17.27 -3.418,-2.52 -6.176,-5.8 -8.281,-9.41 z m 88.644,-45.57 c -0.05,-0.8 0,-1.55 -0.144,-2.44 -0.141,-1.64 -0.469,-3.14 -1.027,-4.63 -1.829,-5.86 -6.227,-10.91 -11.793,-13.86 0,0 -0.051,0 -0.141,-0.09 -0.563,-0.05 -1.172,-0.23 -1.734,-0.38 -0.563,-0.14 -1.032,-0.28 -1.543,-0.51 l -5.289,-1.97 -9.317,-3.32 c -6.687,-2.43 -13.336,-4.82 -20.027,-7.16 v 0.05 c -1.266,3.28 -2.903,6.41 -5.012,9.27 -2.012,2.8 -4.301,5.24 -6.879,7.39 -0.137,0.14 -0.277,0.19 -0.422,0.33 -1.261,1.07 -2.523,1.91 -3.836,2.76 l -0.14,0.04 c 0,0 -0.094,0.05 -0.137,0.15 -5.523,3.41 -11.844,5.52 -18.352,6.08 -0.277,0.05 -0.605,0.05 -0.98,0.05 0.234,7.11 0.512,14.13 0.797,21.24 l 0.418,10.39 0.191,5.25 c 0,0.89 0.094,1.82 0.278,2.61 0.421,3.66 1.593,6.93 3.605,9.98 1.215,1.91 2.621,3.5 4.211,4.91 1.687,1.45 3.555,2.62 5.477,3.56 0.281,0.14 0.558,0.18 0.843,0.28 3.696,1.49 7.953,1.78 12.074,1.45 9.079,-0.7 18.11,-4.96 26.399,-10.25 0.793,-0.52 1.492,-0.98 2.246,-1.55 0.137,-0.04 0.324,-0.14 0.469,-0.32 2.246,-1.5 4.535,-3.14 6.687,-4.82 0.141,-0.15 0.235,-0.24 0.375,-0.29 0.75,-0.6 1.543,-1.16 2.199,-1.82 3.836,-3.14 7.399,-6.46 10.485,-10.16 3.133,-3.65 5.848,-7.53 7.582,-11.79 0.937,-2.11 1.543,-4.26 1.969,-6.41 l 0.277,-1.54 0.191,-1.92 z m 12.493,-25.66 c -3.418,2.44 -7.305,4.03 -11.372,4.88 -0.468,0.14 -0.984,0.18 -1.449,0.27 3.602,3.6 6.313,8.01 7.813,13.01 5.758,-0.74 12.73,-2.19 18.535,-3.69 -4.074,-4.87 -9.125,-10.35 -13.527,-14.47 z m -129.594,-34.49 c -0.09,0.38 -0.235,0.66 -0.375,1.08 -0.235,0.61 -0.469,1.22 -0.606,1.87 0,0.33 -0.093,0.66 -0.191,1.03 -1.258,4.64 -1.215,9.41 0.098,14.23 0,0.05 0,0.05 0,0.14 0.136,0.28 0.23,0.61 0.328,0.98 0.043,0.57 0.234,1.17 0.511,1.92 0.145,0.23 0.235,0.47 0.329,0.7 1.824,4.63 4.726,8.61 8.566,11.84 l 0.23,0.24 c 0.379,0.23 0.657,0.46 0.985,0.84 l 0.609,0.47 c 0.375,0.14 1.078,0.65 1.449,0.89 4.215,2.62 8.848,4.16 13.762,4.44 0.324,0 0.516,0 0.844,0.09 0.84,0.05 1.59,0.05 2.289,-0.09 0.375,-0.09 0.754,-0.09 1.172,-0.09 4.777,-0.28 9.547,-1.83 13.668,-4.4 0,0 0,0 0.094,0 0,-0.09 0.043,-0.09 0.043,-0.09 1.031,-0.61 1.921,-1.31 2.855,-2.06 0.234,-0.24 0.469,-0.38 0.656,-0.56 1.688,-1.46 3.324,-3.19 4.633,-5.01 1.5,-2.02 2.672,-4.17 3.512,-6.46 0,-0.14 0.047,-0.23 0.14,-0.38 0.375,-0.98 0.704,-2.06 0.938,-3.04 0.043,-0.23 0.137,-0.46 0.183,-0.7 1.172,-4.49 1.172,-9.41 0,-14.09 -0.046,-0.14 -0.046,-0.28 -0.14,-0.42 -0.235,-1.03 -0.606,-2.15 -0.981,-3.13 -0.14,-0.24 -0.234,-0.47 -0.328,-0.8 -1.875,-4.49 -4.82,-8.47 -8.472,-11.46 -0.235,-0.15 -0.469,-0.38 -0.704,-0.52 -0.234,-0.24 -0.511,-0.56 -1.214,-0.94 -0.235,-0.23 -0.512,-0.37 -0.746,-0.51 -0.332,-0.19 -0.563,-0.33 -0.704,-0.47 -4.121,-2.62 -8.941,-4.12 -13.996,-4.44 -1.121,-0.1 -2.293,-0.1 -3.418,0.09 h -0.793 c -4.82,0.37 -9.406,1.92 -13.386,4.35 -0.235,0.24 -0.469,0.38 -0.653,0.52 -0.797,0.56 -1.547,1.07 -2.246,1.68 -0.234,0.24 -0.469,0.38 -0.703,0.56 -1.594,1.26 -3.137,2.95 -4.633,5.1 -1.402,1.83 -2.531,3.94 -3.605,6.6 z m 2.203,-27.7 c 0.934,1.4 1.914,2.81 2.852,4.21 0,0 0.046,0 0.14,-0.1 5.567,-3.6 12.027,-5.85 18.813,-6.45 0.468,-0.1 0.89,-0.14 1.308,-0.14 h 0.426 c 0.703,0 1.402,-0.1 2.152,-0.1 0.797,0 1.543,0.1 2.391,0.1 6.879,0.42 13.52,2.57 19.277,6.27 0,0 0,0.04 0.098,0.04 3.973,-5.85 7.859,-11.74 11.742,-17.69 l 5.758,-8.56 2.902,-4.4 c 0.516,-0.75 0.985,-1.54 1.309,-2.29 1.777,-3.23 2.715,-6.56 2.949,-10.25 0.047,-2.01 -0.09,-4.03 -0.558,-5.99 -0.469,-2.3 -1.317,-4.55 -2.438,-6.51 -0.094,-0.14 -0.23,-0.33 -0.371,-0.47 -2.063,-3.46 -5.43,-6.27 -9.035,-8.52 -7.817,-4.72 -17.645,-6.55 -27.469,-7.11 -0.894,0 -1.828,-0.05 -2.766,-0.05 h -0.558 c -2.715,-0.09 -5.524,-0.09 -8.238,0.05 h -0.512 c -0.938,0.09 -1.875,0.09 -2.766,0.14 -4.961,0.28 -9.781,0.98 -14.414,2.1 -4.683,1.18 -9.125,2.81 -13.055,5.16 -1.968,1.21 -3.746,2.57 -5.382,4.11 l -1.078,1.03 -1.266,1.5 c -0.094,0.14 -0.141,0.19 -0.277,0.33 -0.426,0.7 -0.891,1.31 -1.407,2.15 -0.746,1.36 -1.402,2.72 -1.828,4.21 -1.918,5.9 -1.355,12.83 1.688,18.54 0.375,0.42 0.703,0.84 1.031,1.31 0.375,0.42 0.699,0.89 1.078,1.4 l 3.039,4.54 5.711,8.28 c 2.898,4.31 5.805,8.66 8.613,12.97 0.043,0.05 0.141,0.14 0.141,0.19 z m 92.898,-32.39 c -6.222,0 -12.5,2.62 -17.035,7.16 l -0.047,0.1 c -0.281,0.46 -0.656,1.02 -0.98,1.54 -0.285,0.37 -0.563,0.75 -0.848,1.17 l -3.461,4.54 h -0.093 l -5.993,7.77 c -4.304,5.61 -8.656,11.23 -12.961,16.8 l 0.09,0.09 c 0.051,0.05 0.145,0.14 0.285,0.19 5.145,4.26 9.262,9.83 11.84,16.24 0,0.09 0.043,0.14 0.043,0.28 0.656,1.41 1.125,3 1.551,4.54 0.043,0.14 0.043,0.29 0.137,0.42 0.886,3.42 1.312,6.84 1.312,10.25 0,3.33 -0.426,6.74 -1.312,10.02 0,0 0,0 0,0.09 6.836,1.92 13.574,3.88 20.406,5.76 l 9.969,2.81 5.004,1.4 c 0.843,0.28 1.781,0.46 2.621,0.56 3.605,0.7 7.164,0.56 10.625,-0.37 2.062,-0.56 3.98,-1.41 5.758,-2.35 2.011,-1.21 3.746,-2.66 5.289,-4.35 0.14,-0.14 0.281,-0.28 0.328,-0.47 2.664,-3.08 4.355,-7.06 5.285,-11.23 2.203,-8.84 0.848,-18.81 -1.633,-28.31 -0.234,-0.8 -0.519,-1.73 -0.797,-2.62 0,-0.24 -0.051,-0.38 -0.14,-0.56 -0.75,-2.58 -1.637,-5.25 -2.575,-7.73 -0.05,-0.23 -0.14,-0.37 -0.187,-0.55 -0.281,-0.94 -0.656,-1.83 -0.985,-2.68 -1.828,-4.53 -3.929,-8.98 -6.503,-13 -2.481,-4.13 -5.336,-7.91 -8.848,-10.82 -1.731,-1.54 -3.606,-2.81 -5.566,-3.93 l -1.313,-0.66 -1.824,-0.79 c -0.141,-0.05 -0.332,-0.05 -0.465,-0.14 -0.797,-0.28 -1.5,-0.56 -2.438,-0.7 -1.496,-0.33 -3.043,-0.47 -4.539,-0.47 z m -12.5,-6.37 c -0.043,0.52 -0.043,0.99 -0.183,1.55 4.492,-2.39 9.594,-3.6 14.84,-3.47 1.023,-5.7 1.82,-12.77 2.246,-18.67 -5.059,2.01 -10.77,4.59 -15.637,7.07 -0.84,0.42 -1.684,0.94 -2.43,1.36 1.266,3.97 1.59,8.14 1.164,12.16 z m -170.398,114.81 c 5.992,1.54 13.102,3 18.949,3.69 1.406,-4.25 3.653,-8.14 6.653,-11.37 0.183,-0.18 0.417,-0.42 0.558,-0.6 -0.422,0 -0.793,-0.1 -1.219,-0.15 -4.3,-0.84 -8.566,-2.66 -12.168,-5.38 -0.093,0 -0.093,0 -0.093,0 -4.164,4.07 -8.844,9.27 -12.68,13.81 z m 10.105,-34.49 c 0.84,3.6 2.247,7.29 4.309,10.24 0.277,0.57 0.703,1.13 1.215,1.69 1.031,1.22 2.199,2.34 3.605,3.33 4.817,3.41 11.278,4.67 17.547,3.6 0,0 0.098,0 0.141,-0.05 0.519,-0.28 1.125,-0.47 1.687,-0.7 0.61,-0.19 1.172,-0.43 1.825,-0.61 l 5.195,-1.5 9.687,-2.76 20.5,-5.85 c -0.136,-0.14 -0.136,-0.37 -0.187,-0.56 -1.59,-6.41 -1.59,-12.92 0,-19.24 0,-0.37 0.051,-0.7 0.187,-0.98 0.282,-1.17 0.653,-2.43 1.078,-3.56 0.043,-0.28 0.188,-0.47 0.278,-0.7 1.312,-3.42 3,-6.55 5.055,-9.45 2.292,-3.09 4.632,-5.53 6.644,-7.12 0.141,-0.13 0.328,-0.27 0.469,-0.42 -1.031,-1.35 -2.055,-2.66 -3.133,-3.98 -0.047,-0.13 -0.145,-0.23 -0.188,-0.28 -3.277,-4.02 -6.55,-8 -9.828,-12.07 l -6.644,-8.19 -3.137,-3.84 c -0.609,-0.84 -1.266,-1.55 -1.918,-2.24 -2.48,-2.67 -5.336,-4.45 -8.613,-5.81 -1.918,-0.75 -3.93,-1.21 -6.035,-1.45 -2.297,-0.19 -4.543,-0.05 -6.696,0.38 -0.281,0.04 -0.562,0.13 -0.843,0.18 -3.832,0.89 -7.395,3.14 -10.668,5.8 -6.883,5.86 -11.7,14.56 -15.262,23.69 -0.418,1.03 -0.746,2.1 -1.121,3.23 -0.043,0.09 -0.137,0.23 -0.188,0.37 -0.839,2.62 -1.683,5.24 -2.429,7.82 -0.098,0.14 -0.098,0.28 -0.141,0.42 -0.234,0.79 -0.422,1.45 -0.656,2.24 -1.172,4.82 -2.059,9.6 -2.438,14.37 -0.418,4.78 -0.277,9.55 0.703,14 z m 90.797,-146.87 c -2.343,-2.99 -5.289,-5.47 -8.425,-7.44 -1.454,-0.93 -2.903,-1.68 -4.446,-2.38 -6.226,-2.86 -13.383,-3.42 -20.406,-2.86 -7.207,0.56 -14.32,2.72 -21.199,5.57 -6.973,2.81 -13.668,6.56 -20.172,10.67 -6.317,4.12 -12.871,8.94 -18.676,13.71 -5.851,4.96 -11.418,10.25 -16.242,16.05 -4.77,5.72 -8.984,11.94 -11.699,18.63 -1.399,3.28 -2.43,6.69 -3.039,10.16 l -0.371,2.43 -0.286,3 c 0.094,1.68 0,3.09 0.235,4.86 0.14,1.23 0.328,2.35 0.609,3.51 0.699,3.56 2.012,6.98 3.934,10.16 1.023,1.92 2.289,3.65 3.644,5.34 3.563,4.35 8.196,7.86 13.25,10.29 1.215,0.28 2.336,0.57 3.367,0.89 0.563,0.14 1.032,0.38 1.543,0.52 l 3,1.03 c 0.325,-1.17 0.84,-2.39 1.309,-3.56 0.844,-2.01 1.73,-4.12 2.715,-6.13 3.695,-7.86 8.656,-15.4 15.914,-21.34 1.07,-0.94 2.293,-1.74 3.551,-2.63 1.316,-0.79 2.765,-1.58 3.797,-2.1 2.246,-1.03 4.632,-1.96 7.066,-2.43 -2.106,-10.58 -2.719,-23.36 -2.809,-25.37 0,-1.17 0.512,-2.29 1.496,-3 0.516,-0.42 1.313,-0.65 2.012,-0.65 0.422,0 0.844,0.09 1.168,0.23 1.875,0.71 13.391,4.97 22.75,9.97 0.328,-0.42 0.606,-0.88 0.887,-1.31 l 1.172,-1.54 c 0.699,-0.85 1.074,-1.22 1.59,-1.74 2.058,-2.19 4.261,-4.11 6.695,-5.75 4.91,-3.18 10.203,-5.33 15.582,-6.88 3.414,-0.89 6.883,-1.59 10.344,-2.11 1.968,-0.28 3.929,-0.46 5.898,-0.61 1.031,-0.09 2.152,-0.18 3.184,-0.18 l -0.141,-3.51 c -0.051,-0.75 -0.051,-1.41 -0.144,-2.11 v -0.05 c -0.282,-2.95 -0.84,-5.52 -1.59,-8.28 -1.075,-3.42 -2.575,-6.64 -4.446,-9.55 -0.793,-1.26 -1.64,-2.38 -2.621,-3.51 z m -149.254,91.13 c 4.075,4.72 8.758,9.87 13.106,14.13 3.605,-1.73 7.351,-3.09 11.281,-3.84 1.121,-0.23 2.152,-0.42 3.277,-0.56 -0.937,-0.89 -1.828,-1.82 -2.668,-2.72 -2.898,-3.22 -5.429,-6.83 -7.394,-10.71 -5.711,0.93 -11.887,2.29 -17.602,3.7 z m -10.48,40.2 c 0.937,-2.25 1.965,-4.45 2.855,-6.08 2.153,-4.03 4.868,-7.87 8.239,-11.1 1.121,-1.07 2.246,-2.06 3.418,-3.04 -7.961,-8.1 -15.118,-16.99 -17.364,-19.7 -1.031,-1.41 -1.406,-3.23 -0.89,-4.92 0.562,-1.63 1.871,-2.9 3.554,-3.41 3.278,-0.99 13.809,-3.84 24.571,-5.72 -0.278,-1.12 -0.469,-2.19 -0.703,-3.32 -0.371,-2.15 -0.512,-4.77 -0.606,-7.11 l 0.094,-2.99 c 0.047,-1.6 0.277,-2.39 0.418,-3.56 0.469,-4.54 1.594,-8.94 3.183,-13.06 3.094,-8.33 7.821,-15.73 13.016,-22.51 5.379,-6.69 11.465,-12.59 17.781,-18.02 6.504,-5.57 12.914,-10.34 20.078,-14.93 13.997,-8.94 29.907,-16.52 47.832,-17.64 8.844,-0.61 18.254,0.7 26.625,4.86 1.458,0.8 2.907,1.55 4.309,2.53 5.152,-10.02 11.371,-19.52 13.289,-22.47 0.988,-1.44 2.672,-2.33 4.402,-2.33 1.731,0 3.368,0.89 4.356,2.33 1.867,2.91 7.91,12.03 13.055,21.77 1.074,-0.61 2.105,-1.27 3.226,-1.83 1.875,-1.03 4.309,-1.92 6.555,-2.76 l 2.855,-0.84 c 1.543,-0.42 2.391,-0.47 3.555,-0.75 4.398,-0.84 8.941,-1.12 13.293,-0.94 8.938,0.38 17.461,2.58 25.461,5.53 8.004,3.04 15.539,6.97 22.652,11.37 7.301,4.45 13.805,9.13 20.356,14.46 12.73,10.67 24.855,23.45 31.5,40.16 3.277,8.24 4.961,17.55 3.461,26.86 -0.184,1.59 -0.559,3.14 -0.938,4.63 11.051,1.83 21.953,4.78 25.274,5.72 1.687,0.41 3,1.77 3.562,3.41 0.559,1.64 0.235,3.51 -0.848,4.82 -2.152,2.72 -9.031,11.38 -16.8,19.33 0.988,0.8 1.968,1.73 2.855,2.62 1.637,1.54 3.231,3.56 4.68,5.43 l 1.687,2.43 c 0.84,1.36 1.168,2.11 1.825,3.14 2.152,3.98 3.836,8.19 4.914,12.45 2.433,8.56 2.949,17.32 2.574,25.92 -0.375,8.57 -1.871,16.86 -3.789,25 -2.059,8.28 -4.496,15.91 -7.629,23.82 -6.18,15.44 -14.652,30.89 -28.504,42.31 -6.832,5.66 -15.258,10.06 -24.477,11.51 -1.449,0.28 -2.992,0.42 -4.445,0.52 1.68,11.04 2.149,22.23 2.293,25.65 0.09,1.73 -0.703,3.41 -2.062,4.44 -1.493,1.03 -3.278,1.26 -4.911,0.7 -3.277,-1.16 -13.711,-5.14 -23.73,-10.11 -0.516,1.31 -1.074,2.58 -1.688,3.75 -0.98,2.01 -2.382,4.21 -3.695,6.08 l -1.867,2.43 c -0.988,1.18 -1.645,1.74 -2.438,2.67 -3.085,3.28 -6.554,6.13 -10.343,8.47 -7.391,4.96 -15.586,8.1 -23.825,10.49 -8.281,2.15 -16.66,3.32 -24.937,3.97 -8.57,0.62 -16.527,0.66 -25.039,0.05 -16.57,-1.12 -33.938,-4.4 -49.051,-14.08 -7.488,-4.83 -14.226,-11.42 -18.484,-19.8 -0.614,-1.27 -1.266,-2.58 -1.735,-3.89 -9.921,4.97 -20.218,8.9 -23.496,10.11 -1.593,0.61 -3.511,0.33 -4.863,-0.7 -1.406,-0.98 -2.25,-2.67 -2.152,-4.4 0.09,-3.41 0.652,-14.09 2.195,-24.81 -1.406,-0.09 -2.855,-0.27 -4.258,-0.55 -9.265,-1.73 -17.129,-6 -24.008,-11.56 -6.929,-5.67 -12.453,-12.41 -17.179,-19.48 -4.582,-7.16 -8.285,-14.74 -11.512,-22.41 -3.277,-7.86 -5.758,-15.49 -7.863,-23.64 -4.121,-16.09 -6.317,-33.51 -1.825,-50.87 0.563,-2.15 1.356,-4.26 2.106,-6.41"
         style="fill:#231f20;fill-opacity:1;fill-rule:nonzero;stroke:none"
         id="path156"
         inkscape:connector-curvature="0" /><path
         d="m 1438.05,1672.73 c 0.02,-0.06 0.02,-0.11 0.04,-0.15 0.9,-4.89 5.19,-8.58 10.33,-8.58 5.8,0 10.51,4.71 10.51,10.52 0,2.23 -0.68,4.31 -1.88,6 -1.04,1.5 -2.55,2.63 -4.13,3.5 -0.67,0.36 0.08,1.37 0.82,3.3 0.96,2.5 1.91,7.81 -5.84,13.35 0,0 3.96,-5.06 1.71,-9.05 -2.29,-4.08 -10.81,-6.74 -11.65,-15.99 v -0.11 c -0.04,-0.27 -0.06,-0.52 -0.04,-0.79 -0.02,-0.1 -0.02,-0.19 -0.02,-0.31 0,-0.28 0.02,-0.57 0.04,-0.86 0.04,-0.29 0.07,-0.56 0.11,-0.83"
         style="fill:#231f20;fill-opacity:1;fill-rule:nonzero;stroke:none"
         id="path158"
         inkscape:connector-curvature="0" /><path
         d="m 786.355,754.641 h 2.208 c -7.852,-5.629 -13.02,-14.77 -13.02,-25.153 0,-9.738 4.613,-18.347 11.672,-24.027 H 553.672 Z m 15.993,12.23 -6.387,9.438 10.547,16.332 10.551,-16.332 -0.008,-0.59 -6.301,-8.739 c -0.551,-0.699 -1.187,-1.23 -1.84,-1.652 h -5.012 c -0.636,0.461 -1.171,1.031 -1.55,1.543 z m 256.992,-61.41 H 825.801 c 7.058,5.68 11.679,14.289 11.679,24.027 0,10.383 -5.171,19.524 -13.027,25.153 h 2.211 z M 1110.5,377.52 c -56.94,0 -74.79,45.531 -79.65,63.808 h 159.33 c -4.81,-18.269 -22.53,-63.808 -79.68,-63.808 z m 6.36,76.628 -2.75,220.762 75.1,-220.762 z m -85.07,0 75.1,220.762 -2.75,-220.762 z m -219.024,238.793 11.32,-16.152 c 0.391,-0.551 0.566,-1.219 0.512,-1.898 l -18.09,-208.68 -18.098,208.801 c -0.051,0.597 0.11,1.199 0.449,1.687 l 11.391,16.242 c 0.555,0.778 1.316,1.309 2.078,1.829 h 8.36 c 0.761,-0.52 1.527,-1.051 2.078,-1.829 z m -6.258,56.829 c 11.18,0 20.277,-9.098 20.277,-20.282 0,-11.179 -9.097,-20.269 -20.277,-20.269 -11.184,0 -20.274,9.09 -20.274,20.269 0,11.184 9.09,20.282 20.274,20.282 z M 502.52,377.52 c -56.95,0 -74.793,45.531 -79.661,63.808 H 582.168 C 577.305,423.051 559.457,377.52 502.52,377.52 Z m -6.364,76.628 h -72.347 l 75.089,220.762 z m 12.719,0 -2.746,220.762 75.094,-220.762 z m -100.301,-7.07 c 0.008,-0.09 -0.035,-0.187 -0.019,-0.277 0.121,-0.821 13.05,-82.11 93.965,-82.11 80.906,0 93.835,81.289 93.953,82.11 0.019,0.097 -0.028,0.211 -0.02,0.32 0.078,0.649 -0.004,1.309 -0.137,1.969 -0.035,0.18 -0.019,0.351 -0.074,0.519 -0.031,0.129 -0.008,0.262 -0.051,0.391 l -86.796,244.77 h 279.074 l -8.364,-11.93 c -1.781,-2.551 -2.617,-5.649 -2.351,-8.75 L 801.18,403.84 c 0.246,-2.77 2.55,-4.891 5.328,-4.891 2.777,0 5.086,2.121 5.328,4.891 l 23.418,270.14 c 0.266,3.18 -0.594,6.34 -2.41,8.942 l -8.305,11.848 H 1103.63 L 1016.83,450 c -0.01,-0.012 -0.02,-0.059 -0.03,-0.07 -0.04,-0.121 -0.01,-0.231 -0.04,-0.352 -0.04,-0.137 -0.03,-0.269 -0.06,-0.398 -0.14,-0.711 -0.23,-1.41 -0.14,-2.102 0.01,-0.09 -0.03,-0.187 -0.02,-0.277 0.12,-0.821 13.05,-82.11 93.96,-82.11 80.91,0 93.84,81.289 93.96,82.11 0.02,0.097 -0.03,0.211 -0.02,0.32 0.08,0.641 0,1.301 -0.13,1.957 -0.04,0.184 -0.03,0.352 -0.08,0.531 -0.04,0.129 -0.01,0.262 -0.06,0.391 l -88.41,249.352 c 0.01,0.07 0.05,0.128 0.06,0.207 0.28,2.722 -1.53,5.211 -4.21,5.793 l -283.282,59.867 c -0.359,0.07 -0.738,0.109 -1.109,0.109 h -7.117 l 3.886,5.391 c 2.196,3.062 2.293,7.07 0.254,10.242 l -14.14,21.879 c -1.579,2.449 -5.606,2.449 -7.188,0 l -14.141,-21.879 c -2.043,-3.172 -1.945,-7.18 0.258,-10.25 l 3.883,-5.383 h -7.117 c -0.375,0 -0.746,-0.039 -1.109,-0.109 L 501.41,705.352 c -2.68,-0.582 -4.496,-3.071 -4.211,-5.793 0.008,-0.079 0.051,-0.137 0.067,-0.207 L 408.84,450 c -0.004,-0.012 -0.02,-0.059 -0.024,-0.07 -0.043,-0.121 -0.015,-0.231 -0.046,-0.352 -0.04,-0.137 -0.02,-0.269 -0.055,-0.406 -0.149,-0.703 -0.227,-1.402 -0.141,-2.094"
         style="fill:#231f20;fill-opacity:1;fill-rule:nonzero;stroke:none"
         id="path160"
         inkscape:connector-curvature="0" /></g></g></svg>