<?xml version="1.0" encoding="UTF-8" standalone="no"?>
<!-- Created with Inkscape (http://www.inkscape.org/) -->

<svg
   xmlns:dc="http://purl.org/dc/elements/1.1/"
   xmlns:cc="http://creativecommons.org/ns#"
   xmlns:rdf="http://www.w3.org/1999/02/22-rdf-syntax-ns#"
   xmlns:svg="http://www.w3.org/2000/svg"
   xmlns="http://www.w3.org/2000/svg"
   xmlns:sodipodi="http://sodipodi.sourceforge.net/DTD/sodipodi-0.dtd"
   xmlns:inkscape="http://www.inkscape.org/namespaces/inkscape"
   width="220.75464mm"
   height="69.229721mm"
   viewBox="0 0 220.75463 69.229723"
   version="1.1"
   id="svg8"
   inkscape:version="0.92.3 (2405546, 2018-03-11)"
   sodipodi:docname="grid_third.svg">
  <defs
     id="defs2">
    <clipPath
       id="clipPath835"
       clipPathUnits="userSpaceOnUse">
      <path
         inkscape:connector-curvature="0"
         id="path833"
         d="M 216.141,0 H 841.889 V 595.275 H 216.141 Z" />
    </clipPath>
  </defs>
  <sodipodi:namedview
     id="base"
     pagecolor="#ffffff"
     bordercolor="#666666"
     borderopacity="1.0"
     inkscape:pageopacity="0.0"
     inkscape:pageshadow="2"
     inkscape:zoom="1.979899"
     inkscape:cx="343.63561"
     inkscape:cy="401.90125"
     inkscape:document-units="mm"
     inkscape:current-layer="layer1"
     showgrid="false"
     inkscape:window-width="3840"
     inkscape:window-height="1984"
     inkscape:window-x="-16"
     inkscape:window-y="-16"
     inkscape:window-maximized="1" />
  <metadata
     id="metadata5">
    <rdf:RDF>
      <cc:Work
         rdf:about="">
        <dc:format>image/svg+xml</dc:format>
        <dc:type
           rdf:resource="http://purl.org/dc/dcmitype/StillImage" />
        <dc:title></dc:title>
      </cc:Work>
    </rdf:RDF>
  </metadata>
  <g
     inkscape:label="Layer 1"
     inkscape:groupmode="layer"
     id="layer1"
     transform="translate(-344.07611,-549.86212)">
    <g
       clip-path="url(#clipPath835)"
       id="g831"
       transform="matrix(0.35277777,0,0,-0.35277777,267.80966,618.95823)"
       style="fill:#000000;fill-opacity:1;stroke:none;stroke-opacity:1">
      <g
         transform="translate(800.2163,94.4749)"
         id="g837"
         style="fill:#000000;fill-opacity:1;stroke:none;stroke-opacity:1">
        <path
           inkscape:connector-curvature="0"
           id="path839"
           style="fill:#000000;fill-opacity:1;fill-rule:nonzero;stroke:none;stroke-opacity:1"
           d="m 0,0 c 0.06,0 0.12,-0.023 0.166,-0.069 l 67.8,-67.8 c 0.092,-0.092 0.092,-0.241 0,-0.333 l -67.8,-67.8 c -0.092,-0.092 -0.24,-0.092 -0.332,0 l -67.801,67.8 c -0.044,0.044 -0.069,0.104 -0.069,0.167 0,0.062 0.025,0.122 0.069,0.166 l 67.801,67.8 C -0.12,-0.023 -0.06,0 0,0 M 67.467,-68.035 0,-0.568 -67.468,-68.035 0,-135.503 Z" />
      </g>
      <g
         transform="translate(664.6158,94.4749)"
         id="g841"
         style="fill:#000000;fill-opacity:1;stroke:none;stroke-opacity:1">
        <path
           inkscape:connector-curvature="0"
           id="path843"
           style="fill:#000000;fill-opacity:1;fill-rule:nonzero;stroke:none;stroke-opacity:1"
           d="m 0,0 c 0.06,0 0.12,-0.023 0.166,-0.069 l 67.8,-67.8 c 0.092,-0.092 0.092,-0.241 0,-0.333 l -67.8,-67.8 c -0.092,-0.092 -0.24,-0.092 -0.333,0 l -67.799,67.8 c -0.092,0.092 -0.092,0.241 0,0.333 l 67.799,67.8 C -0.12,-0.023 -0.06,0 0,0 M 67.467,-68.035 0,-0.568 -67.467,-68.035 0,-135.503 Z" />
      </g>
      <g
         transform="translate(529.0157,94.4749)"
         id="g845"
         style="fill:#000000;fill-opacity:1;stroke:none;stroke-opacity:1">
        <path
           inkscape:connector-curvature="0"
           id="path847"
           style="fill:#000000;fill-opacity:1;fill-rule:nonzero;stroke:none;stroke-opacity:1"
           d="m 0,0 c 0.06,0 0.12,-0.023 0.166,-0.069 l 67.8,-67.8 c 0.092,-0.092 0.092,-0.241 0,-0.333 l -67.8,-67.8 c -0.092,-0.092 -0.24,-0.092 -0.332,0 l -67.8,67.8 c -0.092,0.092 -0.092,0.241 0,0.333 l 67.8,67.8 C -0.12,-0.023 -0.06,0 0,0 M 67.467,-68.035 0,-0.568 -67.467,-68.035 0,-135.503 Z" />
      </g>
      <g
         transform="translate(393.4156,94.4749)"
         id="g849"
         style="fill:#000000;fill-opacity:1;stroke:none;stroke-opacity:1">
        <path
           inkscape:connector-curvature="0"
           id="path851"
           style="fill:#000000;fill-opacity:1;fill-rule:nonzero;stroke:none;stroke-opacity:1"
           d="m 0,0 c 0.06,0 0.12,-0.023 0.166,-0.069 l 67.8,-67.8 c 0.092,-0.092 0.092,-0.241 0,-0.333 l -67.8,-67.8 c -0.092,-0.092 -0.24,-0.092 -0.332,0 l -67.8,67.8 c -0.092,0.092 -0.092,0.241 0,0.333 l 67.8,67.8 C -0.12,-0.023 -0.06,0 0,0 M 67.467,-68.035 0,-0.568 -67.467,-68.035 0,-135.503 Z" />
      </g>
      <g
         transform="translate(257.8157,94.4749)"
         id="g853"
         style="fill:#000000;fill-opacity:1;stroke:none;stroke-opacity:1">
        <path
           inkscape:connector-curvature="0"
           id="path855"
           style="fill:#000000;fill-opacity:1;fill-rule:nonzero;stroke:none;stroke-opacity:1"
           d="m 0,0 c 0.06,0 0.12,-0.023 0.166,-0.069 l 67.8,-67.8 c 0.092,-0.092 0.092,-0.241 0,-0.333 l -67.8,-67.8 c -0.092,-0.092 -0.24,-0.092 -0.332,0 l -67.801,67.8 c -0.044,0.044 -0.069,0.104 -0.069,0.167 0,0.062 0.025,0.122 0.069,0.166 l 67.801,67.8 C -0.12,-0.023 -0.06,0 0,0 M 67.467,-68.035 0,-0.568 -67.468,-68.035 0,-135.503 Z" />
      </g>
      <g
         transform="translate(800.2163,365.6749)"
         id="g857"
         style="fill:#000000;fill-opacity:1;stroke:none;stroke-opacity:1">
        <path
           inkscape:connector-curvature="0"
           id="path859"
           style="fill:#000000;fill-opacity:1;fill-rule:nonzero;stroke:none;stroke-opacity:1"
           d="m 0,0 c 0.06,0 0.12,-0.023 0.166,-0.069 l 67.8,-67.8 c 0.092,-0.092 0.092,-0.241 0,-0.333 l -67.8,-67.8 c -0.092,-0.092 -0.24,-0.092 -0.332,0 l -67.801,67.8 c -0.044,0.044 -0.069,0.104 -0.069,0.167 0,0.062 0.025,0.122 0.069,0.166 l 67.801,67.8 C -0.12,-0.023 -0.06,0 0,0 M 67.467,-68.035 0,-0.568 -67.468,-68.035 0,-135.503 Z" />
      </g>
      <g
         transform="translate(664.6158,365.6749)"
         id="g861"
         style="fill:#000000;fill-opacity:1;stroke:none;stroke-opacity:1">
        <path
           inkscape:connector-curvature="0"
           id="path863"
           style="fill:#000000;fill-opacity:1;fill-rule:nonzero;stroke:none;stroke-opacity:1"
           d="m 0,0 c 0.06,0 0.12,-0.023 0.166,-0.069 l 67.8,-67.8 c 0.092,-0.092 0.092,-0.241 0,-0.333 l -67.8,-67.8 c -0.092,-0.092 -0.24,-0.092 -0.333,0 l -67.799,67.8 c -0.092,0.092 -0.092,0.241 0,0.333 l 67.799,67.8 C -0.12,-0.023 -0.06,0 0,0 M 67.467,-68.035 0,-0.568 -67.467,-68.035 0,-135.503 Z" />
      </g>
      <g
         transform="translate(529.0157,365.6749)"
         id="g865"
         style="fill:#000000;fill-opacity:1;stroke:none;stroke-opacity:1">
        <path
           inkscape:connector-curvature="0"
           id="path867"
           style="fill:#000000;fill-opacity:1;fill-rule:nonzero;stroke:none;stroke-opacity:1"
           d="m 0,0 c 0.06,0 0.12,-0.023 0.166,-0.069 l 67.8,-67.8 c 0.092,-0.092 0.092,-0.241 0,-0.333 l -67.8,-67.8 c -0.092,-0.092 -0.24,-0.092 -0.332,0 l -67.8,67.8 c -0.092,0.092 -0.092,0.241 0,0.333 l 67.8,67.8 C -0.12,-0.023 -0.06,0 0,0 M 67.467,-68.035 0,-0.568 -67.467,-68.035 0,-135.503 Z" />
      </g>
      <g
         transform="translate(393.4156,365.6749)"
         id="g869"
         style="fill:#000000;fill-opacity:1;stroke:none;stroke-opacity:1">
        <path
           inkscape:connector-curvature="0"
           id="path871"
           style="fill:#000000;fill-opacity:1;fill-rule:nonzero;stroke:none;stroke-opacity:1"
           d="m 0,0 c 0.06,0 0.12,-0.023 0.166,-0.069 l 67.8,-67.8 c 0.092,-0.092 0.092,-0.241 0,-0.333 l -67.8,-67.8 c -0.092,-0.092 -0.24,-0.092 -0.332,0 l -67.8,67.8 c -0.092,0.092 -0.092,0.241 0,0.333 l 67.8,67.8 C -0.12,-0.023 -0.06,0 0,0 M 67.467,-68.035 0,-0.568 -67.467,-68.035 0,-135.503 Z" />
      </g>
      <g
         transform="translate(257.8157,365.6749)"
         id="g873"
         style="fill:#000000;fill-opacity:1;stroke:none;stroke-opacity:1">
        <path
           inkscape:connector-curvature="0"
           id="path875"
           style="fill:#000000;fill-opacity:1;fill-rule:nonzero;stroke:none;stroke-opacity:1"
           d="m 0,0 c 0.06,0 0.12,-0.023 0.166,-0.069 l 67.8,-67.8 c 0.092,-0.092 0.092,-0.241 0,-0.333 l -67.8,-67.8 c -0.092,-0.092 -0.24,-0.092 -0.332,0 l -67.801,67.8 c -0.044,0.044 -0.069,0.104 -0.069,0.167 0,0.062 0.025,0.122 0.069,0.166 l 67.801,67.8 C -0.12,-0.023 -0.06,0 0,0 M 67.467,-68.035 0,-0.568 -67.468,-68.035 0,-135.503 Z" />
      </g>
      <g
         transform="translate(800.2163,230.0749)"
         id="g877"
         style="fill:#000000;fill-opacity:1;stroke:none;stroke-opacity:1">
        <path
           inkscape:connector-curvature="0"
           id="path879"
           style="fill:#000000;fill-opacity:1;fill-rule:nonzero;stroke:none;stroke-opacity:1"
           d="m 0,0 c 0.06,0 0.12,-0.023 0.166,-0.069 l 67.8,-67.8 c 0.092,-0.092 0.092,-0.241 0,-0.333 l -67.8,-67.8 c -0.092,-0.092 -0.24,-0.092 -0.332,0 l -67.801,67.8 c -0.044,0.044 -0.069,0.104 -0.069,0.167 0,0.062 0.025,0.122 0.069,0.166 l 67.801,67.8 C -0.12,-0.023 -0.06,0 0,0 M 67.467,-68.035 0,-0.568 -67.468,-68.035 0,-135.503 Z" />
      </g>
      <g
         transform="translate(664.6158,230.0749)"
         id="g881"
         style="fill:#000000;fill-opacity:1;stroke:none;stroke-opacity:1">
        <path
           inkscape:connector-curvature="0"
           id="path883"
           style="fill:#000000;fill-opacity:1;fill-rule:nonzero;stroke:none;stroke-opacity:1"
           d="m 0,0 c 0.06,0 0.12,-0.023 0.166,-0.069 l 67.8,-67.8 c 0.092,-0.092 0.092,-0.241 0,-0.333 l -67.8,-67.8 c -0.092,-0.092 -0.24,-0.092 -0.333,0 l -67.799,67.8 c -0.092,0.092 -0.092,0.241 0,0.333 l 67.799,67.8 C -0.12,-0.023 -0.06,0 0,0 M 67.467,-68.035 0,-0.568 -67.467,-68.035 0,-135.503 Z" />
      </g>
      <g
         transform="translate(529.0157,230.0749)"
         id="g885"
         style="fill:#000000;fill-opacity:1;stroke:none;stroke-opacity:1">
        <path
           inkscape:connector-curvature="0"
           id="path887"
           style="fill:#000000;fill-opacity:1;fill-rule:nonzero;stroke:none;stroke-opacity:1"
           d="m 0,0 c 0.06,0 0.12,-0.023 0.166,-0.069 l 67.8,-67.8 c 0.092,-0.092 0.092,-0.241 0,-0.333 l -67.8,-67.8 c -0.092,-0.092 -0.24,-0.092 -0.332,0 l -67.8,67.8 c -0.092,0.092 -0.092,0.241 0,0.333 l 67.8,67.8 C -0.12,-0.023 -0.06,0 0,0 M 67.467,-68.035 0,-0.568 -67.467,-68.035 0,-135.503 Z" />
      </g>
      <g
         transform="translate(393.4156,230.0749)"
         id="g889"
         style="fill:#000000;fill-opacity:1;stroke:none;stroke-opacity:1">
        <path
           inkscape:connector-curvature="0"
           id="path891"
           style="fill:#000000;fill-opacity:1;fill-rule:nonzero;stroke:none;stroke-opacity:1"
           d="m 0,0 c 0.06,0 0.12,-0.023 0.166,-0.069 l 67.8,-67.8 c 0.092,-0.092 0.092,-0.241 0,-0.333 l -67.8,-67.8 c -0.092,-0.092 -0.24,-0.092 -0.332,0 l -67.8,67.8 c -0.092,0.092 -0.092,0.241 0,0.333 l 67.8,67.8 C -0.12,-0.023 -0.06,0 0,0 M 67.467,-68.035 0,-0.568 -67.467,-68.035 0,-135.503 Z" />
      </g>
      <g
         transform="translate(257.8157,230.0749)"
         id="g893"
         style="fill:#000000;fill-opacity:1;stroke:none;stroke-opacity:1">
        <path
           inkscape:connector-curvature="0"
           id="path895"
           style="fill:#000000;fill-opacity:1;fill-rule:nonzero;stroke:none;stroke-opacity:1"
           d="m 0,0 c 0.06,0 0.12,-0.023 0.166,-0.069 l 67.8,-67.8 c 0.092,-0.092 0.092,-0.241 0,-0.333 l -67.8,-67.8 c -0.092,-0.092 -0.24,-0.092 -0.332,0 l -67.801,67.8 c -0.044,0.044 -0.069,0.104 -0.069,0.167 0,0.062 0.025,0.122 0.069,0.166 l 67.801,67.8 C -0.12,-0.023 -0.06,0 0,0 M 67.467,-68.035 0,-0.568 -67.468,-68.035 0,-135.503 Z" />
      </g>
      <g
         transform="translate(796.8038,26.4393)"
         id="g897"
         style="fill:#000000;fill-opacity:1;stroke:none;stroke-opacity:1">
        <path
           inkscape:connector-curvature="0"
           id="path899"
           style="fill:#000000;fill-opacity:1;fill-rule:nonzero;stroke:none;stroke-opacity:1"
           d="M 0,0 C 0,1.885 1.528,3.412 3.412,3.412 5.297,3.412 6.824,1.885 6.824,0 6.824,-1.885 5.297,-3.412 3.412,-3.412 1.528,-3.412 0,-1.885 0,0" />
      </g>
      <g
         transform="translate(661.2037,26.4393)"
         id="g901"
         style="fill:#000000;fill-opacity:1;stroke:none;stroke-opacity:1">
        <path
           inkscape:connector-curvature="0"
           id="path903"
           style="fill:#000000;fill-opacity:1;fill-rule:nonzero;stroke:none;stroke-opacity:1"
           d="M 0,0 C 0,1.885 1.528,3.412 3.412,3.412 5.297,3.412 6.825,1.885 6.825,0 6.825,-1.885 5.297,-3.412 3.412,-3.412 1.528,-3.412 0,-1.885 0,0" />
      </g>
      <g
         transform="translate(525.6035,26.4393)"
         id="g905"
         style="fill:#000000;fill-opacity:1;stroke:none;stroke-opacity:1">
        <path
           inkscape:connector-curvature="0"
           id="path907"
           style="fill:#000000;fill-opacity:1;fill-rule:nonzero;stroke:none;stroke-opacity:1"
           d="M 0,0 C 0,1.885 1.528,3.412 3.412,3.412 5.297,3.412 6.824,1.885 6.824,0 6.824,-1.885 5.297,-3.412 3.412,-3.412 1.528,-3.412 0,-1.885 0,0" />
      </g>
      <g
         transform="translate(390.0034,26.4393)"
         id="g909"
         style="fill:#000000;fill-opacity:1;stroke:none;stroke-opacity:1">
        <path
           inkscape:connector-curvature="0"
           id="path911"
           style="fill:#000000;fill-opacity:1;fill-rule:nonzero;stroke:none;stroke-opacity:1"
           d="M 0,0 C 0,1.885 1.528,3.412 3.412,3.412 5.297,3.412 6.824,1.885 6.824,0 6.824,-1.885 5.297,-3.412 3.412,-3.412 1.528,-3.412 0,-1.885 0,0" />
      </g>
      <g
         transform="translate(254.4034,26.4393)"
         id="g913"
         style="fill:#000000;fill-opacity:1;stroke:none;stroke-opacity:1">
        <path
           inkscape:connector-curvature="0"
           id="path915"
           style="fill:#000000;fill-opacity:1;fill-rule:nonzero;stroke:none;stroke-opacity:1"
           d="M 0,0 C 0,1.885 1.527,3.412 3.412,3.412 5.297,3.412 6.825,1.885 6.825,0 6.825,-1.885 5.297,-3.412 3.412,-3.412 1.527,-3.412 0,-1.885 0,0" />
      </g>
      <g
         transform="translate(796.8038,26.4393)"
         id="g917"
         style="fill:#000000;fill-opacity:1;stroke:none;stroke-opacity:1">
        <path
           inkscape:connector-curvature="0"
           id="path919"
           style="fill:#000000;fill-opacity:1;fill-rule:nonzero;stroke:none;stroke-opacity:1"
           d="M 0,0 C 0,1.885 1.528,3.412 3.412,3.412 5.297,3.412 6.824,1.885 6.824,0 6.824,-1.885 5.297,-3.412 3.412,-3.412 1.528,-3.412 0,-1.885 0,0" />
      </g>
      <g
         transform="translate(729.0038,94.2395)"
         id="g921"
         style="fill:#000000;fill-opacity:1;stroke:none;stroke-opacity:1">
        <path
           inkscape:connector-curvature="0"
           id="path923"
           style="fill:#000000;fill-opacity:1;fill-rule:nonzero;stroke:none;stroke-opacity:1"
           d="M 0,0 C 0,1.884 1.528,3.412 3.412,3.412 5.297,3.412 6.824,1.884 6.824,0 6.824,-1.884 5.297,-3.412 3.412,-3.412 1.528,-3.412 0,-1.884 0,0" />
      </g>
      <g
         transform="translate(796.8038,162.0396)"
         id="g925"
         style="fill:#000000;fill-opacity:1;stroke:none;stroke-opacity:1">
        <path
           inkscape:connector-curvature="0"
           id="path927"
           style="fill:#000000;fill-opacity:1;fill-rule:nonzero;stroke:none;stroke-opacity:1"
           d="M 0,0 C 0,1.884 1.528,3.412 3.412,3.412 5.297,3.412 6.824,1.884 6.824,0 6.824,-1.884 5.297,-3.412 3.412,-3.412 1.528,-3.412 0,-1.884 0,0" />
      </g>
      <g
         transform="translate(661.2037,26.4393)"
         id="g929"
         style="fill:#000000;fill-opacity:1;stroke:none;stroke-opacity:1">
        <path
           inkscape:connector-curvature="0"
           id="path931"
           style="fill:#000000;fill-opacity:1;fill-rule:nonzero;stroke:none;stroke-opacity:1"
           d="M 0,0 C 0,1.885 1.528,3.412 3.412,3.412 5.297,3.412 6.825,1.885 6.825,0 6.825,-1.885 5.297,-3.412 3.412,-3.412 1.528,-3.412 0,-1.885 0,0" />
      </g>
      <g
         transform="translate(593.4036,94.2395)"
         id="g933"
         style="fill:#000000;fill-opacity:1;stroke:none;stroke-opacity:1">
        <path
           inkscape:connector-curvature="0"
           id="path935"
           style="fill:#000000;fill-opacity:1;fill-rule:nonzero;stroke:none;stroke-opacity:1"
           d="M 0,0 C 0,1.884 1.528,3.412 3.412,3.412 5.297,3.412 6.824,1.884 6.824,0 6.824,-1.884 5.297,-3.412 3.412,-3.412 1.528,-3.412 0,-1.884 0,0" />
      </g>
      <g
         transform="translate(661.2037,162.0396)"
         id="g937"
         style="fill:#000000;fill-opacity:1;stroke:none;stroke-opacity:1">
        <path
           inkscape:connector-curvature="0"
           id="path939"
           style="fill:#000000;fill-opacity:1;fill-rule:nonzero;stroke:none;stroke-opacity:1"
           d="M 0,0 C 0,1.884 1.528,3.412 3.412,3.412 5.297,3.412 6.825,1.884 6.825,0 6.825,-1.884 5.297,-3.412 3.412,-3.412 1.528,-3.412 0,-1.884 0,0" />
      </g>
      <g
         transform="translate(729.0038,94.2395)"
         id="g941"
         style="fill:#000000;fill-opacity:1;stroke:none;stroke-opacity:1">
        <path
           inkscape:connector-curvature="0"
           id="path943"
           style="fill:#000000;fill-opacity:1;fill-rule:nonzero;stroke:none;stroke-opacity:1"
           d="M 0,0 C 0,1.884 1.528,3.412 3.412,3.412 5.297,3.412 6.824,1.884 6.824,0 6.824,-1.884 5.297,-3.412 3.412,-3.412 1.528,-3.412 0,-1.884 0,0" />
      </g>
      <g
         transform="translate(525.6035,26.4393)"
         id="g945"
         style="fill:#000000;fill-opacity:1;stroke:none;stroke-opacity:1">
        <path
           inkscape:connector-curvature="0"
           id="path947"
           style="fill:#000000;fill-opacity:1;fill-rule:nonzero;stroke:none;stroke-opacity:1"
           d="M 0,0 C 0,1.885 1.528,3.412 3.412,3.412 5.297,3.412 6.824,1.885 6.824,0 6.824,-1.885 5.297,-3.412 3.412,-3.412 1.528,-3.412 0,-1.885 0,0" />
      </g>
      <g
         transform="translate(457.8035,94.2395)"
         id="g949"
         style="fill:#000000;fill-opacity:1;stroke:none;stroke-opacity:1">
        <path
           inkscape:connector-curvature="0"
           id="path951"
           style="fill:#000000;fill-opacity:1;fill-rule:nonzero;stroke:none;stroke-opacity:1"
           d="M 0,0 C 0,1.884 1.528,3.412 3.412,3.412 5.297,3.412 6.824,1.884 6.824,0 6.824,-1.884 5.297,-3.412 3.412,-3.412 1.528,-3.412 0,-1.884 0,0" />
      </g>
      <g
         transform="translate(525.6035,162.0396)"
         id="g953"
         style="fill:#000000;fill-opacity:1;stroke:none;stroke-opacity:1">
        <path
           inkscape:connector-curvature="0"
           id="path955"
           style="fill:#000000;fill-opacity:1;fill-rule:nonzero;stroke:none;stroke-opacity:1"
           d="M 0,0 C 0,1.884 1.528,3.412 3.412,3.412 5.297,3.412 6.824,1.884 6.824,0 6.824,-1.884 5.297,-3.412 3.412,-3.412 1.528,-3.412 0,-1.884 0,0" />
      </g>
      <g
         transform="translate(593.4036,94.2395)"
         id="g957"
         style="fill:#000000;fill-opacity:1;stroke:none;stroke-opacity:1">
        <path
           inkscape:connector-curvature="0"
           id="path959"
           style="fill:#000000;fill-opacity:1;fill-rule:nonzero;stroke:none;stroke-opacity:1"
           d="M 0,0 C 0,1.884 1.528,3.412 3.412,3.412 5.297,3.412 6.824,1.884 6.824,0 6.824,-1.884 5.297,-3.412 3.412,-3.412 1.528,-3.412 0,-1.884 0,0" />
      </g>
      <g
         transform="translate(390.0034,26.4393)"
         id="g961"
         style="fill:#000000;fill-opacity:1;stroke:none;stroke-opacity:1">
        <path
           inkscape:connector-curvature="0"
           id="path963"
           style="fill:#000000;fill-opacity:1;fill-rule:nonzero;stroke:none;stroke-opacity:1"
           d="M 0,0 C 0,1.885 1.528,3.412 3.412,3.412 5.297,3.412 6.824,1.885 6.824,0 6.824,-1.885 5.297,-3.412 3.412,-3.412 1.528,-3.412 0,-1.885 0,0" />
      </g>
      <g
         transform="translate(322.2034,94.2395)"
         id="g965"
         style="fill:#000000;fill-opacity:1;stroke:none;stroke-opacity:1">
        <path
           inkscape:connector-curvature="0"
           id="path967"
           style="fill:#000000;fill-opacity:1;fill-rule:nonzero;stroke:none;stroke-opacity:1"
           d="M 0,0 C 0,1.884 1.528,3.412 3.412,3.412 5.297,3.412 6.824,1.884 6.824,0 6.824,-1.884 5.297,-3.412 3.412,-3.412 1.528,-3.412 0,-1.884 0,0" />
      </g>
      <g
         transform="translate(390.0034,162.0396)"
         id="g969"
         style="fill:#000000;fill-opacity:1;stroke:none;stroke-opacity:1">
        <path
           inkscape:connector-curvature="0"
           id="path971"
           style="fill:#000000;fill-opacity:1;fill-rule:nonzero;stroke:none;stroke-opacity:1"
           d="M 0,0 C 0,1.884 1.528,3.412 3.412,3.412 5.297,3.412 6.824,1.884 6.824,0 6.824,-1.884 5.297,-3.412 3.412,-3.412 1.528,-3.412 0,-1.884 0,0" />
      </g>
      <g
         transform="translate(457.8035,94.2395)"
         id="g973"
         style="fill:#000000;fill-opacity:1;stroke:none;stroke-opacity:1">
        <path
           inkscape:connector-curvature="0"
           id="path975"
           style="fill:#000000;fill-opacity:1;fill-rule:nonzero;stroke:none;stroke-opacity:1"
           d="M 0,0 C 0,1.884 1.528,3.412 3.412,3.412 5.297,3.412 6.824,1.884 6.824,0 6.824,-1.884 5.297,-3.412 3.412,-3.412 1.528,-3.412 0,-1.884 0,0" />
      </g>
      <g
         transform="translate(254.4034,26.4393)"
         id="g977"
         style="fill:#000000;fill-opacity:1;stroke:none;stroke-opacity:1">
        <path
           inkscape:connector-curvature="0"
           id="path979"
           style="fill:#000000;fill-opacity:1;fill-rule:nonzero;stroke:none;stroke-opacity:1"
           d="M 0,0 C 0,1.885 1.527,3.412 3.412,3.412 5.297,3.412 6.825,1.885 6.825,0 6.825,-1.885 5.297,-3.412 3.412,-3.412 1.527,-3.412 0,-1.885 0,0" />
      </g>
      <g
         transform="translate(254.4034,162.0396)"
         id="g981"
         style="fill:#000000;fill-opacity:1;stroke:none;stroke-opacity:1">
        <path
           inkscape:connector-curvature="0"
           id="path983"
           style="fill:#000000;fill-opacity:1;fill-rule:nonzero;stroke:none;stroke-opacity:1"
           d="M 0,0 C 0,1.884 1.527,3.412 3.412,3.412 5.297,3.412 6.825,1.884 6.825,0 6.825,-1.884 5.297,-3.412 3.412,-3.412 1.527,-3.412 0,-1.884 0,0" />
      </g>
      <g
         transform="translate(322.2034,94.2395)"
         id="g985"
         style="fill:#000000;fill-opacity:1;stroke:none;stroke-opacity:1">
        <path
           inkscape:connector-curvature="0"
           id="path987"
           style="fill:#000000;fill-opacity:1;fill-rule:nonzero;stroke:none;stroke-opacity:1"
           d="M 0,0 C 0,1.884 1.528,3.412 3.412,3.412 5.297,3.412 6.824,1.884 6.824,0 6.824,-1.884 5.297,-3.412 3.412,-3.412 1.528,-3.412 0,-1.884 0,0" />
      </g>
      <g
         transform="translate(796.8038,162.0396)"
         id="g989"
         style="fill:#000000;fill-opacity:1;stroke:none;stroke-opacity:1">
        <path
           inkscape:connector-curvature="0"
           id="path991"
           style="fill:#000000;fill-opacity:1;fill-rule:nonzero;stroke:none;stroke-opacity:1"
           d="M 0,0 C 0,1.884 1.528,3.412 3.412,3.412 5.297,3.412 6.824,1.884 6.824,0 6.824,-1.884 5.297,-3.412 3.412,-3.412 1.528,-3.412 0,-1.884 0,0" />
      </g>
      <g
         transform="translate(729.0038,229.8395)"
         id="g993"
         style="fill:#000000;fill-opacity:1;stroke:none;stroke-opacity:1">
        <path
           inkscape:connector-curvature="0"
           id="path995"
           style="fill:#000000;fill-opacity:1;fill-rule:nonzero;stroke:none;stroke-opacity:1"
           d="M 0,0 C 0,1.885 1.528,3.412 3.412,3.412 5.297,3.412 6.824,1.885 6.824,0 6.824,-1.884 5.297,-3.412 3.412,-3.412 1.528,-3.412 0,-1.884 0,0" />
      </g>
      <g
         transform="translate(796.8038,297.6397)"
         id="g997"
         style="fill:#000000;fill-opacity:1;stroke:none;stroke-opacity:1">
        <path
           inkscape:connector-curvature="0"
           id="path999"
           style="fill:#000000;fill-opacity:1;fill-rule:nonzero;stroke:none;stroke-opacity:1"
           d="M 0,0 C 0,1.885 1.528,3.412 3.412,3.412 5.297,3.412 6.824,1.885 6.824,0 6.824,-1.885 5.297,-3.412 3.412,-3.412 1.528,-3.412 0,-1.885 0,0" />
      </g>
      <g
         transform="translate(661.2037,162.0396)"
         id="g1001"
         style="fill:#000000;fill-opacity:1;stroke:none;stroke-opacity:1">
        <path
           inkscape:connector-curvature="0"
           id="path1003"
           style="fill:#000000;fill-opacity:1;fill-rule:nonzero;stroke:none;stroke-opacity:1"
           d="M 0,0 C 0,1.884 1.528,3.412 3.412,3.412 5.297,3.412 6.825,1.884 6.825,0 6.825,-1.884 5.297,-3.412 3.412,-3.412 1.528,-3.412 0,-1.884 0,0" />
      </g>
      <g
         transform="translate(593.4036,229.8395)"
         id="g1005"
         style="fill:#000000;fill-opacity:1;stroke:none;stroke-opacity:1">
        <path
           inkscape:connector-curvature="0"
           id="path1007"
           style="fill:#000000;fill-opacity:1;fill-rule:nonzero;stroke:none;stroke-opacity:1"
           d="M 0,0 C 0,1.885 1.528,3.412 3.412,3.412 5.297,3.412 6.824,1.885 6.824,0 6.824,-1.884 5.297,-3.412 3.412,-3.412 1.528,-3.412 0,-1.884 0,0" />
      </g>
      <g
         transform="translate(661.2037,297.6397)"
         id="g1009"
         style="fill:#000000;fill-opacity:1;stroke:none;stroke-opacity:1">
        <path
           inkscape:connector-curvature="0"
           id="path1011"
           style="fill:#000000;fill-opacity:1;fill-rule:nonzero;stroke:none;stroke-opacity:1"
           d="M 0,0 C 0,1.885 1.528,3.412 3.412,3.412 5.297,3.412 6.825,1.885 6.825,0 6.825,-1.885 5.297,-3.412 3.412,-3.412 1.528,-3.412 0,-1.885 0,0" />
      </g>
      <g
         transform="translate(729.0038,229.8395)"
         id="g1013"
         style="fill:#000000;fill-opacity:1;stroke:none;stroke-opacity:1">
        <path
           inkscape:connector-curvature="0"
           id="path1015"
           style="fill:#000000;fill-opacity:1;fill-rule:nonzero;stroke:none;stroke-opacity:1"
           d="M 0,0 C 0,1.885 1.528,3.412 3.412,3.412 5.297,3.412 6.824,1.885 6.824,0 6.824,-1.884 5.297,-3.412 3.412,-3.412 1.528,-3.412 0,-1.884 0,0" />
      </g>
      <g
         transform="translate(525.6035,162.0396)"
         id="g1017"
         style="fill:#000000;fill-opacity:1;stroke:none;stroke-opacity:1">
        <path
           inkscape:connector-curvature="0"
           id="path1019"
           style="fill:#000000;fill-opacity:1;fill-rule:nonzero;stroke:none;stroke-opacity:1"
           d="M 0,0 C 0,1.884 1.528,3.412 3.412,3.412 5.297,3.412 6.824,1.884 6.824,0 6.824,-1.884 5.297,-3.412 3.412,-3.412 1.528,-3.412 0,-1.884 0,0" />
      </g>
      <g
         transform="translate(457.8035,229.8395)"
         id="g1021"
         style="fill:#000000;fill-opacity:1;stroke:none;stroke-opacity:1">
        <path
           inkscape:connector-curvature="0"
           id="path1023"
           style="fill:#000000;fill-opacity:1;fill-rule:nonzero;stroke:none;stroke-opacity:1"
           d="M 0,0 C 0,1.885 1.528,3.412 3.412,3.412 5.297,3.412 6.824,1.885 6.824,0 6.824,-1.884 5.297,-3.412 3.412,-3.412 1.528,-3.412 0,-1.884 0,0" />
      </g>
      <g
         transform="translate(525.6035,297.6397)"
         id="g1025"
         style="fill:#000000;fill-opacity:1;stroke:none;stroke-opacity:1">
        <path
           inkscape:connector-curvature="0"
           id="path1027"
           style="fill:#000000;fill-opacity:1;fill-rule:nonzero;stroke:none;stroke-opacity:1"
           d="M 0,0 C 0,1.885 1.528,3.412 3.412,3.412 5.297,3.412 6.824,1.885 6.824,0 6.824,-1.885 5.297,-3.412 3.412,-3.412 1.528,-3.412 0,-1.885 0,0" />
      </g>
      <g
         transform="translate(593.4036,229.8395)"
         id="g1029"
         style="fill:#000000;fill-opacity:1;stroke:none;stroke-opacity:1">
        <path
           inkscape:connector-curvature="0"
           id="path1031"
           style="fill:#000000;fill-opacity:1;fill-rule:nonzero;stroke:none;stroke-opacity:1"
           d="M 0,0 C 0,1.885 1.528,3.412 3.412,3.412 5.297,3.412 6.824,1.885 6.824,0 6.824,-1.884 5.297,-3.412 3.412,-3.412 1.528,-3.412 0,-1.884 0,0" />
      </g>
      <g
         transform="translate(390.0034,162.0396)"
         id="g1033"
         style="fill:#000000;fill-opacity:1;stroke:none;stroke-opacity:1">
        <path
           inkscape:connector-curvature="0"
           id="path1035"
           style="fill:#000000;fill-opacity:1;fill-rule:nonzero;stroke:none;stroke-opacity:1"
           d="M 0,0 C 0,1.884 1.528,3.412 3.412,3.412 5.297,3.412 6.824,1.884 6.824,0 6.824,-1.884 5.297,-3.412 3.412,-3.412 1.528,-3.412 0,-1.884 0,0" />
      </g>
      <g
         transform="translate(322.2034,229.8395)"
         id="g1037"
         style="fill:#000000;fill-opacity:1;stroke:none;stroke-opacity:1">
        <path
           inkscape:connector-curvature="0"
           id="path1039"
           style="fill:#000000;fill-opacity:1;fill-rule:nonzero;stroke:none;stroke-opacity:1"
           d="M 0,0 C 0,1.885 1.528,3.412 3.412,3.412 5.297,3.412 6.824,1.885 6.824,0 6.824,-1.884 5.297,-3.412 3.412,-3.412 1.528,-3.412 0,-1.884 0,0" />
      </g>
      <g
         transform="translate(390.0034,297.6397)"
         id="g1041"
         style="fill:#000000;fill-opacity:1;stroke:none;stroke-opacity:1">
        <path
           inkscape:connector-curvature="0"
           id="path1043"
           style="fill:#000000;fill-opacity:1;fill-rule:nonzero;stroke:none;stroke-opacity:1"
           d="M 0,0 C 0,1.885 1.528,3.412 3.412,3.412 5.297,3.412 6.824,1.885 6.824,0 6.824,-1.885 5.297,-3.412 3.412,-3.412 1.528,-3.412 0,-1.885 0,0" />
      </g>
      <g
         transform="translate(457.8035,229.8395)"
         id="g1045"
         style="fill:#000000;fill-opacity:1;stroke:none;stroke-opacity:1">
        <path
           inkscape:connector-curvature="0"
           id="path1047"
           style="fill:#000000;fill-opacity:1;fill-rule:nonzero;stroke:none;stroke-opacity:1"
           d="M 0,0 C 0,1.885 1.528,3.412 3.412,3.412 5.297,3.412 6.824,1.885 6.824,0 6.824,-1.884 5.297,-3.412 3.412,-3.412 1.528,-3.412 0,-1.884 0,0" />
      </g>
      <g
         transform="translate(254.4034,162.0396)"
         id="g1049"
         style="fill:#000000;fill-opacity:1;stroke:none;stroke-opacity:1">
        <path
           inkscape:connector-curvature="0"
           id="path1051"
           style="fill:#000000;fill-opacity:1;fill-rule:nonzero;stroke:none;stroke-opacity:1"
           d="M 0,0 C 0,1.884 1.527,3.412 3.412,3.412 5.297,3.412 6.825,1.884 6.825,0 6.825,-1.884 5.297,-3.412 3.412,-3.412 1.527,-3.412 0,-1.884 0,0" />
      </g>
      <g
         transform="translate(254.4034,297.6397)"
         id="g1053"
         style="fill:#000000;fill-opacity:1;stroke:none;stroke-opacity:1">
        <path
           inkscape:connector-curvature="0"
           id="path1055"
           style="fill:#000000;fill-opacity:1;fill-rule:nonzero;stroke:none;stroke-opacity:1"
           d="M 0,0 C 0,1.885 1.527,3.412 3.412,3.412 5.297,3.412 6.825,1.885 6.825,0 6.825,-1.885 5.297,-3.412 3.412,-3.412 1.527,-3.412 0,-1.885 0,0" />
      </g>
      <g
         transform="translate(322.2034,229.8395)"
         id="g1057"
         style="fill:#000000;fill-opacity:1;stroke:none;stroke-opacity:1">
        <path
           inkscape:connector-curvature="0"
           id="path1059"
           style="fill:#000000;fill-opacity:1;fill-rule:nonzero;stroke:none;stroke-opacity:1"
           d="M 0,0 C 0,1.885 1.528,3.412 3.412,3.412 5.297,3.412 6.824,1.885 6.824,0 6.824,-1.884 5.297,-3.412 3.412,-3.412 1.528,-3.412 0,-1.884 0,0" />
      </g>
      <g
         transform="translate(796.8038,297.6397)"
         id="g1061"
         style="fill:#000000;fill-opacity:1;stroke:none;stroke-opacity:1">
        <path
           inkscape:connector-curvature="0"
           id="path1063"
           style="fill:#000000;fill-opacity:1;fill-rule:nonzero;stroke:none;stroke-opacity:1"
           d="M 0,0 C 0,1.885 1.528,3.412 3.412,3.412 5.297,3.412 6.824,1.885 6.824,0 6.824,-1.885 5.297,-3.412 3.412,-3.412 1.528,-3.412 0,-1.885 0,0" />
      </g>
      <g
         transform="translate(661.2037,297.6397)"
         id="g1065"
         style="fill:#000000;fill-opacity:1;stroke:none;stroke-opacity:1">
        <path
           inkscape:connector-curvature="0"
           id="path1067"
           style="fill:#000000;fill-opacity:1;fill-rule:nonzero;stroke:none;stroke-opacity:1"
           d="M 0,0 C 0,1.885 1.528,3.412 3.412,3.412 5.297,3.412 6.825,1.885 6.825,0 6.825,-1.885 5.297,-3.412 3.412,-3.412 1.528,-3.412 0,-1.885 0,0" />
      </g>
      <g
         transform="translate(525.6035,297.6397)"
         id="g1069"
         style="fill:#000000;fill-opacity:1;stroke:none;stroke-opacity:1">
        <path
           inkscape:connector-curvature="0"
           id="path1071"
           style="fill:#000000;fill-opacity:1;fill-rule:nonzero;stroke:none;stroke-opacity:1"
           d="M 0,0 C 0,1.885 1.528,3.412 3.412,3.412 5.297,3.412 6.824,1.885 6.824,0 6.824,-1.885 5.297,-3.412 3.412,-3.412 1.528,-3.412 0,-1.885 0,0" />
      </g>
      <g
         transform="translate(390.0034,297.6397)"
         id="g1073"
         style="fill:#000000;fill-opacity:1;stroke:none;stroke-opacity:1">
        <path
           inkscape:connector-curvature="0"
           id="path1075"
           style="fill:#000000;fill-opacity:1;fill-rule:nonzero;stroke:none;stroke-opacity:1"
           d="M 0,0 C 0,1.885 1.528,3.412 3.412,3.412 5.297,3.412 6.824,1.885 6.824,0 6.824,-1.885 5.297,-3.412 3.412,-3.412 1.528,-3.412 0,-1.885 0,0" />
      </g>
      <g
         transform="translate(254.4034,297.6397)"
         id="g1077"
         style="fill:#000000;fill-opacity:1;stroke:none;stroke-opacity:1">
        <path
           inkscape:connector-curvature="0"
           id="path1079"
           style="fill:#000000;fill-opacity:1;fill-rule:nonzero;stroke:none;stroke-opacity:1"
           d="M 0,0 C 0,1.885 1.527,3.412 3.412,3.412 5.297,3.412 6.825,1.885 6.825,0 6.825,-1.885 5.297,-3.412 3.412,-3.412 1.527,-3.412 0,-1.885 0,0" />
      </g>
      <g
         transform="translate(800.2163,26.9102)"
         id="g1081"
         style="fill:#000000;fill-opacity:1;stroke:none;stroke-opacity:1">
        <path
           inkscape:connector-curvature="0"
           id="path1083"
           style="fill:#000000;fill-opacity:1;fill-rule:nonzero;stroke:none;stroke-opacity:1"
           d="M 0,0 C 0.125,0 0.245,-0.05 0.333,-0.138 L 34.35,-34.156 c 0.184,-0.184 0.184,-0.482 0,-0.666 -0.183,-0.183 -0.481,-0.183 -0.665,0 L 0,-1.136 -67.468,-68.604 c -0.184,-0.183 -0.481,-0.183 -0.665,0 -0.184,0.184 -0.184,0.482 0,0.666 l 67.8,67.8 C -0.245,-0.05 -0.125,0 0,0" />
      </g>
      <g
         transform="translate(257.8157,26.9102)"
         id="g1085"
         style="fill:#000000;fill-opacity:1;stroke:none;stroke-opacity:1">
        <path
           inkscape:connector-curvature="0"
           id="path1087"
           style="fill:#000000;fill-opacity:1;fill-rule:nonzero;stroke:none;stroke-opacity:1"
           d="M 0,0 C 0.12,0 0.241,-0.046 0.333,-0.138 L 67.8,-67.605 135.267,-0.138 c 0.184,0.184 0.482,0.184 0.666,0 l 67.467,-67.467 67.467,67.467 c 0.184,0.184 0.482,0.184 0.666,0 L 339,-67.605 406.467,-0.138 c 0.184,0.184 0.482,0.184 0.666,0 l 67.8,-67.8 c 0.184,-0.184 0.184,-0.482 0,-0.666 -0.184,-0.183 -0.482,-0.183 -0.666,0 L 406.8,-1.136 339.333,-68.604 c -0.184,-0.183 -0.482,-0.183 -0.666,0 L 271.2,-1.136 203.733,-68.604 c -0.184,-0.183 -0.482,-0.183 -0.666,0 L 135.6,-1.136 68.133,-68.604 c -0.184,-0.183 -0.482,-0.183 -0.666,0 L 0,-1.136 -33.567,-34.703 c -0.184,-0.184 -0.482,-0.184 -0.666,0 -0.184,0.183 -0.184,0.481 0,0.665 l 33.9,33.9 C -0.241,-0.046 -0.12,0 0,0" />
      </g>
      <g
         transform="translate(800.2163,162.5102)"
         id="g1089"
         style="fill:#000000;fill-opacity:1;stroke:none;stroke-opacity:1">
        <path
           inkscape:connector-curvature="0"
           id="path1091"
           style="fill:#000000;fill-opacity:1;fill-rule:nonzero;stroke:none;stroke-opacity:1"
           d="m 0,0 c 0.12,0 0.241,-0.046 0.333,-0.138 l 67.8,-67.8 c 0.184,-0.184 0.184,-0.482 0,-0.665 l -67.8,-67.801 c -0.184,-0.183 -0.482,-0.183 -0.666,0 l -67.8,67.801 c -0.089,0.088 -0.138,0.207 -0.138,0.332 0,0.125 0.049,0.245 0.138,0.333 l 67.8,67.8 C -0.241,-0.046 -0.12,0 0,0 M 67.135,-68.271 0,-1.136 -67.135,-68.271 0,-135.405 Z" />
      </g>
      <g
         transform="translate(664.6158,162.5102)"
         id="g1093"
         style="fill:#000000;fill-opacity:1;stroke:none;stroke-opacity:1">
        <path
           inkscape:connector-curvature="0"
           id="path1095"
           style="fill:#000000;fill-opacity:1;fill-rule:nonzero;stroke:none;stroke-opacity:1"
           d="m 0,0 c 0.12,0 0.241,-0.046 0.333,-0.138 l 67.8,-67.8 c 0.184,-0.184 0.184,-0.482 0,-0.665 l -67.8,-67.801 c -0.184,-0.183 -0.482,-0.183 -0.666,0 l -67.8,67.801 c -0.184,0.183 -0.184,0.481 0,0.665 l 67.8,67.8 C -0.241,-0.046 -0.12,0 0,0 M 67.134,-68.271 0,-1.136 -67.135,-68.271 0,-135.405 Z" />
      </g>
      <g
         transform="translate(529.0157,162.5102)"
         id="g1097"
         style="fill:#000000;fill-opacity:1;stroke:none;stroke-opacity:1">
        <path
           inkscape:connector-curvature="0"
           id="path1099"
           style="fill:#000000;fill-opacity:1;fill-rule:nonzero;stroke:none;stroke-opacity:1"
           d="m 0,0 c 0.12,0 0.241,-0.046 0.333,-0.138 l 67.8,-67.8 c 0.184,-0.184 0.184,-0.482 0,-0.665 l -67.8,-67.801 c -0.184,-0.183 -0.482,-0.183 -0.666,0 l -67.8,67.801 c -0.184,0.183 -0.184,0.481 0,0.665 l 67.8,67.8 C -0.241,-0.046 -0.12,0 0,0 M 67.135,-68.271 0,-1.136 -67.135,-68.271 0,-135.405 Z" />
      </g>
      <g
         transform="translate(393.4156,162.5102)"
         id="g1101"
         style="fill:#000000;fill-opacity:1;stroke:none;stroke-opacity:1">
        <path
           inkscape:connector-curvature="0"
           id="path1103"
           style="fill:#000000;fill-opacity:1;fill-rule:nonzero;stroke:none;stroke-opacity:1"
           d="m 0,0 c 0.12,0 0.241,-0.046 0.333,-0.138 l 67.8,-67.8 c 0.184,-0.184 0.184,-0.482 0,-0.665 l -67.8,-67.801 c -0.184,-0.183 -0.482,-0.183 -0.666,0 l -67.8,67.801 c -0.184,0.183 -0.184,0.481 0,0.665 l 67.8,67.8 C -0.241,-0.046 -0.12,0 0,0 M 67.135,-68.271 0,-1.136 -67.134,-68.271 0,-135.405 Z" />
      </g>
      <g
         transform="translate(257.8157,162.5102)"
         id="g1105"
         style="fill:#000000;fill-opacity:1;stroke:none;stroke-opacity:1">
        <path
           inkscape:connector-curvature="0"
           id="path1107"
           style="fill:#000000;fill-opacity:1;fill-rule:nonzero;stroke:none;stroke-opacity:1"
           d="m 0,0 c 0.12,0 0.241,-0.046 0.333,-0.138 l 67.8,-67.8 c 0.184,-0.184 0.184,-0.482 0,-0.665 l -67.8,-67.801 c -0.184,-0.183 -0.482,-0.183 -0.666,0 l -67.8,67.801 c -0.088,0.088 -0.138,0.207 -0.138,0.332 0,0.125 0.05,0.245 0.138,0.333 l 67.8,67.8 C -0.241,-0.046 -0.12,0 0,0 M 67.134,-68.271 0,-1.136 -67.135,-68.271 0,-135.405 Z" />
      </g>
      <g
         transform="translate(800.2163,298.1102)"
         id="g1109"
         style="fill:#000000;fill-opacity:1;stroke:none;stroke-opacity:1">
        <path
           inkscape:connector-curvature="0"
           id="path1111"
           style="fill:#000000;fill-opacity:1;fill-rule:nonzero;stroke:none;stroke-opacity:1"
           d="m 0,0 c 0.12,0 0.241,-0.046 0.333,-0.138 l 67.8,-67.8 c 0.184,-0.184 0.184,-0.482 0,-0.665 l -67.8,-67.8 c -0.184,-0.184 -0.482,-0.184 -0.666,0 l -67.8,67.8 c -0.089,0.088 -0.138,0.207 -0.138,0.332 0,0.125 0.049,0.245 0.138,0.333 l 67.8,67.8 C -0.241,-0.046 -0.12,0 0,0 M 67.135,-68.271 0,-1.136 -67.135,-68.271 0,-135.405 Z" />
      </g>
      <g
         transform="translate(664.6158,298.1102)"
         id="g1113"
         style="fill:#000000;fill-opacity:1;stroke:none;stroke-opacity:1">
        <path
           inkscape:connector-curvature="0"
           id="path1115"
           style="fill:#000000;fill-opacity:1;fill-rule:nonzero;stroke:none;stroke-opacity:1"
           d="m 0,0 c 0.12,0 0.241,-0.046 0.333,-0.138 l 67.8,-67.8 c 0.184,-0.184 0.184,-0.482 0,-0.665 l -67.8,-67.8 c -0.184,-0.184 -0.482,-0.184 -0.666,0 l -67.8,67.8 c -0.184,0.183 -0.184,0.481 0,0.665 l 67.8,67.8 C -0.241,-0.046 -0.12,0 0,0 M 67.134,-68.271 0,-1.136 -67.135,-68.271 0,-135.405 Z" />
      </g>
      <g
         transform="translate(529.0157,298.1102)"
         id="g1117"
         style="fill:#000000;fill-opacity:1;stroke:none;stroke-opacity:1">
        <path
           inkscape:connector-curvature="0"
           id="path1119"
           style="fill:#000000;fill-opacity:1;fill-rule:nonzero;stroke:none;stroke-opacity:1"
           d="m 0,0 c 0.12,0 0.241,-0.046 0.333,-0.138 l 67.8,-67.8 c 0.184,-0.184 0.184,-0.482 0,-0.665 l -67.8,-67.8 c -0.184,-0.184 -0.482,-0.184 -0.666,0 l -67.8,67.8 c -0.184,0.183 -0.184,0.481 0,0.665 l 67.8,67.8 C -0.241,-0.046 -0.12,0 0,0 M 67.135,-68.271 0,-1.136 -67.135,-68.271 0,-135.405 Z" />
      </g>
      <g
         transform="translate(393.4156,298.1102)"
         id="g1121"
         style="fill:#000000;fill-opacity:1;stroke:none;stroke-opacity:1">
        <path
           inkscape:connector-curvature="0"
           id="path1123"
           style="fill:#000000;fill-opacity:1;fill-rule:nonzero;stroke:none;stroke-opacity:1"
           d="m 0,0 c 0.12,0 0.241,-0.046 0.333,-0.138 l 67.8,-67.8 c 0.184,-0.184 0.184,-0.482 0,-0.665 l -67.8,-67.8 c -0.184,-0.184 -0.482,-0.184 -0.666,0 l -67.8,67.8 c -0.184,0.183 -0.184,0.481 0,0.665 l 67.8,67.8 C -0.241,-0.046 -0.12,0 0,0 M 67.135,-68.271 0,-1.136 -67.134,-68.271 0,-135.405 Z" />
      </g>
      <g
         transform="translate(257.8157,298.1102)"
         id="g1125"
         style="fill:#000000;fill-opacity:1;stroke:none;stroke-opacity:1">
        <path
           inkscape:connector-curvature="0"
           id="path1127"
           style="fill:#000000;fill-opacity:1;fill-rule:nonzero;stroke:none;stroke-opacity:1"
           d="m 0,0 c 0.12,0 0.241,-0.046 0.333,-0.138 l 67.8,-67.8 c 0.184,-0.184 0.184,-0.482 0,-0.665 l -67.8,-67.8 c -0.184,-0.184 -0.482,-0.184 -0.666,0 l -67.8,67.8 c -0.088,0.088 -0.138,0.207 -0.138,0.332 0,0.125 0.05,0.245 0.138,0.333 l 67.8,67.8 C -0.241,-0.046 -0.12,0 0,0 M 67.134,-68.271 0,-1.136 -67.135,-68.271 0,-135.405 Z" />
      </g>
      <g
         transform="translate(325.6157,365.9103)"
         id="g1129"
         style="fill:#000000;fill-opacity:1;stroke:none;stroke-opacity:1">
        <path
           inkscape:connector-curvature="0"
           id="path1131"
           style="fill:#000000;fill-opacity:1;fill-rule:nonzero;stroke:none;stroke-opacity:1"
           d="M 0,0 C 0.12,0 0.241,-0.046 0.333,-0.138 L 67.8,-67.605 135.267,-0.138 c 0.184,0.184 0.482,0.184 0.666,0 l 67.467,-67.467 67.467,67.467 c 0.184,0.184 0.482,0.184 0.666,0 L 339,-67.605 406.467,-0.138 c 0.184,0.184 0.482,0.184 0.666,0 l 67.468,-67.467 33.537,33.538 c 0.184,0.184 0.482,0.184 0.666,0 0.183,-0.184 0.183,-0.482 0,-0.666 l -33.871,-33.87 c -0.176,-0.177 -0.489,-0.177 -0.665,0 L 406.8,-1.136 339.333,-68.603 c -0.184,-0.184 -0.482,-0.184 -0.666,0 L 271.2,-1.136 203.733,-68.603 c -0.184,-0.184 -0.482,-0.184 -0.666,0 L 135.6,-1.136 68.133,-68.603 c -0.184,-0.184 -0.482,-0.184 -0.666,0 L 0,-1.136 -67.467,-68.603 c -0.184,-0.184 -0.482,-0.184 -0.666,0 l -33.835,33.835 c -0.184,0.184 -0.184,0.481 0,0.665 0.184,0.184 0.482,0.184 0.666,0 L -67.8,-67.605 -0.333,-0.138 C -0.241,-0.046 -0.12,0 0,0" />
      </g>
      <g
         transform="translate(190.0151,162.4022)"
         id="g1133"
         style="fill:#000000;fill-opacity:1;stroke:none;stroke-opacity:1">
        <path
           inkscape:connector-curvature="0"
           id="path1135"
           style="fill:#000000;fill-opacity:1;fill-rule:nonzero;stroke:none;stroke-opacity:1"
           d="m 0,0 h 678.001 c 0.2,0 0.362,-0.162 0.362,-0.362 0,-0.2 -0.162,-0.362 -0.362,-0.362 H 0 c -0.2,0 -0.362,0.162 -0.362,0.362 C -0.362,-0.162 -0.2,0 0,0" />
      </g>
      <g
         transform="translate(190.0151,26.8018)"
         id="g1137"
         style="fill:#000000;fill-opacity:1;stroke:none;stroke-opacity:1">
        <path
           inkscape:connector-curvature="0"
           id="path1139"
           style="fill:#000000;fill-opacity:1;fill-rule:nonzero;stroke:none;stroke-opacity:1"
           d="m 0,0 h 678.001 c 0.2,0 0.362,-0.162 0.362,-0.362 0,-0.2 -0.162,-0.362 -0.362,-0.362 H 0 c -0.2,0 -0.362,0.162 -0.362,0.362 C -0.362,-0.162 -0.2,0 0,0" />
      </g>
      <g
         transform="translate(190.0151,94.6017)"
         id="g1141"
         style="fill:#000000;fill-opacity:1;stroke:none;stroke-opacity:1">
        <path
           inkscape:connector-curvature="0"
           id="path1143"
           style="fill:#000000;fill-opacity:1;fill-rule:nonzero;stroke:none;stroke-opacity:1"
           d="m 0,0 h 678.001 c 0.2,0 0.362,-0.162 0.362,-0.362 0,-0.2 -0.162,-0.362 -0.362,-0.362 H 0 c -0.2,0 -0.362,0.162 -0.362,0.362 C -0.362,-0.162 -0.2,0 0,0" />
      </g>
      <g
         transform="translate(190.0151,162.4017)"
         id="g1145"
         style="fill:#000000;fill-opacity:1;stroke:none;stroke-opacity:1">
        <path
           inkscape:connector-curvature="0"
           id="path1147"
           style="fill:#000000;fill-opacity:1;fill-rule:nonzero;stroke:none;stroke-opacity:1"
           d="m 0,0 h 678.001 c 0.2,0 0.362,-0.162 0.362,-0.362 0,-0.2 -0.162,-0.362 -0.362,-0.362 H 0 c -0.2,0 -0.362,0.162 -0.362,0.362 C -0.362,-0.162 -0.2,0 0,0" />
      </g>
      <g
         transform="translate(190.0151,230.2018)"
         id="g1149"
         style="fill:#000000;fill-opacity:1;stroke:none;stroke-opacity:1">
        <path
           inkscape:connector-curvature="0"
           id="path1151"
           style="fill:#000000;fill-opacity:1;fill-rule:nonzero;stroke:none;stroke-opacity:1"
           d="m 0,0 h 678.001 c 0.2,0 0.362,-0.162 0.362,-0.362 0,-0.2 -0.162,-0.362 -0.362,-0.362 H 0 c -0.2,0 -0.362,0.162 -0.362,0.362 C -0.362,-0.162 -0.2,0 0,0" />
      </g>
      <g
         transform="translate(190.0151,298.0018)"
         id="g1153"
         style="fill:#000000;fill-opacity:1;stroke:none;stroke-opacity:1">
        <path
           inkscape:connector-curvature="0"
           id="path1155"
           style="fill:#000000;fill-opacity:1;fill-rule:nonzero;stroke:none;stroke-opacity:1"
           d="m 0,0 h 678.001 c 0.2,0 0.362,-0.162 0.362,-0.362 0,-0.2 -0.162,-0.362 -0.362,-0.362 H 0 c -0.2,0 -0.362,0.162 -0.362,0.362 C -0.362,-0.162 -0.2,0 0,0" />
      </g>
      <g
         transform="translate(800.2163,365.67)"
         id="g1157"
         style="fill:#000000;fill-opacity:1;stroke:none;stroke-opacity:1">
        <path
           inkscape:connector-curvature="0"
           id="path1159"
           style="fill:#000000;fill-opacity:1;fill-rule:nonzero;stroke:none;stroke-opacity:1"
           d="m 0,0 c 0.06,0 0.12,-0.023 0.166,-0.069 l 67.8,-67.8 c 0.092,-0.092 0.092,-0.241 0,-0.333 l -67.8,-67.8 c -0.092,-0.092 -0.24,-0.092 -0.332,0 l -67.801,67.8 c -0.044,0.045 -0.069,0.104 -0.069,0.167 0,0.062 0.025,0.122 0.069,0.166 l 67.801,67.8 C -0.12,-0.023 -0.06,0 0,0 M 67.467,-68.035 0,-0.568 -67.468,-68.035 0,-135.503 Z" />
      </g>
      <g
         transform="translate(664.6158,365.67)"
         id="g1161"
         style="fill:#000000;fill-opacity:1;stroke:none;stroke-opacity:1">
        <path
           inkscape:connector-curvature="0"
           id="path1163"
           style="fill:#000000;fill-opacity:1;fill-rule:nonzero;stroke:none;stroke-opacity:1"
           d="m 0,0 c 0.06,0 0.12,-0.023 0.166,-0.069 l 67.8,-67.8 c 0.092,-0.092 0.092,-0.241 0,-0.333 l -67.8,-67.8 c -0.092,-0.092 -0.24,-0.092 -0.333,0 l -67.799,67.8 c -0.092,0.092 -0.092,0.241 0,0.333 l 67.799,67.8 C -0.12,-0.023 -0.06,0 0,0 M 67.467,-68.035 0,-0.568 -67.467,-68.035 0,-135.503 Z" />
      </g>
      <g
         transform="translate(529.0157,365.67)"
         id="g1165"
         style="fill:#000000;fill-opacity:1;stroke:none;stroke-opacity:1">
        <path
           inkscape:connector-curvature="0"
           id="path1167"
           style="fill:#000000;fill-opacity:1;fill-rule:nonzero;stroke:none;stroke-opacity:1"
           d="m 0,0 c 0.06,0 0.12,-0.023 0.166,-0.069 l 67.8,-67.8 c 0.092,-0.092 0.092,-0.241 0,-0.333 l -67.8,-67.8 c -0.092,-0.092 -0.24,-0.092 -0.332,0 l -67.8,67.8 c -0.092,0.092 -0.092,0.241 0,0.333 l 67.8,67.8 C -0.12,-0.023 -0.06,0 0,0 M 67.467,-68.035 0,-0.568 -67.467,-68.035 0,-135.503 Z" />
      </g>
      <g
         transform="translate(393.4156,365.67)"
         id="g1169"
         style="fill:#000000;fill-opacity:1;stroke:none;stroke-opacity:1">
        <path
           inkscape:connector-curvature="0"
           id="path1171"
           style="fill:#000000;fill-opacity:1;fill-rule:nonzero;stroke:none;stroke-opacity:1"
           d="m 0,0 c 0.06,0 0.12,-0.023 0.166,-0.069 l 67.8,-67.8 c 0.092,-0.092 0.092,-0.241 0,-0.333 l -67.8,-67.8 c -0.092,-0.092 -0.24,-0.092 -0.332,0 l -67.8,67.8 c -0.092,0.092 -0.092,0.241 0,0.333 l 67.8,67.8 C -0.12,-0.023 -0.06,0 0,0 M 67.467,-68.035 0,-0.568 -67.467,-68.035 0,-135.503 Z" />
      </g>
      <g
         transform="translate(257.8157,365.67)"
         id="g1173"
         style="fill:#000000;fill-opacity:1;stroke:none;stroke-opacity:1">
        <path
           inkscape:connector-curvature="0"
           id="path1175"
           style="fill:#000000;fill-opacity:1;fill-rule:nonzero;stroke:none;stroke-opacity:1"
           d="m 0,0 c 0.06,0 0.12,-0.023 0.166,-0.069 l 67.8,-67.8 c 0.092,-0.092 0.092,-0.241 0,-0.333 l -67.8,-67.8 c -0.092,-0.092 -0.24,-0.092 -0.332,0 l -67.801,67.8 c -0.044,0.045 -0.069,0.104 -0.069,0.167 0,0.062 0.025,0.122 0.069,0.166 l 67.801,67.8 C -0.12,-0.023 -0.06,0 0,0 M 67.467,-68.035 0,-0.568 -67.468,-68.035 0,-135.503 Z" />
      </g>
      <g
         transform="translate(800.2163,636.8701)"
         id="g1177"
         style="fill:#000000;fill-opacity:1;stroke:none;stroke-opacity:1">
        <path
           inkscape:connector-curvature="0"
           id="path1179"
           style="fill:#000000;fill-opacity:1;fill-rule:nonzero;stroke:none;stroke-opacity:1"
           d="m 0,0 c 0.06,0 0.12,-0.023 0.166,-0.069 l 67.8,-67.8 c 0.092,-0.092 0.092,-0.241 0,-0.333 l -67.8,-67.8 c -0.092,-0.092 -0.24,-0.092 -0.332,0 l -67.801,67.8 c -0.044,0.045 -0.069,0.104 -0.069,0.167 0,0.062 0.025,0.122 0.069,0.166 l 67.801,67.8 C -0.12,-0.023 -0.06,0 0,0 M 67.467,-68.035 0,-0.568 -67.468,-68.035 0,-135.503 Z" />
      </g>
      <g
         transform="translate(664.6158,636.8701)"
         id="g1181"
         style="fill:#000000;fill-opacity:1;stroke:none;stroke-opacity:1">
        <path
           inkscape:connector-curvature="0"
           id="path1183"
           style="fill:#000000;fill-opacity:1;fill-rule:nonzero;stroke:none;stroke-opacity:1"
           d="m 0,0 c 0.06,0 0.12,-0.023 0.166,-0.069 l 67.8,-67.8 c 0.092,-0.092 0.092,-0.241 0,-0.333 l -67.8,-67.8 c -0.092,-0.092 -0.24,-0.092 -0.333,0 l -67.799,67.8 c -0.092,0.092 -0.092,0.241 0,0.333 l 67.799,67.8 C -0.12,-0.023 -0.06,0 0,0 M 67.467,-68.035 0,-0.568 -67.467,-68.035 0,-135.503 Z" />
      </g>
      <g
         transform="translate(529.0157,636.8701)"
         id="g1185"
         style="fill:#000000;fill-opacity:1;stroke:none;stroke-opacity:1">
        <path
           inkscape:connector-curvature="0"
           id="path1187"
           style="fill:#000000;fill-opacity:1;fill-rule:nonzero;stroke:none;stroke-opacity:1"
           d="m 0,0 c 0.06,0 0.12,-0.023 0.166,-0.069 l 67.8,-67.8 c 0.092,-0.092 0.092,-0.241 0,-0.333 l -67.8,-67.8 c -0.092,-0.092 -0.24,-0.092 -0.332,0 l -67.8,67.8 c -0.092,0.092 -0.092,0.241 0,0.333 l 67.8,67.8 C -0.12,-0.023 -0.06,0 0,0 M 67.467,-68.035 0,-0.568 -67.467,-68.035 0,-135.503 Z" />
      </g>
      <g
         transform="translate(393.4156,636.8701)"
         id="g1189"
         style="fill:#000000;fill-opacity:1;stroke:none;stroke-opacity:1">
        <path
           inkscape:connector-curvature="0"
           id="path1191"
           style="fill:#000000;fill-opacity:1;fill-rule:nonzero;stroke:none;stroke-opacity:1"
           d="m 0,0 c 0.06,0 0.12,-0.023 0.166,-0.069 l 67.8,-67.8 c 0.092,-0.092 0.092,-0.241 0,-0.333 l -67.8,-67.8 c -0.092,-0.092 -0.24,-0.092 -0.332,0 l -67.8,67.8 c -0.092,0.092 -0.092,0.241 0,0.333 l 67.8,67.8 C -0.12,-0.023 -0.06,0 0,0 M 67.467,-68.035 0,-0.568 -67.467,-68.035 0,-135.503 Z" />
      </g>
      <g
         transform="translate(257.8157,636.8701)"
         id="g1193"
         style="fill:#000000;fill-opacity:1;stroke:none;stroke-opacity:1">
        <path
           inkscape:connector-curvature="0"
           id="path1195"
           style="fill:#000000;fill-opacity:1;fill-rule:nonzero;stroke:none;stroke-opacity:1"
           d="m 0,0 c 0.06,0 0.12,-0.023 0.166,-0.069 l 67.8,-67.8 c 0.092,-0.092 0.092,-0.241 0,-0.333 l -67.8,-67.8 c -0.092,-0.092 -0.24,-0.092 -0.332,0 l -67.801,67.8 c -0.044,0.045 -0.069,0.104 -0.069,0.167 0,0.062 0.025,0.122 0.069,0.166 l 67.801,67.8 C -0.12,-0.023 -0.06,0 0,0 M 67.467,-68.035 0,-0.568 -67.468,-68.035 0,-135.503 Z" />
      </g>
      <g
         transform="translate(800.2163,501.2701)"
         id="g1197"
         style="fill:#000000;fill-opacity:1;stroke:none;stroke-opacity:1">
        <path
           inkscape:connector-curvature="0"
           id="path1199"
           style="fill:#000000;fill-opacity:1;fill-rule:nonzero;stroke:none;stroke-opacity:1"
           d="m 0,0 c 0.06,0 0.12,-0.023 0.166,-0.069 l 67.8,-67.8 c 0.092,-0.092 0.092,-0.241 0,-0.333 l -67.8,-67.8 c -0.092,-0.092 -0.24,-0.092 -0.332,0 l -67.801,67.8 c -0.044,0.044 -0.069,0.104 -0.069,0.167 0,0.062 0.025,0.122 0.069,0.166 l 67.801,67.8 C -0.12,-0.023 -0.06,0 0,0 M 67.467,-68.035 0,-0.568 -67.468,-68.035 0,-135.503 Z" />
      </g>
      <g
         transform="translate(664.6158,501.2701)"
         id="g1201"
         style="fill:#000000;fill-opacity:1;stroke:none;stroke-opacity:1">
        <path
           inkscape:connector-curvature="0"
           id="path1203"
           style="fill:#000000;fill-opacity:1;fill-rule:nonzero;stroke:none;stroke-opacity:1"
           d="m 0,0 c 0.06,0 0.12,-0.023 0.166,-0.069 l 67.8,-67.8 c 0.092,-0.092 0.092,-0.241 0,-0.333 l -67.8,-67.8 c -0.092,-0.092 -0.24,-0.092 -0.333,0 l -67.799,67.8 c -0.092,0.092 -0.092,0.241 0,0.333 l 67.799,67.8 C -0.12,-0.023 -0.06,0 0,0 M 67.467,-68.035 0,-0.568 -67.467,-68.035 0,-135.503 Z" />
      </g>
      <g
         transform="translate(529.0157,501.2701)"
         id="g1205"
         style="fill:#000000;fill-opacity:1;stroke:none;stroke-opacity:1">
        <path
           inkscape:connector-curvature="0"
           id="path1207"
           style="fill:#000000;fill-opacity:1;fill-rule:nonzero;stroke:none;stroke-opacity:1"
           d="m 0,0 c 0.06,0 0.12,-0.023 0.166,-0.069 l 67.8,-67.8 c 0.092,-0.092 0.092,-0.241 0,-0.333 l -67.8,-67.8 c -0.092,-0.092 -0.24,-0.092 -0.332,0 l -67.8,67.8 c -0.092,0.092 -0.092,0.241 0,0.333 l 67.8,67.8 C -0.12,-0.023 -0.06,0 0,0 M 67.467,-68.035 0,-0.568 -67.467,-68.035 0,-135.503 Z" />
      </g>
      <g
         transform="translate(393.4156,501.2701)"
         id="g1209"
         style="fill:#000000;fill-opacity:1;stroke:none;stroke-opacity:1">
        <path
           inkscape:connector-curvature="0"
           id="path1211"
           style="fill:#000000;fill-opacity:1;fill-rule:nonzero;stroke:none;stroke-opacity:1"
           d="m 0,0 c 0.06,0 0.12,-0.023 0.166,-0.069 l 67.8,-67.8 c 0.092,-0.092 0.092,-0.241 0,-0.333 l -67.8,-67.8 c -0.092,-0.092 -0.24,-0.092 -0.332,0 l -67.8,67.8 c -0.092,0.092 -0.092,0.241 0,0.333 l 67.8,67.8 C -0.12,-0.023 -0.06,0 0,0 M 67.467,-68.035 0,-0.568 -67.467,-68.035 0,-135.503 Z" />
      </g>
      <g
         transform="translate(257.8157,501.2701)"
         id="g1213"
         style="fill:#000000;fill-opacity:1;stroke:none;stroke-opacity:1">
        <path
           inkscape:connector-curvature="0"
           id="path1215"
           style="fill:#000000;fill-opacity:1;fill-rule:nonzero;stroke:none;stroke-opacity:1"
           d="m 0,0 c 0.06,0 0.12,-0.023 0.166,-0.069 l 67.8,-67.8 c 0.092,-0.092 0.092,-0.241 0,-0.333 l -67.8,-67.8 c -0.092,-0.092 -0.24,-0.092 -0.332,0 l -67.801,67.8 c -0.044,0.044 -0.069,0.104 -0.069,0.167 0,0.062 0.025,0.122 0.069,0.166 l 67.801,67.8 C -0.12,-0.023 -0.06,0 0,0 M 67.467,-68.035 0,-0.568 -67.468,-68.035 0,-135.503 Z" />
      </g>
      <g
         transform="translate(796.8038,297.6345)"
         id="g1217"
         style="fill:#000000;fill-opacity:1;stroke:none;stroke-opacity:1">
        <path
           inkscape:connector-curvature="0"
           id="path1219"
           style="fill:#000000;fill-opacity:1;fill-rule:nonzero;stroke:none;stroke-opacity:1"
           d="M 0,0 C 0,1.885 1.528,3.412 3.412,3.412 5.297,3.412 6.824,1.885 6.824,0 6.824,-1.884 5.297,-3.412 3.412,-3.412 1.528,-3.412 0,-1.884 0,0" />
      </g>
      <g
         transform="translate(661.2037,297.6345)"
         id="g1221"
         style="fill:#000000;fill-opacity:1;stroke:none;stroke-opacity:1">
        <path
           inkscape:connector-curvature="0"
           id="path1223"
           style="fill:#000000;fill-opacity:1;fill-rule:nonzero;stroke:none;stroke-opacity:1"
           d="M 0,0 C 0,1.885 1.528,3.412 3.412,3.412 5.297,3.412 6.825,1.885 6.825,0 6.825,-1.884 5.297,-3.412 3.412,-3.412 1.528,-3.412 0,-1.884 0,0" />
      </g>
      <g
         transform="translate(525.6035,297.6345)"
         id="g1225"
         style="fill:#000000;fill-opacity:1;stroke:none;stroke-opacity:1">
        <path
           inkscape:connector-curvature="0"
           id="path1227"
           style="fill:#000000;fill-opacity:1;fill-rule:nonzero;stroke:none;stroke-opacity:1"
           d="M 0,0 C 0,1.885 1.528,3.412 3.412,3.412 5.297,3.412 6.824,1.885 6.824,0 6.824,-1.884 5.297,-3.412 3.412,-3.412 1.528,-3.412 0,-1.884 0,0" />
      </g>
      <g
         transform="translate(390.0034,297.6345)"
         id="g1229"
         style="fill:#000000;fill-opacity:1;stroke:none;stroke-opacity:1">
        <path
           inkscape:connector-curvature="0"
           id="path1231"
           style="fill:#000000;fill-opacity:1;fill-rule:nonzero;stroke:none;stroke-opacity:1"
           d="M 0,0 C 0,1.885 1.528,3.412 3.412,3.412 5.297,3.412 6.824,1.885 6.824,0 6.824,-1.884 5.297,-3.412 3.412,-3.412 1.528,-3.412 0,-1.884 0,0" />
      </g>
      <g
         transform="translate(254.4034,297.6345)"
         id="g1233"
         style="fill:#000000;fill-opacity:1;stroke:none;stroke-opacity:1">
        <path
           inkscape:connector-curvature="0"
           id="path1235"
           style="fill:#000000;fill-opacity:1;fill-rule:nonzero;stroke:none;stroke-opacity:1"
           d="M 0,0 C 0,1.885 1.527,3.412 3.412,3.412 5.297,3.412 6.825,1.885 6.825,0 6.825,-1.884 5.297,-3.412 3.412,-3.412 1.527,-3.412 0,-1.884 0,0" />
      </g>
      <g
         transform="translate(796.8038,297.6345)"
         id="g1237"
         style="fill:#000000;fill-opacity:1;stroke:none;stroke-opacity:1">
        <path
           inkscape:connector-curvature="0"
           id="path1239"
           style="fill:#000000;fill-opacity:1;fill-rule:nonzero;stroke:none;stroke-opacity:1"
           d="M 0,0 C 0,1.885 1.528,3.412 3.412,3.412 5.297,3.412 6.824,1.885 6.824,0 6.824,-1.884 5.297,-3.412 3.412,-3.412 1.528,-3.412 0,-1.884 0,0" />
      </g>
      <g
         transform="translate(729.0038,365.4346)"
         id="g1241"
         style="fill:#000000;fill-opacity:1;stroke:none;stroke-opacity:1">
        <path
           inkscape:connector-curvature="0"
           id="path1243"
           style="fill:#000000;fill-opacity:1;fill-rule:nonzero;stroke:none;stroke-opacity:1"
           d="M 0,0 C 0,1.885 1.528,3.412 3.412,3.412 5.297,3.412 6.824,1.885 6.824,0 6.824,-1.884 5.297,-3.412 3.412,-3.412 1.528,-3.412 0,-1.884 0,0" />
      </g>
      <g
         transform="translate(796.8038,433.2348)"
         id="g1245"
         style="fill:#000000;fill-opacity:1;stroke:none;stroke-opacity:1">
        <path
           inkscape:connector-curvature="0"
           id="path1247"
           style="fill:#000000;fill-opacity:1;fill-rule:nonzero;stroke:none;stroke-opacity:1"
           d="M 0,0 C 0,1.884 1.528,3.412 3.412,3.412 5.297,3.412 6.824,1.884 6.824,0 6.824,-1.885 5.297,-3.412 3.412,-3.412 1.528,-3.412 0,-1.885 0,0" />
      </g>
      <g
         transform="translate(661.2037,297.6345)"
         id="g1249"
         style="fill:#000000;fill-opacity:1;stroke:none;stroke-opacity:1">
        <path
           inkscape:connector-curvature="0"
           id="path1251"
           style="fill:#000000;fill-opacity:1;fill-rule:nonzero;stroke:none;stroke-opacity:1"
           d="M 0,0 C 0,1.885 1.528,3.412 3.412,3.412 5.297,3.412 6.825,1.885 6.825,0 6.825,-1.884 5.297,-3.412 3.412,-3.412 1.528,-3.412 0,-1.884 0,0" />
      </g>
      <g
         transform="translate(593.4036,365.4346)"
         id="g1253"
         style="fill:#000000;fill-opacity:1;stroke:none;stroke-opacity:1">
        <path
           inkscape:connector-curvature="0"
           id="path1255"
           style="fill:#000000;fill-opacity:1;fill-rule:nonzero;stroke:none;stroke-opacity:1"
           d="M 0,0 C 0,1.885 1.528,3.412 3.412,3.412 5.297,3.412 6.824,1.885 6.824,0 6.824,-1.884 5.297,-3.412 3.412,-3.412 1.528,-3.412 0,-1.884 0,0" />
      </g>
      <g
         transform="translate(661.2037,433.2348)"
         id="g1257"
         style="fill:#000000;fill-opacity:1;stroke:none;stroke-opacity:1">
        <path
           inkscape:connector-curvature="0"
           id="path1259"
           style="fill:#000000;fill-opacity:1;fill-rule:nonzero;stroke:none;stroke-opacity:1"
           d="M 0,0 C 0,1.884 1.528,3.412 3.412,3.412 5.297,3.412 6.825,1.884 6.825,0 6.825,-1.885 5.297,-3.412 3.412,-3.412 1.528,-3.412 0,-1.885 0,0" />
      </g>
      <g
         transform="translate(729.0038,365.4346)"
         id="g1261"
         style="fill:#000000;fill-opacity:1;stroke:none;stroke-opacity:1">
        <path
           inkscape:connector-curvature="0"
           id="path1263"
           style="fill:#000000;fill-opacity:1;fill-rule:nonzero;stroke:none;stroke-opacity:1"
           d="M 0,0 C 0,1.885 1.528,3.412 3.412,3.412 5.297,3.412 6.824,1.885 6.824,0 6.824,-1.884 5.297,-3.412 3.412,-3.412 1.528,-3.412 0,-1.884 0,0" />
      </g>
      <g
         transform="translate(525.6035,297.6345)"
         id="g1265"
         style="fill:#000000;fill-opacity:1;stroke:none;stroke-opacity:1">
        <path
           inkscape:connector-curvature="0"
           id="path1267"
           style="fill:#000000;fill-opacity:1;fill-rule:nonzero;stroke:none;stroke-opacity:1"
           d="M 0,0 C 0,1.885 1.528,3.412 3.412,3.412 5.297,3.412 6.824,1.885 6.824,0 6.824,-1.884 5.297,-3.412 3.412,-3.412 1.528,-3.412 0,-1.884 0,0" />
      </g>
      <g
         transform="translate(457.8035,365.4346)"
         id="g1269"
         style="fill:#000000;fill-opacity:1;stroke:none;stroke-opacity:1">
        <path
           inkscape:connector-curvature="0"
           id="path1271"
           style="fill:#000000;fill-opacity:1;fill-rule:nonzero;stroke:none;stroke-opacity:1"
           d="M 0,0 C 0,1.885 1.528,3.412 3.412,3.412 5.297,3.412 6.824,1.885 6.824,0 6.824,-1.884 5.297,-3.412 3.412,-3.412 1.528,-3.412 0,-1.884 0,0" />
      </g>
      <g
         transform="translate(525.6035,433.2348)"
         id="g1273"
         style="fill:#000000;fill-opacity:1;stroke:none;stroke-opacity:1">
        <path
           inkscape:connector-curvature="0"
           id="path1275"
           style="fill:#000000;fill-opacity:1;fill-rule:nonzero;stroke:none;stroke-opacity:1"
           d="M 0,0 C 0,1.884 1.528,3.412 3.412,3.412 5.297,3.412 6.824,1.884 6.824,0 6.824,-1.885 5.297,-3.412 3.412,-3.412 1.528,-3.412 0,-1.885 0,0" />
      </g>
      <g
         transform="translate(593.4036,365.4346)"
         id="g1277"
         style="fill:#000000;fill-opacity:1;stroke:none;stroke-opacity:1">
        <path
           inkscape:connector-curvature="0"
           id="path1279"
           style="fill:#000000;fill-opacity:1;fill-rule:nonzero;stroke:none;stroke-opacity:1"
           d="M 0,0 C 0,1.885 1.528,3.412 3.412,3.412 5.297,3.412 6.824,1.885 6.824,0 6.824,-1.884 5.297,-3.412 3.412,-3.412 1.528,-3.412 0,-1.884 0,0" />
      </g>
      <g
         transform="translate(390.0034,297.6345)"
         id="g1281"
         style="fill:#000000;fill-opacity:1;stroke:none;stroke-opacity:1">
        <path
           inkscape:connector-curvature="0"
           id="path1283"
           style="fill:#000000;fill-opacity:1;fill-rule:nonzero;stroke:none;stroke-opacity:1"
           d="M 0,0 C 0,1.885 1.528,3.412 3.412,3.412 5.297,3.412 6.824,1.885 6.824,0 6.824,-1.884 5.297,-3.412 3.412,-3.412 1.528,-3.412 0,-1.884 0,0" />
      </g>
      <g
         transform="translate(322.2034,365.4346)"
         id="g1285"
         style="fill:#000000;fill-opacity:1;stroke:none;stroke-opacity:1">
        <path
           inkscape:connector-curvature="0"
           id="path1287"
           style="fill:#000000;fill-opacity:1;fill-rule:nonzero;stroke:none;stroke-opacity:1"
           d="M 0,0 C 0,1.885 1.528,3.412 3.412,3.412 5.297,3.412 6.824,1.885 6.824,0 6.824,-1.884 5.297,-3.412 3.412,-3.412 1.528,-3.412 0,-1.884 0,0" />
      </g>
      <g
         transform="translate(390.0034,433.2348)"
         id="g1289"
         style="fill:#000000;fill-opacity:1;stroke:none;stroke-opacity:1">
        <path
           inkscape:connector-curvature="0"
           id="path1291"
           style="fill:#000000;fill-opacity:1;fill-rule:nonzero;stroke:none;stroke-opacity:1"
           d="M 0,0 C 0,1.884 1.528,3.412 3.412,3.412 5.297,3.412 6.824,1.884 6.824,0 6.824,-1.885 5.297,-3.412 3.412,-3.412 1.528,-3.412 0,-1.885 0,0" />
      </g>
      <g
         transform="translate(457.8035,365.4346)"
         id="g1293"
         style="fill:#000000;fill-opacity:1;stroke:none;stroke-opacity:1">
        <path
           inkscape:connector-curvature="0"
           id="path1295"
           style="fill:#000000;fill-opacity:1;fill-rule:nonzero;stroke:none;stroke-opacity:1"
           d="M 0,0 C 0,1.885 1.528,3.412 3.412,3.412 5.297,3.412 6.824,1.885 6.824,0 6.824,-1.884 5.297,-3.412 3.412,-3.412 1.528,-3.412 0,-1.884 0,0" />
      </g>
      <g
         transform="translate(254.4034,297.6345)"
         id="g1297"
         style="fill:#000000;fill-opacity:1;stroke:none;stroke-opacity:1">
        <path
           inkscape:connector-curvature="0"
           id="path1299"
           style="fill:#000000;fill-opacity:1;fill-rule:nonzero;stroke:none;stroke-opacity:1"
           d="M 0,0 C 0,1.885 1.527,3.412 3.412,3.412 5.297,3.412 6.825,1.885 6.825,0 6.825,-1.884 5.297,-3.412 3.412,-3.412 1.527,-3.412 0,-1.884 0,0" />
      </g>
      <g
         transform="translate(254.4034,433.2348)"
         id="g1301"
         style="fill:#000000;fill-opacity:1;stroke:none;stroke-opacity:1">
        <path
           inkscape:connector-curvature="0"
           id="path1303"
           style="fill:#000000;fill-opacity:1;fill-rule:nonzero;stroke:none;stroke-opacity:1"
           d="M 0,0 C 0,1.884 1.527,3.412 3.412,3.412 5.297,3.412 6.825,1.884 6.825,0 6.825,-1.885 5.297,-3.412 3.412,-3.412 1.527,-3.412 0,-1.885 0,0" />
      </g>
      <g
         transform="translate(322.2034,365.4346)"
         id="g1305"
         style="fill:#000000;fill-opacity:1;stroke:none;stroke-opacity:1">
        <path
           inkscape:connector-curvature="0"
           id="path1307"
           style="fill:#000000;fill-opacity:1;fill-rule:nonzero;stroke:none;stroke-opacity:1"
           d="M 0,0 C 0,1.885 1.528,3.412 3.412,3.412 5.297,3.412 6.824,1.885 6.824,0 6.824,-1.884 5.297,-3.412 3.412,-3.412 1.528,-3.412 0,-1.884 0,0" />
      </g>
      <g
         transform="translate(796.8038,433.2348)"
         id="g1309"
         style="fill:#000000;fill-opacity:1;stroke:none;stroke-opacity:1">
        <path
           inkscape:connector-curvature="0"
           id="path1311"
           style="fill:#000000;fill-opacity:1;fill-rule:nonzero;stroke:none;stroke-opacity:1"
           d="M 0,0 C 0,1.884 1.528,3.412 3.412,3.412 5.297,3.412 6.824,1.884 6.824,0 6.824,-1.885 5.297,-3.412 3.412,-3.412 1.528,-3.412 0,-1.885 0,0" />
      </g>
      <g
         transform="translate(729.0038,501.0349)"
         id="g1313"
         style="fill:#000000;fill-opacity:1;stroke:none;stroke-opacity:1">
        <path
           inkscape:connector-curvature="0"
           id="path1315"
           style="fill:#000000;fill-opacity:1;fill-rule:nonzero;stroke:none;stroke-opacity:1"
           d="M 0,0 C 0,1.885 1.528,3.412 3.412,3.412 5.297,3.412 6.824,1.885 6.824,0 6.824,-1.885 5.297,-3.412 3.412,-3.412 1.528,-3.412 0,-1.885 0,0" />
      </g>
      <g
         transform="translate(796.8038,568.835)"
         id="g1317"
         style="fill:#000000;fill-opacity:1;stroke:none;stroke-opacity:1">
        <path
           inkscape:connector-curvature="0"
           id="path1319"
           style="fill:#000000;fill-opacity:1;fill-rule:nonzero;stroke:none;stroke-opacity:1"
           d="M 0,0 C 0,1.884 1.528,3.412 3.412,3.412 5.297,3.412 6.824,1.884 6.824,0 6.824,-1.885 5.297,-3.412 3.412,-3.412 1.528,-3.412 0,-1.885 0,0" />
      </g>
      <g
         transform="translate(661.2037,433.2348)"
         id="g1321"
         style="fill:#000000;fill-opacity:1;stroke:none;stroke-opacity:1">
        <path
           inkscape:connector-curvature="0"
           id="path1323"
           style="fill:#000000;fill-opacity:1;fill-rule:nonzero;stroke:none;stroke-opacity:1"
           d="M 0,0 C 0,1.884 1.528,3.412 3.412,3.412 5.297,3.412 6.825,1.884 6.825,0 6.825,-1.885 5.297,-3.412 3.412,-3.412 1.528,-3.412 0,-1.885 0,0" />
      </g>
      <g
         transform="translate(593.4036,501.0349)"
         id="g1325"
         style="fill:#000000;fill-opacity:1;stroke:none;stroke-opacity:1">
        <path
           inkscape:connector-curvature="0"
           id="path1327"
           style="fill:#000000;fill-opacity:1;fill-rule:nonzero;stroke:none;stroke-opacity:1"
           d="M 0,0 C 0,1.885 1.528,3.412 3.412,3.412 5.297,3.412 6.824,1.885 6.824,0 6.824,-1.885 5.297,-3.412 3.412,-3.412 1.528,-3.412 0,-1.885 0,0" />
      </g>
      <g
         transform="translate(661.2037,568.835)"
         id="g1329"
         style="fill:#000000;fill-opacity:1;stroke:none;stroke-opacity:1">
        <path
           inkscape:connector-curvature="0"
           id="path1331"
           style="fill:#000000;fill-opacity:1;fill-rule:nonzero;stroke:none;stroke-opacity:1"
           d="M 0,0 C 0,1.884 1.528,3.412 3.412,3.412 5.297,3.412 6.825,1.884 6.825,0 6.825,-1.885 5.297,-3.412 3.412,-3.412 1.528,-3.412 0,-1.885 0,0" />
      </g>
      <g
         transform="translate(729.0038,501.0349)"
         id="g1333"
         style="fill:#000000;fill-opacity:1;stroke:none;stroke-opacity:1">
        <path
           inkscape:connector-curvature="0"
           id="path1335"
           style="fill:#000000;fill-opacity:1;fill-rule:nonzero;stroke:none;stroke-opacity:1"
           d="M 0,0 C 0,1.885 1.528,3.412 3.412,3.412 5.297,3.412 6.824,1.885 6.824,0 6.824,-1.885 5.297,-3.412 3.412,-3.412 1.528,-3.412 0,-1.885 0,0" />
      </g>
      <g
         transform="translate(525.6035,433.2348)"
         id="g1337"
         style="fill:#000000;fill-opacity:1;stroke:none;stroke-opacity:1">
        <path
           inkscape:connector-curvature="0"
           id="path1339"
           style="fill:#000000;fill-opacity:1;fill-rule:nonzero;stroke:none;stroke-opacity:1"
           d="M 0,0 C 0,1.884 1.528,3.412 3.412,3.412 5.297,3.412 6.824,1.884 6.824,0 6.824,-1.885 5.297,-3.412 3.412,-3.412 1.528,-3.412 0,-1.885 0,0" />
      </g>
      <g
         transform="translate(457.8035,501.0349)"
         id="g1341"
         style="fill:#000000;fill-opacity:1;stroke:none;stroke-opacity:1">
        <path
           inkscape:connector-curvature="0"
           id="path1343"
           style="fill:#000000;fill-opacity:1;fill-rule:nonzero;stroke:none;stroke-opacity:1"
           d="M 0,0 C 0,1.885 1.528,3.412 3.412,3.412 5.297,3.412 6.824,1.885 6.824,0 6.824,-1.885 5.297,-3.412 3.412,-3.412 1.528,-3.412 0,-1.885 0,0" />
      </g>
      <g
         transform="translate(525.6035,568.835)"
         id="g1345"
         style="fill:#000000;fill-opacity:1;stroke:none;stroke-opacity:1">
        <path
           inkscape:connector-curvature="0"
           id="path1347"
           style="fill:#000000;fill-opacity:1;fill-rule:nonzero;stroke:none;stroke-opacity:1"
           d="M 0,0 C 0,1.884 1.528,3.412 3.412,3.412 5.297,3.412 6.824,1.884 6.824,0 6.824,-1.885 5.297,-3.412 3.412,-3.412 1.528,-3.412 0,-1.885 0,0" />
      </g>
      <g
         transform="translate(593.4036,501.0349)"
         id="g1349"
         style="fill:#000000;fill-opacity:1;stroke:none;stroke-opacity:1">
        <path
           inkscape:connector-curvature="0"
           id="path1351"
           style="fill:#000000;fill-opacity:1;fill-rule:nonzero;stroke:none;stroke-opacity:1"
           d="M 0,0 C 0,1.885 1.528,3.412 3.412,3.412 5.297,3.412 6.824,1.885 6.824,0 6.824,-1.885 5.297,-3.412 3.412,-3.412 1.528,-3.412 0,-1.885 0,0" />
      </g>
      <g
         transform="translate(390.0034,433.2348)"
         id="g1353"
         style="fill:#000000;fill-opacity:1;stroke:none;stroke-opacity:1">
        <path
           inkscape:connector-curvature="0"
           id="path1355"
           style="fill:#000000;fill-opacity:1;fill-rule:nonzero;stroke:none;stroke-opacity:1"
           d="M 0,0 C 0,1.884 1.528,3.412 3.412,3.412 5.297,3.412 6.824,1.884 6.824,0 6.824,-1.885 5.297,-3.412 3.412,-3.412 1.528,-3.412 0,-1.885 0,0" />
      </g>
      <g
         transform="translate(322.2034,501.0349)"
         id="g1357"
         style="fill:#000000;fill-opacity:1;stroke:none;stroke-opacity:1">
        <path
           inkscape:connector-curvature="0"
           id="path1359"
           style="fill:#000000;fill-opacity:1;fill-rule:nonzero;stroke:none;stroke-opacity:1"
           d="M 0,0 C 0,1.885 1.528,3.412 3.412,3.412 5.297,3.412 6.824,1.885 6.824,0 6.824,-1.885 5.297,-3.412 3.412,-3.412 1.528,-3.412 0,-1.885 0,0" />
      </g>
      <g
         transform="translate(390.0034,568.835)"
         id="g1361"
         style="fill:#000000;fill-opacity:1;stroke:none;stroke-opacity:1">
        <path
           inkscape:connector-curvature="0"
           id="path1363"
           style="fill:#000000;fill-opacity:1;fill-rule:nonzero;stroke:none;stroke-opacity:1"
           d="M 0,0 C 0,1.884 1.528,3.412 3.412,3.412 5.297,3.412 6.824,1.884 6.824,0 6.824,-1.885 5.297,-3.412 3.412,-3.412 1.528,-3.412 0,-1.885 0,0" />
      </g>
      <g
         transform="translate(457.8035,501.0349)"
         id="g1365"
         style="fill:#000000;fill-opacity:1;stroke:none;stroke-opacity:1">
        <path
           inkscape:connector-curvature="0"
           id="path1367"
           style="fill:#000000;fill-opacity:1;fill-rule:nonzero;stroke:none;stroke-opacity:1"
           d="M 0,0 C 0,1.885 1.528,3.412 3.412,3.412 5.297,3.412 6.824,1.885 6.824,0 6.824,-1.885 5.297,-3.412 3.412,-3.412 1.528,-3.412 0,-1.885 0,0" />
      </g>
      <g
         transform="translate(254.4034,433.2348)"
         id="g1369"
         style="fill:#000000;fill-opacity:1;stroke:none;stroke-opacity:1">
        <path
           inkscape:connector-curvature="0"
           id="path1371"
           style="fill:#000000;fill-opacity:1;fill-rule:nonzero;stroke:none;stroke-opacity:1"
           d="M 0,0 C 0,1.884 1.527,3.412 3.412,3.412 5.297,3.412 6.825,1.884 6.825,0 6.825,-1.885 5.297,-3.412 3.412,-3.412 1.527,-3.412 0,-1.885 0,0" />
      </g>
      <g
         transform="translate(254.4034,568.835)"
         id="g1373"
         style="fill:#000000;fill-opacity:1;stroke:none;stroke-opacity:1">
        <path
           inkscape:connector-curvature="0"
           id="path1375"
           style="fill:#000000;fill-opacity:1;fill-rule:nonzero;stroke:none;stroke-opacity:1"
           d="M 0,0 C 0,1.884 1.527,3.412 3.412,3.412 5.297,3.412 6.825,1.884 6.825,0 6.825,-1.885 5.297,-3.412 3.412,-3.412 1.527,-3.412 0,-1.885 0,0" />
      </g>
      <g
         transform="translate(322.2034,501.0349)"
         id="g1377"
         style="fill:#000000;fill-opacity:1;stroke:none;stroke-opacity:1">
        <path
           inkscape:connector-curvature="0"
           id="path1379"
           style="fill:#000000;fill-opacity:1;fill-rule:nonzero;stroke:none;stroke-opacity:1"
           d="M 0,0 C 0,1.885 1.528,3.412 3.412,3.412 5.297,3.412 6.824,1.885 6.824,0 6.824,-1.885 5.297,-3.412 3.412,-3.412 1.528,-3.412 0,-1.885 0,0" />
      </g>
      <g
         transform="translate(796.8038,568.835)"
         id="g1381"
         style="fill:#000000;fill-opacity:1;stroke:none;stroke-opacity:1">
        <path
           inkscape:connector-curvature="0"
           id="path1383"
           style="fill:#000000;fill-opacity:1;fill-rule:nonzero;stroke:none;stroke-opacity:1"
           d="M 0,0 C 0,1.884 1.528,3.412 3.412,3.412 5.297,3.412 6.824,1.884 6.824,0 6.824,-1.885 5.297,-3.412 3.412,-3.412 1.528,-3.412 0,-1.885 0,0" />
      </g>
      <g
         transform="translate(661.2037,568.835)"
         id="g1385"
         style="fill:#000000;fill-opacity:1;stroke:none;stroke-opacity:1">
        <path
           inkscape:connector-curvature="0"
           id="path1387"
           style="fill:#000000;fill-opacity:1;fill-rule:nonzero;stroke:none;stroke-opacity:1"
           d="M 0,0 C 0,1.884 1.528,3.412 3.412,3.412 5.297,3.412 6.825,1.884 6.825,0 6.825,-1.885 5.297,-3.412 3.412,-3.412 1.528,-3.412 0,-1.885 0,0" />
      </g>
      <g
         transform="translate(525.6035,568.835)"
         id="g1389"
         style="fill:#000000;fill-opacity:1;stroke:none;stroke-opacity:1">
        <path
           inkscape:connector-curvature="0"
           id="path1391"
           style="fill:#000000;fill-opacity:1;fill-rule:nonzero;stroke:none;stroke-opacity:1"
           d="M 0,0 C 0,1.884 1.528,3.412 3.412,3.412 5.297,3.412 6.824,1.884 6.824,0 6.824,-1.885 5.297,-3.412 3.412,-3.412 1.528,-3.412 0,-1.885 0,0" />
      </g>
      <g
         transform="translate(390.0034,568.835)"
         id="g1393"
         style="fill:#000000;fill-opacity:1;stroke:none;stroke-opacity:1">
        <path
           inkscape:connector-curvature="0"
           id="path1395"
           style="fill:#000000;fill-opacity:1;fill-rule:nonzero;stroke:none;stroke-opacity:1"
           d="M 0,0 C 0,1.884 1.528,3.412 3.412,3.412 5.297,3.412 6.824,1.884 6.824,0 6.824,-1.885 5.297,-3.412 3.412,-3.412 1.528,-3.412 0,-1.885 0,0" />
      </g>
      <g
         transform="translate(254.4034,568.835)"
         id="g1397"
         style="fill:#000000;fill-opacity:1;stroke:none;stroke-opacity:1">
        <path
           inkscape:connector-curvature="0"
           id="path1399"
           style="fill:#000000;fill-opacity:1;fill-rule:nonzero;stroke:none;stroke-opacity:1"
           d="M 0,0 C 0,1.884 1.527,3.412 3.412,3.412 5.297,3.412 6.825,1.884 6.825,0 6.825,-1.885 5.297,-3.412 3.412,-3.412 1.527,-3.412 0,-1.885 0,0" />
      </g>
      <g
         transform="translate(800.2163,298.1054)"
         id="g1401"
         style="fill:#000000;fill-opacity:1;stroke:none;stroke-opacity:1">
        <path
           inkscape:connector-curvature="0"
           id="path1403"
           style="fill:#000000;fill-opacity:1;fill-rule:nonzero;stroke:none;stroke-opacity:1"
           d="M 0,0 C 0.125,0 0.245,-0.05 0.333,-0.138 L 34.35,-34.156 c 0.184,-0.184 0.184,-0.482 0,-0.666 -0.183,-0.183 -0.481,-0.183 -0.665,0 L 0,-1.136 -67.468,-68.603 c -0.184,-0.184 -0.481,-0.184 -0.665,0 -0.184,0.183 -0.184,0.481 0,0.665 l 67.8,67.8 C -0.245,-0.05 -0.125,0 0,0" />
      </g>
      <g
         transform="translate(257.8157,298.1054)"
         id="g1405"
         style="fill:#000000;fill-opacity:1;stroke:none;stroke-opacity:1">
        <path
           inkscape:connector-curvature="0"
           id="path1407"
           style="fill:#000000;fill-opacity:1;fill-rule:nonzero;stroke:none;stroke-opacity:1"
           d="M 0,0 C 0.12,0 0.241,-0.046 0.333,-0.138 L 67.8,-67.605 135.267,-0.138 c 0.184,0.184 0.482,0.184 0.666,0 l 67.467,-67.467 67.467,67.467 c 0.184,0.184 0.482,0.184 0.666,0 L 339,-67.605 406.467,-0.138 c 0.184,0.184 0.482,0.184 0.666,0 l 67.8,-67.8 c 0.184,-0.184 0.184,-0.482 0,-0.665 -0.184,-0.184 -0.482,-0.184 -0.666,0 L 406.8,-1.136 339.333,-68.603 c -0.184,-0.184 -0.482,-0.184 -0.666,0 L 271.2,-1.136 203.733,-68.603 c -0.184,-0.184 -0.482,-0.184 -0.666,0 L 135.6,-1.136 68.133,-68.603 c -0.184,-0.184 -0.482,-0.184 -0.666,0 L 0,-1.136 -33.567,-34.703 c -0.184,-0.184 -0.482,-0.184 -0.666,0 -0.184,0.183 -0.184,0.481 0,0.665 l 33.9,33.9 C -0.241,-0.046 -0.12,0 0,0" />
      </g>
      <g
         transform="translate(800.2163,433.7054)"
         id="g1409"
         style="fill:#000000;fill-opacity:1;stroke:none;stroke-opacity:1">
        <path
           inkscape:connector-curvature="0"
           id="path1411"
           style="fill:#000000;fill-opacity:1;fill-rule:nonzero;stroke:none;stroke-opacity:1"
           d="m 0,0 c 0.12,0 0.241,-0.046 0.333,-0.138 l 67.8,-67.8 c 0.184,-0.184 0.184,-0.482 0,-0.665 l -67.8,-67.8 c -0.184,-0.184 -0.482,-0.184 -0.666,0 l -67.8,67.8 c -0.089,0.088 -0.138,0.207 -0.138,0.332 0,0.125 0.049,0.245 0.138,0.333 l 67.8,67.8 C -0.241,-0.046 -0.12,0 0,0 M 67.135,-68.271 0,-1.136 -67.135,-68.271 0,-135.405 Z" />
      </g>
      <g
         transform="translate(664.6158,433.7054)"
         id="g1413"
         style="fill:#000000;fill-opacity:1;stroke:none;stroke-opacity:1">
        <path
           inkscape:connector-curvature="0"
           id="path1415"
           style="fill:#000000;fill-opacity:1;fill-rule:nonzero;stroke:none;stroke-opacity:1"
           d="m 0,0 c 0.12,0 0.241,-0.046 0.333,-0.138 l 67.8,-67.8 c 0.184,-0.184 0.184,-0.482 0,-0.665 l -67.8,-67.8 c -0.184,-0.184 -0.482,-0.184 -0.666,0 l -67.8,67.8 c -0.184,0.183 -0.184,0.481 0,0.665 l 67.8,67.8 C -0.241,-0.046 -0.12,0 0,0 M 67.134,-68.271 0,-1.136 -67.135,-68.271 0,-135.405 Z" />
      </g>
      <g
         transform="translate(529.0157,433.7054)"
         id="g1417"
         style="fill:#000000;fill-opacity:1;stroke:none;stroke-opacity:1">
        <path
           inkscape:connector-curvature="0"
           id="path1419"
           style="fill:#000000;fill-opacity:1;fill-rule:nonzero;stroke:none;stroke-opacity:1"
           d="m 0,0 c 0.12,0 0.241,-0.046 0.333,-0.138 l 67.8,-67.8 c 0.184,-0.184 0.184,-0.482 0,-0.665 l -67.8,-67.8 c -0.184,-0.184 -0.482,-0.184 -0.666,0 l -67.8,67.8 c -0.184,0.183 -0.184,0.481 0,0.665 l 67.8,67.8 C -0.241,-0.046 -0.12,0 0,0 M 67.135,-68.271 0,-1.136 -67.135,-68.271 0,-135.405 Z" />
      </g>
      <g
         transform="translate(393.4156,433.7054)"
         id="g1421"
         style="fill:#000000;fill-opacity:1;stroke:none;stroke-opacity:1">
        <path
           inkscape:connector-curvature="0"
           id="path1423"
           style="fill:#000000;fill-opacity:1;fill-rule:nonzero;stroke:none;stroke-opacity:1"
           d="m 0,0 c 0.12,0 0.241,-0.046 0.333,-0.138 l 67.8,-67.8 c 0.184,-0.184 0.184,-0.482 0,-0.665 l -67.8,-67.8 c -0.184,-0.184 -0.482,-0.184 -0.666,0 l -67.8,67.8 c -0.184,0.183 -0.184,0.481 0,0.665 l 67.8,67.8 C -0.241,-0.046 -0.12,0 0,0 M 67.135,-68.271 0,-1.136 -67.134,-68.271 0,-135.405 Z" />
      </g>
      <g
         transform="translate(257.8157,433.7054)"
         id="g1425"
         style="fill:#000000;fill-opacity:1;stroke:none;stroke-opacity:1">
        <path
           inkscape:connector-curvature="0"
           id="path1427"
           style="fill:#000000;fill-opacity:1;fill-rule:nonzero;stroke:none;stroke-opacity:1"
           d="m 0,0 c 0.12,0 0.241,-0.046 0.333,-0.138 l 67.8,-67.8 c 0.184,-0.184 0.184,-0.482 0,-0.665 l -67.8,-67.8 c -0.184,-0.184 -0.482,-0.184 -0.666,0 l -67.8,67.8 c -0.088,0.088 -0.138,0.207 -0.138,0.332 0,0.125 0.05,0.245 0.138,0.333 l 67.8,67.8 C -0.241,-0.046 -0.12,0 0,0 M 67.134,-68.271 0,-1.136 -67.135,-68.271 0,-135.405 Z" />
      </g>
      <g
         transform="translate(800.2163,569.3054)"
         id="g1429"
         style="fill:#000000;fill-opacity:1;stroke:none;stroke-opacity:1">
        <path
           inkscape:connector-curvature="0"
           id="path1431"
           style="fill:#000000;fill-opacity:1;fill-rule:nonzero;stroke:none;stroke-opacity:1"
           d="m 0,0 c 0.12,0 0.241,-0.046 0.333,-0.138 l 67.8,-67.8 c 0.184,-0.184 0.184,-0.482 0,-0.665 l -67.8,-67.801 c -0.184,-0.183 -0.482,-0.183 -0.666,0 l -67.8,67.801 c -0.089,0.088 -0.138,0.207 -0.138,0.332 0,0.125 0.049,0.245 0.138,0.333 l 67.8,67.8 C -0.241,-0.046 -0.12,0 0,0 M 67.135,-68.271 0,-1.136 -67.135,-68.271 0,-135.405 Z" />
      </g>
      <g
         transform="translate(664.6158,569.3054)"
         id="g1433"
         style="fill:#000000;fill-opacity:1;stroke:none;stroke-opacity:1">
        <path
           inkscape:connector-curvature="0"
           id="path1435"
           style="fill:#000000;fill-opacity:1;fill-rule:nonzero;stroke:none;stroke-opacity:1"
           d="m 0,0 c 0.12,0 0.241,-0.046 0.333,-0.138 l 67.8,-67.8 c 0.184,-0.184 0.184,-0.482 0,-0.665 l -67.8,-67.801 c -0.184,-0.183 -0.482,-0.183 -0.666,0 l -67.8,67.801 c -0.184,0.183 -0.184,0.481 0,0.665 l 67.8,67.8 C -0.241,-0.046 -0.12,0 0,0 M 67.134,-68.271 0,-1.136 -67.135,-68.271 0,-135.405 Z" />
      </g>
      <g
         transform="translate(529.0157,569.3054)"
         id="g1437"
         style="fill:#000000;fill-opacity:1;stroke:none;stroke-opacity:1">
        <path
           inkscape:connector-curvature="0"
           id="path1439"
           style="fill:#000000;fill-opacity:1;fill-rule:nonzero;stroke:none;stroke-opacity:1"
           d="m 0,0 c 0.12,0 0.241,-0.046 0.333,-0.138 l 67.8,-67.8 c 0.184,-0.184 0.184,-0.482 0,-0.665 l -67.8,-67.801 c -0.184,-0.183 -0.482,-0.183 -0.666,0 l -67.8,67.801 c -0.184,0.183 -0.184,0.481 0,0.665 l 67.8,67.8 C -0.241,-0.046 -0.12,0 0,0 M 67.135,-68.271 0,-1.136 -67.135,-68.271 0,-135.405 Z" />
      </g>
      <g
         transform="translate(393.4156,569.3054)"
         id="g1441"
         style="fill:#000000;fill-opacity:1;stroke:none;stroke-opacity:1">
        <path
           inkscape:connector-curvature="0"
           id="path1443"
           style="fill:#000000;fill-opacity:1;fill-rule:nonzero;stroke:none;stroke-opacity:1"
           d="m 0,0 c 0.12,0 0.241,-0.046 0.333,-0.138 l 67.8,-67.8 c 0.184,-0.184 0.184,-0.482 0,-0.665 l -67.8,-67.801 c -0.184,-0.183 -0.482,-0.183 -0.666,0 l -67.8,67.801 c -0.184,0.183 -0.184,0.481 0,0.665 l 67.8,67.8 C -0.241,-0.046 -0.12,0 0,0 M 67.135,-68.271 0,-1.136 -67.134,-68.271 0,-135.405 Z" />
      </g>
      <g
         transform="translate(257.8157,569.3054)"
         id="g1445"
         style="fill:#000000;fill-opacity:1;stroke:none;stroke-opacity:1">
        <path
           inkscape:connector-curvature="0"
           id="path1447"
           style="fill:#000000;fill-opacity:1;fill-rule:nonzero;stroke:none;stroke-opacity:1"
           d="m 0,0 c 0.12,0 0.241,-0.046 0.333,-0.138 l 67.8,-67.8 c 0.184,-0.184 0.184,-0.482 0,-0.665 l -67.8,-67.801 c -0.184,-0.183 -0.482,-0.183 -0.666,0 l -67.8,67.801 c -0.088,0.088 -0.138,0.207 -0.138,0.332 0,0.125 0.05,0.245 0.138,0.333 l 67.8,67.8 C -0.241,-0.046 -0.12,0 0,0 M 67.134,-68.271 0,-1.136 -67.135,-68.271 0,-135.405 Z" />
      </g>
      <g
         transform="translate(325.6157,637.1054)"
         id="g1449"
         style="fill:#000000;fill-opacity:1;stroke:none;stroke-opacity:1">
        <path
           inkscape:connector-curvature="0"
           id="path1451"
           style="fill:#000000;fill-opacity:1;fill-rule:nonzero;stroke:none;stroke-opacity:1"
           d="M 0,0 C 0.12,0 0.241,-0.046 0.333,-0.138 L 67.8,-67.605 135.267,-0.138 c 0.184,0.184 0.482,0.184 0.666,0 l 67.467,-67.467 67.467,67.467 c 0.184,0.184 0.482,0.184 0.666,0 L 339,-67.605 406.467,-0.138 c 0.184,0.184 0.482,0.184 0.666,0 l 67.468,-67.467 33.537,33.538 c 0.184,0.184 0.482,0.184 0.666,0 0.183,-0.184 0.183,-0.482 0,-0.666 l -33.871,-33.87 c -0.176,-0.177 -0.489,-0.177 -0.665,0 L 406.8,-1.136 339.333,-68.603 c -0.184,-0.184 -0.482,-0.184 -0.666,0 L 271.2,-1.136 203.733,-68.603 c -0.184,-0.184 -0.482,-0.184 -0.666,0 L 135.6,-1.136 68.133,-68.603 c -0.184,-0.184 -0.482,-0.184 -0.666,0 L 0,-1.136 -67.467,-68.603 c -0.184,-0.184 -0.482,-0.184 -0.666,0 l -33.835,33.835 c -0.184,0.184 -0.184,0.482 0,0.665 0.184,0.184 0.482,0.184 0.666,0 L -67.8,-67.605 -0.333,-0.138 C -0.241,-0.046 -0.12,0 0,0" />
      </g>
      <g
         transform="translate(190.0151,433.5974)"
         id="g1453"
         style="fill:#000000;fill-opacity:1;stroke:none;stroke-opacity:1">
        <path
           inkscape:connector-curvature="0"
           id="path1455"
           style="fill:#000000;fill-opacity:1;fill-rule:nonzero;stroke:none;stroke-opacity:1"
           d="m 0,0 h 678.001 c 0.2,0 0.362,-0.162 0.362,-0.362 0,-0.2 -0.162,-0.362 -0.362,-0.362 H 0 c -0.2,0 -0.362,0.162 -0.362,0.362 C -0.362,-0.162 -0.2,0 0,0" />
      </g>
      <g
         transform="translate(190.0151,297.9968)"
         id="g1457"
         style="fill:#000000;fill-opacity:1;stroke:none;stroke-opacity:1">
        <path
           inkscape:connector-curvature="0"
           id="path1459"
           style="fill:#000000;fill-opacity:1;fill-rule:nonzero;stroke:none;stroke-opacity:1"
           d="m 0,0 h 678.001 c 0.2,0 0.362,-0.162 0.362,-0.362 0,-0.2 -0.162,-0.362 -0.362,-0.362 H 0 c -0.2,0 -0.362,0.162 -0.362,0.362 C -0.362,-0.162 -0.2,0 0,0" />
      </g>
      <g
         transform="translate(190.0151,365.797)"
         id="g1461"
         style="fill:#000000;fill-opacity:1;stroke:none;stroke-opacity:1">
        <path
           inkscape:connector-curvature="0"
           id="path1463"
           style="fill:#000000;fill-opacity:1;fill-rule:nonzero;stroke:none;stroke-opacity:1"
           d="m 0,0 h 678.001 c 0.2,0 0.362,-0.162 0.362,-0.362 0,-0.2 -0.162,-0.362 -0.362,-0.362 H 0 c -0.2,0 -0.362,0.162 -0.362,0.362 C -0.362,-0.162 -0.2,0 0,0" />
      </g>
      <g
         transform="translate(190.0151,433.5969)"
         id="g1465"
         style="fill:#000000;fill-opacity:1;stroke:none;stroke-opacity:1">
        <path
           inkscape:connector-curvature="0"
           id="path1467"
           style="fill:#000000;fill-opacity:1;fill-rule:nonzero;stroke:none;stroke-opacity:1"
           d="m 0,0 h 678.001 c 0.2,0 0.362,-0.162 0.362,-0.362 0,-0.2 -0.162,-0.362 -0.362,-0.362 H 0 c -0.2,0 -0.362,0.162 -0.362,0.362 C -0.362,-0.162 -0.2,0 0,0" />
      </g>
      <g
         transform="translate(190.0151,501.397)"
         id="g1469"
         style="fill:#000000;fill-opacity:1;stroke:none;stroke-opacity:1">
        <path
           inkscape:connector-curvature="0"
           id="path1471"
           style="fill:#000000;fill-opacity:1;fill-rule:nonzero;stroke:none;stroke-opacity:1"
           d="m 0,0 h 678.001 c 0.2,0 0.362,-0.162 0.362,-0.362 0,-0.2 -0.162,-0.362 -0.362,-0.362 H 0 c -0.2,0 -0.362,0.162 -0.362,0.362 C -0.362,-0.162 -0.2,0 0,0" />
      </g>
      <g
         transform="translate(190.0151,569.1969)"
         id="g1473"
         style="fill:#000000;fill-opacity:1;stroke:none;stroke-opacity:1">
        <path
           inkscape:connector-curvature="0"
           id="path1475"
           style="fill:#000000;fill-opacity:1;fill-rule:nonzero;stroke:none;stroke-opacity:1"
           d="m 0,0 h 678.001 c 0.2,0 0.362,-0.162 0.362,-0.362 0,-0.2 -0.162,-0.362 -0.362,-0.362 H 0 c -0.2,0 -0.362,0.162 -0.362,0.362 C -0.362,-0.162 -0.2,0 0,0" />
      </g>
    </g>
  </g>
</svg>
