<?xml version="1.0" encoding="utf-8"?>
<!-- Generator: Adobe Illustrator 22.1.0, SVG Export Plug-In . SVG Version: 6.00 Build 0)  -->
<svg version="1.1" id="logo-abridged-legacy-maroon"
	 xmlns="http://www.w3.org/2000/svg" xmlns:xlink="http://www.w3.org/1999/xlink" x="0px" y="0px" width="463.3px" height="192.4px"
	 viewBox="0 0 463.3 192.4" enable-background="new 0 0 463.3 192.4" xml:space="preserve">
<path id="seattle-pacific" fill="#3B1C1F" d="M457.4,142h5.9v-18.2c0-11-4.9-12.1-15.3-12.1c-10.5,0-15.3,1.2-15.3,12.1v56.6
	c0,11,4.9,12.1,15.3,12.1c10.4,0,15.3-1.2,15.3-12.1v-20.9h-6.1c-2.3,0-4.2,1.9-4.2,4.2c0,5.8,0,12.2,0,18c0,5.9-0.9,8-4.6,8
	c-3.7,0-4.6-2.2-4.6-8v-59.2c0-6.4,0.9-8,4.6-8c3.7,0,4.6,1.6,4.6,8c0,3.8,0,11,0,15.2C453,140,455,142,457.4,142 M332.5,111.6
	c-10.5,0-15.3,1.2-15.3,12.1v56.6c0,11,4.9,12.1,15.3,12.1c10.4,0,15.3-1.2,15.3-12.1v-20.9h-6.1c-2.3,0-4.2,1.9-4.2,4.2
	c0,5.8,0,12.2,0,18c0,5.9-0.9,8-4.6,8c-3.7,0-4.6-2.2-4.6-8v-59.2c0-6.4,0.9-8,4.6-8c3.7,0,4.6,1.6,4.6,8c0,3.8,0,11,0,15.2
	c0,2.4,2,4.4,4.4,4.4h5.9v-18.2C347.8,112.8,343,111.6,332.5,111.6 M295.1,112.2h-8.5l-8.2,79.5h4.3l1.8-17.4h7.6l-0.3-3.5h-6.9
	l5.5-53.9h0.2l6.5,74.7h11.4l-7.2-74C300.9,114.6,298.3,112.2,295.1,112.2 M253.5,155.2h4.4c2.4,0,4.4-1.9,4.4-4.4v-35.2h-8.8V155.2
	z M248.3,112.2H273v37c0,5.2-4.2,9.4-9.4,9.4h-10.1v33.1h-10.7v-74C242.8,114.7,245.3,112.2,248.3,112.2 M85.3,112.2h-8.5l-8.2,79.5
	h4.3l1.8-17.4h7.6l-0.3-3.5H75l5.5-53.9h0.2l6.5,74.7h11.4l-7.2-74C91.1,114.6,88.4,112.2,85.3,112.2 M189.6,191.8h23.1v-3.3h-12.3
	v-35.5h11.9v-3h-11.9v-34.4h12.3v-3.3h-23.1V191.8z M173.9,112.2h-11v79.5h21.8v-3.2h-10.8V112.2z M40.4,191.8h23.1v-3.3H51.2v-35.5
	h11.9v-3H51.2v-34.4h12.3v-3.3H40.4V191.8z M25,152c-3.5-2.9-9.5-8-11.3-9.4c-1.7-1.4-2.8-2.9-2.8-5.5v-16.7c0-4.2,1.9-6,4.4-6
	c2.4,0,4.3,1.6,4.3,6v13.8c0,2.4,2,4.4,4.4,4.4h5.7v-16.7c0-8.5-4.3-10.2-14.7-10.2C4.7,111.6,0,113.4,0,121.8v17.5
	c0,5.5,2.9,8.2,6,10.8s7.3,6.1,9.1,7.6c1.8,1.5,4.4,3.3,4.4,7.7v17.9c0,4.4-1.7,6.3-4.6,6.3c-2.9,0-4.6-1.8-4.6-6.3v-15.4
	c0-2.4-2-4.4-4.4-4.4H0v19.2c0,8.4,6,9.8,15.1,9.8c7.4,0,15.1-1.4,15.1-9.9v-18.3C30.2,157.4,28.8,155.2,25,152 M380.7,191.8h10.8
	v-38.8h11.9v-3h-11.9v-34.4h12.3v-3.3h-23.1V191.8z M101.1,115.8h8.8v76h11v-76H136v76h11v-76h8.8v-3.5h-54.6V115.8z M358.3,191.8
	h11v-79.5h-11V191.8z M411.2,112.2h11v79.5h-11V112.2z"/>
<path id="flame" fill="#872937" d="M203.1,40.9h-13.9c-3.8,0-7.7,1.3-10.7,3.5c-3,2.2-50.1,37.4-50.1,37.4l0-44
	c0-1.3,0.6-2.5,1.6-3.2l12.2-9.2v2.3c0,1.8-0.8,3.5-2.3,4.6l-8,6c-0.1,0.1-0.2,0.2-0.2,0.4V53c0,0.3,0.3,0.4,0.5,0.2l16.8-12.6
	c4.2-3.1,6.7-8.1,6.7-13.3v-27c0-0.3-0.3-0.4-0.5-0.2L119,27.1c-2.8,2.1-4.4,5.4-4.4,8.8v15.1v0l-2.7-2l-9-6.7
	c-1.1-0.9-1.8-2.3-1.8-3.8v-2.7l9.9,7.4c0.2,0.1,0.5,0,0.5-0.2v-10c0-3.1-1.4-5.9-3.9-7.8L87.8,10.4c-0.2-0.2-0.5,0-0.5,0.2v24.2
	v6.3c0,3.1,1.5,6.1,4,8l23.3,17.4v5L87.8,51.4c-0.2-0.2-0.5,0-0.5,0.3v8.6c0,3.9,1.8,7.6,5,9.9l36.2,27.1l74.8-55.8
	C203.5,41.3,203.4,40.9,203.1,40.9 M149.5,45.7c4-3,9.1-4.7,14.2-4.8h12c0.3,0,0.4,0.4,0.2,0.5L132.3,74c-0.2,0.2-0.5,0-0.5-0.2
	V58.9C131.8,58.9,145.5,48.6,149.5,45.7"/>
</svg>
