<?xml version="1.0" encoding="UTF-8" standalone="no"?>
<!-- Created with Inkscape (http://www.inkscape.org/) -->

<svg
   xmlns:dc="http://purl.org/dc/elements/1.1/"
   xmlns:cc="http://creativecommons.org/ns#"
   xmlns:rdf="http://www.w3.org/1999/02/22-rdf-syntax-ns#"
   xmlns:svg="http://www.w3.org/2000/svg"
   xmlns="http://www.w3.org/2000/svg"
   xmlns:sodipodi="http://sodipodi.sourceforge.net/DTD/sodipodi-0.dtd"
   xmlns:inkscape="http://www.inkscape.org/namespaces/inkscape"
   width="147.7319mm"
   height="33.076443mm"
   viewBox="0 0 147.7319 33.076443"
   version="1.1"
   id="svg11050"
   inkscape:version="0.92.3 (2405546, 2018-03-11)"
   sodipodi:docname="nuffield_csi_logo_white.svg">
  <defs
     id="defs11044">
    <clipPath
       id="clipPath9419"
       clipPathUnits="userSpaceOnUse">
      <path
         inkscape:connector-curvature="0"
         id="path9417"
         d="m 302.395,165.415 h 203.861 v 93.76 H 302.395 Z" />
    </clipPath>
    <clipPath
       id="clipPath9215"
       clipPathUnits="userSpaceOnUse">
      <path
         inkscape:connector-curvature="0"
         id="path9213"
         d="M 0,0 H 841.89 V 595.276 H 0 Z" />
    </clipPath>
    <clipPath
       id="clipPath9223"
       clipPathUnits="userSpaceOnUse">
      <path
         inkscape:connector-curvature="0"
         id="path9221"
         d="m 501.645,255.743 h 35.578 V 225.76 h -35.578 z" />
    </clipPath>
    <clipPath
       id="clipPath9227"
       clipPathUnits="userSpaceOnUse">
      <path
         inkscape:connector-curvature="0"
         id="path9225"
         d="m 502.645,226.759 h 33.579 v 27.984 h -33.579 z" />
    </clipPath>
    <clipPath
       id="clipPath9231"
       clipPathUnits="userSpaceOnUse">
      <path
         inkscape:connector-curvature="0"
         id="path9229"
         d="m 502.645,226.76 h 33.578 v 27.983 h -33.578 z" />
    </clipPath>
  </defs>
  <sodipodi:namedview
     id="base"
     pagecolor="#ffffff"
     bordercolor="#666666"
     borderopacity="1.0"
     inkscape:pageopacity="0.0"
     inkscape:pageshadow="2"
     inkscape:zoom="2.8"
     inkscape:cx="437.40128"
     inkscape:cy="75.83758"
     inkscape:document-units="mm"
     inkscape:current-layer="layer1"
     showgrid="false"
     inkscape:window-width="3840"
     inkscape:window-height="1984"
     inkscape:window-x="-16"
     inkscape:window-y="-16"
     inkscape:window-maximized="1" />
  <metadata
     id="metadata11047">
    <rdf:RDF>
      <cc:Work
         rdf:about="">
        <dc:format>image/svg+xml</dc:format>
        <dc:type
           rdf:resource="http://purl.org/dc/dcmitype/StillImage" />
        <dc:title></dc:title>
      </cc:Work>
    </rdf:RDF>
  </metadata>
  <g
     inkscape:label="Layer 1"
     inkscape:groupmode="layer"
     id="layer1"
     transform="translate(39.315435,-33.060021)">
    <g
       id="g9169"
       transform="matrix(0.35277777,0,0,-0.35277777,43.087284,35.701445)"
       style="fill:#fffff5;fill-opacity:1;stroke:#ffffff;stroke-opacity:1">
      <path
         d="M 0,0 V -69.407"
         style="fill:#fffff5;stroke:#ffffff;stroke-width:0.72399998;stroke-linecap:butt;stroke-linejoin:miter;stroke-miterlimit:4;stroke-dasharray:none;stroke-opacity:1;fill-opacity:1"
         id="path9171"
         inkscape:connector-curvature="0" />
    </g>
    <text
       xml:space="preserve"
       style="font-style:normal;font-variant:normal;font-weight:normal;font-stretch:normal;font-size:14.11111069px;line-height:1.25;font-family:Quattrocento;-inkscape-font-specification:Quattrocento;letter-spacing:0px;word-spacing:0px;fill:#000000;fill-opacity:1;stroke:none;stroke-width:0.26458332"
       x="37.514133"
       y="73.85231"
       id="text1034"><tspan
         sodipodi:role="line"
         id="tspan1032"
         x="37.514133"
         y="86.416039"
         style="stroke-width:0.26458332"></tspan></text>
    <text
       xml:space="preserve"
       style="font-style:normal;font-variant:normal;font-weight:normal;font-stretch:normal;font-size:10.05416775px;line-height:0.875;font-family:Quattrocento;-inkscape-font-specification:Quattrocento;letter-spacing:-0.47624999px;word-spacing:0px;fill:#fffff5;fill-opacity:1;stroke:none;stroke-width:0.26458332;"
       x="53.011158"
       y="42.244041"
       id="text1038"><tspan
         sodipodi:role="line"
         id="tspan1036"
         x="53.011158"
         y="42.244041"
         style="font-style:normal;font-variant:normal;font-weight:300;font-stretch:normal;font-size:10.05416775px;line-height:0.875;font-family:'Roboto Slab';-inkscape-font-specification:'Roboto Slab Light';font-variant-ligatures:normal;font-variant-caps:normal;font-variant-numeric:normal;font-feature-settings:normal;text-align:start;letter-spacing:-0.47624999px;word-spacing:-0.17197919px;writing-mode:lr-tb;text-anchor:start;fill:#fffff5;fill-opacity:1;stroke-width:0.26458332;"
         dy="0">Centre</tspan><tspan
         sodipodi:role="line"
         x="53.011158"
         y="51.334793"
         style="font-style:normal;font-variant:normal;font-weight:300;font-stretch:normal;font-size:10.05416775px;line-height:0.875;font-family:'Roboto Slab';-inkscape-font-specification:'Roboto Slab Light';font-variant-ligatures:normal;font-variant-caps:normal;font-variant-numeric:normal;font-feature-settings:normal;text-align:start;letter-spacing:-0.47624999px;word-spacing:-0.17197919px;writing-mode:lr-tb;text-anchor:start;fill:#fffff5;fill-opacity:1;stroke-width:0.26458332;"
         id="tspan1040">for Social</tspan><tspan
         sodipodi:role="line"
         x="53.011158"
         y="60.425549"
         style="font-style:normal;font-variant:normal;font-weight:300;font-stretch:normal;font-size:10.05416775px;line-height:0.875;font-family:'Roboto Slab';-inkscape-font-specification:'Roboto Slab Light';font-variant-ligatures:normal;font-variant-caps:normal;font-variant-numeric:normal;font-feature-settings:normal;text-align:start;letter-spacing:-0.47624999px;word-spacing:-0.17197919px;writing-mode:lr-tb;text-anchor:start;fill:#fffff5;fill-opacity:1;stroke-width:0.26458332;"
         id="tspan1042">Investigation</tspan></text>
    <g
       id="g9413"
       transform="matrix(0.35277777,0,0,-0.35277777,-145.99381,124.4912)"
       style="fill:#fffff5;fill-opacity:1">
      <g
         id="g9415"
         clip-path="url(#clipPath9419)"
         style="fill:#fffff5;fill-opacity:1">
        <g
           id="g9421"
           transform="translate(346.8204,216.0517)"
           style="fill:#fffff5;fill-opacity:1">
          <path
             d="m 0,0 c -0.005,-0.044 -0.014,-0.175 -0.035,-0.387 -0.013,-0.131 -0.05,-0.258 -0.082,-0.428 -0.053,-0.166 -0.095,-0.366 -0.196,-0.569 -0.173,-0.419 -0.47,-0.895 -0.926,-1.337 -0.451,-0.447 -1.079,-0.834 -1.832,-1.078 -0.378,-0.113 -0.778,-0.205 -1.204,-0.226 l -0.078,-0.006 h -0.07 -0.175 c -0.117,0 -0.239,-0.003 -0.336,0.006 -0.106,0.009 -0.209,0.014 -0.317,0.023 -0.111,0.019 -0.224,0.035 -0.334,0.053 -0.889,0.164 -1.807,0.562 -2.521,1.237 -0.718,0.665 -1.195,1.609 -1.206,2.659 0,0.479 0.117,1.01 0.319,1.503 0.196,0.502 0.465,0.986 0.751,1.471 0.143,0.247 0.292,0.484 0.435,0.744 0.145,0.265 0.272,0.55 0.371,0.827 0.198,0.566 0.31,1.139 0.421,1.687 l 0.078,0.412 0.021,0.101 c 0,0.007 0.005,0.04 0.007,0.04 l 0.011,0.046 c 0.021,0.066 0.035,0.142 0.056,0.195 0.064,0.203 0.191,0.431 0.34,0.61 0.302,0.376 0.735,0.638 1.198,0.769 0.925,0.281 1.952,-0.064 2.495,-0.734 0.281,-0.322 0.403,-0.73 0.475,-1.17 C -2.263,6.004 -2.194,5.55 -2.088,5.12 -1.984,4.685 -1.823,4.266 -1.639,3.906 -1.46,3.543 -1.273,3.221 -1.107,2.921 -0.762,2.304 -0.467,1.798 -0.292,1.365 -0.113,0.932 -0.042,0.587 -0.016,0.35 -0.007,0.234 0,0.14 0,0.08 Z M 0.755,0.103 C 0.751,0.182 0.744,0.294 0.723,0.442 0.686,0.734 0.587,1.163 0.371,1.646 0.157,2.134 -0.17,2.663 -0.518,3.255 -0.87,3.868 -1.292,4.489 -1.485,5.274 c -0.111,0.394 -0.182,0.822 -0.267,1.283 -0.085,0.462 -0.244,1.006 -0.61,1.431 -0.477,0.574 -1.204,0.938 -1.975,1.016 0.004,0.002 0.004,0.007 0.004,0.009 l 0.003,0.018 c 0,0 0.013,0.136 0.011,0.316 0,0.184 -0.014,0.433 -0.06,0.674 -0.048,0.244 -0.127,0.484 -0.209,0.652 -0.044,0.085 -0.081,0.154 -0.115,0.202 -0.028,0.044 -0.049,0.072 -0.049,0.072 -0.044,0.069 -0.131,0.097 -0.209,0.062 -0.085,-0.037 -0.127,-0.136 -0.09,-0.223 l 0.007,-0.021 c 0,0 0.011,-0.023 0.027,-0.064 0.021,-0.037 0.042,-0.099 0.067,-0.171 0.044,-0.147 0.074,-0.354 0.078,-0.564 C -4.869,9.759 -4.89,9.55 -4.918,9.391 -4.94,9.234 -4.968,9.144 -4.968,9.144 -4.975,9.128 -4.977,9.108 -4.977,9.087 -4.982,9.054 -4.982,9.027 -4.975,8.999 -5.136,8.988 -5.297,8.955 -5.459,8.912 -6.025,8.76 -6.566,8.444 -6.964,7.968 -7.164,7.726 -7.323,7.468 -7.429,7.139 -7.457,7.067 -7.471,7.005 -7.491,6.936 L -7.505,6.886 -7.519,6.817 -7.54,6.713 -7.625,6.301 C -7.738,5.753 -7.855,5.214 -8.039,4.71 -8.136,4.457 -8.242,4.222 -8.376,3.987 -8.509,3.752 -8.663,3.504 -8.811,3.262 c -0.58,-0.981 -1.201,-2.051 -1.218,-3.34 0.005,-0.59 0.118,-1.214 0.367,-1.759 0.248,-0.548 0.601,-1.036 1.015,-1.439 0.831,-0.817 1.876,-1.287 2.901,-1.499 0.131,-0.025 0.26,-0.046 0.386,-0.069 0.131,-0.016 0.27,-0.023 0.399,-0.035 0.14,-0.013 0.253,-0.013 0.37,-0.009 l 0.175,0.002 c 0.037,0 0.037,0 0.106,0.005 l 0.092,0.007 c 0.498,0.03 0.967,0.148 1.407,0.283 0.87,0.295 1.6,0.762 2.132,1.297 0.538,0.529 0.881,1.107 1.084,1.611 0.115,0.246 0.164,0.488 0.226,0.688 0.036,0.214 0.083,0.406 0.092,0.543 0.021,0.263 0.034,0.408 0.034,0.408 v 0.03 c 0,0 0,0.041 -0.002,0.117 M 23.119,0 C 23.114,-0.044 23.1,-0.175 23.084,-0.387 23.071,-0.518 23.032,-0.645 23.002,-0.815 22.947,-0.981 22.905,-1.181 22.806,-1.384 22.631,-1.803 22.336,-2.279 21.881,-2.721 21.427,-3.168 20.796,-3.555 20.046,-3.799 19.67,-3.912 19.267,-4.004 18.844,-4.025 l -0.081,-0.006 h -0.067 -0.175 c -0.117,0 -0.241,-0.003 -0.336,0.006 -0.105,0.009 -0.209,0.014 -0.32,0.023 -0.108,0.019 -0.223,0.035 -0.331,0.053 -0.889,0.164 -1.807,0.562 -2.521,1.237 -0.721,0.665 -1.197,1.609 -1.206,2.659 0,0.479 0.117,1.01 0.317,1.503 0.196,0.502 0.467,0.986 0.753,1.471 0.143,0.247 0.29,0.484 0.435,0.744 0.143,0.265 0.27,0.55 0.37,0.827 0.199,0.566 0.312,1.139 0.418,1.687 l 0.082,0.412 0.016,0.101 c 0.005,0.007 0.007,0.04 0.007,0.04 l 0.014,0.046 c 0.021,0.066 0.035,0.142 0.056,0.195 0.066,0.203 0.193,0.431 0.343,0.61 0.301,0.376 0.734,0.638 1.196,0.769 0.926,0.281 1.951,-0.064 2.496,-0.734 0.281,-0.322 0.401,-0.73 0.475,-1.17 C 20.856,6.004 20.925,5.55 21.031,5.12 21.132,4.685 21.293,4.266 21.48,3.906 21.657,3.543 21.846,3.221 22.011,2.921 22.355,2.304 22.651,1.798 22.827,1.365 23.006,0.932 23.077,0.587 23.1,0.35 23.112,0.234 23.119,0.14 23.119,0.08 Z m 0.753,0.103 c -0.002,0.079 -0.014,0.191 -0.03,0.339 -0.037,0.292 -0.138,0.721 -0.352,1.204 -0.214,0.488 -0.543,1.017 -0.889,1.609 -0.354,0.613 -0.776,1.234 -0.967,2.019 -0.111,0.394 -0.182,0.822 -0.267,1.283 -0.088,0.462 -0.244,1.006 -0.61,1.431 -0.477,0.574 -1.204,0.938 -1.976,1.016 0.003,0.002 0.003,0.007 0.003,0.009 v 0.018 c 0,0 0.018,0.136 0.014,0.316 0,0.184 -0.014,0.433 -0.058,0.674 -0.048,0.244 -0.127,0.484 -0.209,0.652 -0.044,0.085 -0.083,0.154 -0.118,0.202 -0.029,0.044 -0.046,0.072 -0.046,0.072 -0.046,0.069 -0.131,0.097 -0.209,0.062 -0.085,-0.037 -0.127,-0.136 -0.09,-0.223 l 0.007,-0.021 c 0,0 0.011,-0.023 0.027,-0.064 0.021,-0.037 0.042,-0.099 0.065,-0.171 0.046,-0.147 0.076,-0.354 0.08,-0.564 C 18.25,9.759 18.229,9.55 18.202,9.391 18.178,9.234 18.151,9.144 18.151,9.144 18.144,9.128 18.14,9.108 18.14,9.087 18.137,9.054 18.137,9.027 18.144,8.999 17.983,8.988 17.822,8.955 17.66,8.912 17.094,8.76 16.553,8.444 16.155,7.968 15.952,7.726 15.796,7.468 15.685,7.139 15.662,7.067 15.648,7.005 15.627,6.936 L 15.614,6.886 15.6,6.817 15.579,6.713 15.494,6.301 C 15.381,5.753 15.264,5.214 15.077,4.71 14.983,4.457 14.877,4.222 14.743,3.987 14.608,3.752 14.453,3.504 14.306,3.262 13.728,2.281 13.107,1.211 13.091,-0.078 c 0.001,-0.59 0.115,-1.214 0.366,-1.759 0.246,-0.548 0.601,-1.036 1.015,-1.439 0.829,-0.817 1.874,-1.287 2.901,-1.499 0.129,-0.025 0.26,-0.046 0.386,-0.069 0.132,-0.016 0.267,-0.023 0.399,-0.035 0.14,-0.013 0.253,-0.013 0.371,-0.009 l 0.174,0.002 c 0.037,0 0.037,0 0.106,0.005 l 0.092,0.007 c 0.498,0.03 0.967,0.148 1.407,0.283 0.87,0.295 1.6,0.762 2.132,1.297 0.538,0.529 0.881,1.107 1.082,1.611 0.117,0.246 0.165,0.488 0.228,0.688 0.037,0.214 0.08,0.406 0.092,0.543 0.02,0.263 0.034,0.408 0.034,0.408 v 0.03 c 0,0 0,0.041 -0.004,0.117 m -47.258,-0.49 c -0.014,-0.131 -0.051,-0.258 -0.083,-0.428 -0.053,-0.166 -0.094,-0.366 -0.196,-0.569 -0.172,-0.419 -0.465,-0.895 -0.925,-1.337 -0.451,-0.447 -1.08,-0.834 -1.83,-1.078 -0.378,-0.113 -0.781,-0.205 -1.207,-0.226 l -0.078,-0.006 h -0.069 -0.175 c -0.117,0 -0.237,-0.003 -0.336,0.006 -0.106,0.009 -0.21,0.014 -0.318,0.023 -0.111,0.019 -0.221,0.035 -0.334,0.053 -0.888,0.164 -1.807,0.562 -2.518,1.237 -0.719,0.665 -1.197,1.609 -1.209,2.659 0,0.479 0.12,1.01 0.32,1.503 0.196,0.502 0.469,0.986 0.753,1.471 0.143,0.247 0.29,0.484 0.432,0.744 0.148,0.265 0.272,0.55 0.371,0.827 0.203,0.566 0.316,1.139 0.421,1.687 l 0.079,0.412 0.021,0.101 c 0,0.007 0.006,0.04 0.006,0.04 l 0.014,0.046 c 0.019,0.066 0.032,0.142 0.053,0.195 0.065,0.203 0.191,0.431 0.341,0.61 0.304,0.376 0.739,0.638 1.197,0.769 0.926,0.281 1.955,-0.064 2.5,-0.734 0.276,-0.322 0.399,-0.73 0.47,-1.17 0.071,-0.444 0.14,-0.898 0.251,-1.328 0.099,-0.435 0.26,-0.854 0.444,-1.214 0.182,-0.363 0.369,-0.685 0.534,-0.985 0.343,-0.617 0.638,-1.123 0.813,-1.556 0.182,-0.433 0.251,-0.778 0.276,-1.015 0.014,-0.116 0.016,-0.21 0.016,-0.27 0,-0.039 0.003,-0.062 0.003,-0.08 -0.005,-0.044 -0.016,-0.175 -0.037,-0.387 m 0.79,0.49 c 0,0.079 -0.012,0.191 -0.028,0.339 -0.039,0.292 -0.14,0.721 -0.357,1.204 -0.212,0.488 -0.541,1.017 -0.889,1.609 -0.352,0.613 -0.771,1.234 -0.967,2.019 -0.105,0.394 -0.181,0.822 -0.262,1.283 -0.09,0.462 -0.244,1.006 -0.615,1.431 -0.476,0.569 -1.199,0.938 -1.97,1.016 v 0.009 l 0.002,0.018 c 0,0 0.014,0.136 0.014,0.316 -0.003,0.184 -0.016,0.433 -0.062,0.674 -0.044,0.244 -0.127,0.484 -0.21,0.652 -0.044,0.085 -0.08,0.154 -0.113,0.202 -0.03,0.044 -0.048,0.072 -0.048,0.072 -0.044,0.069 -0.134,0.097 -0.212,0.062 -0.085,-0.037 -0.126,-0.136 -0.09,-0.223 l 0.012,-0.021 c 0,0 0.009,-0.023 0.027,-0.064 0.016,-0.037 0.042,-0.099 0.063,-0.171 0.043,-0.147 0.078,-0.354 0.08,-0.564 0.005,-0.207 -0.021,-0.416 -0.043,-0.575 -0.028,-0.157 -0.056,-0.247 -0.056,-0.247 -0.002,-0.016 -0.007,-0.036 -0.009,-0.057 -0.005,-0.033 -0.005,-0.06 0.002,-0.088 -0.161,-0.011 -0.322,-0.044 -0.483,-0.087 -0.566,-0.152 -1.107,-0.468 -1.506,-0.944 -0.198,-0.242 -0.354,-0.5 -0.465,-0.829 -0.028,-0.072 -0.037,-0.134 -0.057,-0.203 l -0.014,-0.05 -0.019,-0.069 -0.02,-0.104 -0.085,-0.412 c -0.113,-0.548 -0.226,-1.087 -0.415,-1.591 -0.092,-0.253 -0.203,-0.488 -0.334,-0.723 -0.133,-0.235 -0.29,-0.483 -0.435,-0.725 -0.582,-0.981 -1.202,-2.051 -1.22,-3.34 0.007,-0.59 0.117,-1.214 0.371,-1.759 0.244,-0.548 0.601,-1.036 1.01,-1.439 0.831,-0.817 1.879,-1.287 2.906,-1.499 0.129,-0.025 0.255,-0.046 0.382,-0.069 0.133,-0.016 0.269,-0.023 0.403,-0.035 0.136,-0.013 0.253,-0.013 0.368,-0.009 l 0.175,0.002 c 0.039,0 0.039,0 0.108,0.005 l 0.092,0.007 c 0.493,0.03 0.963,0.148 1.403,0.283 0.874,0.295 1.604,0.762 2.131,1.297 0.539,0.529 0.884,1.107 1.087,1.611 0.113,0.246 0.161,0.488 0.223,0.688 0.042,0.214 0.083,0.406 0.092,0.543 0.026,0.263 0.035,0.408 0.035,0.408 v 0.03 c 0,0 0,0.041 -0.002,0.117 m -15.123,29.661 c -0.059,0.068 -0.094,0.155 -0.115,0.241 -0.009,0.036 -0.066,0.013 -0.168,0.002 -0.13,-0.014 -0.395,0.007 -0.561,0.446 0,0 0.191,-0.252 0.409,-0.195 0.223,0.057 0.456,0.429 0.907,0.353 l 0.005,-0.001 c 0.014,-0.002 0.026,-0.004 0.038,-0.008 0.005,0 0.01,-0.002 0.015,-0.003 0.014,-0.004 0.027,-0.009 0.041,-0.013 0.013,-0.005 0.025,-0.01 0.038,-0.016 0.002,-0.002 0.005,-0.002 0.007,-0.004 0.22,-0.104 0.342,-0.354 0.278,-0.599 -0.073,-0.276 -0.356,-0.441 -0.633,-0.368 -0.106,0.028 -0.196,0.087 -0.261,0.165 m 2.52,-0.165 c -0.276,-0.073 -0.559,0.092 -0.632,0.368 -0.065,0.245 0.057,0.495 0.278,0.599 0.002,0.002 0.004,0.002 0.007,0.004 0.012,0.006 0.025,0.011 0.038,0.016 0.013,0.004 0.027,0.009 0.04,0.013 0.006,0.001 0.011,0.003 0.015,0.003 0.013,0.004 0.025,0.006 0.038,0.008 l 0.006,0.001 c 0.45,0.076 0.683,-0.296 0.906,-0.353 0.219,-0.057 0.409,0.195 0.409,0.195 -0.166,-0.439 -0.43,-0.46 -0.561,-0.446 -0.102,0.011 -0.159,0.034 -0.168,-0.002 -0.021,-0.086 -0.056,-0.173 -0.114,-0.241 -0.066,-0.078 -0.156,-0.137 -0.262,-0.165 m -0.612,1.593 c 0,-0.285 -0.232,-0.518 -0.517,-0.518 -0.253,0 -0.464,0.182 -0.508,0.422 -0.001,0.002 -0.001,0.005 -0.002,0.008 -0.002,0.013 -0.004,0.026 -0.006,0.041 -10e-4,0.014 -0.002,0.028 -0.002,0.043 0,0.005 0,0.01 10e-4,0.014 -10e-4,0.014 0,0.026 0.002,0.039 v 0.006 c 0.042,0.455 0.461,0.585 0.573,0.786 0.111,0.197 -0.084,0.445 -0.084,0.445 0.381,-0.272 0.335,-0.533 0.288,-0.656 -0.037,-0.095 -0.074,-0.145 -0.041,-0.163 0.078,-0.042 0.152,-0.098 0.203,-0.172 0.059,-0.083 0.093,-0.185 0.093,-0.295 m 0.655,-5.637 c -0.019,0.014 -0.044,-0.008 -0.037,-0.034 l 0.511,-1.856 c 0.006,-0.02 -0.015,-0.033 -0.026,-0.019 l -1.134,1.47 c -0.014,0.018 -0.039,0.01 -0.043,-0.014 l -0.429,-2.557 c -0.003,-0.019 -0.027,-0.019 -0.03,0 l -0.427,2.557 c -0.004,0.024 -0.03,0.032 -0.044,0.014 l -1.133,-1.47 c -0.012,-0.014 -0.032,-0.001 -0.027,0.019 l 0.511,1.856 c 0.007,0.026 -0.017,0.048 -0.037,0.034 l -1.038,-0.763 c -0.014,-0.01 -0.031,0.01 -0.021,0.027 0.298,0.475 1.857,3.041 2.18,5.145 0.01,0.069 0.092,0.069 0.103,0 0.322,-2.103 1.882,-4.67 2.18,-5.145 0.011,-0.017 -0.006,-0.037 -0.021,-0.026 z m 60.59,4.209 c -0.059,0.068 -0.094,0.155 -0.115,0.241 -0.009,0.036 -0.066,0.013 -0.168,0.002 -0.131,-0.014 -0.395,0.007 -0.561,0.446 0,0 0.191,-0.252 0.409,-0.195 0.223,0.057 0.456,0.429 0.906,0.353 l 0.006,-0.001 c 0.013,-0.002 0.025,-0.004 0.038,-0.008 0.005,0 0.01,-0.002 0.015,-0.003 0.014,-0.004 0.027,-0.009 0.041,-0.013 0.013,-0.005 0.025,-0.01 0.038,-0.016 0.002,-0.002 0.005,-0.002 0.007,-0.004 0.22,-0.104 0.342,-0.354 0.277,-0.599 -0.072,-0.276 -0.356,-0.441 -0.632,-0.368 -0.106,0.028 -0.196,0.087 -0.261,0.165 m 2.52,-0.165 c -0.276,-0.073 -0.56,0.092 -0.632,0.368 -0.065,0.245 0.057,0.495 0.278,0.599 0.002,0.002 0.004,0.002 0.007,0.004 0.012,0.006 0.025,0.011 0.037,0.016 0.014,0.004 0.028,0.009 0.041,0.013 0.006,0.001 0.01,0.003 0.015,0.003 0.013,0.004 0.025,0.006 0.038,0.008 l 0.006,0.001 c 0.45,0.076 0.683,-0.296 0.906,-0.353 0.219,-0.057 0.409,0.195 0.409,0.195 -0.166,-0.439 -0.43,-0.46 -0.561,-0.446 -0.102,0.011 -0.159,0.034 -0.168,-0.002 -0.021,-0.086 -0.056,-0.173 -0.115,-0.241 -0.065,-0.078 -0.155,-0.137 -0.261,-0.165 m -0.612,1.593 c 0,-0.285 -0.232,-0.518 -0.518,-0.518 -0.252,0 -0.463,0.182 -0.507,0.422 -0.001,0.002 -0.001,0.005 -0.002,0.008 -0.002,0.013 -0.004,0.026 -0.006,0.041 -0.001,0.014 -0.002,0.028 -0.002,0.043 0,0.005 0,0.01 0.001,0.014 -0.001,0.014 0,0.026 0.002,0.039 v 0.006 c 0.042,0.455 0.461,0.585 0.573,0.786 0.111,0.197 -0.084,0.445 -0.084,0.445 0.381,-0.272 0.335,-0.533 0.287,-0.656 -0.036,-0.095 -0.073,-0.145 -0.04,-0.163 0.078,-0.042 0.152,-0.098 0.203,-0.172 0.059,-0.083 0.093,-0.185 0.093,-0.295 m 0.655,-5.637 c -0.019,0.014 -0.044,-0.008 -0.037,-0.034 l 0.511,-1.856 c 0.006,-0.02 -0.015,-0.033 -0.026,-0.019 l -1.134,1.47 c -0.014,0.018 -0.039,0.01 -0.043,-0.014 L 26.84,22.545 c -0.004,-0.019 -0.028,-0.019 -0.031,0 l -0.428,2.557 c -0.003,0.024 -0.029,0.032 -0.043,0.014 l -1.134,-1.47 c -0.011,-0.014 -0.032,-0.001 -0.026,0.019 l 0.511,1.856 c 0.007,0.026 -0.017,0.048 -0.037,0.034 l -1.038,-0.763 c -0.015,-0.01 -0.031,0.01 -0.021,0.027 0.298,0.475 1.857,3.041 2.18,5.145 0.01,0.069 0.092,0.069 0.102,0 0.323,-2.103 1.883,-4.67 2.181,-5.145 0.01,-0.017 -0.006,-0.037 -0.021,-0.026 z m -59.515,-41.001 c -0.058,0.069 -0.093,0.154 -0.114,0.241 -0.009,0.036 -0.066,0.014 -0.168,0.002 -0.131,-0.014 -0.395,0.008 -0.561,0.445 0,0 0.191,-0.251 0.409,-0.194 0.223,0.057 0.456,0.429 0.906,0.353 l 0.006,-10e-4 c 0.013,-0.002 0.025,-0.004 0.038,-0.009 0.005,0 0.009,-10e-4 0.015,-0.003 0.013,-0.003 0.027,-0.007 0.04,-0.012 0.014,-0.006 0.026,-0.011 0.038,-0.016 0.003,-0.002 0.006,-0.003 0.007,-0.004 0.221,-0.104 0.343,-0.355 0.278,-0.599 -0.073,-0.276 -0.356,-0.44 -0.632,-0.368 -0.106,0.028 -0.196,0.087 -0.262,0.165 m 2.521,-0.165 c -0.276,-0.072 -0.56,0.092 -0.633,0.368 -0.064,0.244 0.058,0.495 0.279,0.599 10e-4,10e-4 0.004,0.002 0.006,0.004 0.013,0.005 0.025,0.01 0.038,0.016 0.014,0.005 0.027,0.009 0.041,0.012 0.006,0.002 0.01,0.003 0.015,0.003 0.012,0.005 0.025,0.007 0.038,0.009 l 0.005,10e-4 c 0.451,0.076 0.684,-0.296 0.907,-0.353 0.218,-0.057 0.409,0.194 0.409,0.194 -0.166,-0.437 -0.431,-0.459 -0.561,-0.445 -0.102,0.012 -0.159,0.034 -0.168,-0.002 -0.021,-0.087 -0.056,-0.172 -0.115,-0.241 -0.065,-0.078 -0.155,-0.137 -0.261,-0.165 m -0.612,1.593 c 0,-0.286 -0.232,-0.517 -0.518,-0.517 -0.252,0 -0.463,0.181 -0.508,0.421 -10e-4,0.002 -10e-4,0.005 -0.002,0.008 -0.002,0.013 -0.003,0.026 -0.005,0.04 -0.001,0.015 -0.002,0.029 -0.002,0.043 0,0.006 0,0.011 10e-4,0.015 -10e-4,0.013 0,0.026 0.002,0.039 v 0.006 c 0.041,0.454 0.46,0.585 0.573,0.785 0.111,0.198 -0.084,0.447 -0.084,0.447 0.381,-0.273 0.335,-0.534 0.287,-0.657 -0.036,-0.096 -0.073,-0.145 -0.04,-0.162 0.077,-0.043 0.152,-0.099 0.203,-0.173 0.059,-0.083 0.093,-0.186 0.093,-0.295 m 0.655,-5.638 c -0.02,0.015 -0.044,-0.007 -0.037,-0.034 l 0.511,-1.856 c 0.005,-0.019 -0.015,-0.033 -0.027,-0.018 l -1.133,1.47 c -0.014,0.018 -0.039,0.009 -0.043,-0.014 l -0.429,-2.557 c -0.003,-0.02 -0.027,-0.02 -0.03,0 l -0.428,2.557 c -0.004,0.023 -0.029,0.032 -0.043,0.014 l -1.134,-1.47 c -0.011,-0.015 -0.032,-0.001 -0.026,0.018 l 0.511,1.856 c 0.007,0.027 -0.018,0.049 -0.037,0.034 l -1.038,-0.762 c -0.015,-0.01 -0.031,0.01 -0.021,0.026 0.297,0.476 1.857,3.042 2.179,5.146 0.011,0.069 0.093,0.069 0.103,0 0.323,-2.104 1.883,-4.67 2.181,-5.146 0.01,-0.016 -0.006,-0.036 -0.021,-0.026 z m 48.186,4.21 c -0.058,0.069 -0.093,0.154 -0.115,0.241 -0.008,0.036 -0.065,0.014 -0.167,0.002 -0.131,-0.014 -0.396,0.008 -0.562,0.445 0,0 0.191,-0.251 0.41,-0.194 0.222,0.057 0.455,0.429 0.906,0.353 L 19.71,-14.6 c 0.013,-0.002 0.025,-0.004 0.038,-0.009 0.004,0 0.009,-10e-4 0.014,-0.003 0.014,-0.003 0.027,-0.007 0.041,-0.012 0.013,-0.006 0.026,-0.011 0.038,-0.016 0.002,-0.002 0.005,-0.003 0.006,-0.004 0.221,-0.104 0.343,-0.355 0.279,-0.599 -0.073,-0.276 -0.356,-0.44 -0.632,-0.368 -0.106,0.028 -0.197,0.087 -0.262,0.165 m 2.52,-0.165 c -0.276,-0.072 -0.559,0.092 -0.632,0.368 -0.064,0.244 0.057,0.495 0.278,0.599 0.002,10e-4 0.004,0.002 0.007,0.004 0.013,0.005 0.025,0.01 0.038,0.016 0.014,0.005 0.027,0.009 0.041,0.012 0.005,0.002 0.009,0.003 0.014,0.003 0.013,0.005 0.025,0.007 0.039,0.009 l 0.005,10e-4 c 0.451,0.076 0.684,-0.296 0.906,-0.353 0.219,-0.057 0.409,0.194 0.409,0.194 -0.165,-0.437 -0.43,-0.459 -0.561,-0.445 -0.101,0.012 -0.158,0.034 -0.168,-0.002 -0.021,-0.087 -0.056,-0.172 -0.114,-0.241 -0.066,-0.078 -0.156,-0.137 -0.262,-0.165 m -0.611,1.593 c 0,-0.286 -0.232,-0.517 -0.518,-0.517 -0.253,0 -0.464,0.181 -0.508,0.421 -10e-4,0.002 -10e-4,0.005 -0.002,0.008 -0.002,0.013 -0.004,0.026 -0.005,0.04 -0.001,0.015 -0.002,0.029 -0.002,0.043 0,0.006 0,0.011 10e-4,0.015 -10e-4,0.013 0,0.026 0.002,0.039 v 0.006 c 0.041,0.454 0.46,0.585 0.573,0.785 0.11,0.198 -0.084,0.447 -0.084,0.447 0.381,-0.273 0.334,-0.534 0.287,-0.657 -0.037,-0.096 -0.073,-0.145 -0.04,-0.162 0.077,-0.043 0.152,-0.099 0.203,-0.173 0.058,-0.083 0.093,-0.186 0.093,-0.295 m 0.655,-5.638 c -0.02,0.015 -0.044,-0.007 -0.037,-0.034 l 0.511,-1.856 c 0.005,-0.019 -0.016,-0.033 -0.027,-0.018 l -1.134,1.47 c -0.014,0.018 -0.039,0.009 -0.043,-0.014 l -0.428,-2.557 c -0.003,-0.02 -0.028,-0.02 -0.031,0 l -0.427,2.557 c -0.004,0.023 -0.03,0.032 -0.043,0.014 l -1.134,-1.47 c -0.011,-0.015 -0.032,-0.001 -0.027,0.018 l 0.511,1.856 c 0.007,0.027 -0.017,0.049 -0.037,0.034 l -1.037,-0.762 c -0.015,-0.01 -0.032,0.01 -0.022,0.026 0.298,0.476 1.857,3.042 2.18,5.146 0.01,0.069 0.093,0.069 0.103,0 0.323,-2.104 1.883,-4.67 2.181,-5.146 0.01,-0.016 -0.007,-0.036 -0.022,-0.026 z m -27.939,-16.78 c -0.058,0.069 -0.093,0.155 -0.115,0.24 -0.008,0.037 -0.066,0.014 -0.167,0.003 -0.131,-0.015 -0.395,0.008 -0.561,0.445 0,0 0.19,-0.251 0.409,-0.195 0.222,0.058 0.456,0.43 0.906,0.354 l 0.006,-0.002 c 0.013,-10e-4 0.025,-0.003 0.038,-0.008 0.004,0 0.009,-0.001 0.014,-0.003 0.014,-0.003 0.028,-0.007 0.041,-0.012 0.013,-0.006 0.026,-0.011 0.038,-0.016 0.003,-0.002 0.005,-0.002 0.007,-0.004 0.221,-0.104 0.343,-0.355 0.278,-0.599 -0.073,-0.276 -0.356,-0.441 -0.632,-0.368 -0.106,0.028 -0.196,0.087 -0.262,0.165 m 2.521,-0.165 c -0.277,-0.073 -0.56,0.092 -0.633,0.368 -0.064,0.244 0.057,0.495 0.278,0.599 0.002,0.002 0.005,0.002 0.007,0.004 0.013,0.005 0.025,0.01 0.038,0.016 0.014,0.005 0.027,0.009 0.041,0.012 0.005,0.002 0.01,0.003 0.015,0.003 0.012,0.005 0.024,0.007 0.038,0.008 l 0.005,0.002 c 0.451,0.076 0.684,-0.296 0.906,-0.354 0.219,-0.056 0.41,0.195 0.41,0.195 -0.166,-0.437 -0.431,-0.46 -0.562,-0.445 -0.101,0.011 -0.158,0.034 -0.167,-0.003 -0.021,-0.085 -0.056,-0.171 -0.115,-0.24 -0.065,-0.078 -0.155,-0.137 -0.261,-0.165 m -0.612,1.593 c 0,-0.286 -0.232,-0.518 -0.518,-0.518 -0.252,0 -0.463,0.182 -0.508,0.422 -0.001,0.002 -0.001,0.005 -0.002,0.008 -0.002,0.013 -0.004,0.026 -0.005,0.041 -10e-4,0.014 -0.002,0.028 -0.002,0.042 0,0.006 0,0.01 0.001,0.015 -0.001,0.013 0,0.026 0.002,0.039 v 0.006 c 0.041,0.455 0.46,0.585 0.573,0.785 0.111,0.198 -0.084,0.447 -0.084,0.447 0.381,-0.273 0.334,-0.535 0.287,-0.657 -0.037,-0.096 -0.073,-0.145 -0.04,-0.163 0.077,-0.042 0.152,-0.098 0.203,-0.172 0.059,-0.083 0.093,-0.186 0.093,-0.295 m 0.655,-5.638 c -0.02,0.015 -0.044,-0.007 -0.037,-0.034 l 0.511,-1.856 c 0.005,-0.018 -0.015,-0.032 -0.027,-0.018 l -1.134,1.47 c -0.013,0.018 -0.039,0.009 -0.043,-0.014 l -0.428,-2.557 c -0.003,-0.02 -0.027,-0.02 -0.031,0 l -0.427,2.557 c -0.004,0.023 -0.029,0.032 -0.043,0.014 l -1.134,-1.47 c -0.011,-0.014 -0.032,0 -0.026,0.018 l 0.511,1.856 c 0.007,0.027 -0.018,0.049 -0.038,0.034 l -1.037,-0.762 c -0.015,-0.011 -0.032,0.01 -0.021,0.026 0.297,0.476 1.857,3.042 2.179,5.146 0.011,0.069 0.093,0.069 0.103,0 0.323,-2.104 1.883,-4.67 2.181,-5.146 0.01,-0.016 -0.007,-0.037 -0.021,-0.026 z m -2.564,70.41 c -0.058,0.068 -0.093,0.155 -0.115,0.241 -0.008,0.036 -0.066,0.013 -0.167,0.002 -0.131,-0.014 -0.395,0.007 -0.561,0.446 0,0 0.19,-0.252 0.409,-0.195 0.222,0.057 0.456,0.429 0.906,0.353 l 0.006,-0.001 c 0.013,-0.002 0.025,-0.004 0.038,-0.008 0.004,0 0.009,-0.002 0.014,-0.003 0.014,-0.004 0.028,-0.009 0.041,-0.013 0.013,-0.005 0.026,-0.01 0.038,-0.016 0.003,-0.002 0.005,-0.002 0.007,-0.004 0.221,-0.104 0.343,-0.354 0.278,-0.599 -0.073,-0.276 -0.356,-0.441 -0.632,-0.368 -0.106,0.028 -0.196,0.087 -0.262,0.165 m 2.521,-0.165 c -0.277,-0.073 -0.56,0.092 -0.633,0.368 -0.064,0.245 0.057,0.495 0.278,0.599 0.002,0.002 0.005,0.002 0.007,0.004 0.013,0.006 0.025,0.011 0.038,0.016 0.014,0.004 0.027,0.009 0.041,0.013 0.005,0.001 0.01,0.003 0.015,0.003 0.012,0.004 0.024,0.006 0.038,0.008 l 0.005,0.001 c 0.451,0.076 0.684,-0.296 0.906,-0.353 0.219,-0.057 0.41,0.195 0.41,0.195 -0.166,-0.439 -0.431,-0.46 -0.562,-0.446 -0.101,0.011 -0.158,0.034 -0.167,-0.002 -0.021,-0.086 -0.056,-0.173 -0.115,-0.241 -0.065,-0.078 -0.155,-0.137 -0.261,-0.165 m -0.612,1.593 c 0,-0.285 -0.232,-0.518 -0.518,-0.518 -0.252,0 -0.463,0.182 -0.508,0.422 -0.001,0.002 -0.001,0.005 -0.002,0.008 -0.002,0.013 -0.004,0.026 -0.005,0.041 -10e-4,0.014 -0.002,0.028 -0.002,0.043 0,0.005 0,0.01 0.001,0.014 -0.001,0.014 0,0.026 0.002,0.039 v 0.006 c 0.041,0.455 0.46,0.585 0.573,0.786 0.111,0.197 -0.084,0.445 -0.084,0.445 0.381,-0.272 0.334,-0.533 0.287,-0.656 -0.037,-0.095 -0.073,-0.145 -0.04,-0.163 0.077,-0.042 0.152,-0.098 0.203,-0.172 0.059,-0.083 0.093,-0.185 0.093,-0.295 m 0.655,-5.637 c -0.02,0.014 -0.044,-0.008 -0.037,-0.034 l 0.511,-1.856 C -3.1,23.645 -3.12,23.632 -3.132,23.646 l -1.134,1.47 c -0.013,0.018 -0.039,0.01 -0.043,-0.014 l -0.428,-2.557 c -0.003,-0.019 -0.027,-0.019 -0.031,0 l -0.427,2.557 c -0.004,0.024 -0.029,0.032 -0.043,0.014 l -1.134,-1.47 c -0.011,-0.014 -0.032,-0.001 -0.026,0.019 l 0.511,1.856 c 0.007,0.026 -0.018,0.048 -0.038,0.034 l -1.037,-0.763 c -0.015,-0.01 -0.032,0.01 -0.021,0.027 0.297,0.475 1.857,3.041 2.179,5.145 0.011,0.069 0.093,0.069 0.103,0 0.323,-2.103 1.883,-4.67 2.181,-5.145 0.01,-0.017 -0.007,-0.037 -0.021,-0.026 z M 25.517,-24.194 C 18.692,-35.103 8.288,-43.908 -4.572,-49.659 l -0.18,-0.081 -0.18,0.081 c -12.86,5.751 -23.264,14.556 -30.088,25.465 -1.384,2.211 -5.063,8.548 -6.922,16.013 h 74.355 c -1.053,-4.33 -3.065,-9.889 -6.896,-16.013 m 8.03,24.416 c 0,-1.167 -0.108,-3.643 -0.822,-7.029 h -74.987 c -0.488,2.285 -0.789,4.655 -0.789,7.029 v 12.585 h 76.598 z m 0,13.959 H -43.051 V 41.75 h 76.598 z m 0.687,28.943 h -77.972 c -0.38,0 -0.687,-0.308 -0.687,-0.687 V 0.222 c 0,-2.656 0.363,-5.302 0.938,-7.835 0.003,-0.016 0.007,-0.032 0.011,-0.048 1.835,-8.039 5.823,-14.916 7.291,-17.262 6.969,-11.141 17.583,-20.129 30.692,-25.991 l 0.461,-0.206 c 0.089,-0.04 0.185,-0.06 0.28,-0.06 0.096,0 0.191,0.02 0.281,0.06 l 0.46,0.206 c 13.11,5.863 23.723,14.851 30.693,25.991 4.168,6.663 6.238,12.697 7.261,17.266 0.003,0.013 0.007,0.028 0.01,0.042 0.844,3.789 0.968,6.565 0.968,7.837 v 42.215 c 0,0.379 -0.307,0.687 -0.687,0.687 M -13.623,24.609 c -0.09,0.175 -0.203,0.34 -0.334,0.483 -0.042,0.048 -0.085,0.097 -0.134,0.14 0.062,0.005 0.125,0.014 0.187,0.028 0.2,0.041 0.396,0.111 0.582,0.203 0.205,-0.205 0.417,-0.443 0.61,-0.668 -0.294,-0.074 -0.621,-0.141 -0.911,-0.186 m -0.537,-1.796 c -0.133,-0.327 -0.343,-0.629 -0.578,-0.91 -0.242,-0.28 -0.515,-0.541 -0.806,-0.78 -0.287,-0.237 -0.614,-0.47 -0.923,-0.665 -0.322,-0.203 -0.653,-0.385 -0.997,-0.523 -0.34,-0.136 -0.693,-0.242 -1.045,-0.267 -0.179,-0.014 -0.354,-0.009 -0.525,0.014 l -0.119,0.018 -0.145,0.035 c -0.076,0.025 -0.146,0.043 -0.226,0.085 -0.06,0.023 -0.113,0.051 -0.166,0.085 -0.154,0.085 -0.29,0.202 -0.41,0.336 v 0.002 c -0.073,0.076 -0.136,0.159 -0.188,0.244 -0.155,0.233 -0.249,0.505 -0.286,0.785 0.007,0.056 0.012,0.104 0.012,0.159 v 0.062 l -0.005,0.168 c 0.051,0.003 0.104,0.008 0.159,0.01 0.115,0.007 0.235,0.021 0.352,0.034 0.419,0.058 0.84,0.176 1.225,0.412 0.225,0.141 0.428,0.334 0.568,0.583 0.463,-0.258 1.053,-0.481 1.145,-0.518 0.02,-0.007 0.041,-0.012 0.062,-0.012 0.035,0 0.069,0.012 0.099,0.035 0.044,0.032 0.071,0.087 0.069,0.145 -0.005,0.099 -0.028,0.702 -0.124,1.216 0.027,0.006 0.055,0.013 0.08,0.02 l 0.088,0.035 c 0.053,0.018 0.073,0.032 0.11,0.046 0.131,0.062 0.253,0.14 0.364,0.228 0.226,0.179 0.408,0.398 0.562,0.626 0.092,0.143 0.175,0.295 0.251,0.449 0.041,0.087 0.08,0.182 0.119,0.269 0.021,0.048 0.042,0.099 0.058,0.147 l 0.161,-0.057 c 0.035,-0.014 0.065,-0.023 0.092,-0.037 0.141,-0.06 0.256,-0.122 0.375,-0.202 0.143,-0.099 0.27,-0.221 0.38,-0.355 0.049,-0.058 0.092,-0.12 0.131,-0.184 0.1,-0.159 0.171,-0.33 0.215,-0.504 0.02,-0.079 0.034,-0.157 0.041,-0.237 0.042,-0.332 -0.041,-0.675 -0.175,-0.997 m -6.623,-3.863 c -0.162,0.262 -0.33,0.555 -0.459,0.822 0.136,0.138 0.249,0.292 0.346,0.455 0.03,0.051 0.062,0.106 0.09,0.166 0.027,-0.055 0.055,-0.111 0.085,-0.166 0.103,-0.181 0.232,-0.352 0.38,-0.499 -0.127,-0.256 -0.288,-0.532 -0.442,-0.778 m -0.707,1.39 c -0.115,-0.147 -0.26,-0.269 -0.415,-0.366 -0.071,-0.046 -0.142,-0.083 -0.218,-0.117 -0.306,-0.141 -0.659,-0.168 -1.004,-0.141 -0.355,0.028 -0.705,0.134 -1.043,0.274 -0.343,0.138 -0.672,0.323 -0.992,0.525 -0.311,0.203 -0.633,0.44 -0.919,0.675 -0.288,0.244 -0.562,0.504 -0.799,0.79 -0.235,0.28 -0.442,0.587 -0.575,0.916 -0.069,0.161 -0.12,0.329 -0.15,0.499 l -0.018,0.12 -0.014,0.147 c 0.005,0.083 0,0.152 0.011,0.24 0.007,0.06 0.017,0.115 0.03,0.172 0.035,0.175 0.099,0.343 0.194,0.5 0.05,0.094 0.113,0.179 0.179,0.262 0.175,0.215 0.403,0.387 0.652,0.507 0.06,0.014 0.115,0.028 0.166,0.043 0.027,0.008 0.05,0.019 0.076,0.026 l 0.147,0.051 c 0.016,-0.058 0.041,-0.118 0.064,-0.176 0.042,-0.098 0.085,-0.202 0.134,-0.301 0.182,-0.387 0.426,-0.757 0.783,-1.05 0.053,-0.046 0.112,-0.085 0.175,-0.129 0.064,-0.039 0.135,-0.078 0.186,-0.103 0.11,-0.051 0.228,-0.097 0.348,-0.12 -0.104,-0.52 -0.134,-1.149 -0.139,-1.248 0,-0.057 0.026,-0.112 0.074,-0.147 0.026,-0.021 0.065,-0.032 0.099,-0.032 0.021,0 0.042,0.004 0.058,0.011 0.092,0.034 0.658,0.244 1.119,0.49 0.016,-0.02 0.03,-0.043 0.043,-0.064 l 0.058,-0.076 c 0.035,-0.041 0.053,-0.06 0.078,-0.085 0.102,-0.109 0.21,-0.203 0.329,-0.283 0.242,-0.157 0.502,-0.263 0.767,-0.339 0.168,-0.043 0.338,-0.078 0.509,-0.103 0.097,-0.014 0.193,-0.023 0.29,-0.03 0.051,-0.005 0.106,-0.009 0.156,-0.009 l -0.006,-0.173 c -0.003,-0.037 -0.003,-0.069 -0.007,-0.103 V 21.39 c -0.014,-0.145 -0.042,-0.272 -0.078,-0.408 -0.054,-0.167 -0.127,-0.326 -0.219,-0.469 -0.039,-0.063 -0.081,-0.118 -0.129,-0.173 m -7.342,4.482 c 0.2,0.233 0.43,0.486 0.645,0.696 0.177,-0.085 0.361,-0.152 0.555,-0.189 0.055,-0.011 0.105,-0.021 0.161,-0.028 -0.046,-0.043 -0.09,-0.089 -0.132,-0.133 -0.142,-0.159 -0.267,-0.336 -0.363,-0.527 -0.281,0.046 -0.585,0.112 -0.866,0.181 m 0.184,1.964 c -0.048,0.092 -0.071,0.168 -0.099,0.24 -0.025,0.083 -0.055,0.166 -0.073,0.251 -0.164,0.686 -0.065,1.443 0.122,2.169 0.094,0.356 0.218,0.739 0.352,1.082 0.14,0.347 0.301,0.688 0.497,0.999 0.191,0.315 0.414,0.607 0.682,0.84 0.26,0.23 0.58,0.421 0.897,0.49 0.063,0.019 0.129,0.028 0.194,0.035 h 0.002 c 0.175,0.021 0.357,0.007 0.532,-0.037 0.092,-0.018 0.182,-0.048 0.267,-0.083 0.262,-0.103 0.49,-0.274 0.684,-0.486 0.027,-0.048 0.06,-0.101 0.094,-0.144 0.014,-0.023 0.028,-0.045 0.046,-0.065 l 0.106,-0.141 c -0.041,-0.032 -0.078,-0.066 -0.12,-0.101 -0.078,-0.064 -0.159,-0.136 -0.232,-0.207 -0.316,-0.299 -0.601,-0.651 -0.774,-1.084 -0.092,-0.237 -0.142,-0.5 -0.115,-0.765 -0.522,-0.064 -1.114,-0.225 -1.213,-0.253 -0.055,-0.014 -0.101,-0.055 -0.117,-0.111 -0.017,-0.055 -0.007,-0.112 0.027,-0.156 0.062,-0.08 0.44,-0.557 0.82,-0.916 -0.357,-0.433 -0.44,-0.995 -0.415,-1.499 0.007,-0.168 0.03,-0.336 0.06,-0.5 0.019,-0.099 0.039,-0.2 0.062,-0.294 0.012,-0.042 0.021,-0.083 0.033,-0.125 l -0.148,-0.041 c -0.046,-0.014 -0.089,-0.023 -0.131,-0.034 -0.134,-0.028 -0.253,-0.042 -0.387,-0.049 -0.175,-0.007 -0.348,0.018 -0.515,0.06 -0.067,0.016 -0.136,0.041 -0.205,0.069 -0.175,0.065 -0.337,0.161 -0.479,0.276 -0.063,0.053 -0.122,0.106 -0.175,0.166 -0.118,0.122 -0.207,0.262 -0.279,0.414 m 3.728,7.117 c -0.033,-0.201 -0.035,-0.408 -0.014,-0.61 0.002,-0.047 0.009,-0.093 0.016,-0.141 -0.049,0.032 -0.099,0.055 -0.15,0.081 -0.182,0.085 -0.377,0.147 -0.58,0.182 -0.044,0.276 -0.076,0.582 -0.097,0.865 0.274,-0.113 0.571,-0.241 0.825,-0.377 m 0.534,-0.309 c 0.013,0.187 0.055,0.368 0.126,0.532 0.026,0.067 0.058,0.131 0.092,0.193 0.166,0.29 0.429,0.525 0.728,0.709 0.299,0.185 0.645,0.309 1.001,0.398 0.36,0.088 0.735,0.136 1.11,0.164 0.371,0.021 0.771,0.021 1.14,0 0.379,-0.023 0.752,-0.071 1.109,-0.161 0.362,-0.085 0.707,-0.21 1.009,-0.394 0.154,-0.089 0.292,-0.196 0.419,-0.315 l 0.085,-0.085 0.097,-0.111 c 0.048,-0.069 0.092,-0.124 0.133,-0.202 0.037,-0.058 0.069,-0.122 0.097,-0.184 0.071,-0.166 0.115,-0.341 0.133,-0.523 0.007,-0.095 0.009,-0.189 0.003,-0.283 -0.014,-0.274 -0.093,-0.544 -0.219,-0.785 -0.039,-0.042 -0.071,-0.085 -0.106,-0.132 -0.014,-0.02 -0.028,-0.037 -0.041,-0.057 l -0.1,-0.148 c -0.041,0.031 -0.087,0.058 -0.131,0.086 -0.09,0.055 -0.182,0.11 -0.278,0.161 -0.38,0.205 -0.799,0.366 -1.262,0.398 -0.26,0.016 -0.536,-0.021 -0.787,-0.138 -0.224,0.483 -0.569,1.008 -0.629,1.091 -0.03,0.049 -0.08,0.078 -0.14,0.078 -0.058,0 -0.108,-0.029 -0.143,-0.078 -0.055,-0.083 -0.391,-0.589 -0.615,-1.066 -0.027,0.01 -0.057,0.021 -0.085,0.03 l -0.092,0.028 c -0.053,0.014 -0.076,0.014 -0.117,0.023 -0.141,0.028 -0.288,0.034 -0.429,0.028 -0.287,-0.01 -0.561,-0.086 -0.819,-0.178 -0.159,-0.062 -0.306,-0.131 -0.449,-0.21 v -10e-4 c -0.092,-0.047 -0.186,-0.102 -0.274,-0.155 -0.046,-0.028 -0.09,-0.055 -0.134,-0.088 l -0.096,0.145 c -0.016,0.024 -0.03,0.049 -0.044,0.072 -0.18,0.281 -0.276,0.58 -0.295,0.905 -0.007,0.085 -0.007,0.173 0.003,0.253 m 8.626,-5.014 c -0.168,0.12 -0.359,0.198 -0.559,0.239 -0.023,0.007 -0.049,0.009 -0.072,0.014 0.178,0.177 0.311,0.394 0.385,0.64 0.283,-0.037 0.626,-0.108 0.911,-0.182 -0.2,-0.239 -0.449,-0.509 -0.665,-0.711 m -7.231,-4.471 c 0.018,0.021 0.034,0.041 0.05,0.064 0.019,0.021 0.035,0.044 0.053,0.07 l 0.15,0.223 0.281,0.407 c 0.143,0.212 0.285,0.426 0.423,0.638 0.003,0.002 0.007,0.007 0.007,0.009 0.047,0.069 0.095,0.138 0.141,0.208 0,0 0.002,0 0.007,-0.005 0.274,-0.178 0.591,-0.288 0.925,-0.318 0.023,-0.005 0.044,-0.007 0.065,-0.007 h 0.02 c 0.035,0 0.07,-0.004 0.106,-0.004 0.039,0 0.076,0.004 0.118,0.004 0.338,0.021 0.665,0.127 0.948,0.309 0,0 0,0.002 0.005,0.002 0.196,-0.288 0.387,-0.578 0.578,-0.87 l 0.283,-0.422 0.143,-0.216 c 0.025,-0.037 0.048,-0.076 0.064,-0.113 0.088,-0.159 0.133,-0.322 0.145,-0.504 0.002,-0.099 -0.005,-0.198 -0.028,-0.295 -0.022,-0.112 -0.064,-0.223 -0.119,-0.32 -0.005,-0.007 -0.012,-0.016 -0.019,-0.023 -0.101,-0.17 -0.267,-0.308 -0.444,-0.419 -0.384,-0.232 -0.868,-0.322 -1.351,-0.35 -0.044,0 -0.09,-0.002 -0.136,-0.002 h -0.028 c -0.133,-0.005 -0.271,-0.005 -0.405,0.002 h -0.025 c -0.047,0.005 -0.092,0.005 -0.136,0.007 -0.244,0.014 -0.481,0.049 -0.709,0.104 -0.23,0.058 -0.449,0.138 -0.643,0.253 -0.096,0.06 -0.184,0.127 -0.264,0.203 l -0.053,0.05 -0.062,0.074 c -0.005,0.007 -0.007,0.009 -0.014,0.016 -0.021,0.035 -0.044,0.064 -0.069,0.106 -0.037,0.067 -0.069,0.133 -0.09,0.207 -0.094,0.29 -0.067,0.631 0.083,0.912 m 2.051,7.289 v -0.005 c -0.005,-0.021 -0.005,-0.044 -0.005,-0.06 -0.002,-0.027 -0.002,-0.055 -0.002,-0.083 l 0.009,-0.278 0.019,-0.486 c 0.014,-0.35 0.023,-0.697 0.037,-1.045 h -0.01 c -0.347,-0.026 -0.665,-0.125 -0.927,-0.29 -0.03,-0.016 -0.053,-0.032 -0.072,-0.046 -0.016,-0.012 -0.034,-0.025 -0.055,-0.039 -0.007,-0.003 -0.028,-0.017 -0.03,-0.021 -0.014,-0.009 -0.028,-0.021 -0.037,-0.03 -0.034,-0.021 -0.053,-0.042 -0.053,-0.042 -0.26,-0.218 -0.456,-0.485 -0.582,-0.805 l -0.002,-0.007 c -0.328,0.117 -0.652,0.237 -0.981,0.357 l -0.47,0.17 -0.251,0.09 c -0.034,0.014 -0.069,0.027 -0.099,0.044 -0.173,0.076 -0.315,0.186 -0.435,0.329 -0.076,0.09 -0.133,0.193 -0.173,0.299 -0.037,0.092 -0.062,0.189 -0.071,0.285 -0.005,0.021 -0.005,0.044 -0.005,0.067 -0.009,0.189 0.042,0.378 0.116,0.565 0.167,0.414 0.506,0.773 0.877,1.079 0.034,0.028 0.071,0.058 0.108,0.086 0.007,0.006 0.014,0.013 0.025,0.02 0.104,0.078 0.212,0.157 0.322,0.23 0.007,0.007 0.014,0.014 0.023,0.016 0.04,0.028 0.076,0.055 0.113,0.078 0.207,0.132 0.419,0.249 0.636,0.337 0.218,0.09 0.442,0.159 0.665,0.175 0.113,0.011 0.223,0.011 0.332,-0.002 l 0.076,-0.012 0.092,-0.021 c 0.011,-0.002 0.025,-0.007 0.034,-0.013 0.035,-0.01 0.069,-0.021 0.106,-0.037 0.074,-0.03 0.141,-0.07 0.203,-0.12 0.251,-0.18 0.421,-0.47 0.467,-0.785 m 0.205,0.686 c -0.014,-0.021 -0.023,-0.042 -0.037,-0.067 -0.11,0.221 -0.274,0.419 -0.483,0.564 0.122,0.26 0.301,0.564 0.458,0.815 0.166,-0.26 0.347,-0.582 0.47,-0.849 -0.169,-0.125 -0.304,-0.286 -0.408,-0.463 m 1.39,-5.014 c -0.002,-0.008 -0.002,-0.014 -0.006,-0.021 -0.012,-0.051 -0.03,-0.106 -0.049,-0.154 -0.007,-0.012 -0.011,-0.023 -0.016,-0.04 -0.092,-0.221 -0.237,-0.416 -0.417,-0.564 -0.011,-0.006 -0.023,-0.018 -0.034,-0.025 -0.012,-0.011 -0.025,-0.027 -0.06,-0.046 -0.012,-0.012 -0.025,-0.018 -0.037,-0.025 -0.016,-0.01 -0.027,-0.016 -0.034,-0.023 -0.203,-0.129 -0.44,-0.203 -0.689,-0.219 -0.055,-0.004 -0.112,-0.004 -0.168,0.005 h -0.039 c -0.237,0.018 -0.463,0.094 -0.658,0.214 -0.012,0.011 -0.023,0.018 -0.033,0.025 -0.039,0.028 -0.076,0.053 -0.11,0.083 -0.012,0.011 -0.023,0.018 -0.035,0.027 -0.078,0.063 -0.154,0.145 -0.227,0.252 -0.07,0.089 -0.125,0.193 -0.178,0.324 -0.004,0.019 -0.011,0.032 -0.018,0.053 -0.012,0.03 -0.023,0.06 -0.03,0.092 0,0.016 -0.005,0.033 -0.009,0.051 -0.063,0.228 -0.06,0.462 0.004,0.7 v 0.006 c 0.007,0.014 0.012,0.031 0.016,0.049 0.003,0.027 0.012,0.058 0.026,0.094 0.007,0.012 0.011,0.023 0.016,0.035 0.09,0.228 0.232,0.423 0.421,0.582 l 0.012,0.012 c 0.018,0.012 0.032,0.023 0.048,0.041 l 0.03,0.023 c 0.018,0.007 0.053,0.033 0.071,0.044 0.207,0.129 0.435,0.205 0.677,0.219 0.016,0 0.025,0 0.042,0.004 0.041,0.003 0.078,0.003 0.112,-0.004 0.019,-0.005 0.037,-0.005 0.058,-0.005 0.235,-0.014 0.47,-0.089 0.672,-0.216 h 0.005 c 0,-0.005 0.002,-0.005 0.002,-0.005 0.051,-0.03 0.094,-0.065 0.141,-0.101 0.011,-0.012 0.023,-0.019 0.032,-0.028 0.083,-0.071 0.163,-0.157 0.228,-0.246 0.073,-0.099 0.131,-0.205 0.172,-0.318 0,-0.007 0.003,-0.011 0.007,-0.018 0.019,-0.049 0.035,-0.101 0.046,-0.15 0.003,-0.012 0.007,-0.023 0.009,-0.035 0.058,-0.221 0.058,-0.462 0,-0.692 m 0.215,1.54 c -0.099,0.138 -0.212,0.258 -0.339,0.363 -0.007,0.007 -0.014,0.01 -0.02,0.017 -0.063,0.053 -0.125,0.094 -0.189,0.135 0,0 -0.005,0.003 -0.007,0.003 0,0 -0.005,0.002 -0.007,0.007 -0.272,0.168 -0.583,0.271 -0.903,0.299 -0.013,0.002 -0.03,0.002 -0.048,0.002 0.012,0.35 0.025,0.696 0.039,1.045 l 0.021,0.512 0.009,0.257 c 0,0.044 0.005,0.09 0.014,0.129 0.021,0.18 0.078,0.341 0.177,0.491 0.06,0.094 0.129,0.172 0.207,0.241 0.083,0.072 0.175,0.13 0.27,0.175 0.014,0.007 0.027,0.01 0.041,0.014 0.182,0.074 0.392,0.088 0.594,0.072 0.447,-0.035 0.891,-0.244 1.299,-0.505 0.039,-0.025 0.073,-0.048 0.11,-0.076 0.007,-0.002 0.016,-0.006 0.023,-0.015 0.111,-0.074 0.224,-0.155 0.329,-0.238 0.007,-0.006 0.012,-0.011 0.019,-0.014 0.037,-0.029 0.076,-0.057 0.108,-0.09 0.189,-0.154 0.364,-0.317 0.516,-0.499 0.154,-0.18 0.287,-0.37 0.373,-0.58 0.046,-0.104 0.076,-0.21 0.096,-0.316 l 0.014,-0.075 0.009,-0.095 v -0.027 c -0.002,-0.04 0,-0.076 -0.007,-0.12 -0.006,-0.081 -0.023,-0.154 -0.05,-0.228 -0.09,-0.288 -0.306,-0.536 -0.58,-0.681 -0.003,0 -0.003,0 -0.007,-0.005 -0.028,-0.003 -0.058,-0.012 -0.085,-0.018 -0.028,-0.008 -0.051,-0.014 -0.077,-0.026 l -0.26,-0.097 -0.458,-0.163 c -0.329,-0.12 -0.656,-0.237 -0.985,-0.352 v 0.002 c -0.062,0.161 -0.143,0.316 -0.246,0.456 m -7.324,0.651 c 0.295,0.076 0.645,0.148 0.933,0.182 0.069,-0.209 0.179,-0.4 0.326,-0.559 0.01,-0.01 0.021,-0.021 0.028,-0.03 -0.021,0 -0.039,-0.005 -0.06,-0.007 -0.212,-0.042 -0.421,-0.131 -0.598,-0.265 h -0.005 c -0.205,0.2 -0.435,0.456 -0.624,0.679 m 2.749,-5.191 c -0.094,-0.037 -0.193,-0.06 -0.297,-0.071 -0.113,-0.01 -0.223,-0.003 -0.329,0.018 -0.014,0.002 -0.028,0.007 -0.042,0.009 -0.188,0.044 -0.363,0.154 -0.524,0.285 -0.339,0.288 -0.576,0.717 -0.751,1.165 -0.021,0.051 -0.037,0.104 -0.055,0.159 -0.003,0.005 -0.007,0.012 -0.009,0.019 -0.042,0.129 -0.083,0.257 -0.12,0.384 -0.005,0.007 -0.005,0.014 -0.007,0.021 -0.012,0.039 -0.021,0.071 -0.032,0.11 -0.058,0.237 -0.102,0.472 -0.12,0.707 -0.021,0.235 -0.014,0.47 0.035,0.688 0.041,0.178 0.11,0.36 0.211,0.505 0.014,0.027 0.035,0.055 0.06,0.083 0.051,0.06 0.108,0.115 0.178,0.163 0.237,0.168 0.554,0.23 0.863,0.177 0,0 0.004,0 0.007,-0.002 0.025,-0.014 0.055,-0.023 0.083,-0.034 0.029,-0.01 0.057,-0.021 0.089,-0.031 l 0.256,-0.073 0.477,-0.136 1.008,-0.288 c -0.007,-0.007 -0.007,-0.018 -0.009,-0.027 -0.079,-0.316 -0.079,-0.636 0,-0.947 0,-0.018 0.002,-0.034 0.009,-0.048 0.014,-0.057 0.032,-0.12 0.053,-0.175 0.002,-0.014 0.009,-0.023 0.014,-0.035 0.064,-0.167 0.147,-0.322 0.248,-0.465 0.113,-0.151 0.228,-0.271 0.327,-0.349 0.007,-0.008 0.016,-0.014 0.023,-0.021 -0.05,-0.067 -0.101,-0.132 -0.154,-0.196 -0.002,-0.007 -0.007,-0.011 -0.009,-0.013 -0.162,-0.199 -0.323,-0.394 -0.484,-0.595 l -0.327,-0.403 -0.154,-0.188 c -0.03,-0.042 -0.062,-0.076 -0.094,-0.111 -0.122,-0.131 -0.263,-0.219 -0.424,-0.285 m 0.276,-1.108 c -0.255,-0.128 -0.571,-0.269 -0.84,-0.38 0.021,0.314 0.06,0.682 0.12,0.974 0.209,0 0.417,0.049 0.605,0.138 0.019,0.007 0.032,0.014 0.049,0.024 -0.042,-0.251 -0.023,-0.512 0.066,-0.756 m 5.972,0.965 c -0.306,0 -0.614,0.129 -0.838,0.352 0,0 0,0.005 -0.002,0.005 -0.014,0.023 -0.032,0.05 -0.048,0.076 -0.014,0.018 -0.028,0.037 -0.042,0.057 l -0.17,0.224 h -0.005 l -0.295,0.382 c -0.211,0.276 -0.425,0.552 -0.637,0.827 l 0.005,0.004 c 0.002,0.002 0.006,0.007 0.013,0.009 0.254,0.21 0.456,0.484 0.583,0.799 0,0.005 0.002,0.007 0.002,0.014 0.032,0.069 0.055,0.147 0.076,0.223 0.002,0.007 0.002,0.014 0.007,0.021 0.044,0.168 0.064,0.336 0.064,0.504 0,0.164 -0.02,0.332 -0.064,0.493 v 0.004 c 0.336,0.095 0.667,0.192 1.004,0.283 l 0.49,0.139 0.246,0.069 c 0.042,0.013 0.088,0.023 0.129,0.027 0.178,0.035 0.353,0.028 0.523,-0.018 0.101,-0.028 0.196,-0.069 0.283,-0.115 0.099,-0.06 0.184,-0.131 0.26,-0.214 0.007,-0.007 0.014,-0.014 0.016,-0.023 0.132,-0.152 0.214,-0.348 0.261,-0.553 0.108,-0.435 0.041,-0.925 -0.081,-1.393 -0.012,-0.039 -0.025,-0.085 -0.039,-0.128 0,-0.012 -0.002,-0.019 -0.007,-0.028 -0.037,-0.127 -0.081,-0.258 -0.127,-0.38 -0.002,-0.012 -0.007,-0.019 -0.009,-0.028 -0.014,-0.046 -0.032,-0.09 -0.048,-0.131 -0.09,-0.223 -0.194,-0.442 -0.32,-0.64 -0.122,-0.202 -0.263,-0.389 -0.435,-0.532 -0.086,-0.076 -0.178,-0.138 -0.274,-0.193 l -0.065,-0.032 -0.09,-0.04 c -0.007,-0.002 -0.016,-0.002 -0.023,-0.006 -0.039,-0.014 -0.073,-0.028 -0.119,-0.035 -0.074,-0.016 -0.15,-0.023 -0.224,-0.023 m -0.614,-0.313 c -0.003,0.025 -0.003,0.048 -0.01,0.076 0.222,-0.118 0.472,-0.178 0.73,-0.17 0.051,-0.281 0.09,-0.629 0.111,-0.919 -0.249,0.099 -0.53,0.225 -0.769,0.347 -0.042,0.021 -0.083,0.047 -0.12,0.067 0.062,0.196 0.078,0.401 0.058,0.599 m 1.052,8.52 c 0.214,0.252 0.469,0.436 0.769,0.553 0.076,0.03 0.154,0.055 0.232,0.071 0.182,0.044 0.364,0.062 0.546,0.044 0.076,-0.002 0.147,-0.016 0.223,-0.03 0.329,-0.064 0.631,-0.246 0.898,-0.472 0.267,-0.228 0.493,-0.518 0.686,-0.831 0.196,-0.315 0.357,-0.654 0.497,-1.008 0.134,-0.346 0.256,-0.726 0.35,-1.082 0.095,-0.369 0.164,-0.737 0.189,-1.108 0.025,-0.368 0.016,-0.734 -0.067,-1.079 -0.041,-0.173 -0.099,-0.337 -0.175,-0.496 l -0.05,-0.105 -0.078,-0.127 c -0.049,-0.064 -0.088,-0.126 -0.148,-0.193 -0.046,-0.046 -0.09,-0.092 -0.14,-0.134 -0.134,-0.119 -0.288,-0.219 -0.456,-0.29 -0.09,-0.041 -0.182,-0.071 -0.279,-0.096 -0.267,-0.077 -0.555,-0.079 -0.833,-0.028 -0.048,0.02 -0.097,0.039 -0.145,0.055 -0.018,0.007 -0.044,0.014 -0.065,0.021 l -0.163,0.048 c 0.016,0.051 0.027,0.099 0.041,0.15 0.026,0.11 0.051,0.221 0.072,0.333 v 0.003 c 0.076,0.419 0.099,0.859 -0.012,1.301 -0.06,0.255 -0.189,0.511 -0.375,0.715 0.387,0.36 0.78,0.855 0.843,0.933 0.036,0.044 0.048,0.106 0.029,0.159 -0.02,0.053 -0.059,0.099 -0.115,0.113 -0.096,0.027 -0.683,0.189 -1.201,0.255 0,0.028 0.004,0.06 0.004,0.088 l -0.004,0.094 c -0.003,0.053 -0.01,0.076 -0.012,0.118 -0.018,0.142 -0.053,0.285 -0.108,0.419 -0.094,0.267 -0.249,0.506 -0.417,0.722 -0.11,0.134 -0.23,0.26 -0.354,0.378 -0.072,0.067 -0.143,0.134 -0.219,0.198 -0.042,0.035 -0.083,0.069 -0.125,0.099 l 0.109,0.14 c 0.016,0.026 0.037,0.049 0.053,0.069 m 0.403,1.762 c 0.26,0.135 0.557,0.265 0.835,0.377 -0.023,-0.297 -0.057,-0.626 -0.106,-0.914 -0.2,-0.032 -0.391,-0.089 -0.573,-0.168 -0.057,-0.025 -0.117,-0.053 -0.17,-0.087 0.014,0.062 0.02,0.124 0.027,0.186 0.019,0.198 0.017,0.405 -0.013,0.606 m 3.732,-8.141 c 0.048,0.039 0.096,0.085 0.14,0.129 0.081,0.076 0.159,0.175 0.23,0.267 l 0.083,0.12 c 0.042,0.067 0.058,0.103 0.09,0.154 0.106,0.196 0.189,0.403 0.242,0.612 0.119,0.422 0.145,0.852 0.126,1.276 -0.018,0.421 -0.092,0.829 -0.186,1.229 -0.102,0.408 -0.221,0.783 -0.375,1.172 -0.304,0.76 -0.721,1.519 -1.403,2.081 -0.336,0.279 -0.75,0.495 -1.204,0.567 -0.071,0.013 -0.147,0.02 -0.218,0.025 0.082,0.543 0.106,1.094 0.113,1.262 0.004,0.085 -0.035,0.167 -0.102,0.218 -0.074,0.051 -0.161,0.062 -0.241,0.035 -0.162,-0.058 -0.675,-0.253 -1.168,-0.497 -0.025,0.064 -0.053,0.126 -0.083,0.184 -0.048,0.099 -0.117,0.207 -0.181,0.299 l -0.093,0.12 c -0.048,0.057 -0.08,0.085 -0.119,0.131 -0.152,0.161 -0.323,0.301 -0.509,0.417 -0.364,0.244 -0.767,0.398 -1.172,0.515 -0.408,0.106 -0.819,0.164 -1.227,0.196 -0.421,0.03 -0.813,0.032 -1.232,0.002 -0.815,-0.055 -1.669,-0.216 -2.413,-0.693 -0.368,-0.237 -0.7,-0.561 -0.909,-0.973 -0.03,-0.063 -0.062,-0.127 -0.085,-0.192 -0.488,0.244 -0.995,0.438 -1.156,0.498 -0.078,0.029 -0.172,0.016 -0.239,-0.035 -0.069,-0.048 -0.111,-0.131 -0.106,-0.216 0.004,-0.168 0.032,-0.693 0.108,-1.22 -0.069,-0.005 -0.14,-0.014 -0.21,-0.028 -0.455,-0.085 -0.842,-0.295 -1.181,-0.569 -0.34,-0.278 -0.612,-0.61 -0.844,-0.957 -0.226,-0.352 -0.408,-0.726 -0.567,-1.103 -0.161,-0.387 -0.283,-0.762 -0.387,-1.163 -0.202,-0.792 -0.31,-1.648 -0.089,-2.502 0.027,-0.106 0.067,-0.21 0.103,-0.316 0.046,-0.11 0.097,-0.218 0.141,-0.299 0.105,-0.198 0.239,-0.387 0.405,-0.546 0.055,-0.053 0.111,-0.101 0.168,-0.149 -0.391,-0.398 -0.744,-0.836 -0.854,-0.97 -0.051,-0.069 -0.069,-0.159 -0.044,-0.241 0.028,-0.081 0.092,-0.143 0.175,-0.168 0.161,-0.049 0.679,-0.189 1.209,-0.281 -0.014,-0.056 -0.023,-0.109 -0.035,-0.164 -0.018,-0.105 -0.025,-0.235 -0.03,-0.349 l 0.005,-0.148 c 0.002,-0.078 0.014,-0.118 0.021,-0.175 0.023,-0.223 0.078,-0.44 0.156,-0.642 0.152,-0.41 0.385,-0.774 0.64,-1.108 0.265,-0.329 0.564,-0.619 0.875,-0.886 0.32,-0.274 0.636,-0.509 0.988,-0.735 0.688,-0.439 1.471,-0.812 2.353,-0.867 0.435,-0.03 0.897,0.034 1.31,0.239 0.071,0.039 0.142,0.076 0.211,0.124 0.254,-0.492 0.56,-0.96 0.654,-1.105 0.048,-0.071 0.131,-0.115 0.217,-0.115 0.085,0 0.165,0.044 0.214,0.115 0.092,0.143 0.389,0.592 0.642,1.071 0.053,-0.03 0.104,-0.062 0.159,-0.09 0.092,-0.05 0.212,-0.094 0.322,-0.136 l 0.141,-0.041 c 0.076,-0.021 0.117,-0.023 0.175,-0.037 0.216,-0.042 0.439,-0.055 0.653,-0.046 0.44,0.018 0.859,0.126 1.253,0.272 0.393,0.149 0.764,0.343 1.114,0.559 0.359,0.219 0.679,0.449 1.002,0.712 0.626,0.524 1.222,1.153 1.549,1.974 0.161,0.406 0.244,0.864 0.17,1.322 -0.009,0.078 -0.027,0.154 -0.046,0.228 0.544,0.09 1.08,0.235 1.244,0.281 0.082,0.021 0.147,0.088 0.174,0.168 0.028,0.081 0.012,0.173 -0.041,0.237 -0.106,0.134 -0.444,0.56 -0.826,0.951 m 31.528,-1.146 c -0.09,0.175 -0.202,0.34 -0.334,0.483 -0.041,0.048 -0.085,0.097 -0.133,0.14 0.062,0.005 0.124,0.014 0.186,0.028 0.201,0.041 0.396,0.111 0.583,0.203 0.205,-0.205 0.416,-0.443 0.61,-0.668 -0.295,-0.074 -0.622,-0.141 -0.912,-0.186 m -0.536,-1.796 c -0.134,-0.327 -0.343,-0.629 -0.578,-0.91 -0.242,-0.28 -0.515,-0.541 -0.806,-0.78 -0.287,-0.237 -0.615,-0.47 -0.923,-0.665 -0.322,-0.203 -0.654,-0.385 -0.997,-0.523 -0.341,-0.136 -0.693,-0.242 -1.045,-0.267 -0.18,-0.014 -0.355,-0.009 -0.525,0.014 l -0.12,0.018 -0.145,0.035 c -0.076,0.025 -0.145,0.043 -0.225,0.085 -0.06,0.023 -0.113,0.051 -0.166,0.085 -0.155,0.085 -0.29,0.202 -0.41,0.336 v 0.002 c -0.074,0.076 -0.136,0.159 -0.189,0.244 -0.154,0.233 -0.248,0.505 -0.285,0.785 0.007,0.056 0.011,0.104 0.011,0.159 v 0.062 l -0.004,0.168 c 0.051,0.003 0.103,0.008 0.159,0.01 0.114,0.007 0.234,0.021 0.352,0.034 0.419,0.058 0.84,0.176 1.225,0.412 0.225,0.141 0.428,0.334 0.568,0.583 0.463,-0.258 1.052,-0.481 1.144,-0.518 0.021,-0.007 0.042,-0.012 0.063,-0.012 0.034,0 0.069,0.012 0.099,0.035 0.043,0.032 0.071,0.087 0.069,0.145 -0.005,0.099 -0.028,0.702 -0.125,1.216 0.028,0.006 0.056,0.013 0.081,0.02 l 0.088,0.035 c 0.052,0.018 0.073,0.032 0.11,0.046 0.131,0.062 0.253,0.14 0.363,0.228 0.226,0.179 0.408,0.398 0.563,0.626 0.092,0.143 0.174,0.295 0.251,0.449 0.041,0.087 0.08,0.182 0.119,0.269 0.021,0.048 0.041,0.099 0.058,0.147 l 0.161,-0.057 c 0.034,-0.014 0.064,-0.023 0.092,-0.037 0.14,-0.06 0.255,-0.122 0.375,-0.202 0.143,-0.099 0.269,-0.221 0.38,-0.355 0.048,-0.058 0.092,-0.12 0.131,-0.184 0.099,-0.159 0.171,-0.33 0.214,-0.504 0.021,-0.079 0.035,-0.157 0.042,-0.237 0.041,-0.332 -0.042,-0.675 -0.175,-0.997 M 11.484,18.95 c -0.161,0.262 -0.329,0.555 -0.458,0.822 0.136,0.138 0.249,0.292 0.345,0.455 0.03,0.051 0.063,0.106 0.09,0.166 0.028,-0.055 0.055,-0.111 0.085,-0.166 0.104,-0.181 0.233,-0.352 0.38,-0.499 C 11.8,19.472 11.638,19.196 11.484,18.95 m -0.706,1.39 C 10.662,20.193 10.517,20.071 10.363,19.974 10.292,19.928 10.22,19.891 10.144,19.857 9.838,19.716 9.486,19.689 9.14,19.716 8.786,19.744 8.436,19.85 8.098,19.99 c -0.343,0.138 -0.672,0.323 -0.993,0.525 -0.31,0.203 -0.633,0.44 -0.918,0.675 -0.288,0.244 -0.562,0.504 -0.799,0.79 -0.235,0.28 -0.442,0.587 -0.575,0.916 -0.07,0.161 -0.12,0.329 -0.15,0.499 l -0.019,0.12 -0.013,0.147 c 0.004,0.083 0,0.152 0.011,0.24 0.007,0.06 0.016,0.115 0.03,0.172 0.035,0.175 0.099,0.343 0.193,0.5 0.051,0.094 0.113,0.179 0.18,0.262 0.175,0.215 0.403,0.387 0.652,0.507 0.06,0.014 0.115,0.028 0.165,0.043 0.028,0.008 0.051,0.019 0.076,0.026 l 0.148,0.051 c 0.015,-0.058 0.041,-0.118 0.064,-0.176 0.041,-0.098 0.085,-0.202 0.134,-0.301 0.181,-0.387 0.425,-0.757 0.782,-1.05 0.053,-0.046 0.113,-0.085 0.175,-0.129 0.065,-0.039 0.136,-0.078 0.187,-0.103 0.11,-0.051 0.228,-0.097 0.347,-0.12 -0.103,-0.52 -0.133,-1.149 -0.138,-1.248 0,-0.057 0.026,-0.112 0.074,-0.147 0.026,-0.021 0.064,-0.032 0.099,-0.032 0.021,0 0.042,0.004 0.057,0.011 0.092,0.034 0.659,0.244 1.119,0.49 0.016,-0.02 0.03,-0.043 0.044,-0.064 l 0.058,-0.076 c 0.034,-0.041 0.052,-0.06 0.078,-0.085 0.101,-0.109 0.21,-0.203 0.329,-0.283 0.242,-0.157 0.502,-0.263 0.767,-0.339 0.168,-0.043 0.338,-0.078 0.509,-0.103 0.096,-0.014 0.193,-0.023 0.289,-0.03 0.052,-0.005 0.107,-0.009 0.157,-0.009 L 11.21,21.496 C 11.208,21.459 11.208,21.427 11.204,21.393 V 21.39 C 11.19,21.245 11.162,21.118 11.125,20.982 11.072,20.815 10.998,20.656 10.906,20.513 10.867,20.45 10.826,20.395 10.778,20.34 m -7.342,4.482 c 0.2,0.233 0.43,0.486 0.644,0.696 C 4.258,25.433 4.442,25.366 4.635,25.329 4.69,25.318 4.741,25.308 4.796,25.301 4.75,25.258 4.707,25.212 4.665,25.168 4.522,25.009 4.398,24.832 4.301,24.641 4.021,24.687 3.717,24.753 3.436,24.822 m 0.184,1.964 c -0.049,0.092 -0.071,0.168 -0.099,0.24 -0.025,0.083 -0.056,0.166 -0.074,0.251 -0.163,0.686 -0.064,1.443 0.122,2.169 0.095,0.356 0.219,0.739 0.352,1.082 0.141,0.347 0.302,0.688 0.498,0.999 0.191,0.315 0.414,0.607 0.681,0.84 0.261,0.23 0.58,0.421 0.898,0.49 0.062,0.019 0.129,0.028 0.193,0.035 h 0.003 c 0.174,0.021 0.357,0.007 0.532,-0.037 0.092,-0.018 0.182,-0.048 0.267,-0.083 0.262,-0.103 0.49,-0.274 0.684,-0.486 0.027,-0.048 0.06,-0.101 0.093,-0.144 0.015,-0.023 0.029,-0.045 0.047,-0.065 L 7.923,31.936 C 7.882,31.904 7.844,31.87 7.803,31.835 7.725,31.771 7.644,31.699 7.57,31.628 7.255,31.329 6.97,30.977 6.797,30.544 6.705,30.307 6.654,30.044 6.682,29.779 6.159,29.715 5.568,29.554 5.468,29.526 5.413,29.512 5.367,29.471 5.351,29.415 5.335,29.36 5.344,29.303 5.379,29.259 5.441,29.179 5.819,28.702 6.198,28.343 5.842,27.91 5.759,27.348 5.784,26.844 c 0.007,-0.168 0.03,-0.336 0.06,-0.5 0.018,-0.099 0.039,-0.2 0.062,-0.294 0.011,-0.042 0.021,-0.083 0.032,-0.125 L 5.791,25.884 C 5.745,25.87 5.701,25.861 5.66,25.85 5.526,25.822 5.406,25.808 5.273,25.801 5.098,25.794 4.925,25.819 4.757,25.861 4.69,25.877 4.621,25.902 4.552,25.93 4.377,25.995 4.216,26.091 4.073,26.206 4.011,26.259 3.951,26.312 3.899,26.372 3.781,26.494 3.691,26.634 3.62,26.786 m 3.727,7.117 C 7.315,33.702 7.312,33.495 7.333,33.293 7.336,33.246 7.342,33.2 7.349,33.152 7.301,33.184 7.251,33.207 7.2,33.233 7.018,33.318 6.822,33.38 6.62,33.415 6.576,33.691 6.544,33.997 6.523,34.28 6.797,34.167 7.094,34.039 7.347,33.903 m 0.535,-0.309 c 0.013,0.187 0.055,0.368 0.126,0.532 0.025,0.067 0.058,0.131 0.092,0.193 0.166,0.29 0.429,0.525 0.728,0.709 0.299,0.185 0.644,0.309 1.001,0.398 0.359,0.088 0.735,0.136 1.109,0.164 0.371,0.021 0.772,0.021 1.14,0 0.38,-0.023 0.753,-0.071 1.11,-0.161 0.361,-0.085 0.707,-0.21 1.008,-0.394 0.154,-0.089 0.293,-0.196 0.419,-0.315 l 0.086,-0.085 0.096,-0.111 c 0.049,-0.069 0.092,-0.124 0.134,-0.202 0.037,-0.058 0.069,-0.122 0.096,-0.184 0.072,-0.166 0.115,-0.341 0.134,-0.523 0.007,-0.095 0.009,-0.189 0.002,-0.283 -0.014,-0.274 -0.092,-0.544 -0.218,-0.785 -0.04,-0.042 -0.072,-0.085 -0.106,-0.132 -0.014,-0.02 -0.028,-0.037 -0.042,-0.057 L 14.698,32.21 c -0.041,0.031 -0.087,0.058 -0.131,0.086 -0.09,0.055 -0.182,0.11 -0.279,0.161 -0.379,0.205 -0.799,0.366 -1.261,0.398 -0.26,0.016 -0.537,-0.021 -0.787,-0.138 -0.224,0.483 -0.569,1.008 -0.629,1.091 -0.03,0.049 -0.08,0.078 -0.141,0.078 -0.057,0 -0.108,-0.029 -0.142,-0.078 -0.056,-0.083 -0.392,-0.589 -0.615,-1.066 -0.027,0.01 -0.057,0.021 -0.085,0.03 L 10.536,32.8 c -0.053,0.014 -0.076,0.014 -0.118,0.023 -0.14,0.028 -0.287,0.034 -0.428,0.028 C 9.702,32.841 9.429,32.765 9.17,32.673 9.012,32.611 8.865,32.542 8.722,32.463 V 32.462 C 8.63,32.415 8.535,32.36 8.447,32.307 8.402,32.279 8.358,32.252 8.314,32.219 l -0.096,0.145 c -0.017,0.024 -0.03,0.049 -0.044,0.072 -0.18,0.281 -0.277,0.58 -0.295,0.905 -0.007,0.085 -0.007,0.173 0.003,0.253 m 8.626,-5.014 c -0.168,0.12 -0.359,0.198 -0.559,0.239 -0.024,0.007 -0.049,0.009 -0.072,0.014 0.177,0.177 0.311,0.394 0.384,0.64 0.284,-0.037 0.627,-0.108 0.912,-0.182 -0.2,-0.239 -0.449,-0.509 -0.665,-0.711 M 9.277,24.109 c 0.018,0.021 0.034,0.041 0.05,0.064 0.019,0.021 0.035,0.044 0.053,0.07 l 0.15,0.223 0.28,0.407 c 0.144,0.212 0.286,0.426 0.424,0.638 0.002,0.002 0.007,0.007 0.007,0.009 0.046,0.069 0.094,0.138 0.141,0.208 0,0 0.002,0 0.006,-0.005 0.274,-0.178 0.592,-0.288 0.926,-0.318 0.023,-0.005 0.044,-0.007 0.064,-0.007 h 0.021 c 0.035,0 0.069,-0.004 0.106,-0.004 0.039,0 0.076,0.004 0.118,0.004 0.338,0.021 0.665,0.127 0.948,0.309 0,0 0,0.002 0.005,0.002 0.195,-0.288 0.386,-0.578 0.578,-0.87 l 0.283,-0.422 0.142,-0.216 c 0.026,-0.037 0.049,-0.076 0.065,-0.113 0.087,-0.159 0.133,-0.322 0.145,-0.504 0.002,-0.099 -0.005,-0.198 -0.028,-0.295 -0.023,-0.112 -0.064,-0.223 -0.12,-0.32 -0.004,-0.007 -0.011,-0.016 -0.018,-0.023 -0.101,-0.17 -0.267,-0.308 -0.444,-0.419 -0.385,-0.232 -0.868,-0.322 -1.352,-0.35 -0.043,0 -0.09,-0.002 -0.135,-0.002 H 11.664 C 11.531,22.17 11.392,22.17 11.259,22.177 h -0.025 c -0.047,0.005 -0.092,0.005 -0.136,0.007 -0.244,0.014 -0.482,0.049 -0.71,0.104 -0.23,0.058 -0.449,0.138 -0.642,0.253 -0.096,0.06 -0.184,0.127 -0.265,0.203 l -0.052,0.05 -0.063,0.074 c -0.004,0.007 -0.007,0.009 -0.014,0.016 -0.02,0.035 -0.043,0.064 -0.068,0.106 -0.038,0.067 -0.07,0.133 -0.09,0.207 -0.095,0.29 -0.067,0.631 0.083,0.912 m 2.051,7.289 v -0.005 c -0.005,-0.021 -0.005,-0.044 -0.005,-0.06 -0.002,-0.027 -0.002,-0.055 -0.002,-0.083 l 0.009,-0.278 0.018,-0.486 c 0.014,-0.35 0.023,-0.697 0.038,-1.045 h -0.01 c -0.348,-0.026 -0.665,-0.125 -0.928,-0.29 -0.03,-0.016 -0.053,-0.032 -0.071,-0.046 -0.016,-0.012 -0.034,-0.025 -0.055,-0.039 -0.007,-0.003 -0.028,-0.017 -0.03,-0.021 -0.014,-0.009 -0.028,-0.021 -0.037,-0.03 C 10.22,28.994 10.202,28.973 10.202,28.973 9.942,28.755 9.746,28.488 9.62,28.168 L 9.617,28.161 C 9.29,28.278 8.966,28.398 8.636,28.518 l -0.469,0.17 -0.251,0.09 c -0.034,0.014 -0.069,0.027 -0.099,0.044 -0.173,0.076 -0.316,0.186 -0.436,0.329 -0.075,0.09 -0.133,0.193 -0.172,0.299 -0.037,0.092 -0.062,0.189 -0.071,0.285 -0.005,0.021 -0.005,0.044 -0.005,0.067 -0.009,0.189 0.042,0.378 0.115,0.565 0.168,0.414 0.507,0.773 0.877,1.079 0.035,0.028 0.072,0.058 0.108,0.086 0.008,0.006 0.014,0.013 0.026,0.02 0.104,0.078 0.211,0.157 0.322,0.23 0.007,0.007 0.014,0.014 0.023,0.016 0.039,0.028 0.076,0.055 0.113,0.078 0.207,0.132 0.419,0.249 0.635,0.337 0.219,0.09 0.443,0.159 0.666,0.175 0.113,0.011 0.223,0.011 0.332,-0.002 l 0.075,-0.012 0.092,-0.021 c 0.012,-0.002 0.026,-0.007 0.035,-0.013 0.035,-0.01 0.069,-0.021 0.106,-0.037 0.074,-0.03 0.14,-0.07 0.202,-0.12 0.252,-0.18 0.422,-0.47 0.468,-0.785 m 0.205,0.686 c -0.014,-0.021 -0.023,-0.042 -0.037,-0.067 -0.11,0.221 -0.274,0.419 -0.484,0.564 0.122,0.26 0.302,0.564 0.458,0.815 0.166,-0.26 0.348,-0.582 0.47,-0.849 -0.168,-0.125 -0.304,-0.286 -0.407,-0.463 m 1.39,-5.014 c -0.002,-0.008 -0.002,-0.014 -0.007,-0.021 -0.011,-0.051 -0.03,-0.106 -0.048,-0.154 -0.007,-0.012 -0.012,-0.023 -0.016,-0.04 -0.092,-0.221 -0.237,-0.416 -0.417,-0.564 -0.012,-0.006 -0.023,-0.018 -0.034,-0.025 -0.012,-0.011 -0.026,-0.027 -0.06,-0.046 -0.012,-0.012 -0.026,-0.018 -0.037,-0.025 -0.016,-0.01 -0.028,-0.016 -0.034,-0.023 -0.203,-0.129 -0.44,-0.203 -0.689,-0.219 -0.055,-0.004 -0.113,-0.004 -0.168,0.005 h -0.039 c -0.237,0.018 -0.463,0.094 -0.658,0.214 -0.012,0.011 -0.024,0.018 -0.033,0.025 -0.039,0.028 -0.076,0.053 -0.111,0.083 -0.011,0.011 -0.023,0.018 -0.034,0.027 -0.078,0.063 -0.154,0.145 -0.228,0.252 -0.069,0.089 -0.124,0.193 -0.177,0.324 -0.005,0.019 -0.012,0.032 -0.019,0.053 -0.011,0.03 -0.023,0.06 -0.03,0.092 0,0.016 -0.004,0.033 -0.008,0.051 -0.063,0.228 -0.06,0.462 0.004,0.7 v 0.006 c 0.007,0.014 0.011,0.031 0.016,0.049 0.002,0.027 0.012,0.058 0.025,0.094 0.007,0.012 0.012,0.023 0.017,0.035 0.09,0.228 0.232,0.423 0.421,0.582 l 0.011,0.012 c 0.019,0.012 0.032,0.023 0.049,0.041 l 0.03,0.023 c 0.018,0.007 0.052,0.033 0.071,0.044 0.207,0.129 0.435,0.205 0.677,0.219 0.016,0 0.025,0 0.041,0.004 0.042,0.003 0.078,0.003 0.113,-0.004 0.019,-0.005 0.037,-0.005 0.058,-0.005 0.235,-0.014 0.469,-0.089 0.672,-0.216 h 0.004 c 0,-0.005 0.003,-0.005 0.003,-0.005 0.05,-0.03 0.094,-0.065 0.14,-0.101 0.012,-0.012 0.024,-0.019 0.032,-0.028 0.084,-0.071 0.164,-0.157 0.229,-0.246 0.073,-0.099 0.13,-0.205 0.172,-0.318 0,-0.007 0.002,-0.011 0.007,-0.018 0.018,-0.049 0.035,-0.101 0.046,-0.15 0.002,-0.012 0.007,-0.023 0.009,-0.035 0.058,-0.221 0.058,-0.462 0,-0.692 m 0.214,1.54 c -0.099,0.138 -0.212,0.258 -0.338,0.363 -0.007,0.007 -0.014,0.01 -0.021,0.017 -0.062,0.053 -0.124,0.094 -0.189,0.135 0,0 -0.004,0.003 -0.007,0.003 0,0 -0.004,0.002 -0.006,0.007 -0.272,0.168 -0.583,0.271 -0.903,0.299 -0.014,0.002 -0.03,0.002 -0.048,0.002 0.011,0.35 0.025,0.696 0.039,1.045 l 0.021,0.512 0.009,0.257 c 0,0.044 0.004,0.09 0.014,0.129 0.02,0.18 0.078,0.341 0.177,0.491 0.06,0.094 0.129,0.172 0.207,0.241 0.083,0.072 0.175,0.13 0.27,0.175 0.013,0.007 0.027,0.01 0.041,0.014 0.182,0.074 0.391,0.088 0.594,0.072 0.447,-0.035 0.891,-0.244 1.298,-0.505 0.04,-0.025 0.074,-0.048 0.111,-0.076 0.007,-0.002 0.016,-0.006 0.023,-0.015 0.11,-0.074 0.223,-0.155 0.329,-0.238 0.007,-0.006 0.012,-0.011 0.018,-0.014 0.037,-0.029 0.077,-0.057 0.109,-0.09 0.188,-0.154 0.364,-0.317 0.516,-0.499 0.154,-0.18 0.287,-0.37 0.372,-0.58 0.046,-0.104 0.076,-0.21 0.097,-0.316 l 0.014,-0.075 0.009,-0.095 v -0.027 c -0.002,-0.04 0,-0.076 -0.007,-0.12 -0.007,-0.081 -0.023,-0.154 -0.051,-0.228 -0.089,-0.288 -0.306,-0.536 -0.58,-0.681 -0.002,0 -0.002,0 -0.006,-0.005 -0.028,-0.003 -0.058,-0.012 -0.086,-0.018 -0.027,-0.008 -0.05,-0.014 -0.076,-0.026 l -0.26,-0.097 -0.458,-0.163 c -0.329,-0.12 -0.656,-0.237 -0.985,-0.352 v 0.002 c -0.062,0.161 -0.143,0.316 -0.247,0.456 m -7.323,0.651 c 0.295,0.076 0.645,0.148 0.932,0.182 0.07,-0.209 0.18,-0.4 0.327,-0.559 0.009,-0.01 0.021,-0.021 0.028,-0.03 -0.021,0 -0.039,-0.005 -0.06,-0.007 C 6.829,28.805 6.62,28.716 6.442,28.582 H 6.438 c -0.205,0.2 -0.435,0.456 -0.624,0.679 M 8.563,24.07 C 8.469,24.033 8.369,24.01 8.266,23.999 8.153,23.989 8.043,23.996 7.937,24.017 7.923,24.019 7.909,24.024 7.895,24.026 7.707,24.07 7.531,24.18 7.371,24.311 7.032,24.599 6.795,25.028 6.62,25.476 6.599,25.527 6.583,25.58 6.564,25.635 6.562,25.64 6.557,25.647 6.555,25.654 c -0.041,0.129 -0.083,0.257 -0.12,0.384 -0.004,0.007 -0.004,0.014 -0.006,0.021 -0.012,0.039 -0.021,0.071 -0.032,0.11 -0.058,0.237 -0.102,0.472 -0.12,0.707 -0.021,0.235 -0.014,0.47 0.034,0.688 0.042,0.178 0.111,0.36 0.212,0.505 0.014,0.027 0.034,0.055 0.06,0.083 0.05,0.06 0.108,0.115 0.177,0.163 0.237,0.168 0.555,0.23 0.863,0.177 0,0 0.005,0 0.007,-0.002 0.026,-0.014 0.056,-0.023 0.083,-0.034 0.03,-0.01 0.057,-0.021 0.09,-0.031 L 8.058,28.352 8.535,28.216 9.543,27.928 C 9.536,27.921 9.536,27.91 9.534,27.901 c -0.078,-0.316 -0.078,-0.636 0,-0.947 0,-0.018 0.002,-0.034 0.009,-0.048 0.014,-0.057 0.033,-0.12 0.053,-0.175 0.003,-0.014 0.01,-0.023 0.014,-0.035 0.065,-0.167 0.148,-0.322 0.249,-0.465 0.113,-0.151 0.228,-0.271 0.327,-0.349 0.007,-0.008 0.016,-0.014 0.023,-0.021 C 10.158,25.794 10.108,25.729 10.055,25.665 10.052,25.658 10.048,25.654 10.046,25.652 9.884,25.453 9.723,25.258 9.562,25.057 L 9.235,24.654 9.081,24.466 C 9.051,24.424 9.018,24.39 8.986,24.355 8.865,24.224 8.724,24.136 8.563,24.07 m 0.276,-1.108 c -0.255,-0.128 -0.571,-0.269 -0.84,-0.38 0.02,0.314 0.059,0.682 0.12,0.974 0.209,0 0.416,0.049 0.605,0.138 0.018,0.007 0.032,0.014 0.048,0.024 -0.041,-0.251 -0.023,-0.512 0.067,-0.756 m 5.972,0.965 c -0.306,0 -0.615,0.129 -0.838,0.352 0,0 0,0.005 -0.002,0.005 -0.014,0.023 -0.032,0.05 -0.049,0.076 -0.013,0.018 -0.027,0.037 -0.041,0.057 l -0.171,0.224 h -0.004 l -0.295,0.382 c -0.211,0.276 -0.426,0.552 -0.637,0.827 l 0.004,0.004 c 0.003,0.002 0.007,0.007 0.014,0.009 0.253,0.21 0.456,0.484 0.582,0.799 0,0.005 0.003,0.007 0.003,0.014 0.032,0.069 0.055,0.147 0.076,0.223 0.002,0.007 0.002,0.014 0.006,0.021 0.044,0.168 0.065,0.336 0.065,0.504 0,0.164 -0.021,0.332 -0.065,0.493 v 0.004 c 0.337,0.095 0.668,0.192 1.004,0.283 l 0.491,0.139 0.246,0.069 c 0.042,0.013 0.087,0.023 0.129,0.027 0.177,0.035 0.352,0.028 0.523,-0.018 0.101,-0.028 0.195,-0.069 0.282,-0.115 0.1,-0.06 0.185,-0.131 0.261,-0.214 0.007,-0.007 0.014,-0.014 0.016,-0.023 0.131,-0.152 0.214,-0.348 0.26,-0.553 0.108,-0.435 0.041,-0.925 -0.081,-1.393 -0.011,-0.039 -0.025,-0.085 -0.038,-0.128 0,-0.012 -0.003,-0.019 -0.007,-0.028 -0.037,-0.127 -0.081,-0.258 -0.127,-0.38 -0.002,-0.012 -0.007,-0.019 -0.009,-0.028 -0.014,-0.046 -0.032,-0.09 -0.049,-0.131 -0.089,-0.223 -0.193,-0.442 -0.319,-0.64 -0.122,-0.202 -0.263,-0.389 -0.436,-0.532 -0.085,-0.076 -0.177,-0.138 -0.274,-0.193 l -0.064,-0.032 -0.09,-0.04 C 15.17,23.989 15.161,23.989 15.154,23.985 15.115,23.971 15.08,23.957 15.035,23.95 14.961,23.934 14.885,23.927 14.811,23.927 m -0.615,-0.313 c -0.002,0.025 -0.002,0.048 -0.009,0.076 0.221,-0.118 0.472,-0.178 0.73,-0.17 0.051,-0.281 0.09,-0.629 0.11,-0.919 -0.248,0.099 -0.529,0.225 -0.769,0.347 -0.041,0.021 -0.082,0.047 -0.119,0.067 0.062,0.196 0.078,0.401 0.057,0.599 m 1.053,8.52 c 0.214,0.252 0.469,0.436 0.768,0.553 0.076,0.03 0.155,0.055 0.233,0.071 0.182,0.044 0.364,0.062 0.546,0.044 0.075,-0.002 0.147,-0.016 0.223,-0.03 0.329,-0.064 0.631,-0.246 0.898,-0.472 0.267,-0.228 0.492,-0.518 0.686,-0.831 0.195,-0.315 0.357,-0.654 0.497,-1.008 0.134,-0.346 0.256,-0.726 0.35,-1.082 0.094,-0.369 0.163,-0.737 0.189,-1.108 0.025,-0.368 0.016,-0.734 -0.067,-1.079 -0.041,-0.173 -0.099,-0.337 -0.175,-0.496 L 19.346,26.591 19.268,26.464 C 19.22,26.4 19.18,26.338 19.121,26.271 c -0.046,-0.046 -0.09,-0.092 -0.14,-0.134 -0.134,-0.119 -0.289,-0.219 -0.456,-0.29 -0.09,-0.041 -0.182,-0.071 -0.279,-0.096 -0.267,-0.077 -0.555,-0.079 -0.834,-0.028 -0.048,0.02 -0.096,0.039 -0.145,0.055 -0.018,0.007 -0.043,0.014 -0.064,0.021 l -0.163,0.048 c 0.015,0.051 0.027,0.099 0.041,0.15 0.026,0.11 0.051,0.221 0.071,0.333 v 0.003 c 0.077,0.419 0.099,0.859 -0.011,1.301 -0.06,0.255 -0.189,0.511 -0.375,0.715 0.386,0.36 0.78,0.855 0.842,0.933 0.037,0.044 0.048,0.106 0.03,0.159 -0.02,0.053 -0.06,0.099 -0.115,0.113 -0.097,0.027 -0.684,0.189 -1.202,0.255 0,0.028 0.005,0.06 0.005,0.088 l -0.005,0.094 c -0.002,0.053 -0.009,0.076 -0.011,0.118 -0.019,0.142 -0.053,0.285 -0.109,0.419 -0.094,0.267 -0.248,0.506 -0.416,0.722 -0.111,0.134 -0.23,0.26 -0.355,0.378 -0.071,0.067 -0.143,0.134 -0.218,0.198 -0.042,0.035 -0.083,0.069 -0.125,0.099 l 0.108,0.14 c 0.017,0.026 0.037,0.049 0.054,0.069 m 0.402,1.762 c 0.261,0.135 0.557,0.265 0.836,0.377 -0.023,-0.297 -0.057,-0.626 -0.106,-0.914 -0.2,-0.032 -0.391,-0.089 -0.573,-0.168 -0.058,-0.025 -0.117,-0.053 -0.17,-0.087 0.013,0.062 0.02,0.124 0.027,0.186 0.018,0.198 0.016,0.405 -0.014,0.606 m 3.732,-8.141 c 0.049,0.039 0.097,0.085 0.141,0.129 0.08,0.076 0.159,0.175 0.23,0.267 l 0.083,0.12 c 0.041,0.067 0.057,0.103 0.09,0.154 0.105,0.196 0.189,0.403 0.241,0.612 0.12,0.422 0.145,0.852 0.127,1.276 -0.019,0.421 -0.092,0.829 -0.186,1.229 -0.102,0.408 -0.222,0.783 -0.376,1.172 -0.304,0.76 -0.72,1.519 -1.402,2.081 -0.336,0.279 -0.75,0.495 -1.204,0.567 -0.072,0.013 -0.147,0.02 -0.219,0.025 0.083,0.543 0.107,1.094 0.113,1.262 0.005,0.085 -0.035,0.167 -0.101,0.218 -0.074,0.051 -0.161,0.062 -0.242,0.035 -0.161,-0.058 -0.674,-0.253 -1.167,-0.497 -0.025,0.064 -0.053,0.126 -0.083,0.184 -0.048,0.099 -0.117,0.207 -0.182,0.299 l -0.092,0.12 c -0.048,0.057 -0.081,0.085 -0.119,0.131 -0.152,0.161 -0.323,0.301 -0.51,0.417 -0.363,0.244 -0.766,0.398 -1.171,0.515 -0.408,0.106 -0.82,0.164 -1.228,0.196 -0.421,0.03 -0.812,0.032 -1.231,0.002 C 10.08,36.214 9.226,36.053 8.482,35.576 8.114,35.339 7.782,35.015 7.573,34.603 7.543,34.54 7.511,34.476 7.488,34.411 7,34.655 6.493,34.849 6.332,34.909 6.254,34.938 6.159,34.925 6.093,34.874 6.023,34.826 5.982,34.743 5.987,34.658 5.991,34.49 6.019,33.965 6.095,33.438 6.026,33.433 5.954,33.424 5.885,33.41 5.429,33.325 5.043,33.115 4.704,32.841 4.364,32.563 4.092,32.231 3.859,31.884 3.634,31.532 3.452,31.158 3.293,30.781 3.132,30.394 3.01,30.019 2.906,29.618 2.704,28.826 2.595,27.97 2.816,27.116 2.844,27.01 2.883,26.906 2.92,26.8 2.966,26.69 3.017,26.582 3.061,26.501 3.166,26.303 3.3,26.114 3.465,25.955 3.521,25.902 3.576,25.854 3.634,25.806 3.242,25.408 2.89,24.97 2.78,24.836 2.729,24.767 2.711,24.677 2.736,24.595 2.763,24.514 2.828,24.452 2.911,24.427 3.072,24.378 3.59,24.238 4.12,24.146 4.106,24.09 4.097,24.037 4.085,23.982 4.066,23.877 4.06,23.747 4.055,23.633 L 4.06,23.485 C 4.062,23.407 4.073,23.367 4.08,23.31 4.103,23.087 4.159,22.87 4.237,22.668 4.389,22.258 4.621,21.894 4.877,21.56 5.142,21.231 5.441,20.941 5.752,20.674 6.072,20.4 6.387,20.165 6.739,19.939 7.428,19.5 8.211,19.127 9.092,19.072 c 0.436,-0.03 0.898,0.034 1.31,0.239 0.072,0.039 0.143,0.076 0.212,0.124 0.253,-0.492 0.56,-0.96 0.654,-1.105 0.048,-0.071 0.131,-0.115 0.216,-0.115 0.086,0 0.166,0.044 0.214,0.115 0.092,0.143 0.39,0.592 0.643,1.071 0.052,-0.03 0.103,-0.062 0.159,-0.09 0.092,-0.05 0.211,-0.094 0.322,-0.136 l 0.14,-0.041 c 0.076,-0.021 0.118,-0.023 0.175,-0.037 0.217,-0.042 0.44,-0.055 0.654,-0.046 0.44,0.018 0.859,0.126 1.252,0.272 0.394,0.149 0.765,0.343 1.115,0.559 0.359,0.219 0.679,0.449 1.001,0.712 0.626,0.524 1.223,1.153 1.55,1.974 0.161,0.406 0.244,0.864 0.17,1.322 -0.009,0.078 -0.028,0.154 -0.046,0.228 0.543,0.09 1.08,0.235 1.243,0.281 0.083,0.021 0.147,0.088 0.175,0.168 0.028,0.081 0.012,0.173 -0.041,0.237 -0.106,0.134 -0.445,0.56 -0.827,0.951"
             style="fill:#fffff5;fill-opacity:1;fill-rule:nonzero;stroke:none"
             id="path9423"
             inkscape:connector-curvature="0" />
        </g>
        <g
           id="g9425"
           transform="translate(357.1852,199.2482)"
           style="fill:#fffff5;fill-opacity:1">
          <path
             d="m 0,0 0.152,-12.258 c 0.003,-0.174 -0.137,-0.317 -0.311,-0.319 -0.174,-0.002 -0.317,0.137 -0.32,0.312 v 0.007 L -0.326,0 c 0.001,0.09 0.075,0.162 0.165,0.161 C -0.072,0.16 -0.001,0.088 0,0"
             style="fill:#fffff5;fill-opacity:1;fill-rule:nonzero;stroke:none"
             id="path9427"
             inkscape:connector-curvature="0" />
        </g>
        <g
           id="g9429"
           transform="translate(361.034,186.8008)"
           style="fill:#fffff5;fill-opacity:1">
          <path
             d="m 0,0 -4.229,12.435 h 0.435 L -8.023,0 c -0.056,-0.164 -0.236,-0.253 -0.401,-0.197 -0.165,0.056 -0.253,0.236 -0.197,0.401 0,0.001 0.001,0.002 0.002,0.003 l 4.39,12.379 c 0.042,0.121 0.174,0.184 0.295,0.141 0.068,-0.024 0.118,-0.078 0.141,-0.141 L 0.597,0.207 C 0.655,0.043 0.569,-0.138 0.404,-0.196 0.24,-0.254 0.06,-0.168 0.001,-0.003 0.001,-0.003 0,-0.001 0,0"
             style="fill:#fffff5;fill-opacity:1;fill-rule:nonzero;stroke:none"
             id="path9431"
             inkscape:connector-curvature="0" />
        </g>
        <g
           id="g9433"
           transform="translate(353.1043,186.5809)"
           style="fill:#fffff5;fill-opacity:1">
          <path
             d="m 0,0 c 0.239,-0.899 1.117,-3.139 3.918,-3.139 2.811,0 3.683,2.241 3.92,3.139 z m 3.918,-3.77 c -3.98,0 -4.616,3.999 -4.622,4.04 -0.013,0.091 0.013,0.182 0.073,0.252 0.06,0.069 0.147,0.109 0.239,0.109 h 8.62 C 8.32,0.631 8.407,0.591 8.467,0.522 8.527,0.452 8.553,0.361 8.54,0.27 8.534,0.229 7.898,-3.77 3.918,-3.77"
             style="fill:#fffff5;fill-opacity:1;fill-rule:nonzero;stroke:none"
             id="path9435"
             inkscape:connector-curvature="0" />
        </g>
        <g
           id="g9437"
           transform="translate(327.2779,199.2482)"
           style="fill:#fffff5;fill-opacity:1">
          <path
             d="m 0,0 0.152,-12.258 c 0.003,-0.174 -0.137,-0.317 -0.311,-0.319 -0.174,-0.002 -0.318,0.137 -0.32,0.312 v 0.007 L -0.326,0 c 0.001,0.09 0.075,0.162 0.165,0.161 C -0.073,0.16 -0.001,0.088 0,0"
             style="fill:#fffff5;fill-opacity:1;fill-rule:nonzero;stroke:none"
             id="path9439"
             inkscape:connector-curvature="0" />
        </g>
        <g
           id="g9441"
           transform="translate(331.1265,186.8008)"
           style="fill:#fffff5;fill-opacity:1">
          <path
             d="m 0,0 -4.23,12.435 h 0.436 L -8.023,0 c -0.057,-0.164 -0.236,-0.253 -0.401,-0.197 -0.165,0.056 -0.253,0.236 -0.197,0.401 0,0.001 0.001,0.002 0.001,0.003 l 4.39,12.379 c 0.043,0.121 0.175,0.184 0.296,0.141 0.068,-0.024 0.118,-0.078 0.14,-0.141 L 0.596,0.207 C 0.655,0.043 0.569,-0.138 0.404,-0.196 0.24,-0.254 0.06,-0.168 0.001,-0.003 0.001,-0.003 0,-0.001 0,0"
             style="fill:#fffff5;fill-opacity:1;fill-rule:nonzero;stroke:none"
             id="path9443"
             inkscape:connector-curvature="0" />
        </g>
        <g
           id="g9445"
           transform="translate(323.1965,186.5809)"
           style="fill:#fffff5;fill-opacity:1">
          <path
             d="m 0,0 c 0.239,-0.899 1.117,-3.139 3.918,-3.139 2.801,0 3.679,2.24 3.919,3.139 z m 3.918,-3.77 c -3.98,0 -4.616,3.999 -4.622,4.04 -0.013,0.091 0.013,0.182 0.074,0.252 0.06,0.069 0.147,0.109 0.238,0.109 h 8.62 C 8.32,0.631 8.407,0.591 8.467,0.522 8.527,0.452 8.553,0.361 8.54,0.27 8.534,0.229 7.898,-3.77 3.918,-3.77"
             style="fill:#fffff5;fill-opacity:1;fill-rule:nonzero;stroke:none"
             id="path9447"
             inkscape:connector-curvature="0" />
        </g>
        <g
           id="g9449"
           transform="translate(329.6313,199.5743)"
           style="fill:#fffff5;fill-opacity:1">
          <path
             d="M 0,0 H 24.874 L 13.429,2.419 H 11.446 Z M 27.391,-0.526 H -2.517 c -0.134,0 -0.247,0.101 -0.261,0.236 -0.014,0.134 0.075,0.257 0.207,0.285 L 11.364,2.94 c 0.018,0.004 0.036,0.006 0.054,0.006 h 2.038 c 0.019,0 0.037,-0.002 0.055,-0.006 l 13.935,-2.945 c 0.131,-0.028 0.221,-0.151 0.207,-0.285 -0.014,-0.135 -0.127,-0.236 -0.262,-0.236"
             style="fill:#fffff5;fill-opacity:1;fill-rule:nonzero;stroke:none"
             id="path9451"
             inkscape:connector-curvature="0" />
        </g>
        <g
           id="g9453"
           transform="translate(342.0687,201.754)"
           style="fill:#fffff5;fill-opacity:1">
          <path
             d="m 0,0 c -0.55,0 -0.997,-0.447 -0.997,-0.997 0,-0.551 0.447,-0.998 0.997,-0.998 0.55,0 0.997,0.447 0.997,0.998 C 0.997,-0.447 0.55,0 0,0 m 0,-2.521 c -0.84,0 -1.523,0.684 -1.523,1.524 0,0.84 0.683,1.523 1.523,1.523 0.84,0 1.523,-0.683 1.523,-1.523 0,-0.84 -0.683,-1.524 -1.523,-1.524"
             style="fill:#fffff5;fill-opacity:1;fill-rule:nonzero;stroke:none"
             id="path9455"
             inkscape:connector-curvature="0" />
        </g>
        <g
           id="g9457"
           transform="translate(342.0687,203.8628)"
           style="fill:#fffff5;fill-opacity:1">
          <path
             d="m 0,0 -0.519,-0.804 0.314,-0.463 c 0.039,-0.053 0.107,-0.118 0.198,-0.118 h 0.001 c 0.076,0 0.154,0.044 0.215,0.123 l 0.309,0.43 0.001,0.028 z m -0.006,-1.807 h -0.005 c -0.206,0.002 -0.395,0.105 -0.533,0.291 l -0.316,0.438 c -0.108,0.15 -0.113,0.348 -0.012,0.503 l 0.695,1.077 c 0.078,0.121 0.276,0.121 0.354,0 L 0.872,-0.575 C 0.973,-0.73 0.968,-0.928 0.86,-1.078 L 0.546,-1.514 C 0.4,-1.702 0.201,-1.807 -0.006,-1.807"
             style="fill:#fffff5;fill-opacity:1;fill-rule:nonzero;stroke:none"
             id="path9459"
             inkscape:connector-curvature="0" />
        </g>
        <g
           id="g9461"
           transform="translate(342.0687,199.1183)"
           style="fill:#fffff5;fill-opacity:1">
          <path
             d="m 0,0 c -0.124,0 -0.237,-0.059 -0.308,-0.16 l -0.56,-0.799 C -0.885,-0.983 -0.893,-1.012 -0.89,-1.042 L 0,-11.313 0.89,-1.047 c 0.002,0.033 -0.006,0.066 -0.025,0.093 L 0.308,-0.16 C 0.237,-0.059 0.124,0 0,0 m 0,-14.622 c -0.137,0 -0.25,0.105 -0.262,0.241 l -1.152,13.294 c -0.014,0.152 0.028,0.305 0.115,0.43 l 0.56,0.799 C -0.57,0.382 -0.294,0.526 0,0.526 0.294,0.526 0.57,0.382 0.739,0.142 L 1.295,-0.653 C 1.385,-0.78 1.427,-0.937 1.414,-1.092 L 0.262,-14.381 C 0.25,-14.517 0.136,-14.622 0,-14.622"
             style="fill:#fffff5;fill-opacity:1;fill-rule:nonzero;stroke:none"
             id="path9463"
             inkscape:connector-curvature="0" />
        </g>
        <g
           id="g9465"
           transform="translate(400.9499,184.7957)"
           style="fill:#fffff5;fill-opacity:1">
          <path
             d="M 0,0 C -0.016,-0.531 -0.09,-1.03 -0.45,-1.455 -0.711,-1.757 -1.201,-2.1 -2.125,-2.1 c -0.212,0 -0.915,0.008 -1.479,0.45 -0.081,0.065 -0.269,0.228 -0.416,0.474 -0.303,0.531 -0.278,1.118 -0.278,2.32 v 2.672 h 0.539 V 0.074 c 0,-0.311 0.024,-0.654 0.171,-0.948 0.148,-0.302 0.393,-0.441 0.499,-0.499 0.302,-0.163 0.621,-0.22 0.956,-0.22 0.147,0 0.866,0 1.275,0.482 0.327,0.392 0.327,0.907 0.327,1.373 V 3.816 H 0.016 V 1.193 C 0.016,0.793 0.016,0.401 0,0"
             style="fill:#fffff5;fill-opacity:1;fill-rule:nonzero;stroke:none"
             id="path9467"
             inkscape:connector-curvature="0" />
        </g>
        <g
           id="g9469"
           transform="translate(407.1834,182.8428)"
           style="fill:#fffff5;fill-opacity:1">
          <path
             d="M 0,0 -3.383,4.985 V 0 h -0.54 v 5.769 h 0.54 L 0.04,0.834 0,5.769 H 0.539 V 0 Z"
             style="fill:#fffff5;fill-opacity:1;fill-rule:nonzero;stroke:none"
             id="path9471"
             inkscape:connector-curvature="0" />
        </g>
        <g
           id="g9473"
           transform="translate(410.0247,182.8428)"
           style="fill:#fffff5;fill-opacity:1">
          <path
             d="M 0,0 V 2.543 5.769 H 0.547 V 2.502 0 Z"
             style="fill:#fffff5;fill-opacity:1;fill-rule:nonzero;stroke:none"
             id="path9475"
             inkscape:connector-curvature="0" />
        </g>
        <g
           id="g9477"
           transform="translate(414.902,182.8428)"
           style="fill:#fffff5;fill-opacity:1">
          <path
             d="m 0,0 h -0.49 l -2.117,5.769 h 0.605 l 1.773,-5.017 1.814,5.017 h 0.581 z"
             style="fill:#fffff5;fill-opacity:1;fill-rule:nonzero;stroke:none"
             id="path9479"
             inkscape:connector-curvature="0" />
        </g>
        <g
           id="g9481"
           transform="translate(418.7901,182.8428)"
           style="fill:#fffff5;fill-opacity:1">
          <path
             d="M 0,0 V 5.769 H 3.767 V 5.27 H 0.548 V 3.212 H 3.465 V 2.705 H 0.548 V 0.507 H 3.971 V 0 Z"
             style="fill:#fffff5;fill-opacity:1;fill-rule:nonzero;stroke:none"
             id="path9483"
             inkscape:connector-curvature="0" />
        </g>
        <g
           id="g9485"
           transform="translate(428.2428,187.6316)"
           style="fill:#fffff5;fill-opacity:1">
          <path
             d="m 0,0 c -0.27,0.449 -0.735,0.49 -1.201,0.49 h -1.782 v -2.247 h 1.357 c 0.147,0 0.302,0 0.458,0.008 0.416,0.016 0.858,0.041 1.135,0.425 0.09,0.123 0.204,0.327 0.204,0.678 C 0.171,-0.54 0.163,-0.262 0,0 m 0.188,-4.789 -1.822,2.558 H -2.983 V -4.789 H -3.538 V 0.98 h 1.626 c 0.318,0 0.645,0.009 0.972,-0.007 0.229,-0.017 1.022,-0.058 1.43,-0.769 0.082,-0.147 0.221,-0.441 0.221,-0.874 0,-0.687 -0.36,-1.226 -1.006,-1.438 -0.162,-0.057 -0.343,-0.098 -0.702,-0.123 l 1.871,-2.558 z"
             style="fill:#fffff5;fill-opacity:1;fill-rule:nonzero;stroke:none"
             id="path9487"
             inkscape:connector-curvature="0" />
        </g>
        <g
           id="g9489"
           transform="translate(434.2884,183.1045)"
           style="fill:#fffff5;fill-opacity:1">
          <path
             d="m 0,0 c -0.27,-0.188 -0.687,-0.409 -1.438,-0.409 -1.104,0 -1.913,0.474 -2.15,1.602 l 0.547,0.286 c 0.017,-0.344 0.058,-0.49 0.131,-0.646 0.164,-0.359 0.597,-0.76 1.472,-0.76 0.114,0 0.367,0 0.653,0.082 0.531,0.163 0.94,0.564 0.94,1.144 0,0.09 -0.008,0.327 -0.155,0.556 -0.197,0.31 -0.523,0.449 -1.193,0.629 -0.417,0.106 -0.875,0.204 -1.267,0.392 -0.262,0.131 -0.834,0.458 -0.834,1.284 0,0.449 0.163,0.71 0.278,0.858 0.507,0.645 1.471,0.637 1.626,0.637 0.63,0 1.234,-0.172 1.651,-0.67 C 0.367,4.854 0.474,4.707 0.596,4.388 L 0.09,4.119 c -0.058,0.179 -0.123,0.343 -0.238,0.498 -0.163,0.237 -0.555,0.588 -1.258,0.588 -0.115,0 -0.727,-0.008 -1.087,-0.368 -0.106,-0.106 -0.27,-0.294 -0.27,-0.661 0,-0.205 0.058,-0.384 0.172,-0.54 C -2.338,3.301 -1.913,3.195 -1.536,3.097 -0.998,2.95 -0.27,2.802 0.171,2.443 0.351,2.296 0.71,1.945 0.71,1.315 0.71,1.013 0.621,0.449 0,0"
             style="fill:#fffff5;fill-opacity:1;fill-rule:nonzero;stroke:none"
             id="path9491"
             inkscape:connector-curvature="0" />
        </g>
        <g
           id="g9493"
           transform="translate(436.8763,182.8428)"
           style="fill:#fffff5;fill-opacity:1">
          <path
             d="M 0,0 V 2.605 5.769 H 0.548 V 2.564 0 Z"
             style="fill:#fffff5;fill-opacity:1;fill-rule:nonzero;stroke:none"
             id="path9495"
             inkscape:connector-curvature="0" />
        </g>
        <g
           id="g9497"
           transform="translate(441.5495,188.1299)"
           style="fill:#fffff5;fill-opacity:1">
          <path
             d="M 0,0 V -5.287 H -0.547 V 0 H -2.362 V 0.482 H 1.822 V 0 Z"
             style="fill:#fffff5;fill-opacity:1;fill-rule:nonzero;stroke:none"
             id="path9499"
             inkscape:connector-curvature="0" />
        </g>
        <g
           id="g9501"
           transform="translate(447.2439,185.2291)"
           style="fill:#fffff5;fill-opacity:1">
          <path
             d="M 0,0 V -2.386 H -0.54 V 0 l -2.149,3.383 h 0.646 l 1.781,-2.868 1.855,2.868 h 0.662 z"
             style="fill:#fffff5;fill-opacity:1;fill-rule:nonzero;stroke:none"
             id="path9503"
             inkscape:connector-curvature="0" />
        </g>
        <g
           id="g9505"
           transform="translate(457.8644,187.6887)"
           style="fill:#fffff5;fill-opacity:1">
          <path
             d="m 0,0 c -0.065,0.074 -0.245,0.278 -0.507,0.417 -0.138,0.073 -0.392,0.179 -0.8,0.179 -1.431,0 -1.921,-1.381 -1.921,-2.557 0,-0.204 0.008,-1.406 0.711,-2.084 0.335,-0.319 0.735,-0.457 1.185,-0.457 0.507,0 0.907,0.147 1.242,0.522 0.645,0.703 0.67,1.847 0.67,2.051 C 0.588,-1.708 0.572,-0.695 0,0 M 0.507,-4.143 C 0.393,-4.29 0.09,-4.65 -0.4,-4.838 c -0.18,-0.065 -0.458,-0.155 -0.907,-0.155 -0.671,0 -1.21,0.188 -1.675,0.67 -0.368,0.384 -0.826,1.12 -0.826,2.378 0,0.311 0.008,1.471 0.768,2.296 0.115,0.123 0.376,0.393 0.793,0.556 0.179,0.073 0.49,0.164 0.94,0.164 0.392,0 1.307,-0.05 1.928,-0.965 0.237,-0.343 0.547,-1.021 0.539,-2.035 0,-0.727 -0.196,-1.609 -0.653,-2.214"
             style="fill:#fffff5;fill-opacity:1;fill-rule:nonzero;stroke:none"
             id="path9507"
             inkscape:connector-curvature="0" />
        </g>
        <g
           id="g9509"
           transform="translate(461.6049,188.1299)"
           style="fill:#fffff5;fill-opacity:1">
          <path
             d="M 0,0 V -1.953 H 2.909 V -2.427 H 0 v -2.86 H -0.531 V 0.482 H 3.245 V 0 Z"
             style="fill:#fffff5;fill-opacity:1;fill-rule:nonzero;stroke:none"
             id="path9511"
             inkscape:connector-curvature="0" />
        </g>
        <g
           id="g9513"
           transform="translate(473.2883,187.6887)"
           style="fill:#fffff5;fill-opacity:1">
          <path
             d="m 0,0 c -0.065,0.074 -0.245,0.278 -0.507,0.417 -0.139,0.073 -0.392,0.179 -0.8,0.179 -1.431,0 -1.921,-1.381 -1.921,-2.557 0,-0.204 0.008,-1.406 0.711,-2.084 0.335,-0.319 0.735,-0.457 1.185,-0.457 0.507,0 0.907,0.147 1.242,0.522 0.646,0.703 0.67,1.847 0.67,2.051 C 0.588,-1.708 0.572,-0.695 0,0 M 0.507,-4.143 C 0.392,-4.29 0.09,-4.65 -0.4,-4.838 c -0.18,-0.065 -0.458,-0.155 -0.907,-0.155 -0.671,0 -1.21,0.188 -1.676,0.67 -0.367,0.384 -0.825,1.12 -0.825,2.378 0,0.311 0.008,1.471 0.768,2.296 0.114,0.123 0.376,0.393 0.793,0.556 0.179,0.073 0.49,0.164 0.94,0.164 0.392,0 1.307,-0.05 1.928,-0.965 0.237,-0.343 0.548,-1.021 0.539,-2.035 0,-0.727 -0.196,-1.609 -0.653,-2.214"
             style="fill:#fffff5;fill-opacity:1;fill-rule:nonzero;stroke:none"
             id="path9515"
             inkscape:connector-curvature="0" />
        </g>
        <g
           id="g9517"
           transform="translate(480.4363,182.8428)"
           style="fill:#fffff5;fill-opacity:1">
          <path
             d="M 0,0 -1.863,2.762 -3.8,0 h -0.63 l 2.191,3.105 -1.888,2.664 h 0.695 L -1.863,3.44 -0.262,5.769 H 0.4 L -1.495,3.105 0.678,0 Z"
             style="fill:#fffff5;fill-opacity:1;fill-rule:nonzero;stroke:none"
             id="path9519"
             inkscape:connector-curvature="0" />
        </g>
        <g
           id="g9521"
           transform="translate(483.4577,188.1299)"
           style="fill:#fffff5;fill-opacity:1">
          <path
             d="M 0,0 V -1.953 H 2.909 V -2.427 H 0 v -2.86 H -0.531 V 0.482 H 3.244 V 0 Z"
             style="fill:#fffff5;fill-opacity:1;fill-rule:nonzero;stroke:none"
             id="path9523"
             inkscape:connector-curvature="0" />
        </g>
        <g
           id="g9525"
           transform="translate(492.0529,187.6887)"
           style="fill:#fffff5;fill-opacity:1">
          <path
             d="m 0,0 c -0.065,0.074 -0.245,0.278 -0.507,0.417 -0.138,0.073 -0.392,0.179 -0.8,0.179 -1.431,0 -1.921,-1.381 -1.921,-2.557 0,-0.204 0.008,-1.406 0.711,-2.084 0.335,-0.319 0.735,-0.457 1.185,-0.457 0.507,0 0.907,0.147 1.242,0.522 0.645,0.703 0.67,1.847 0.67,2.051 C 0.588,-1.708 0.572,-0.695 0,0 M 0.507,-4.143 C 0.393,-4.29 0.09,-4.65 -0.4,-4.838 c -0.18,-0.065 -0.458,-0.155 -0.907,-0.155 -0.671,0 -1.21,0.188 -1.675,0.67 -0.368,0.384 -0.826,1.12 -0.826,2.378 0,0.311 0.008,1.471 0.768,2.296 0.115,0.123 0.376,0.393 0.793,0.556 0.179,0.073 0.49,0.164 0.94,0.164 0.392,0 1.307,-0.05 1.928,-0.965 0.237,-0.343 0.547,-1.021 0.539,-2.035 0,-0.727 -0.196,-1.609 -0.653,-2.214"
             style="fill:#fffff5;fill-opacity:1;fill-rule:nonzero;stroke:none"
             id="path9527"
             inkscape:connector-curvature="0" />
        </g>
        <g
           id="g9529"
           transform="translate(498.8005,187.6316)"
           style="fill:#fffff5;fill-opacity:1">
          <path
             d="m 0,0 c -0.27,0.449 -0.735,0.49 -1.201,0.49 h -1.781 v -2.247 h 1.356 c 0.147,0 0.302,0 0.458,0.008 0.416,0.016 0.858,0.041 1.136,0.425 0.09,0.123 0.204,0.327 0.204,0.678 C 0.172,-0.54 0.163,-0.262 0,0 m 0.188,-4.789 -1.823,2.558 H -2.982 V -4.789 H -3.538 V 0.98 h 1.625 c 0.319,0 0.646,0.009 0.973,-0.007 0.229,-0.017 1.022,-0.058 1.43,-0.769 0.082,-0.147 0.221,-0.441 0.221,-0.874 0,-0.687 -0.36,-1.226 -1.005,-1.438 -0.164,-0.057 -0.343,-0.098 -0.703,-0.123 l 1.871,-2.558 z"
             style="fill:#fffff5;fill-opacity:1;fill-rule:nonzero;stroke:none"
             id="path9531"
             inkscape:connector-curvature="0" />
        </g>
        <g
           id="g9533"
           transform="translate(504.944,187.5662)"
           style="fill:#fffff5;fill-opacity:1">
          <path
             d="m 0,0 c -0.073,0.09 -0.278,0.319 -0.588,0.433 -0.319,0.114 -0.613,0.114 -1.268,0.114 h -1.012 v -4.78 h 0.866 c 0.76,0 1.226,0.033 1.536,0.18 0.319,0.147 0.523,0.44 0.581,0.531 0.195,0.277 0.457,0.833 0.457,1.683 C 0.572,-1.618 0.555,-0.663 0,0 M 0.367,-4.045 C 0.277,-4.143 0.008,-4.421 -0.376,-4.568 -0.76,-4.715 -1.128,-4.723 -1.92,-4.723 h -1.504 v 5.769 h 1.544 c 0.205,0 0.401,0 0.605,-0.008 0.662,-0.025 1.144,-0.115 1.626,-0.629 0.327,-0.344 0.776,-1.063 0.776,-2.232 0,-0.31 -0.032,-1.422 -0.76,-2.222"
             style="fill:#fffff5;fill-opacity:1;fill-rule:nonzero;stroke:none"
             id="path9535"
             inkscape:connector-curvature="0" />
        </g>
        <g
           id="g9537"
           transform="translate(414.2925,249.7737)"
           style="fill:#fffff5;fill-opacity:1">
          <path
             d="m 0,0 v -20.012 h -2.749 l -9.623,15.089 c -0.959,1.534 -1.79,2.941 -2.525,4.348 0.224,-3.996 0.224,-10.678 0.224,-17.87 0.926,-0.064 1.918,-0.256 2.717,-0.48 v -1.087 h -7.512 v 1.087 c 0.83,0.224 1.822,0.416 2.78,0.48 V 0.032 c -0.958,0.064 -1.95,0.224 -2.78,0.448 v 1.087 h 5.53 l 9.526,-14.929 c 0.927,-1.439 1.791,-2.942 2.622,-4.412 -0.224,3.9 -0.224,10.581 -0.224,17.774 -0.959,0.064 -1.918,0.256 -2.717,0.48 V 1.567 H 2.366 V 0.48 C 1.63,0.288 0.831,0.096 0,0"
             style="fill:#fffff5;fill-opacity:1;fill-rule:nonzero;stroke:none"
             id="path9539"
             inkscape:connector-curvature="0" />
        </g>
        <g
           id="g9541"
           transform="translate(430.8214,229.7619)"
           style="fill:#fffff5;fill-opacity:1">
          <path
             d="M 0,0 C 0,1.087 0.096,2.685 0.287,3.676 L 0.223,3.708 c -0.926,-2.429 -2.973,-3.996 -5.786,-3.996 -3.644,0 -4.763,2.27 -4.763,5.115 v 9.431 c -0.767,0.128 -1.854,0.255 -2.781,0.319 v 1.087 c 1.278,0.16 3.261,0.288 4.795,0.224 V 5.562 c 0,-2.653 0.704,-4.219 3.197,-4.219 3.037,0 5.147,2.941 5.147,6.937 v 5.978 c -0.767,0.128 -1.823,0.255 -2.749,0.319 v 1.087 c 1.278,0.16 3.26,0.288 4.763,0.224 V 1.63 C 2.813,1.503 3.868,1.375 4.795,1.31 V 0.224 C 3.516,0.064 1.502,-0.064 0,0"
             style="fill:#fffff5;fill-opacity:1;fill-rule:nonzero;stroke:none"
             id="path9543"
             inkscape:connector-curvature="0" />
        </g>
        <g
           id="g9545"
           transform="translate(447.4776,251.3403)"
           style="fill:#fffff5;fill-opacity:1">
          <path
             d="m 0,0 c -3.197,0 -4.571,-1.534 -4.571,-4.54 v -1.15 h 7.768 v 0.799 c 0,1.311 0.224,2.813 0.991,4.028 C 2.717,-0.224 1.375,0 0,0 m 10.422,-21.578 v 1.087 c 0.831,0.223 1.79,0.383 2.717,0.447 V -7.289 H 5.211 v -12.755 c 0.927,-0.064 1.918,-0.224 2.717,-0.447 v -1.087 H 0.48 v 1.087 c 0.831,0.223 1.79,0.383 2.717,0.447 v 12.755 h -7.768 v -12.755 c 0.926,-0.064 1.886,-0.224 2.717,-0.447 v -1.087 h -7.513 v 1.087 c 0.832,0.223 1.823,0.383 2.782,0.447 v 12.755 h -3.709 v 1.599 h 3.709 v 0.799 c 0,3.197 1.342,6.554 6.649,6.554 2.078,0 3.836,-0.416 5.371,-1.12 1.086,0.8 2.589,1.375 4.955,1.375 1.406,0 2.973,-0.255 4.187,-0.607 L 14.13,-0.383 C 12.915,0 11.38,0.256 10.23,0.256 6.681,0.256 5.211,-1.534 5.211,-4.571 V -5.69 h 9.942 v -14.354 c 0.959,-0.064 1.95,-0.224 2.749,-0.447 v -1.087 z"
             style="fill:#fffff5;fill-opacity:1;fill-rule:nonzero;stroke:none"
             id="path9547"
             inkscape:connector-curvature="0" />
        </g>
        <g
           id="g9549"
           transform="translate(473.2008,244.3713)"
           style="fill:#fffff5;fill-opacity:1">
          <path
             d="M 0,0 C -2.366,0 -4.028,-1.694 -4.475,-4.347 H 4.092 C 4.156,-1.79 2.589,0 0,0 M 6.17,-5.914 H -4.603 c -0.192,-5.147 1.758,-7.257 5.466,-7.257 1.662,0 3.453,0.448 4.603,1.023 l 0.192,-1.79 c -1.438,-0.575 -3.165,-0.927 -5.146,-0.927 -4.732,0 -7.258,2.557 -7.258,8.152 0,4.731 2.558,8.247 6.873,8.247 4.316,0 6.107,-2.973 6.107,-6.393 0,-0.224 0,-0.608 -0.064,-1.055"
             style="fill:#fffff5;fill-opacity:1;fill-rule:nonzero;stroke:none"
             id="path9551"
             inkscape:connector-curvature="0" />
        </g>
        <g
           id="g9553"
           transform="translate(488.9519,230.8489)"
           style="fill:#fffff5;fill-opacity:1">
          <path
             d="M 0,0 V -1.087 H -7.576 V 0 c 0.831,0.223 1.822,0.383 2.781,0.447 v 20.172 c -0.768,0.128 -1.854,0.256 -2.781,0.32 v 1.087 c 1.31,0.16 3.324,0.287 4.795,0.224 V 0.447 C -1.822,0.383 -0.831,0.223 0,0"
             style="fill:#fffff5;fill-opacity:1;fill-rule:nonzero;stroke:none"
             id="path9555"
             inkscape:connector-curvature="0" />
        </g>
        <g
           id="g9557"
           transform="translate(501.4612,243.828)"
           style="fill:#fffff5;fill-opacity:1">
          <path
             d="m 0,0 c -1.151,0.288 -2.269,0.416 -3.324,0.416 -3.485,0 -5.755,-2.079 -5.755,-7.066 0,-3.772 1.279,-6.041 4.06,-6.041 3.421,0 5.019,3.996 5.019,6.841 z m -0.032,-14.066 c 0,1.023 0.096,2.653 0.288,3.644 l -0.064,0.032 c -0.863,-2.397 -2.973,-3.932 -5.53,-3.932 -3.965,0 -5.883,2.845 -5.883,7.481 0,5.754 3.229,8.855 8.088,8.855 0.991,0 1.982,-0.064 3.133,-0.192 L 0,7.64 c -0.767,0.128 -1.854,0.256 -2.781,0.32 v 1.087 c 1.311,0.16 3.325,0.287 4.795,0.223 v -21.706 c 0.767,-0.128 1.854,-0.255 2.781,-0.32 v -1.086 c -1.278,-0.16 -3.292,-0.288 -4.827,-0.224"
             style="fill:#fffff5;fill-opacity:1;fill-rule:nonzero;stroke:none"
             id="path9559"
             inkscape:connector-curvature="0" />
        </g>
        <g
           id="g9561"
           transform="translate(409.6248,216.9567)"
           style="fill:#fffff5;fill-opacity:1">
          <path
             d="m 0,0 c -0.223,1.119 -0.351,2.142 -0.447,3.037 -1.343,0.352 -2.59,0.479 -3.869,0.479 -5.466,0 -7.672,-4.283 -7.672,-9.366 0,-5.786 2.558,-9.111 8.088,-9.111 1.79,0 3.932,0.511 5.371,1.215 l 0.16,-1.855 c -1.694,-0.703 -3.805,-1.182 -6.106,-1.182 -6.394,0 -9.719,3.836 -9.719,10.581 0,6.458 3.005,11.444 10.422,11.444 1.694,0 3.453,-0.255 5.083,-0.639 L 1.311,0 Z"
             style="fill:#fffff5;fill-opacity:1;fill-rule:nonzero;stroke:none"
             id="path9563"
             inkscape:connector-curvature="0" />
        </g>
        <g
           id="g9565"
           transform="translate(420.9349,214.9424)"
           style="fill:#fffff5;fill-opacity:1">
          <path
             d="m 0,0 c -2.621,0 -5.115,-2.014 -5.115,-6.457 0,-4.22 1.854,-6.65 5.147,-6.65 2.621,0 5.051,2.015 5.051,6.681 C 5.083,-2.429 3.356,0 0,0 m -0.32,-14.769 c -4.219,0 -6.905,2.589 -6.905,8.152 0,4.443 2.686,8.247 7.449,8.247 3.708,0 6.937,-2.046 6.937,-7.96 0,-4.635 -2.813,-8.439 -7.481,-8.439"
             style="fill:#fffff5;fill-opacity:1;fill-rule:nonzero;stroke:none"
             id="path9567"
             inkscape:connector-curvature="0" />
        </g>
        <g
           id="g9569"
           transform="translate(436.6909,201.5164)"
           style="fill:#fffff5;fill-opacity:1">
          <path
             d="M 0,0 V -1.087 H -7.576 V 0 c 0.831,0.223 1.822,0.383 2.781,0.447 v 20.172 c -0.767,0.128 -1.854,0.256 -2.781,0.32 v 1.086 c 1.31,0.16 3.324,0.288 4.795,0.224 V 0.447 C -1.822,0.383 -0.831,0.223 0,0"
             style="fill:#fffff5;fill-opacity:1;fill-rule:nonzero;stroke:none"
             id="path9571"
             inkscape:connector-curvature="0" />
        </g>
        <g
           id="g9573"
           transform="translate(445.8857,201.5164)"
           style="fill:#fffff5;fill-opacity:1">
          <path
             d="M 0,0 V -1.087 H -7.576 V 0 c 0.83,0.223 1.822,0.383 2.781,0.447 v 20.172 c -0.768,0.128 -1.854,0.256 -2.781,0.32 v 1.086 c 1.31,0.16 3.324,0.288 4.795,0.224 V 0.447 C -1.822,0.383 -0.831,0.223 0,0"
             style="fill:#fffff5;fill-opacity:1;fill-rule:nonzero;stroke:none"
             id="path9575"
             inkscape:connector-curvature="0" />
        </g>
        <g
           id="g9577"
           transform="translate(453.5513,215.0385)"
           style="fill:#fffff5;fill-opacity:1">
          <path
             d="M 0,0 C -2.366,0 -4.028,-1.694 -4.475,-4.347 H 4.092 C 4.156,-1.79 2.589,0 0,0 M 6.17,-5.914 H -4.603 c -0.192,-5.147 1.758,-7.257 5.466,-7.257 1.662,0 3.453,0.448 4.604,1.023 l 0.191,-1.79 c -1.438,-0.575 -3.165,-0.927 -5.146,-0.927 -4.732,0 -7.258,2.557 -7.258,8.151 0,4.732 2.558,8.248 6.874,8.248 4.315,0 6.106,-2.973 6.106,-6.393 0,-0.224 0,-0.608 -0.064,-1.055"
             style="fill:#fffff5;fill-opacity:1;fill-rule:nonzero;stroke:none"
             id="path9579"
             inkscape:connector-curvature="0" />
        </g>
        <g
           id="g9581"
           transform="translate(469.504,215.0063)"
           style="fill:#fffff5;fill-opacity:1">
          <path
             d="m 0,0 c -2.941,0 -4.667,-1.822 -4.667,-4.315 0,-2.75 1.662,-4.22 4.539,-4.22 2.781,0 4.572,1.502 4.572,4.22 C 4.444,-1.598 2.813,0 0,0 m 1.662,-14.61 h -3.388 -1.151 c -1.471,-0.734 -2.366,-1.95 -2.366,-3.356 0,-2.206 2.11,-3.325 4.892,-3.325 3.676,0 5.85,1.535 5.85,3.932 0,1.695 -1.279,2.749 -3.837,2.749 m -2.365,-8.375 c -3.996,0 -6.586,1.663 -6.586,4.667 0,2.046 1.279,3.517 2.814,4.284 -0.991,0.48 -1.599,1.279 -1.599,2.302 0,1.055 0.608,2.014 1.695,2.557 -1.471,0.895 -2.334,2.558 -2.334,4.636 0,3.325 2.589,6.106 6.841,6.106 0.767,0 1.567,-0.096 2.302,-0.256 H 7.832 V -0.288 H 4.827 C 5.85,-1.055 6.49,-2.429 6.49,-4.092 c 0,-3.325 -2.302,-6.01 -6.906,-6.01 -0.799,0 -1.758,0.096 -2.397,0.32 -0.799,-0.384 -1.183,-0.991 -1.183,-1.598 0,-0.991 0.959,-1.439 2.941,-1.439 h 3.261 c 3.453,0 5.402,-1.695 5.402,-4.284 0,-3.388 -3.548,-5.882 -8.311,-5.882"
             style="fill:#fffff5;fill-opacity:1;fill-rule:nonzero;stroke:none"
             id="path9583"
             inkscape:connector-curvature="0" />
        </g>
        <g
           id="g9585"
           transform="translate(485.3358,215.0385)"
           style="fill:#fffff5;fill-opacity:1">
          <path
             d="M 0,0 C -2.366,0 -4.028,-1.694 -4.476,-4.347 H 4.092 C 4.156,-1.79 2.589,0 0,0 M 6.17,-5.914 H -4.603 c -0.192,-5.147 1.758,-7.257 5.466,-7.257 1.662,0 3.453,0.448 4.603,1.023 l 0.193,-1.79 c -1.439,-0.575 -3.166,-0.927 -5.147,-0.927 -4.732,0 -7.258,2.557 -7.258,8.151 0,4.732 2.558,8.248 6.873,8.248 4.316,0 6.107,-2.973 6.107,-6.393 0,-0.224 0,-0.608 -0.064,-1.055"
             style="fill:#fffff5;fill-opacity:1;fill-rule:nonzero;stroke:none"
             id="path9587"
             inkscape:connector-curvature="0" />
        </g>
      </g>
    </g>
  </g>
</svg>
