<?xml version="1.0" encoding="UTF-8" standalone="no"?>
<!-- Created with Inkscape (http://www.inkscape.org/) -->

<svg
   xmlns:dc="http://purl.org/dc/elements/1.1/"
   xmlns:cc="http://creativecommons.org/ns#"
   xmlns:rdf="http://www.w3.org/1999/02/22-rdf-syntax-ns#"
   xmlns:svg="http://www.w3.org/2000/svg"
   xmlns="http://www.w3.org/2000/svg"
   xmlns:sodipodi="http://sodipodi.sourceforge.net/DTD/sodipodi-0.dtd"
   xmlns:inkscape="http://www.inkscape.org/namespaces/inkscape"
   width="257.82834mm"
   height="258.70853mm"
   viewBox="0 0 257.82834 258.70853"
   version="1.1"
   id="svg8"
   inkscape:version="0.92.3 (2405546, 2018-03-11)"
   sodipodi:docname="squares.svg">
  <defs
     id="defs2">
    <clipPath
       id="clipPath1029"
       clipPathUnits="userSpaceOnUse">
      <path
         inkscape:connector-curvature="0"
         id="path1027"
         d="M 216.141,0 H 841.889 V 595.275 H 216.141 Z" />
    </clipPath>
  </defs>
  <sodipodi:namedview
     id="base"
     pagecolor="#ffffff"
     bordercolor="#666666"
     borderopacity="1.0"
     inkscape:pageopacity="0.0"
     inkscape:pageshadow="2"
     inkscape:zoom="1.4"
     inkscape:cx="442.39272"
     inkscape:cy="417.0113"
     inkscape:document-units="mm"
     inkscape:current-layer="layer1"
     showgrid="false"
     inkscape:window-width="3840"
     inkscape:window-height="1984"
     inkscape:window-x="-16"
     inkscape:window-y="-16"
     inkscape:window-maximized="1" />
  <metadata
     id="metadata5">
    <rdf:RDF>
      <cc:Work
         rdf:about="">
        <dc:format>image/svg+xml</dc:format>
        <dc:type
           rdf:resource="http://purl.org/dc/dcmitype/StillImage" />
        <dc:title></dc:title>
      </cc:Work>
    </rdf:RDF>
  </metadata>
  <g
     inkscape:label="Layer 1"
     inkscape:groupmode="layer"
     id="layer1"
     transform="translate(-509.85826,-432.12524)">
    <path
       d="m 509.96409,432.23107 h 39.25747 v 39.60283 h -39.25747 z m 6.97795,7.03827 h 25.30228 v 25.52665 h -25.30228 z m -6.11435,-6.14398 h 37.55602 v 37.82201 h -37.55602 z m 6.99665,7.03404 h 23.53733 v 23.74653 h -23.53733 z m 31.39757,31.68156 -3.27872,-3.48439 M 513.35041,435.7084 h 32.59278 v 32.64817 h -32.59278 z m -0.69568,-0.69709 h 33.94428 v 34.0427 h -33.94428 z m 0.69568,0.69709 -0.74295,-0.74895 -2.64337,-2.72838 m 3.38632,36.1255 -3.38632,3.47733 m 39.25782,-39.60283 -3.27872,3.47733 m -35.9791,40.30169 h 39.25747 v 39.60283 h -39.25747 z m 6.97795,7.03791 h 25.30228 v 25.52665 h -25.30228 z m -6.11435,-6.14362 h 37.55602 v 37.82201 h -37.55602 z m 6.99665,7.03368 h 23.53733 v 23.74618 h -23.53733 z m 31.39757,31.68191 -3.27872,-3.48438 m -32.59278,-32.64817 h 32.59278 v 32.64817 h -32.59278 z m -0.69568,-0.69744 h 33.94428 v 34.0427 h -33.94428 z m 0.69568,0.69744 -0.74295,-0.74895 -2.64337,-2.72838 m 3.38632,36.12515 -3.38632,3.47733 m 39.25782,-39.60248 -3.27872,3.47733 m -35.9791,40.30133 h 39.25747 v 39.60283 h -39.25747 z m 6.97795,7.03792 h 25.30228 v 25.52664 h -25.30228 z m -6.11435,-6.14363 h 37.55602 v 37.82201 h -37.55602 z m 6.99665,7.03404 h 23.53733 v 23.74653 h -23.53733 z m 31.39757,31.68156 -3.27872,-3.48439 m -32.59278,-32.64817 h 32.59278 v 32.64817 h -32.59278 z m -0.69568,-0.69744 h 33.94428 v 34.0427 h -33.94428 z m 0.69568,0.69744 -0.74295,-0.74895 -2.64337,-2.72838 m 3.38632,36.1255 -3.38632,3.47733 m 39.25782,-39.60283 -3.27872,3.47733 m -35.9791,40.30133 h 39.25747 v 39.60283 h -39.25747 z m 6.97795,7.03792 h 25.30228 v 25.52665 h -25.30228 z m -6.11435,-6.14363 h 37.55602 v 37.82166 h -37.55602 z m 6.99665,7.03404 h 23.53733 v 23.74653 h -23.53733 z m 31.39757,31.68156 -3.27872,-3.48439 m -32.59278,-32.64817 h 32.59278 v 32.64817 h -32.59278 z m -0.69568,-0.69709 h 33.94428 v 34.04271 h -33.94428 z m 0.69568,0.69709 -0.74295,-0.74894 -2.64337,-2.72839 m 3.38632,36.1255 -3.38632,3.47733 m 39.25782,-39.60283 -3.27872,3.47733 m -35.9791,40.30169 h 39.25747 v 39.60248 h -39.25747 z m 6.97795,7.03791 h 25.30228 v 25.52665 h -25.30228 z m -6.11435,-6.14397 h 37.55602 v 37.82201 h -37.55602 z m 6.99665,7.03403 h 23.53733 v 23.74653 h -23.53733 z m 31.39757,31.68192 -3.27872,-3.48439 m -32.59278,-32.64852 h 32.59278 v 32.64817 h -32.59278 z m -0.69568,-0.69709 h 33.94428 v 34.0427 h -33.94428 z m 0.69568,0.69709 -0.74295,-0.74895 -2.64337,-2.72803 m 3.38632,36.12515 -3.38632,3.47733 m 39.25782,-39.60248 -3.27872,3.47698 m -35.9791,40.30168 h 39.25747 v 39.60283 h -39.25747 z m 6.97795,7.03792 h 25.30228 v 25.52664 h -25.30228 z m -6.11435,-6.14363 h 37.55602 v 37.82201 h -37.55602 z m 6.99665,7.03404 h 23.53733 v 23.74618 h -23.53733 z m 31.39757,31.68156 -3.27872,-3.48439 m -32.59278,-32.64817 h 32.59278 v 32.64817 h -32.59278 z m -0.69568,-0.69744 h 33.94428 v 34.0427 h -33.94428 z m 0.69568,0.69744 -0.74295,-0.74895 -2.64337,-2.72838 m 3.38632,36.1255 -3.38632,3.47733 m 39.25782,-39.60283 -3.27872,3.47733 m 7.69268,-222.37135 h 39.25746 v 39.60283 h -39.25746 z m 6.97794,7.03827 h 25.30228 v 25.52665 h -25.30228 z m -6.11434,-6.14398 h 37.55601 v 37.82201 h -37.55601 z m 6.99664,7.03404 h 23.53733 v 23.74653 h -23.53733 z m 31.39757,31.68156 -3.27872,-3.48439 M 557.02218,435.7084 h 32.59278 v 32.64817 h -32.59278 z m -0.69568,-0.69709 h 33.94428 v 34.0427 H 556.3265 Z m 0.69568,0.69709 -0.74295,-0.74895 -2.64336,-2.72838 m 3.38631,36.1255 -3.38631,3.47733 m 39.25781,-39.60283 -3.27872,3.47733 m -35.97909,40.30169 h 39.25746 v 39.60283 h -39.25746 z m 6.97794,7.03791 h 25.30228 v 25.52665 h -25.30228 z m -6.11434,-6.14362 h 37.55601 v 37.82201 h -37.55601 z m 6.99664,7.03368 h 23.53733 v 23.74618 h -23.53733 z m 31.39757,31.68191 -3.27872,-3.48438 m -32.59278,-32.64817 h 32.59278 v 32.64817 h -32.59278 z m -0.69568,-0.69744 h 33.94428 v 34.0427 H 556.3265 Z m 0.69568,0.69744 -0.74295,-0.74895 -2.64336,-2.72838 m 3.38631,36.12515 -3.38631,3.47733 m 39.25781,-39.60248 -3.27872,3.47733 m -35.97909,40.30133 h 39.25746 v 39.60283 h -39.25746 z m 6.97794,7.03792 h 25.30228 v 25.52664 h -25.30228 z m -6.11434,-6.14363 h 37.55601 v 37.82201 h -37.55601 z m 6.99664,7.03404 h 23.53733 v 23.74653 h -23.53733 z m 31.39757,31.68156 -3.27872,-3.48439 m -32.59278,-32.64817 h 32.59278 v 32.64817 h -32.59278 z m -0.69568,-0.69744 h 33.94428 v 34.0427 H 556.3265 Z m 0.69568,0.69744 -0.74295,-0.74895 -2.64336,-2.72838 m 3.38631,36.1255 -3.38631,3.47733 m 39.25781,-39.60283 -3.27872,3.47733 m -35.97909,40.30133 h 39.25746 v 39.60283 h -39.25746 z m 6.97794,7.03792 h 25.30228 v 25.52665 h -25.30228 z m -6.11434,-6.14363 h 37.55601 v 37.82166 h -37.55601 z m 6.99664,7.03404 h 23.53733 v 23.74653 h -23.53733 z m 31.39757,31.68156 -3.27872,-3.48439 m -32.59278,-32.64817 h 32.59278 v 32.64817 h -32.59278 z m -0.69568,-0.69709 h 33.94428 v 34.04271 H 556.3265 Z m 0.69568,0.69709 -0.74295,-0.74894 -2.64336,-2.72839 m 3.38631,36.1255 -3.38631,3.47733 m 39.25781,-39.60283 -3.27872,3.47733 m -35.97909,40.30169 h 39.25746 v 39.60248 h -39.25746 z m 6.97794,7.03791 h 25.30228 v 25.52665 h -25.30228 z m -6.11434,-6.14397 h 37.55601 v 37.82201 h -37.55601 z m 6.99664,7.03403 h 23.53733 v 23.74653 h -23.53733 z m 31.39757,31.68192 -3.27872,-3.48439 m -32.59278,-32.64852 h 32.59278 v 32.64817 h -32.59278 z m -0.69568,-0.69709 h 33.94428 v 34.0427 H 556.3265 Z m 0.69568,0.69709 -0.74295,-0.74895 -2.64336,-2.72803 m 3.38631,36.12515 -3.38631,3.47733 m 39.25781,-39.60248 -3.27872,3.47698 m -35.97909,40.30168 h 39.25746 v 39.60283 h -39.25746 z m 6.97794,7.03792 h 25.30228 v 25.52664 h -25.30228 z m -6.11434,-6.14363 h 37.55601 v 37.82201 h -37.55601 z m 6.99664,7.03404 h 23.53733 v 23.74618 h -23.53733 z m 31.39757,31.68156 -3.27872,-3.48439 m -32.59278,-32.64817 h 32.59278 v 32.64817 h -32.59278 z m -0.69568,-0.69744 h 33.94428 v 34.0427 H 556.3265 Z m 0.69568,0.69744 -0.74295,-0.74895 -2.64336,-2.72838 m 3.38631,36.1255 -3.38631,3.47733 m 39.25781,-39.60283 -3.27872,3.47733 m 7.69268,-222.37135 h 39.25781 v 39.60283 h -39.25781 z m 6.97794,7.03827 h 25.30228 v 25.52665 h -25.30228 z m -6.11399,-6.14398 h 37.55602 v 37.82201 h -37.55602 z m 6.99629,7.03404 h 23.53733 v 23.74653 h -23.53733 z m 31.39757,31.68156 -3.27871,-3.48439 M 600.6943,435.7084 h 32.59279 v 32.64817 H 600.6943 Z m -0.69603,-0.69709 h 33.94463 v 34.0427 h -33.94463 z m 0.69603,0.69709 -0.7433,-0.74895 -2.64336,-2.72838 m 3.38666,36.1255 -3.38666,3.47733 m 39.25781,-39.60283 -3.27871,3.47733 m -35.9791,40.30169 h 39.25781 v 39.60283 h -39.25781 z m 6.97794,7.03791 h 25.30228 v 25.52665 h -25.30228 z m -6.11399,-6.14362 h 37.55602 v 37.82201 h -37.55602 z m 6.99629,7.03368 h 23.53733 v 23.74618 h -23.53733 z m 31.39757,31.68191 -3.27871,-3.48438 M 600.6943,479.48742 h 32.59279 v 32.64817 H 600.6943 Z m -0.69603,-0.69744 h 33.94463 v 34.0427 h -33.94463 z m 0.69603,0.69744 -0.7433,-0.74895 -2.64336,-2.72838 m 3.38666,36.12515 -3.38666,3.47733 m 39.25781,-39.60248 -3.27871,3.47733 m -35.9791,40.30133 h 39.25781 v 39.60283 h -39.25781 z m 6.97794,7.03792 h 25.30228 v 25.52664 h -25.30228 z m -6.11399,-6.14363 h 37.55602 v 37.82201 h -37.55602 z m 6.99629,7.03404 h 23.53733 v 23.74653 h -23.53733 z m 31.39757,31.68156 -3.27871,-3.48439 M 600.6943,523.26608 h 32.59279 v 32.64817 H 600.6943 Z m -0.69603,-0.69744 h 33.94463 v 34.0427 h -33.94463 z m 0.69603,0.69744 -0.7433,-0.74895 -2.64336,-2.72838 m 3.38666,36.1255 -3.38666,3.47733 m 39.25781,-39.60283 -3.27871,3.47733 m -35.9791,40.30133 h 39.25781 v 39.60283 h -39.25781 z m 6.97794,7.03792 h 25.30228 v 25.52665 h -25.30228 z m -6.11399,-6.14363 h 37.55602 v 37.82166 h -37.55602 z m 6.99629,7.03404 h 23.53733 v 23.74653 h -23.53733 z m 31.39757,31.68156 -3.27871,-3.48439 M 600.6943,567.04474 h 32.59279 v 32.64817 H 600.6943 Z m -0.69603,-0.69709 h 33.94463 v 34.04271 h -33.94463 z m 0.69603,0.69709 -0.7433,-0.74894 -2.64336,-2.72839 m 3.38666,36.1255 -3.38666,3.47733 m 39.25781,-39.60283 -3.27871,3.47733 m -35.9791,40.30169 h 39.25781 v 39.60248 h -39.25781 z m 6.97794,7.03791 h 25.30228 v 25.52665 h -25.30228 z m -6.11399,-6.14397 h 37.55602 v 37.82201 h -37.55602 z m 6.99629,7.03403 h 23.53733 v 23.74653 h -23.53733 z m 31.39757,31.68192 -3.27871,-3.48439 M 600.6943,610.82341 h 32.59279 v 32.64817 H 600.6943 Z m -0.69603,-0.69709 h 33.94463 v 34.0427 h -33.94463 z m 0.69603,0.69709 -0.7433,-0.74895 -2.64336,-2.72803 m 3.38666,36.12515 -3.38666,3.47733 m 39.25781,-39.60248 -3.27871,3.47698 m -35.9791,40.30168 h 39.25781 v 39.60283 h -39.25781 z m 6.97794,7.03792 h 25.30228 v 25.52664 h -25.30228 z m -6.11399,-6.14363 h 37.55602 v 37.82201 h -37.55602 z m 6.99629,7.03404 h 23.53733 v 23.74618 h -23.53733 z m 31.39757,31.68156 -3.27871,-3.48439 M 600.6943,654.60242 h 32.59279 v 32.64817 H 600.6943 Z m -0.69603,-0.69744 h 33.94463 v 34.0427 h -33.94463 z m 0.69603,0.69744 -0.7433,-0.74895 -2.64336,-2.72838 m 3.38666,36.1255 -3.38666,3.47733 m 39.25781,-39.60283 -3.27871,3.47733 m 7.69267,-222.37135 h 39.25781 v 39.60283 h -39.25781 z m 6.97794,7.03827 h 25.30228 v 25.52665 h -25.30228 z m -6.11399,-6.14398 h 37.55602 v 37.82201 h -37.55602 z m 6.99629,7.03404 h 23.53698 v 23.74653 h -23.53698 z m 31.39757,31.68156 -3.27871,-3.48439 M 644.36607,435.7084 h 32.59279 v 32.64817 h -32.59279 z m -0.69603,-0.69709 h 33.94428 v 34.0427 h -33.94428 z m 0.69603,0.69709 -0.7433,-0.74895 -2.64336,-2.72838 m 3.38666,36.1255 -3.38666,3.47733 m 39.25781,-39.60283 -3.27871,3.47733 m -35.9791,40.30169 h 39.25781 v 39.60283 h -39.25781 z m 6.97794,7.03791 h 25.30228 v 25.52665 h -25.30228 z m -6.11399,-6.14362 h 37.55602 v 37.82201 h -37.55602 z m 6.99629,7.03368 h 23.53698 v 23.74618 h -23.53698 z m 31.39757,31.68191 -3.27871,-3.48438 m -32.59244,-32.64817 h 32.59279 v 32.64817 h -32.59279 z m -0.69603,-0.69744 h 33.94428 v 34.0427 h -33.94428 z m 0.69603,0.69744 -0.7433,-0.74895 -2.64336,-2.72838 m 3.38666,36.12515 -3.38666,3.47733 m 39.25781,-39.60248 -3.27871,3.47733 m -35.9791,40.30133 h 39.25781 v 39.60283 h -39.25781 z m 6.97794,7.03792 h 25.30228 v 25.52664 h -25.30228 z m -6.11399,-6.14363 h 37.55602 v 37.82201 h -37.55602 z m 6.99629,7.03404 h 23.53698 v 23.74653 h -23.53698 z m 31.39757,31.68156 -3.27871,-3.48439 m -32.59244,-32.64817 h 32.59279 v 32.64817 h -32.59279 z m -0.69603,-0.69744 h 33.94428 v 34.0427 h -33.94428 z m 0.69603,0.69744 -0.7433,-0.74895 -2.64336,-2.72838 m 3.38666,36.1255 -3.38666,3.47733 m 39.25781,-39.60283 -3.27871,3.47733 m -35.9791,40.30133 h 39.25781 v 39.60283 h -39.25781 z m 6.97794,7.03792 h 25.30228 v 25.52665 h -25.30228 z m -6.11399,-6.14363 h 37.55602 v 37.82166 h -37.55602 z m 6.99629,7.03404 h 23.53698 v 23.74653 h -23.53698 z m 31.39757,31.68156 -3.27871,-3.48439 m -32.59244,-32.64817 h 32.59279 v 32.64817 h -32.59279 z m -0.69603,-0.69709 h 33.94428 v 34.04271 h -33.94428 z m 0.69603,0.69709 -0.7433,-0.74894 -2.64336,-2.72839 m 3.38666,36.1255 -3.38666,3.47733 m 39.25781,-39.60283 -3.27871,3.47733 m -35.9791,40.30169 h 39.25781 v 39.60248 h -39.25781 z m 6.97794,7.03791 h 25.30228 v 25.52665 h -25.30228 z m -6.11399,-6.14397 h 37.55602 v 37.82201 h -37.55602 z m 6.99629,7.03403 h 23.53698 v 23.74653 h -23.53698 z m 31.39757,31.68192 -3.27871,-3.48439 m -32.59244,-32.64852 h 32.59279 v 32.64817 h -32.59279 z m -0.69603,-0.69709 h 33.94428 v 34.0427 h -33.94428 z m 0.69603,0.69709 -0.7433,-0.74895 -2.64336,-2.72803 m 3.38666,36.12515 -3.38666,3.47733 m 39.25781,-39.60248 -3.27871,3.47698 m -35.9791,40.30168 h 39.25781 v 39.60283 h -39.25781 z m 6.97794,7.03792 h 25.30228 v 25.52664 h -25.30228 z m -6.11399,-6.14363 h 37.55602 v 37.82201 h -37.55602 z m 6.99629,7.03404 h 23.53698 v 23.74618 h -23.53698 z m 31.39757,31.68156 -3.27871,-3.48439 m -32.59244,-32.64817 h 32.59279 v 32.64817 h -32.59279 z m -0.69603,-0.69744 h 33.94428 v 34.0427 h -33.94428 z m 0.69603,0.69744 -0.7433,-0.74895 -2.64336,-2.72838 m 3.38666,36.1255 -3.38666,3.47733 m 39.25781,-39.60283 -3.27871,3.47733 m 7.69267,-222.37135 h 39.25746 v 39.60283 h -39.25746 z m 6.97794,7.03827 h 25.30228 v 25.52665 h -25.30228 z m -6.11399,-6.14398 h 37.55602 v 37.82201 h -37.55602 z m 6.99629,7.03404 h 23.53733 v 23.74653 h -23.53733 z m 31.39758,31.68156 -3.27872,-3.48439 M 688.03785,435.7084 h 32.59278 v 32.64817 h -32.59278 z m -0.69603,-0.69709 h 33.94427 v 34.0427 h -33.94427 z m 0.69603,0.69709 -0.74331,-0.74895 -2.64336,-2.72838 m 3.38667,36.1255 -3.38667,3.47733 m 39.25782,-39.60283 -3.27872,3.47733 m -35.9791,40.30169 h 39.25746 v 39.60283 h -39.25746 z m 6.97794,7.03791 h 25.30228 v 25.52665 h -25.30228 z m -6.11399,-6.14362 h 37.55602 v 37.82201 h -37.55602 z m 6.99629,7.03368 h 23.53733 v 23.74618 h -23.53733 z m 31.39758,31.68191 -3.27872,-3.48438 m -32.59243,-32.64817 h 32.59278 v 32.64817 h -32.59278 z m -0.69603,-0.69744 h 33.94427 v 34.0427 h -33.94427 z m 0.69603,0.69744 -0.74331,-0.74895 -2.64336,-2.72838 m 3.38667,36.12515 -3.38667,3.47733 m 39.25782,-39.60248 -3.27872,3.47733 m -35.9791,40.30133 h 39.25746 v 39.60283 h -39.25746 z m 6.97794,7.03792 h 25.30228 v 25.52664 h -25.30228 z m -6.11399,-6.14363 h 37.55602 v 37.82201 h -37.55602 z m 6.99629,7.03404 h 23.53733 v 23.74653 h -23.53733 z m 31.39758,31.68156 -3.27872,-3.48439 m -32.59243,-32.64817 h 32.59278 v 32.64817 h -32.59278 z m -0.69603,-0.69744 h 33.94427 v 34.0427 h -33.94427 z m 0.69603,0.69744 -0.74331,-0.74895 -2.64336,-2.72838 m 3.38667,36.1255 -3.38667,3.47733 m 39.25782,-39.60283 -3.27872,3.47733 m -35.9791,40.30133 h 39.25746 v 39.60283 h -39.25746 z m 6.97794,7.03792 h 25.30228 v 25.52665 h -25.30228 z m -6.11399,-6.14363 h 37.55602 v 37.82166 h -37.55602 z m 6.99629,7.03404 h 23.53733 v 23.74653 h -23.53733 z m 31.39758,31.68156 -3.27872,-3.48439 m -32.59243,-32.64817 h 32.59278 v 32.64817 h -32.59278 z m -0.69603,-0.69709 h 33.94427 v 34.04271 h -33.94427 z m 0.69603,0.69709 -0.74331,-0.74894 -2.64336,-2.72839 m 3.38667,36.1255 -3.38667,3.47733 m 39.25782,-39.60283 -3.27872,3.47733 m -35.9791,40.30169 h 39.25746 v 39.60248 h -39.25746 z m 6.97794,7.03791 h 25.30228 v 25.52665 h -25.30228 z m -6.11399,-6.14397 h 37.55602 v 37.82201 h -37.55602 z m 6.99629,7.03403 h 23.53733 v 23.74653 h -23.53733 z m 31.39758,31.68192 -3.27872,-3.48439 m -32.59243,-32.64852 h 32.59278 v 32.64817 h -32.59278 z m -0.69603,-0.69709 h 33.94427 v 34.0427 h -33.94427 z m 0.69603,0.69709 -0.74331,-0.74895 -2.64336,-2.72803 m 3.38667,36.12515 -3.38667,3.47733 m 39.25782,-39.60248 -3.27872,3.47698 m -35.9791,40.30168 h 39.25746 v 39.60283 h -39.25746 z m 6.97794,7.03792 h 25.30228 v 25.52664 h -25.30228 z m -6.11399,-6.14363 h 37.55602 v 37.82201 h -37.55602 z m 6.99629,7.03404 h 23.53733 v 23.74618 h -23.53733 z m 31.39758,31.68156 -3.27872,-3.48439 m -32.59243,-32.64817 h 32.59278 v 32.64817 h -32.59278 z m -0.69603,-0.69744 h 33.94427 v 34.0427 h -33.94427 z m 0.69603,0.69744 -0.74331,-0.74895 -2.64336,-2.72838 m 3.38667,36.1255 -3.38667,3.47733 m 39.25782,-39.60283 -3.27872,3.47733 m 7.69267,-222.37135 h 39.25782 v 39.60283 h -39.25782 z m 6.97794,7.03827 h 25.30228 v 25.52665 h -25.30228 z m -6.11399,-6.14398 h 37.55602 v 37.82201 H 729.1869 Z m 6.99629,7.03404 h 23.53698 v 23.74653 h -23.53698 z m 31.39758,31.68156 -3.27837,-3.48439 M 731.70962,435.7084 h 32.59278 v 32.64817 h -32.59278 z m -0.69603,-0.69709 h 33.94427 v 34.0427 h -33.94427 z m 0.69603,0.69709 -0.74331,-0.74895 -2.64336,-2.72838 m 3.38667,36.1255 -3.38667,3.47733 m 39.25782,-39.60283 -3.27837,3.47733 m -35.97945,40.30169 h 39.25782 v 39.60283 h -39.25782 z m 6.97794,7.03791 h 25.30228 v 25.52665 h -25.30228 z m -6.11399,-6.14362 h 37.55602 v 37.82201 H 729.1869 Z m 6.99629,7.03368 h 23.53698 v 23.74618 h -23.53698 z m 31.39758,31.68191 -3.27837,-3.48438 m -32.59278,-32.64817 h 32.59278 v 32.64817 h -32.59278 z m -0.69603,-0.69744 h 33.94427 v 34.0427 h -33.94427 z m 0.69603,0.69744 -0.74331,-0.74895 -2.64336,-2.72838 m 3.38667,36.12515 -3.38667,3.47733 m 39.25782,-39.60248 -3.27837,3.47733 m -35.97945,40.30133 h 39.25782 v 39.60283 h -39.25782 z m 6.97794,7.03792 h 25.30228 v 25.52664 h -25.30228 z m -6.11399,-6.14363 h 37.55602 v 37.82201 H 729.1869 Z m 6.99629,7.03404 h 23.53698 v 23.74653 h -23.53698 z m 31.39758,31.68156 -3.27837,-3.48439 m -32.59278,-32.64817 h 32.59278 v 32.64817 h -32.59278 z m -0.69603,-0.69744 h 33.94427 v 34.0427 h -33.94427 z m 0.69603,0.69744 -0.74331,-0.74895 -2.64336,-2.72838 m 3.38667,36.1255 -3.38667,3.47733 m 39.25782,-39.60283 -3.27837,3.47733 m -35.97945,40.30133 h 39.25782 v 39.60283 h -39.25782 z m 6.97794,7.03792 h 25.30228 v 25.52665 h -25.30228 z"
       style="fill:none;stroke:#002f87;stroke-width:0.21166667;stroke-linecap:butt;stroke-linejoin:miter;stroke-miterlimit:10;stroke-dasharray:none;stroke-opacity:1"
       id="path1031"
       inkscape:connector-curvature="0" />
    <path
       d="m 729.1869,564.4617 h 37.55602 v 37.82166 H 729.1869 Z m 6.99629,7.03404 h 23.53698 v 23.74653 h -23.53698 z m 31.39758,31.68156 -3.27837,-3.48439 m -32.59278,-32.64817 h 32.59278 v 32.64817 h -32.59278 z m -0.69603,-0.69709 h 33.94427 v 34.04271 h -33.94427 z m 0.69603,0.69709 -0.74331,-0.74894 -2.64336,-2.72839 m 3.38667,36.1255 -3.38667,3.47733 m 39.25782,-39.60283 -3.27837,3.47733 m -35.97945,40.30169 h 39.25782 v 39.60248 h -39.25782 z m 6.97794,7.03791 h 25.30228 v 25.52665 h -25.30228 z m -6.11399,-6.14397 h 37.55602 v 37.82201 H 729.1869 Z m 6.99629,7.03403 h 23.53698 v 23.74653 h -23.53698 z m 31.39758,31.68192 -3.27837,-3.48439 m -32.59278,-32.64852 h 32.59278 v 32.64817 h -32.59278 z m -0.69603,-0.69709 h 33.94427 v 34.0427 h -33.94427 z m 0.69603,0.69709 -0.74331,-0.74895 -2.64336,-2.72803 m 3.38667,36.12515 -3.38667,3.47733 m 39.25782,-39.60248 -3.27837,3.47698 m -35.97945,40.30168 h 39.25782 v 39.60283 h -39.25782 z m 6.97794,7.03792 h 25.30228 v 25.52664 h -25.30228 z m -6.11399,-6.14363 h 37.55602 v 37.82201 H 729.1869 Z m 6.99629,7.03404 h 23.53698 v 23.74618 h -23.53698 z m 31.39758,31.68156 -3.27837,-3.48439 m -32.59278,-32.64817 h 32.59278 v 32.64817 h -32.59278 z m -0.69603,-0.69744 h 33.94427 v 34.0427 h -33.94427 z m 0.69603,0.69744 -0.74331,-0.74895 -2.64336,-2.72838 m 3.38667,36.1255 -3.38667,3.47733 m 39.25782,-39.60283 -3.27837,3.47733"
       style="fill:none;stroke:#002f87;stroke-width:0.21166667;stroke-linecap:butt;stroke-linejoin:miter;stroke-miterlimit:10;stroke-dasharray:none;stroke-opacity:1"
       id="path1033"
       inkscape:connector-curvature="0" />
  </g>
</svg>
